<svg width="396" height="338" viewBox="0 0 396 338" fill="none" xmlns="http://www.w3.org/2000/svg">
<path d="M396 147.161L330 109L0 299.839L66 338L396 147.161Z" fill="url(#paint0_linear)" fill-opacity="0.4"/>
<path d="M241.068 226.763L190.418 256.007L215.743 182.9L241.068 226.763Z" fill="#B9C7D4"/>
<path d="M215.743 182.9L190.418 256.007L139.768 226.763L165.093 153.656L215.743 182.9Z" fill="#96A6BB"/>
<path d="M330.9 87.9207L280.25 58.683L26.9999 204.897L77.65 234.135L330.9 87.9207Z" fill="#DAE3EB"/>
<path d="M330.9 87.9209V117.165L77.65 263.379V234.135L330.9 87.9209Z" fill="#B9C8D5"/>
<path d="M77.6499 234.135V263.379L26.9998 234.135V204.897L77.6499 234.135Z" fill="#8DA3B7"/>
<path d="M280.25 117.165L229.6 87.9208L216.938 95.2334L267.588 124.477L280.25 117.165Z" fill="#7895BC"/>
<path d="M330.9 29.4389L280.25 0.194824L229.6 29.4389L280.25 58.683L330.9 29.4389Z" fill="#4293FF"/>
<path d="M330.9 29.439V87.9208L280.25 117.165V58.6831L330.9 29.439Z" fill="#2479EA"/>
<path d="M280.25 58.6831V117.165L229.6 87.9208V29.439L280.25 58.6831Z" fill="#0358C9"/>
<path d="M128.3 146.409L77.65 117.165L26.9999 146.409L77.65 175.653L128.3 146.409Z" fill="#B9C7D4"/>
<path d="M128.3 146.409V204.897L77.65 234.135V175.653L128.3 146.409Z" fill="#8AA6BF"/>
<path d="M77.6499 175.653V234.135L26.9998 204.897V146.409L77.6499 175.653Z" fill="#7791B5"/>
<defs>
<linearGradient id="paint0_linear" x1="354" y1="125.5" x2="64.5" y2="326.5" gradientUnits="userSpaceOnUse">
<stop stop-color="#DAE3EB" stop-opacity="0"/>
<stop offset="0.466961" stop-color="#DAE3EB"/>
<stop offset="1" stop-color="#DAE3EB" stop-opacity="0"/>
</linearGradient>
</defs>
</svg>
