<svg width="48" height="41" viewBox="0 0 48 41" fill="none" xmlns="http://www.w3.org/2000/svg">
<g clip-path="url(#clip0)">
<path d="M15.0253 34.705V35.5522C15.0253 38.5762 17.4768 41.0277 20.5008 41.0277C23.5248 41.0277 25.9762 38.5762 25.9762 35.5522V15.375C25.9762 14.4315 25.2114 13.6666 24.2679 13.6666C23.3244 13.6666 22.5596 14.4315 22.5596 15.375V35.5522C22.5596 36.6892 21.6378 37.611 20.5008 37.611C19.3637 37.611 18.442 36.6892 18.442 35.5522V34.705C18.442 33.7615 17.6771 32.9967 16.7337 32.9967C15.7902 32.9967 15.0253 33.7615 15.0253 34.705Z" fill="url(#paint0_linear)"/>
<path d="M1.07777 19.8565C3.01664 9.04736 12.4605 1.06769 23.567 1.06769C34.6735 1.06769 44.1173 9.04736 46.0562 19.8565L46.288 21.1488L45.1267 20.5363C43.7586 19.8146 42.2327 19.4323 40.6503 19.4323C37.3924 19.4323 34.4128 21.0653 32.6421 23.7284L32.1086 24.5308L31.5752 23.7284C29.8045 21.0653 26.8249 19.4323 23.567 19.4323C20.3091 19.4323 17.3295 21.0653 15.5588 23.7284L15.0253 24.5308L14.4918 23.7284C12.7211 21.0653 9.74156 19.4323 6.48364 19.4323C4.90124 19.4323 3.37531 19.8146 2.00721 20.5363L0.845978 21.1488L1.07777 19.8565Z" fill="url(#paint1_linear)" stroke="url(#paint2_linear)" stroke-width="1.5" stroke-linejoin="round"/>
<path d="M23.9143 1.71097C23.9151 1.71009 23.9159 1.7092 23.9167 1.70831C23.9175 1.70923 23.9184 1.71014 23.9192 1.71105C34.68 1.87837 43.5834 9.69911 45.4256 19.9696C43.9996 19.2174 42.3747 18.7916 40.6503 18.7916C37.4126 18.7916 34.5254 20.2929 32.647 22.6372C32.592 23.0553 32.5291 23.4818 32.4584 23.9166C29.9501 20.6632 27.1028 19.0365 23.9167 19.0365C20.7305 19.0365 17.8833 20.6632 15.375 23.9166C15.3424 23.6065 15.3128 23.3007 15.2864 22.9994C15.1967 23.1221 15.1096 23.247 15.0253 23.3737C13.189 20.6119 10.0489 18.7916 6.48365 18.7916C4.7593 18.7916 3.13439 19.2174 1.70834 19.9696C3.57065 9.58726 12.6487 1.70831 23.567 1.70831C23.683 1.70831 23.7987 1.7092 23.9143 1.71097ZM23.9143 1.71097C19.7676 6.25054 17.1788 9.86056 16.1479 12.541C15.182 15.0524 14.8948 18.5385 15.2864 22.9994C17.1509 20.4486 20.1654 18.7916 23.567 18.7916C27.1322 18.7916 30.2723 20.6119 32.1087 23.3737C32.2773 23.1201 32.457 22.8743 32.647 22.6372C33.1825 18.5674 32.9733 15.2925 32.0195 12.8125C30.9678 10.0782 28.2678 6.37774 23.9192 1.71105C23.9176 1.71102 23.9159 1.711 23.9143 1.71097Z" fill="url(#paint3_linear)"/>
<path d="M32.9628 23.3738C33.3474 18.8855 32.8192 14.9102 31.3781 11.4479C29.937 7.98568 27.3333 4.73914 23.567 1.70831" stroke="url(#paint4_linear)" stroke-width="1.5" stroke-linecap="round" stroke-linejoin="round"/>
<path d="M15.1469 23.3738C14.7622 18.8855 15.2905 14.9102 16.7316 11.4479C18.1726 7.98568 20.7764 4.73914 24.5427 1.70831" stroke="url(#paint5_linear)" stroke-width="1.5" stroke-linecap="round" stroke-linejoin="round"/>
</g>
<defs>
<linearGradient id="paint0_linear" x1="19.6237" y1="16.578" x2="28.5038" y2="38.0219" gradientUnits="userSpaceOnUse">
<stop/>
<stop offset="1" stop-color="#0055C6"/>
</linearGradient>
<linearGradient id="paint1_linear" x1="23.567" y1="1.06769" x2="23.567" y2="24.5308" gradientUnits="userSpaceOnUse">
<stop stop-color="#F8FBFF"/>
<stop offset="1" stop-color="#205193"/>
</linearGradient>
<linearGradient id="paint2_linear" x1="-2.7888" y1="5.69594" x2="29.3913" y2="32.0975" gradientUnits="userSpaceOnUse">
<stop/>
<stop offset="1" stop-color="#0055C6"/>
</linearGradient>
<linearGradient id="paint3_linear" x1="44.1449" y1="22.1887" x2="44.1449" y2="7.74795" gradientUnits="userSpaceOnUse">
<stop stop-color="#003479"/>
<stop offset="1" stop-color="#006DFF"/>
</linearGradient>
<linearGradient id="paint4_linear" x1="22.4814" y1="53.1119" x2="46.2722" y2="4.03662" gradientUnits="userSpaceOnUse">
<stop/>
<stop offset="1" stop-color="#0055C6"/>
</linearGradient>
<linearGradient id="paint5_linear" x1="25.6282" y1="53.1119" x2="1.83752" y2="4.03661" gradientUnits="userSpaceOnUse">
<stop/>
<stop offset="1" stop-color="#0055C6"/>
</linearGradient>
<clipPath id="clip0">
<rect width="47.8333" height="41" fill="white"/>
</clipPath>
</defs>
</svg>
