<svg width="304" height="264" viewBox="0 0 304 264" fill="none" xmlns="http://www.w3.org/2000/svg">
<path d="M214.068 226.763L163.418 256.007L188.743 182.9L214.068 226.763Z" fill="#B9C7D4"/>
<path d="M188.743 182.9L163.418 256.007L112.768 226.763L138.093 153.656L188.743 182.9Z" fill="#96A6BB"/>
<path d="M303.9 87.9207L253.25 58.683L-0.00012207 204.897L50.65 234.135L303.9 87.9207Z" fill="#DAE3EB"/>
<path d="M303.9 87.9209V117.165L50.65 263.379V234.135L303.9 87.9209Z" fill="#B9C8D5"/>
<path d="M50.6499 234.135V263.379L-0.000179291 234.135V204.897L50.6499 234.135Z" fill="#8DA3B7"/>
<path d="M253.25 117.165L202.6 87.9208L189.938 95.2334L240.588 124.477L253.25 117.165Z" fill="#7895BC"/>
<path d="M303.9 29.4389L253.25 0.194824L202.6 29.4389L253.25 58.683L303.9 29.4389Z" fill="#4293FF"/>
<path d="M303.9 29.439V87.9208L253.25 117.165V58.6831L303.9 29.439Z" fill="#2479EA"/>
<path d="M253.25 58.6831V117.165L202.6 87.9208V29.439L253.25 58.6831Z" fill="#0358C9"/>
<path d="M101.3 146.409L50.65 117.165L-0.000114441 146.409L50.65 175.653L101.3 146.409Z" fill="#B9C7D4"/>
<path d="M101.3 146.409V204.897L50.65 234.135V175.653L101.3 146.409Z" fill="#8AA6BF"/>
<path d="M50.6499 175.653V234.135L-0.000179291 204.897V146.409L50.6499 175.653Z" fill="#7791B5"/>
</svg>
