<svg width="50" height="50" viewBox="0 0 50 50" fill="none" xmlns="http://www.w3.org/2000/svg">
<circle cx="25" cy="25" r="24" stroke="#2582FF" stroke-width="2"/>
<path d="M19.767 20.824H22.431C22.599 19.6 23.487 18.448 25.407 18.448C27.279 18.448 28.263 19.456 28.263 20.968C28.263 22.84 26.751 23.56 24.279 23.584H23.631V25.84H24.255C27.111 25.84 28.599 26.632 28.599 28.936C28.599 30.568 27.591 31.816 25.551 31.816C23.487 31.816 22.287 30.568 22.167 28.936H19.527C19.695 32.368 22.263 34.096 25.575 34.096C29.223 34.096 31.191 31.984 31.191 29.2C31.191 26.776 30.015 25.264 28.191 24.712V24.616C29.559 24.16 30.879 22.744 30.879 20.656C30.879 18.112 28.983 16.096 25.503 16.096C22.311 16.096 19.959 17.8 19.767 20.824Z" fill="#2582FF"/>
</svg>
