<?xml version="1.0" encoding="UTF-8" standalone="no"?>
<svg width="24px" height="20px" viewBox="0 0 24 20" version="1.1" xmlns="http://www.w3.org/2000/svg" xmlns:xlink="http://www.w3.org/1999/xlink" xmlns:sketch="http://www.bohemiancoding.com/sketch/ns">
    <!-- Generator: Sketch 3.4.2 (15855) - http://www.bohemiancoding.com/sketch -->
    <title>icon-safe</title>
    <desc>Created with Sketch.</desc>
    <defs></defs>
    <g id="Page-1" stroke="none" stroke-width="1" fill="none" fill-rule="evenodd" sketch:type="MSPage">
        <g id="icon-safe" sketch:type="MSLayerGroup" transform="translate(0.000000, 1.000000)">
            <g id="Page-1" sketch:type="MSShapeGroup">
                <g id="Group">
                    <path d="M18.1953,13.3916 C18.1953,13.3916 22.5003,12.8316 22.5003,8.6096 C22.5003,5.9336 20.2923,3.7336 17.5463,3.8336 C16.4723,1.5706 14.1733,-0.0004 11.5003,-0.0004 C7.9383,-0.0004 5.0333,2.7836 4.8253,6.2936 C2.5923,5.8276 0.5003,7.5276 0.5003,9.8056 C0.5003,12.7966 3.0793,13.2926 4.0023,13.3756" id="Stroke-469" stroke="#2684FF"></path>
                    <path d="M15.5,18.5 L7.5,18.5 L7.5,12.5 L15.5,12.5 L15.5,18.5 L15.5,18.5 Z" id="Stroke-470" stroke="#1A5BB0"></path>
                    <path d="M11.5,16.5005 L11.5,15.5005" id="Stroke-471" stroke="#1A5BB0"></path>
                    <path d="M8.5,12.5 L8.5,11.5 C8.5,9.843 9.843,8.5 11.5,8.5 C13.156,8.5 14.5,9.843 14.5,11.5 L14.5,12.5" id="Stroke-472" stroke="#1A5BB0"></path>
                    <path d="M12,15 C12,15.276 11.776,15.5 11.5,15.5 C11.224,15.5 11,15.276 11,15 C11,14.724 11.224,14.5 11.5,14.5 C11.776,14.5 12,14.724 12,15 L12,15 L12,15 Z" id="Stroke-473" stroke="#1A5BB0"></path>
                </g>
            </g>
        </g>
    </g>
</svg>