<?xml version="1.0" encoding="UTF-8" standalone="no"?>
<svg width="24px" height="24px" viewBox="0 0 24 24" version="1.1" xmlns="http://www.w3.org/2000/svg" xmlns:xlink="http://www.w3.org/1999/xlink">
    <!-- Generator: Sketch 40 (33762) - http://www.bohemiancoding.com/sketch -->
    <title>Stroke 122 + Stroke 123 + Stroke 124</title>
    <desc>Created with Sketch.</desc>
    <defs></defs>
    <g id="Page-1" stroke="none" stroke-width="1" fill="none" fill-rule="evenodd" stroke-linejoin="round">
        <g id="Stroke-122-+-Stroke-123-+-Stroke-124" transform="translate(0.000000, 1.000000)">
            <path d="M23.5,9.7588 C23.5,14.9398 18.352,19.1398 12,19.1398 C10.582,19.1398 9.225,18.9318 7.971,18.5488 L1.362,21.6248 L3.95,16.4588 C1.82,14.7558 0.5,12.3838 0.5,9.7588 C0.5,4.5758 5.648,0.3758 12,0.3758 C18.352,0.3758 23.5,4.5758 23.5,9.7588 L23.5,9.7588 Z" id="Stroke-122" stroke="#1A5BB0"></path>
            <path d="M9.5,8 C9.5,6.343 10.843,4.938 12.5,4.938 C14.156,4.938 15.5,6.25 15.5,7.907 C15.5,9.564 14.156,10.876 12.5,10.876 L12.5,12.125" id="Stroke-123" stroke="#2684FF" stroke-linecap="round"></path>
            <path d="M13,14.376 C13,14.652 12.776,14.876 12.5,14.876 C12.224,14.876 12,14.652 12,14.376 C12,14.1 12.224,13.876 12.5,13.876 C12.776,13.876 13,14.1 13,14.376 L13,14.376 Z" id="Stroke-124" stroke="#2684FF"></path>
        </g>
    </g>
</svg>