<?xml version="1.0" encoding="UTF-8" standalone="no"?>
<svg width="24px" height="20px" viewBox="0 0 24 20" version="1.1" xmlns="http://www.w3.org/2000/svg" xmlns:xlink="http://www.w3.org/1999/xlink" xmlns:sketch="http://www.bohemiancoding.com/sketch/ns">
    <!-- Generator: Sketch 3.4.2 (15855) - http://www.bohemiancoding.com/sketch -->
    <title>Stroke 517 + Stroke 518 + Stroke 519</title>
    <desc>Created with Sketch.</desc>
    <defs></defs>
    <g id="Page-1" stroke="none" stroke-width="1" fill="none" fill-rule="evenodd" sketch:type="MSPage">
        <g id="Stroke-517-+-Stroke-518-+-Stroke-519" sketch:type="MSLayerGroup" transform="translate(0.000000, 0.458333)" stroke-linejoin="round">
            <path d="M18.1953,13.7197 C18.1953,13.7197 22.5003,13.2587 22.5003,9.0347 C22.5003,6.3597 20.2913,4.2087 17.5453,4.3097 C16.4713,2.0457 14.1723,0.4997 11.5003,0.4997 C7.9363,0.4997 5.0323,3.2957 4.8243,6.8077 C2.5923,6.3407 0.5003,7.9477 0.5003,10.2257 C0.5003,12.6377 2.1773,13.3877 3.3103,13.6187" id="Stroke-517" stroke="#2684FF" stroke-linecap="round" sketch:type="MSShapeGroup"></path>
            <path d="M16,13.5 C16,16.262 13.761,18.5 11,18.5 C8.238,18.5 6,16.262 6,13.5 C6,10.739 8.238,8.5 11,8.5 C13.761,8.5 16,10.739 16,13.5 L16,13.5 Z" id="Stroke-518" stroke="#1A5BB0" sketch:type="MSShapeGroup"></path>
            <path d="M13,14.5 L10.5,14.5 L10.5,11" id="Stroke-519" stroke="#1A5BB0" stroke-linecap="round" sketch:type="MSShapeGroup"></path>
        </g>
    </g>
</svg>