<?xml version="1.0" encoding="UTF-8" standalone="no"?>
<svg width="24px" height="19px" viewBox="0 0 24 19" version="1.1" xmlns="http://www.w3.org/2000/svg" xmlns:xlink="http://www.w3.org/1999/xlink" xmlns:sketch="http://www.bohemiancoding.com/sketch/ns">
    <!-- Generator: Sketch 3.4.2 (15855) - http://www.bohemiancoding.com/sketch -->
    <title>icon-web</title>
    <desc>Created with Sketch.</desc>
    <defs></defs>
    <g id="Page-1" stroke="none" stroke-width="1" fill="none" fill-rule="evenodd" sketch:type="MSPage">
        <g id="icon-web" sketch:type="MSLayerGroup">
            <g id="Page-1" sketch:type="MSShapeGroup">
                <g id="Group">
                    <path d="M23.5,16.5 C23.5,17.604 22.605,18.5 21.5,18.5 L2.5,18.5 C1.396,18.5 0.5,17.604 0.5,16.5 L0.5,2.5 C0.5,1.396 1.396,0.5 2.5,0.5 L21.5,0.5 C22.605,0.5 23.5,1.396 23.5,2.5 L23.5,16.5 L23.5,16.5 L23.5,16.5 Z" id="Stroke-383" stroke="#2684FF"></path>
                    <path d="M0.5,5.5 L23.5,5.5" id="Stroke-384" stroke="#2684FF"></path>
                    <path d="M4.5,3 C4.5,3.276 4.276,3.5 4,3.5 C3.724,3.5 3.5,3.276 3.5,3 C3.5,2.724 3.724,2.5 4,2.5 C4.276,2.5 4.5,2.724 4.5,3 L4.5,3 L4.5,3 Z" id="Stroke-385" stroke="#2684FF"></path>
                    <path d="M7.5,3 C7.5,3.276 7.276,3.5 7,3.5 C6.724,3.5 6.5,3.276 6.5,3 C6.5,2.724 6.724,2.5 7,2.5 C7.276,2.5 7.5,2.724 7.5,3 L7.5,3 L7.5,3 Z" id="Stroke-386" stroke="#2684FF"></path>
                    <path d="M10.5,3 C10.5,3.276 10.276,3.5 10,3.5 C9.724,3.5 9.5,3.276 9.5,3 C9.5,2.724 9.724,2.5 10,2.5 C10.276,2.5 10.5,2.724 10.5,3 L10.5,3 L10.5,3 Z" id="Stroke-387" stroke="#2684FF"></path>
                    <path d="M18.5,12.7686 C18.5,11.2416 17.194,9.9856 15.572,10.0416 C14.937,8.7486 13.578,7.8526 12,7.8526 C9.895,7.8526 8.178,9.4426 8.056,11.4476 C6.736,11.1806 5.5,12.1516 5.5,13.4526 C5.5,15.5326 7.761,15.4996 7.761,15.4996 L15.956,15.4996 C15.956,15.4996 18.5,15.1796 18.5,12.7686 L18.5,12.7686 L18.5,12.7686 Z" id="Stroke-388" stroke="#1A5BB0"></path>
                </g>
            </g>
        </g>
    </g>
</svg>