<?xml version="1.0" encoding="UTF-8" standalone="no"?>
<svg width="17px" height="24px" viewBox="0 0 17 24" version="1.1" xmlns="http://www.w3.org/2000/svg" xmlns:xlink="http://www.w3.org/1999/xlink">
    <!-- Generator: Sketch 3.7.2 (28276) - http://www.bohemiancoding.com/sketch -->
    <title>Group</title>
    <desc>Created with Sketch.</desc>
    <defs></defs>
    <g id="Page-1" stroke="none" stroke-width="1" fill="none" fill-rule="evenodd" stroke-linecap="round" stroke-linejoin="round">
        <g id="Group">
            <path d="M16.5,22.5 C16.5,23.05 16.051,23.5 15.5,23.5 L1.5,23.5 C0.95,23.5 0.5,23.05 0.5,22.5 L0.5,1.5 C0.5,0.951 0.95,0.5 1.5,0.5 L15.5,0.5 C16.051,0.5 16.5,0.951 16.5,1.5 L16.5,22.5 L16.5,22.5 Z" id="Stroke-1213" stroke="#003366"></path>
            <polygon id="Stroke-1214" stroke="#003366" points="14.5 7.5 2.5 7.5 2.5 2.5 14.5 2.5"></polygon>
            <path d="M12.5,4.5 L12.5,5.5" id="Stroke-1215" stroke="#2684FF"></path>
            <path d="M3.5,11.5 L4.5,11.5" id="Stroke-1216" stroke="#2684FF"></path>
            <path d="M6.5,11.5 L7.5,11.5" id="Stroke-1217" stroke="#003366"></path>
            <path d="M9.5,11.5 L10.5,11.5" id="Stroke-1218" stroke="#2684FF"></path>
            <path d="M12.5,11.5 L13.5,11.5" id="Stroke-1219" stroke="#003366"></path>
            <path d="M3.5,14.5 L4.5,14.5" id="Stroke-1220" stroke="#2684FF"></path>
            <path d="M6.5,14.5 L7.5,14.5" id="Stroke-1221" stroke="#003366"></path>
            <path d="M9.5,14.5 L10.5,14.5" id="Stroke-1222" stroke="#2684FF"></path>
            <path d="M12.5,14.5 L13.5,14.5" id="Stroke-1223" stroke="#003366"></path>
            <path d="M3.5,17.5 L4.5,17.5" id="Stroke-1224" stroke="#2684FF"></path>
            <path d="M6.5,17.5 L7.5,17.5" id="Stroke-1225" stroke="#003366"></path>
            <path d="M9.5,17.5 L10.5,17.5" id="Stroke-1226" stroke="#2684FF"></path>
            <path d="M12.5,17.5 L13.5,17.5" id="Stroke-1227" stroke="#003366"></path>
            <path d="M3.5,20.5 L4.5,20.5" id="Stroke-1228" stroke="#2684FF"></path>
            <path d="M6.5,20.5 L7.5,20.5" id="Stroke-1229" stroke="#003366"></path>
            <path d="M9.5,20.5 L13.5,20.5" id="Stroke-1230" stroke="#2684FF"></path>
        </g>
    </g>
</svg>