<?xml version="1.0" encoding="UTF-8"?>
<svg width="63px" height="61px" viewBox="0 0 63 61" version="1.1" xmlns="http://www.w3.org/2000/svg" xmlns:xlink="http://www.w3.org/1999/xlink">
    <!-- Generator: Sketch 52.2 (67145) - http://www.bohemiancoding.com/sketch -->
    <title>Combined Shape</title>
    <desc>Created with Sketch.</desc>
    <g id="Page-1" stroke="none" stroke-width="1" fill="none" fill-rule="evenodd">
        <g id="whitepaper_v3_website_alt2-copy" transform="translate(-158.000000, -1591.000000)" fill="#A5AEBA" fill-rule="nonzero">
            <g id="Group-40" transform="translate(-3.000000, 1396.000000)">
                <g id="Group-33">
                    <g id="Group-17" transform="translate(161.000000, 195.000000)">
                        <g id="Group-43">
                            <path d="M21.5,27.5 L36,27.5 C37.9329966,27.5 39.5,29.0670034 39.5,31 L39.5,47 C39.5,48.9329966 37.9329966,50.5 36,50.5 L21.5,50.5 L21.5,56.7096774 C21.5,57.0214511 21.7527425,57.2741935 22.0645161,57.2741935 L54,57.2741935 C54.8284271,57.2741935 55.5,57.9457664 55.5,58.7741935 C55.5,59.6026207 54.8284271,60.2741935 54,60.2741935 L22.0645161,60.2741935 C20.0958882,60.2741935 18.5,58.6783053 18.5,56.7096774 L18.5,50.5 L4,50.5 C2.06700338,50.5 0.5,48.9329966 0.5,47 L0.5,31 C0.5,29.0670034 2.06700338,27.5 4,27.5 L18.5,27.5 L18.5,4.06451613 C18.5,2.09588823 20.0958882,0.5 22.0645161,0.5 L47.8709677,0.5 C48.4203433,0.5 48.9007383,0.795340605 49.162041,1.23590999 C49.2721291,1.30240763 49.3754126,1.38426749 49.4687607,1.48142691 L61.3655803,13.8639938 C61.4526935,13.9546637 61.5261471,14.0534465 61.5859923,14.1577974 C62.0000432,14.4247855 62.2741935,14.8900546 62.2741935,15.4193548 L62.2741935,54 C62.2741935,54.8284271 61.6026207,55.5 60.7741935,55.5 C59.9457664,55.5 59.2741935,54.8284271 59.2741935,54 L59.2741935,16.9193548 L47.8709677,16.9193548 C47.0425406,16.9193548 46.3709677,16.247782 46.3709677,15.4193548 L46.3709677,3.5 L22.0645161,3.5 C21.7527425,3.5 21.5,3.75274248 21.5,4.06451613 L21.5,27.5 Z M49.3709677,3.54470137 L59.3386411,13.9193548 L49.3709677,3.54470137 Z M49.3709677,5.70976164 L49.3709677,13.9193548 L57.2585125,13.9193548 L49.3709677,5.70976164 Z M59.2741935,52.2304147 C59.2741935,51.4019876 59.9457664,50.7304147 60.7741935,50.7304147 C61.6026207,50.7304147 62.2741935,51.4019876 62.2741935,52.2304147 L62.2741935,56.7096774 C62.2741935,58.6783053 60.6783053,60.2741935 58.7096774,60.2741935 L54.4127092,60.2741935 L54.0606422,60.2741935 C53.2322151,60.2741935 52.5606422,59.6026207 52.5606422,58.7741935 C52.5606422,57.9457664 53.2322151,57.2741935 54.0606422,57.2741935 L58.7096774,57.2741935 C59.0214511,57.2741935 59.2741935,57.0214511 59.2741935,56.7096774 L59.2741935,52.2304147 Z M4,30.5 C3.72385763,30.5 3.5,30.7238576 3.5,31 L3.5,47 C3.5,47.2761424 3.72385763,47.5 4,47.5 L36,47.5 C36.2761424,47.5 36.5,47.2761424 36.5,47 L36.5,31 C36.5,30.7238576 36.2761424,30.5 36,30.5 L4,30.5 Z M10.2535714,43.3 L7.779,43.3 L7.779,34.6 L11.5851429,34.6 C13.9076355,34.6 15.4028571,35.8466099 15.4028571,37.8391429 C15.4028571,39.8219357 13.9055663,41.0667143 11.5851429,41.0667143 L10.2535714,41.0667143 L10.2535714,43.3 Z M11.481,38.9392857 C12.4488707,38.9392857 12.9051429,38.5586768 12.9051429,37.8391429 C12.9051429,37.1090222 12.4504295,36.7274286 11.481,36.7274286 L10.2535714,36.7274286 L10.2535714,38.9392857 L11.481,38.9392857 Z M16.1335714,34.6 L20.1132857,34.6 C22.9420507,34.6 24.8798571,36.3415277 24.8798571,38.95 C24.8798571,41.5584723 22.9420507,43.3 20.1132857,43.3 L16.1335714,43.3 L16.1335714,34.6 Z M20.0207143,41.161 C21.4804945,41.161 22.3821429,40.318338 22.3821429,38.95 C22.3821429,37.581662 21.4804945,36.739 20.0207143,36.739 L18.6081429,36.739 L18.6081429,41.161 L20.0207143,41.161 Z M28.1661429,43.3 L25.6915714,43.3 L25.6915714,34.6 L32.4128571,34.6 L32.4128571,36.7042857 L28.1661429,36.7042857 L28.1661429,38.245 L31.9152857,38.245 L31.9152857,40.3492857 L28.1661429,40.3492857 L28.1661429,43.3 Z" id="Combined-Shape"></path>
                        </g>
                    </g>
                </g>
            </g>
        </g>
    </g>
</svg>