<?xml version="1.0" encoding="UTF-8" standalone="no"?>
<svg width="23px" height="21px" viewBox="0 0 23 21" version="1.1" xmlns="http://www.w3.org/2000/svg" xmlns:xlink="http://www.w3.org/1999/xlink">
    <!-- Generator: Sketch 40 (33762) - http://www.bohemiancoding.com/sketch -->
    <title>Group</title>
    <desc>Created with Sketch.</desc>
    <defs></defs>
    <g id="Page-1" stroke="none" stroke-width="1" fill="none" fill-rule="evenodd" stroke-linejoin="round">
        <g id="Group">
            <path d="M11.5,4 C11.5,2.066 16.648,0.5 22.5,0.5 L22.5,17 C16.648,17 11.5,18.566 11.5,20.5 C11.5,18.566 6.351,17 0.5,17 L0.5,0.5 C6.351,0.5 11.5,2.066 11.5,4 L11.5,4 Z" id="Stroke-600" stroke="#2684FF" stroke-linecap="round"></path>
            <path d="M11.5,4 L11.5,20.375" id="Stroke-601" stroke="#1A5BB0" stroke-linecap="round"></path>
            <path d="M9,6.2402 C7.39,5.6232 5.113,5.1772 2.5,5.0002" id="Stroke-602" stroke="#1A5BB0" stroke-linecap="round"></path>
            <path d="M9,9.2402 C7.39,8.6232 5.113,8.1772 2.5,8.0002" id="Stroke-603" stroke="#1A5BB0" stroke-linecap="round"></path>
            <path d="M9,12.2402 C7.39,11.6232 5.113,11.1772 2.5,11.0002" id="Stroke-604" stroke="#1A5BB0" stroke-linecap="round"></path>
            <path d="M9,15.2402 C7.39,14.6232 5.113,14.1772 2.5,14.0002" id="Stroke-605" stroke="#1A5BB0" stroke-linecap="round"></path>
            <path d="M14,12.2402 C15.611,11.6232 17.887,11.1772 20.5,11.0002" id="Stroke-606" stroke="#1A5BB0" stroke-linecap="round"></path>
            <path d="M14,15.2402 C15.611,14.6232 17.887,14.1772 20.5,14.0002" id="Stroke-607" stroke="#1A5BB0" stroke-linecap="round"></path>
            <polyline id="Stroke-608" stroke="#2684FF" points="20.5 0.5 20.5 9 18.5 7 16.5 9 16.5 1"></polyline>
        </g>
    </g>
</svg>