<?xml version="1.0" encoding="utf-8"?>
<!-- Generator: Adobe Illustrator 16.0.4, SVG Export Plug-In . SVG Version: 6.00 Build 0)  -->
<!DOCTYPE svg PUBLIC "-//W3C//DTD SVG 1.1//EN" "http://www.w3.org/Graphics/SVG/1.1/DTD/svg11.dtd">
<svg version="1.1" id="Layer_1" xmlns:sketch="http://www.bohemiancoding.com/sketch/ns"
	 xmlns="http://www.w3.org/2000/svg" xmlns:xlink="http://www.w3.org/1999/xlink" x="0px" y="0px" width="28px" height="28px"
	 viewBox="0 0 28 28" enable-background="new 0 0 28 28" xml:space="preserve">
<title>SJCX</title>
<desc>Created with Sketch.</desc>
<g id="Page-1" sketch:type="MSPage">
	<g id="SJCX" sketch:type="MSLayerGroup">
		<path id="Stroke-92" sketch:type="MSShapeGroup" fill="none" stroke="#003366" stroke-linejoin="round" d="M25.5,14
			c0,6.352-5.148,11.5-11.5,11.5C7.648,25.5,2.5,20.352,2.5,14C2.5,7.649,7.648,2.5,14,2.5C20.352,2.5,25.5,7.649,25.5,14L25.5,14z"
			/>
		<path id="Stroke-92_1_" sketch:type="MSShapeGroup" fill="none" stroke="#2684FF" stroke-linejoin="round" d="M14,27.25
			C6.681,27.25,0.75,21.317,0.75,14S6.681,0.75,14,0.75c7.318,0,13.25,5.933,13.25,13.25S21.318,27.25,14,27.25z"/>
		<g enable-background="new    ">
			<path fill="#003366" d="M8.682,12.856c-0.088-0.112-0.203-0.201-0.345-0.268c-0.142-0.065-0.279-0.099-0.411-0.099
				c-0.068,0-0.137,0.006-0.207,0.018c-0.07,0.012-0.133,0.035-0.189,0.069c-0.056,0.034-0.103,0.078-0.141,0.132
				c-0.038,0.054-0.057,0.123-0.057,0.207c0,0.072,0.015,0.132,0.045,0.18c0.03,0.048,0.074,0.09,0.132,0.126
				c0.058,0.036,0.127,0.069,0.207,0.1c0.08,0.029,0.17,0.061,0.27,0.093c0.144,0.048,0.294,0.101,0.45,0.159
				c0.156,0.058,0.298,0.135,0.426,0.23C8.99,13.9,9.096,14.02,9.18,14.161s0.126,0.319,0.126,0.531
				c0,0.243-0.045,0.455-0.135,0.633c-0.09,0.178-0.211,0.325-0.363,0.44c-0.152,0.116-0.326,0.202-0.522,0.259
				C8.09,16.08,7.888,16.108,7.68,16.108c-0.304,0-0.598-0.054-0.882-0.159c-0.284-0.106-0.52-0.257-0.708-0.453l0.672-0.685
				c0.104,0.129,0.241,0.235,0.411,0.321s0.339,0.129,0.507,0.129c0.076,0,0.15-0.008,0.222-0.023
				c0.072-0.017,0.135-0.042,0.189-0.078c0.054-0.036,0.097-0.084,0.129-0.145c0.032-0.06,0.048-0.132,0.048-0.216
				c0-0.08-0.02-0.147-0.06-0.204c-0.04-0.056-0.097-0.106-0.171-0.152c-0.074-0.046-0.166-0.088-0.276-0.126
				c-0.11-0.038-0.235-0.079-0.375-0.123c-0.136-0.044-0.27-0.097-0.399-0.156c-0.13-0.061-0.246-0.137-0.348-0.231
				c-0.102-0.094-0.184-0.208-0.246-0.342S6.3,13.168,6.3,12.976c0-0.235,0.048-0.438,0.144-0.605
				c0.096-0.168,0.222-0.306,0.378-0.414c0.156-0.108,0.332-0.187,0.528-0.237c0.196-0.05,0.394-0.075,0.594-0.075
				c0.24,0,0.485,0.045,0.735,0.133c0.25,0.088,0.469,0.218,0.657,0.39L8.682,12.856z"/>
			<path fill="#003366" d="M12.549,15.076c-0.038,0.184-0.108,0.353-0.21,0.507s-0.244,0.281-0.426,0.381s-0.417,0.15-0.705,0.15
				c-0.36,0-0.66-0.093-0.9-0.279c-0.24-0.186-0.4-0.425-0.48-0.717l0.906-0.307c0.028,0.112,0.079,0.202,0.153,0.271
				c0.074,0.068,0.165,0.102,0.273,0.102c0.168,0,0.279-0.058,0.333-0.174s0.081-0.268,0.081-0.456v-2.802h1.032v2.796
				C12.605,14.716,12.587,14.892,12.549,15.076z"/>
			<path fill="#003366" d="M16.8,15.925c-0.276,0.126-0.594,0.189-0.954,0.189c-0.328,0-0.631-0.055-0.908-0.162
				c-0.279-0.108-0.52-0.261-0.724-0.459s-0.364-0.436-0.48-0.711c-0.116-0.276-0.174-0.58-0.174-0.912
				c0-0.34,0.059-0.648,0.177-0.924c0.118-0.276,0.281-0.511,0.489-0.705s0.452-0.343,0.732-0.447
				c0.28-0.104,0.582-0.156,0.905-0.156c0.301,0,0.596,0.054,0.886,0.159c0.29,0.106,0.524,0.261,0.704,0.465l-0.695,0.696
				c-0.096-0.132-0.223-0.229-0.378-0.294c-0.156-0.064-0.315-0.096-0.479-0.096c-0.181,0-0.346,0.032-0.496,0.099
				c-0.149,0.066-0.278,0.157-0.387,0.273c-0.107,0.115-0.191,0.253-0.252,0.41c-0.06,0.158-0.09,0.331-0.09,0.52
				c0,0.191,0.03,0.368,0.09,0.528c0.061,0.159,0.143,0.297,0.249,0.41c0.106,0.114,0.233,0.203,0.382,0.268
				c0.147,0.063,0.309,0.096,0.485,0.096c0.204,0,0.382-0.04,0.534-0.12s0.273-0.184,0.365-0.312l0.715,0.672
				C17.308,15.628,17.076,15.799,16.8,15.925z"/>
		</g>
		<g>
		</g>
		<g enable-background="new    ">
			<path fill="#003366" d="M20.796,16l-0.931-1.5L18.972,16h-1.224l1.488-2.244l-1.369-2.004h1.236l0.793,1.32l0.779-1.32h1.194
				l-1.345,2.004L22.062,16H20.796z"/>
		</g>
	</g>
</g>
</svg>
