<?xml version="1.0" encoding="UTF-8" standalone="no"?>
<svg width="24px" height="24px" viewBox="0 0 24 24" version="1.1" xmlns="http://www.w3.org/2000/svg" xmlns:xlink="http://www.w3.org/1999/xlink">
    <!-- Generator: Sketch 3.7.2 (28276) - http://www.bohemiancoding.com/sketch -->
    <title>Group</title>
    <desc>Created with Sketch.</desc>
    <defs></defs>
    <g id="Page-1" stroke="none" stroke-width="1" fill="none" fill-rule="evenodd" stroke-linecap="round" stroke-linejoin="round">
        <g id="Group">
            <polyline id="Stroke-520" stroke="#003366" points="4.5 13.5 6.5 11.5 8.5 13.5"></polyline>
            <polyline id="Stroke-521" stroke="#003366" points="13.5 18.5 13.5 23.5 20.5 23.5 20.5 18.5"></polyline>
            <polyline id="Stroke-522" stroke="#003366" points="10.5 18 17 12.5 23.5 18"></polyline>
            <polyline id="Stroke-523" stroke="#003366" points="20 12.5 22.5 12.5 22.5 15"></polyline>
            <polygon id="Stroke-524" stroke="#2684FF" points="18.5 19.5 15.5 19.5 15.5 23.5 18.5 23.5"></polygon>
            <path d="M10.834,9.5 L11.761,9.5 C11.761,9.5 14.5,9.144 14.5,6.456 C14.5,4.753 13.094,3.354 11.347,3.419 C10.664,1.977 9.2,0.977 7.5,0.977 C5.232,0.977 3.384,2.75 3.252,4.983 C1.832,4.685 0.5,5.768 0.5,7.217 C0.5,9.536 2.935,9.5 2.935,9.5 L4.148,9.5 L10.834,9.5 L10.834,9.5 Z" id="Stroke-525" stroke="#2684FF"></path>
            <polyline id="Stroke-526" stroke="#003366" points="6.5 11.5 6.5 21.5 11 21.5"></polyline>
        </g>
    </g>
</svg>