<?xml version="1.0" encoding="UTF-8" standalone="no"?>
<svg width="28px" height="22px" viewBox="0 0 28 22" version="1.1" xmlns="http://www.w3.org/2000/svg" xmlns:xlink="http://www.w3.org/1999/xlink" xmlns:sketch="http://www.bohemiancoding.com/sketch/ns">
    <!-- Generator: Sketch 3.4.2 (15855) - http://www.bohemiancoding.com/sketch -->
    <title>Source</title>
    <desc>Created with Sketch.</desc>
    <defs></defs>
    <g id="Page-1" stroke="none" stroke-width="1" fill="none" fill-rule="evenodd" sketch:type="MSPage">
        <g id="Source" sketch:type="MSLayerGroup" transform="translate(1.000000, 1.000000)" stroke="#FFFFFF" stroke-width="2">
            <path d="M26,17.3333333 C26,18.5293333 25.0093388,19.5 23.7862319,19.5 L2.75543478,19.5 C1.53343478,19.5 0.541666667,18.5293333 0.541666667,17.3333333 L0.541666667,2.16666667 C0.541666667,0.970666667 1.53343478,0 2.75543478,0 L23.7862319,0 C25.0093388,0 26,0.970666667 26,2.16666667 L26,17.3333333 L26,17.3333333 L26,17.3333333 L26,17.3333333 Z" id="Stroke-11" sketch:type="MSShapeGroup"></path>
            <path d="M0.541666667,5.41666667 L25.4583333,5.41666667" id="Stroke-13" sketch:type="MSShapeGroup"></path>
            <path d="M17.6891294,9.75 L20.3974627,12.4583333 L17.6891294,15.1666667" id="Stroke-21" sketch:type="MSShapeGroup"></path>
            <path d="M11.9166667,13.8974627 L14.9807961,10.8333333" id="Stroke-23" sketch:type="MSShapeGroup"></path>
            <path d="M9.20833333,15.1666667 L6.5,12.4583333 L9.20833333,9.75" id="Stroke-21" sketch:type="MSShapeGroup"></path>
        </g>
    </g>
</svg>