<?xml version="1.0" encoding="utf-8"?>
<!DOCTYPE svg PUBLIC "-//W3C//DTD SVG 1.1//EN" "http://www.w3.org/Graphics/SVG/1.1/DTD/svg11.dtd">
<svg version="1.1" id="Layer_1" xmlns="http://www.w3.org/2000/svg" xmlns:xlink="http://www.w3.org/1999/xlink" x="0px" y="0px"
	 width="18.167px" height="18px" viewBox="-1.625 0 18.167 18" enable-background="new -1.625 0 18.167 18" xml:space="preserve">
<g>
	<g id="post-linkedin">
		<path fill="#7E8B9C" d="M14.645,0H0.294C-0.693,0-1.5,0.807-1.5,1.794v14.351c0,0.985,0.807,1.793,1.794,1.793h14.351
			c0.985,0,1.793-0.808,1.793-1.793V1.794C16.438,0.807,15.63,0,14.645,0z M3.881,15.246H1.19V7.175h2.69V15.246z M2.536,5.65
			c-0.897,0-1.614-0.718-1.614-1.614c0-0.897,0.717-1.615,1.614-1.615c0.896,0,1.614,0.717,1.614,1.615
			C4.15,4.933,3.433,5.65,2.536,5.65z M13.746,15.246h-2.689v-4.753c0-0.717-0.628-1.345-1.346-1.345
			c-0.717,0-1.346,0.628-1.346,1.345v4.753h-2.69V7.175h2.69v1.077c0.449-0.718,1.436-1.256,2.242-1.256
			c1.704,0,3.139,1.435,3.139,3.139V15.246z"/>
	</g>
</g>
</svg>
