<svg width="14" height="12" viewBox="0 0 14 12" fill="none" xmlns="http://www.w3.org/2000/svg">
<path d="M11.6594 10.8679L11.6594 2.96442L7.30063 11.6819C7.29979 11.6836 7.29895 11.6853 7.29811 11.687C7.15828 11.9666 6.81831 12.0799 6.53872 11.9401C6.42284 11.8822 6.33552 11.7899 6.28295 11.6817C6.26825 11.6523 6.26435 11.6445 6.18985 11.4954C6.08377 11.2831 6.08377 11.2831 5.92936 10.9742C5.65464 10.4246 5.3647 9.84503 5.07267 9.26171L1.92431 2.96456L1.92431 10.8679H2.7167V11.9999H-6.48499e-05V10.8679H0.792323L0.792323 1.13283H-6.48499e-05V0.000847816H1.33348C1.35446 -0.000278473 1.3755 -0.000287056 1.3965 0.000847816H2.7167V1.13283H2.27408L6.08503 8.75523C6.32442 9.2334 6.56248 9.70925 6.79193 10.1681L11.3096 1.13283H10.867V0.000847816H12.1872C12.2082 -0.000287056 12.2292 -0.000278473 12.2502 0.000847816H13.5837V1.13283H12.7914L12.7914 10.8679H13.5837V11.9999H10.867V10.8679H11.6594Z" fill="#7E8B9C"/>
</svg>
