<?xml version="1.0" encoding="UTF-8"?>
<svg width="68px" height="63px" viewBox="0 0 68 63" version="1.1" xmlns="http://www.w3.org/2000/svg" xmlns:xlink="http://www.w3.org/1999/xlink">
    <!-- Generator: Sketch 52.2 (67145) - http://www.bohemiancoding.com/sketch -->
    <title>icon-illustration-newletter</title>
    <desc>Created with Sketch.</desc>
    <defs>
        <linearGradient x1="50%" y1="0%" x2="305.125815%" y2="50%" id="linearGradient-1">
            <stop stop-color="#14AFFF" offset="0%"></stop>
            <stop stop-color="#0061FF" offset="100%"></stop>
        </linearGradient>
        <linearGradient x1="87.8371523%" y1="7.69658685%" x2="32.3412368%" y2="113.372344%" id="linearGradient-2">
            <stop stop-color="#E1E9EA" offset="0%"></stop>
            <stop stop-color="#FFFFFF" offset="100%"></stop>
        </linearGradient>
    </defs>
    <g id="Page-1" stroke="none" stroke-width="1" fill="none" fill-rule="evenodd">
        <g id="website-community-alt3" transform="translate(-686.000000, -1958.000000)">
            <g id="icon-illustration-newletter" transform="translate(686.000000, 1956.000000)">
                <g id="Group-41">
                    <polygon id="Path" fill="#0061FF" fill-rule="nonzero" points="9.40860215 20.8387097 1.12903226 28.101173 9.40860215 35.1774194"></polygon>
                    <polygon id="Path-Copy-6" fill="#0061FF" fill-rule="nonzero" transform="translate(63.139785, 28.169355) scale(-1, 1) translate(-63.139785, -28.169355) " points="67.2795699 21 59 28.2624633 67.2795699 35.3387097"></polygon>
                    <path d="M38.3091398,-3.02956989 L34.3708324,0.424934828 C32.2948675,2.24587712 32.0881308,5.40494458 33.9090731,7.48090949 C34.0669097,7.66085108 34.2374636,7.82922669 34.4194191,7.98473739 L38.3091398,11.3091398 L38.3091398,-3.02956989 Z" id="Path-Copy-7" fill="#0061FF" fill-rule="nonzero" transform="translate(34.169355, 4.139785) scale(-1, 1) rotate(-270.000000) translate(-34.169355, -4.139785) "></path>
                    <path d="M0.878136201,27.6129032 L0.878136201,64.3064516 C0.878136201,64.3064516 0.878136201,64.4193548 0.878136201,64.4193548 L21.3261649,46.016129 L0.878136201,27.6129032 Z" id="Path" fill="#10A2FE" fill-rule="nonzero"></path>
                    <path d="M34.9184588,56.3173362 C34.6191756,56.5922224 34.1702509,56.7296655 33.8709677,56.7296655 C33.422043,56.7296655 33.1227599,56.5922224 32.8234767,56.3173362 L21.1514337,45.5967742 L0.897323956,64.4664026 C0.897323956,64.4664026 22.9315493,64.4664026 67,64.4664026 L46.5905018,45.5967742 L34.9184588,56.3173362 Z" id="Path" fill="#0061FF" fill-rule="nonzero"></path>
                    <path d="M66.8637993,64.4193548 C66.8637993,64.4193548 66.8637993,64.3064516 66.8637993,64.3064516 L66.8637993,27.6129032 L46.4157706,46.016129 L66.8637993,64.4193548 Z" id="Path" fill="url(#linearGradient-1)" fill-rule="nonzero"></path>
                    <path d="M9.03225806,9.12903226 L9.03225806,34.8387097 L34.1218638,57.4193548 C34.2473118,57.3064516 37.6344086,54.2580645 59.2114695,34.8387097 L59.2114695,9.12903226 C59.2114695,8.4516129 58.5842294,8 57.9569892,8 L10.2867384,8 C9.53405018,8 9.03225806,8.56451613 9.03225806,9.12903226 Z" id="Shape" fill="url(#linearGradient-2)"></path>
                </g>
                <path d="M43.6057348,43.3064516 L24.5376344,43.3064516 C23.9103943,43.3064516 23.2831541,42.7419355 23.2831541,42.1774194 C23.2831541,41.6129032 23.7849462,41.0483871 24.5376344,41.0483871 L43.6057348,41.0483871 C44.2329749,41.0483871 44.8602151,41.5 44.8602151,42.1774194 C44.8602151,42.7419355 44.2329749,43.3064516 43.6057348,43.3064516 Z M15.2544803,17 L52.8888889,17 C53.516129,17 54.1433692,17.4516129 54.1433692,18.1290323 C54.1433692,18.8064516 53.516129,19.2580645 52.8888889,19.2580645 L15.2544803,19.2580645 C14.6272401,19.2580645 14,18.8064516 14,18.1290323 C14,17.5645161 14.6272401,17 15.2544803,17 Z M15.2544803,25.016129 L52.8888889,25.016129 C53.516129,25.016129 54.1433692,25.5806452 54.1433692,26.1451613 C54.1433692,26.7096774 53.516129,27.2741935 52.8888889,27.2741935 L15.2544803,27.2741935 C14.6272401,27.2741935 14,26.7096774 14,26.1451613 C14,25.5806452 14.6272401,25.016129 15.2544803,25.016129 Z M15.2544803,33.0322581 L52.7634409,33.0322581 C53.390681,33.0322581 54.0179211,33.5967742 54.0179211,34.1612903 C54.0179211,34.7258065 53.390681,35.2903226 52.7634409,35.2903226 L15.2544803,35.2903226 C14.6272401,35.2903226 14,34.8387097 14,34.1612903 C14,33.483871 14.6272401,33.0322581 15.2544803,33.0322581 Z" id="Combined-Shape" fill="#000000"></path>
            </g>
        </g>
    </g>
</svg>