<svg width="38" height="38" viewBox="0 0 38 38" fill="none" xmlns="http://www.w3.org/2000/svg">
<path d="M19.8088 5.82604C19.8862 5.87285 19.9562 5.87517 20.0368 5.83346C20.5818 5.55124 21.1963 5.40156 21.8145 5.40156C23.9466 5.40156 25.6812 7.13612 25.6812 9.26829C25.6812 11.4005 23.9466 13.135 21.8145 13.135C21.1967 13.135 20.5822 12.9858 20.0368 12.7022C19.9562 12.6605 19.8862 12.6628 19.8093 12.7101C19.7309 12.7578 19.6966 12.819 19.6966 12.9098V18.3484L28.1901 18.3484C28.6934 18.3484 29.1503 18.5727 29.4562 18.9574C29.5062 19.0218 29.5539 19.088 29.5961 19.1603C29.8853 19.6631 29.8844 20.285 29.5943 20.7851C29.4168 21.0914 29.3232 21.4408 29.3232 21.7967C29.3232 22.9103 30.2296 23.8167 31.3432 23.8167C32.4568 23.8167 33.3632 22.9103 33.3632 21.7967C33.3632 21.4408 33.2696 21.0919 33.0921 20.7851C32.802 20.2855 32.8011 19.6627 33.0898 19.1613C33.1315 19.0885 33.1792 19.0213 33.2302 18.9578C33.5356 18.5732 33.993 18.3484 34.4963 18.3484H37.8569V4.82229C37.8569 2.26292 35.7822 0.188141 33.2228 0.188141L19.6966 0.188141V5.62631C19.6962 5.71714 19.7309 5.77878 19.8088 5.82604Z" fill="#0091FF"/>
<path d="M5.55562 18.0282V17.9638C5.55562 17.6172 5.46803 17.3349 5.2734 17.0481C4.83964 16.4132 4.61072 15.6708 4.61072 14.9016C4.61072 12.8 6.32118 11.09 8.42323 11.09C10.5253 11.09 12.2348 12.7995 12.2348 14.9016C12.2348 15.6718 12.0059 16.4141 11.5721 17.0481C11.3775 17.334 11.2908 17.6172 11.2908 17.9638V18.0282C11.2908 18.1543 11.397 18.2613 11.5235 18.2613L18.306 18.2613V12.9093C18.306 12.3291 18.5906 11.8236 19.0864 11.5223C19.5813 11.2211 20.1611 11.2012 20.6768 11.4681C21.0304 11.6516 21.4132 11.7448 21.8145 11.7448C23.1797 11.7448 24.291 10.634 24.291 9.26829C24.291 7.9026 23.1802 6.7918 21.8145 6.7918C21.4127 6.7918 21.03 6.88448 20.6768 7.06753C20.162 7.33446 19.5827 7.31499 19.0869 7.01424C18.5906 6.71256 18.306 6.20697 18.306 5.62678V0.188141L4.77986 0.188141C2.2205 0.188141 0.145716 2.26292 0.145716 4.82229L0.145716 18.2613H5.32206C5.44903 18.2613 5.55562 18.1547 5.55562 18.0282Z" fill="#004DB6"/>
<path d="M20.663 24.6786C21.2088 24.45 21.7976 24.3311 22.4012 24.3311C23.6437 24.3311 24.7707 24.8362 25.587 25.6524C26.4031 26.4684 26.9084 27.5952 26.9084 28.8378C26.9084 30.0805 26.4032 31.2075 25.587 32.0236C24.7708 32.8398 23.6439 33.345 22.4012 33.345C21.6972 33.345 21.0126 33.1828 20.3914 32.8723V37.1163H33.2228C34.3106 37.1163 35.2953 36.6754 36.0082 35.9625C36.721 35.2497 37.1619 34.265 37.1619 33.1772V20.4338H35.2159C35.3692 20.87 35.4486 21.3315 35.4486 21.7972C35.4486 22.929 34.9885 23.9555 34.245 24.6989C33.5015 25.4424 32.4749 25.9026 31.3432 25.9026C30.2116 25.9026 29.185 25.4424 28.4415 24.6989C27.698 23.9554 27.2378 22.9288 27.2378 21.7972C27.2378 21.3568 27.3088 20.9195 27.4518 20.4338H20.4305L20.663 24.6786Z" fill="#C6DEFF" stroke="#00101C" stroke-opacity="0.0749563" stroke-width="3"/>
<path d="M19.0711 30.6841C19.269 30.5608 19.4812 30.4857 19.6986 30.4542C19.7727 30.4436 19.8473 30.4385 19.9224 30.4385C19.9326 30.4385 19.9437 30.4385 19.9539 30.4389C20.0183 30.4399 20.0823 30.4459 20.1462 30.4542C20.1634 30.457 20.1801 30.4589 20.1968 30.4621C20.2556 30.4718 20.3145 30.4871 20.3724 30.5038C20.3909 30.5094 20.4095 30.5135 20.4275 30.5191C20.5017 30.5437 20.5749 30.5724 20.6472 30.6081C20.7737 30.6716 20.9035 30.7471 21.0388 30.8393C21.4419 31.1146 21.9137 31.2596 22.4017 31.2596C23.7372 31.2596 24.8235 30.1734 24.8235 28.8378C24.8235 27.5027 23.7372 26.4165 22.4017 26.4165C21.9123 26.4165 21.4415 26.5615 21.0402 26.8359C20.9044 26.9281 20.776 27.0036 20.6458 27.0681C20.574 27.1037 20.5008 27.1325 20.4266 27.1566C20.4085 27.1626 20.3905 27.1663 20.3724 27.1719C20.314 27.1885 20.2551 27.2034 20.1958 27.214C20.1796 27.2168 20.1634 27.2187 20.1472 27.2214C20.0818 27.2307 20.0174 27.2358 19.9525 27.2367C19.9428 27.2372 19.9331 27.2377 19.9233 27.2377C19.8478 27.2372 19.7718 27.2321 19.6967 27.2214C19.4803 27.1899 19.2685 27.1149 19.0711 26.9921C18.5831 26.6894 18.3032 26.1866 18.3032 25.6129L18.3032 19.6516L11.523 19.6516C10.6277 19.6516 9.90015 18.9235 9.90015 18.0282V17.9638C9.90015 17.3377 10.0711 16.7821 10.4243 16.2649C10.6986 15.8622 10.8441 15.3909 10.8441 14.902C10.8441 13.5669 9.75788 12.4807 8.42278 12.4807C7.08676 12.4807 6.00051 13.5669 6.00051 14.902C6.00051 15.3909 6.14602 15.8622 6.42036 16.2649C6.77349 16.7816 6.94541 17.3373 6.94541 17.9638V18.0282C6.94541 18.9235 6.21693 19.6516 5.32161 19.6516H0.142488L0.142488 33.1777C0.142488 35.7371 2.21727 37.8119 4.77663 37.8119H18.3032V32.0627C18.3032 31.4895 18.5831 30.9867 19.0711 30.6841Z" fill="#27446A"/>
</svg>
