<svg width="49" height="37" viewBox="0 0 49 37" fill="none" xmlns="http://www.w3.org/2000/svg">
<path d="M24.5176 35.375C22.1877 35.375 20.2989 33.4862 20.2989 31.1562C20.2989 28.8263 22.1877 26.9375 24.5176 26.9375C26.8476 26.9375 28.7364 28.8263 28.7364 31.1562C28.7364 33.4862 26.8476 35.375 24.5176 35.375ZM34.9074 23.9273C35.5734 24.8831 35.3386 26.1979 34.3828 26.864C33.427 27.53 32.1122 27.2951 31.4461 26.3393C29.8763 24.0866 27.3139 22.7188 24.5176 22.7188C21.7445 22.7188 19.2008 24.0638 17.6268 26.2857C16.9534 27.2363 15.6368 27.4609 14.6862 26.7875C13.7356 26.1141 13.5109 24.7975 14.1844 23.8469C16.5411 20.5202 20.3615 18.5 24.5176 18.5C28.7085 18.5 32.5568 20.5543 34.9074 23.9273ZM41.1917 18.2349C41.9058 19.1553 41.7387 20.4804 40.8183 21.1946C39.8979 21.9087 38.5728 21.7416 37.8586 20.8212C34.6793 16.7239 29.8024 14.2812 24.5176 14.2812C19.2307 14.2812 14.352 16.7259 11.1728 20.826C10.459 21.7467 9.13398 21.9143 8.21333 21.2005C7.29268 20.4867 7.12503 19.1616 7.83887 18.241C11.8088 13.121 17.9125 10.0625 24.5176 10.0625C31.12 10.0625 37.2215 13.1185 41.1917 18.2349ZM47.621 12.7608C48.3472 13.6718 48.1974 14.9989 47.2865 15.7251C46.3756 16.4513 45.0484 16.3016 44.3222 15.3906C39.5462 9.39963 32.3265 5.84375 24.5176 5.84375C16.7326 5.84375 9.53261 9.37779 4.75534 15.3377C4.02672 16.2467 2.69916 16.3929 1.79017 15.6643C0.881166 14.9357 0.734942 13.6081 1.46356 12.6991C7.03318 5.75072 15.4386 1.625 24.5176 1.625C33.6245 1.625 42.0528 5.77618 47.621 12.7608Z" fill="url(#paint0_radial)" stroke="url(#paint1_linear)" stroke-width="1.5"/>
<defs>
<radialGradient id="paint0_radial" cx="0" cy="0" r="1" gradientUnits="userSpaceOnUse" gradientTransform="translate(-17.6087 68.5524) rotate(50.6444) scale(60.8891 43.192)">
<stop/>
<stop offset="1" stop-color="#006DFF"/>
</radialGradient>
<linearGradient id="paint1_linear" x1="1" y1="11.6738" x2="37.6665" y2="37.0776" gradientUnits="userSpaceOnUse">
<stop/>
<stop offset="1" stop-color="#0055C6"/>
</linearGradient>
</defs>
</svg>
