<?xml version="1.0" encoding="UTF-8"?>
<svg width="39px" height="53px" viewBox="0 0 39 53" version="1.1" xmlns="http://www.w3.org/2000/svg" xmlns:xlink="http://www.w3.org/1999/xlink">
    <!-- Generator: Sketch 52.6 (67491) - http://www.bohemiancoding.com/sketch -->
    <title>tar-com-lock</title>
    <desc>Created with Sketch.</desc>
    <defs>
        <linearGradient x1="0%" y1="0%" x2="100%" y2="100%" id="linearGradient-1">
            <stop stop-color="#C165FF" offset="0%"></stop>
            <stop stop-color="#16B3FF" offset="100%"></stop>
        </linearGradient>
        <path d="M38.7338866,41.6630215 C37.0830929,48.5271862 32.5498978,51.9592686 25.1343011,51.9592686 L14.4349542,51.9592686 C7.0127096,51.9592686 2.47569253,48.5271862 0.823902976,41.6630215 L38.7338866,41.6630215 Z" id="path-2"></path>
        <linearGradient x1="58.319722%" y1="16.5898174%" x2="58.319722%" y2="100%" id="linearGradient-3">
            <stop stop-color="#EBEBEB" offset="0%"></stop>
            <stop stop-color="#BCC6CB" offset="100%"></stop>
        </linearGradient>
    </defs>
    <g id="Page-1" stroke="none" stroke-width="1" fill="none" fill-rule="evenodd">
        <g id="tar-com-lock" transform="translate(0.000000, 1.000000)" fill-rule="nonzero">
            <g id="Shape-Copy-2">
                <use fill="url(#linearGradient-1)" xlink:href="#path-2"></use>
                <path stroke-opacity="0.238224638" stroke="#000000" stroke-width="1" d="M38.0888443,42.1630215 L1.46904703,42.1630215 C3.18256177,48.3847005 7.46644592,51.4592686 14.4349542,51.4592686 L25.1343011,51.4592686 C32.0963085,51.4592686 36.3764389,48.3847762 38.0888443,42.1630215 Z" stroke-linejoin="square" fill-opacity="0.288892663" fill="#000000" fill-rule="evenodd"></path>
            </g>
            <path d="M38.2980412,21.6325003 L1.2595407,21.6325003 L1.2595407,39.246072 C1.2595407,44.1385851 5.22570624,48.1047506 10.1182194,48.1047506 L29.4393625,48.1047506 C34.3318757,48.1047506 38.2980412,44.1385851 38.2980412,39.246072 L38.2980412,21.6325003 Z" id="Shape-Copy" stroke-opacity="0.238224638" stroke="#000000" fill="url(#linearGradient-1)"></path>
            <path d="M28.3355768,20.6325003 L28.3355768,14.9436966 C28.3355768,10.3012797 24.5721543,6.53785722 19.9297374,6.53785722 C15.2873205,6.53785722 11.523898,10.3012797 11.523898,14.9436966 L11.523898,20.6325003 L28.3355768,20.6325003 Z M4.48604075,21.6325003 L4.48604075,14.9436966 C4.48604075,6.4143785 11.4004193,-0.5 19.9297374,-0.5 C28.4590555,-0.5 35.373434,6.4143785 35.373434,14.9436966 L35.373434,21.6325003 L4.48604075,21.6325003 Z" id="Shape" stroke-opacity="0.238224638" stroke="#000000" fill="url(#linearGradient-3)"></path>
        </g>
    </g>
</svg>