<svg width="421" height="312" viewBox="0 0 421 312" fill="none" xmlns="http://www.w3.org/2000/svg">
<path fill-rule="evenodd" clip-rule="evenodd" d="M244.939 38.7108C239.842 29.2618 227.861 23.4589 212.013 19.7014V57.7201L244.939 76.7294V38.7108Z" fill="#2479EA"/>
<path fill-rule="evenodd" clip-rule="evenodd" d="M387.614 159.103C379.44 146.43 379.98 133.757 387.614 121.085C390.199 75.1985 402.31 35.8745 420.54 0.692017V38.7107L387.614 159.103Z" fill="#0358C9"/>
<path fill-rule="evenodd" clip-rule="evenodd" d="M387.614 121.084C377.981 105.691 366.957 99.6838 354.689 102.075C348.422 114.463 346.46 127.047 354.689 140.094L387.614 159.103V121.084Z" fill="#2479EA"/>
<path fill-rule="evenodd" clip-rule="evenodd" d="M354.689 102.075C342.742 98.6852 331.735 104.714 321.763 121.085C313.385 132.791 313.016 145.422 321.763 159.103L354.689 140.094V102.075Z" fill="#0358C9"/>
<path fill-rule="evenodd" clip-rule="evenodd" d="M321.763 121.085C289.719 89.1413 252.622 69.2436 212.013 57.7201V95.7388L321.763 159.103V121.085Z" fill="#2479EA"/>
<path fill-rule="evenodd" clip-rule="evenodd" d="M354.689 102.075L387.614 121.085L420.54 0.692017L212.013 19.7014L244.939 38.7107L212.013 57.72L321.763 121.085L354.689 102.075Z" fill="#4293FF"/>
<path fill-rule="evenodd" clip-rule="evenodd" d="M255.914 159.103C226.168 130.688 189.247 109.926 146.163 95.7388V133.757L255.914 197.122C262.357 189.528 261.418 164.366 255.914 159.103Z" fill="#86BAFF"/>
<path fill-rule="evenodd" clip-rule="evenodd" d="M305.301 130.589C285.071 132.414 268.567 141.835 255.914 159.103V197.122L305.301 168.608V130.589Z" fill="#358AFB"/>
<path fill-rule="evenodd" clip-rule="evenodd" d="M195.551 67.2247L305.301 130.589L255.914 159.103L146.163 95.7387L195.551 67.2247Z" fill="#C3DDFF"/>
<path fill-rule="evenodd" clip-rule="evenodd" d="M190.063 197.122C160.318 168.707 123.397 147.945 80.313 133.757V171.776L190.063 235.141C196.507 227.547 195.568 202.385 190.063 197.122Z" fill="#005EDC"/>
<path fill-rule="evenodd" clip-rule="evenodd" d="M239.452 168.608C219.221 170.433 202.718 179.854 190.063 197.122V235.141L239.452 206.627V168.608Z" fill="#0048A8"/>
<path fill-rule="evenodd" clip-rule="evenodd" d="M129.701 105.243L239.452 168.608L190.063 197.122L80.313 133.757L129.701 105.243Z" fill="#0E75FF"/>
<path fill-rule="evenodd" clip-rule="evenodd" d="M124.213 235.141C94.4674 206.725 57.5462 185.963 14.4622 171.776V209.795L124.213 273.159C130.656 265.566 129.717 240.404 124.213 235.141Z" fill="#C5DDFF"/>
<path fill-rule="evenodd" clip-rule="evenodd" d="M173.601 206.627C153.371 208.451 136.867 217.873 124.213 235.141V273.159L173.601 244.645V206.627Z" fill="#ADCDF8"/>
<path fill-rule="evenodd" clip-rule="evenodd" d="M63.851 143.262L173.601 206.627L124.213 235.141L14.4622 171.776L63.851 143.262Z" fill="#E3EFFF"/>
<path fill-rule="evenodd" clip-rule="evenodd" d="M-2 230.412C20.5096 242.113 40.7013 256.286 58.3623 273.159C63.8674 278.422 64.8064 303.584 58.3623 311.178L-2 276.327V230.412Z" fill="#162840"/>
<path fill-rule="evenodd" clip-rule="evenodd" d="M107.751 244.645C87.5201 246.47 71.0175 255.891 58.3623 273.159V311.178L107.751 282.664V244.645Z" fill="#001128"/>
<path fill-rule="evenodd" clip-rule="evenodd" d="M-2 181.281L107.751 244.645L58.3623 273.159L-2 238.309V181.281Z" fill="#425064"/>
<path fill-rule="evenodd" clip-rule="evenodd" d="M-2 304.445C9.81621 291.443 24.4762 284.236 41.9002 282.664V320.683L8.97473 339.692H-2V304.445Z" fill="#003C8C"/>
<path fill-rule="evenodd" clip-rule="evenodd" d="M41.9002 282.664L-2 308.01V257.318L41.9002 282.664Z" fill="#1E73E4"/>
</svg>
