<?xml version="1.0" encoding="UTF-8" standalone="no"?>
<svg width="135px" height="111px" viewBox="0 0 135 111" version="1.1" xmlns="http://www.w3.org/2000/svg" xmlns:xlink="http://www.w3.org/1999/xlink">
    <!-- Generator: Sketch 41.2 (35397) - http://www.bohemiancoding.com/sketch -->
    <title>stars-left</title>
    <desc>Created with Sketch.</desc>
    <defs></defs>
    <g id="Page-1" stroke="none" stroke-width="1" fill="none" fill-rule="evenodd">
        <g id="stars-left">
            <g transform="translate(36.000000, 34.000000) scale(-1, -1) translate(-36.000000, -34.000000) " id="Shape">
                <polygon fill="#CFEAF9" points="33.335 0.788 32.73 4.44 29.08 5.041 32.73 5.639 33.335 9.29 33.933 5.639 37.581 5.041 33.933 4.44"></polygon>
                <polygon fill="#CFEAF9" points="3.002 25.606 2.688 27.503 0.794 27.815 2.688 28.127 3.002 30.024 3.313 28.127 5.209 27.815 3.313 27.503"></polygon>
                <polygon fill="#CFEAF9" points="69.578 51.539 69.266 53.437 67.371 53.75 69.266 54.059 69.578 55.958 69.891 54.059 71.785 53.75 69.891 53.437"></polygon>
                <polygon fill="#CFEAF9" points="27.333 59.286 26.731 62.937 23.08 63.538 26.731 64.136 27.333 67.787 27.932 64.136 31.58 63.538 27.932 62.937"></polygon>
                <polygon fill="#FCBE0F" points="7.244 37.097 10.418 37.097 10.418 33.851 11.716 33.851 11.716 37.097 14.889 37.097 14.889 38.394 11.716 38.394 11.716 41.639 10.418 41.639 10.418 38.394 7.244 38.394"></polygon>
                <polygon fill="#FCBE0F" points="19.859 24.99 21.643 24.99 21.643 23.166 22.372 23.166 22.372 24.99 24.157 24.99 24.157 25.721 22.372 25.721 22.372 27.546 21.643 27.546 21.643 25.721 19.859 25.721"></polygon>
            </g>
            <g opacity="0.400000006" transform="translate(93.000000, 89.500000) scale(1, -1) translate(-93.000000, -89.500000) translate(51.000000, 68.000000)" id="Shape">
                <polygon fill="#CFEAF9" points="79.335 0.788 78.73 4.44 75.08 5.041 78.73 5.639 79.335 9.29 79.933 5.639 83.581 5.041 79.933 4.44"></polygon>
                <polygon fill="#CFEAF9" points="42.002 37.606 41.688 39.503 39.794 39.815 41.688 40.127 42.002 42.024 42.313 40.127 44.209 39.815 42.313 39.503"></polygon>
                <polygon fill="#CFEAF9" points="4.333 6.286 3.731 9.937 0.08 10.538 3.731 11.136 4.333 14.787 4.932 11.136 8.58 10.538 4.932 9.937"></polygon>
                <polygon fill="#FCBE0F" points="26.244 29.097 29.418 29.097 29.418 25.851 30.716 25.851 30.716 29.097 33.889 29.097 33.889 30.394 30.716 30.394 30.716 33.639 29.418 33.639 29.418 30.394 26.244 30.394"></polygon>
                <polygon fill="#FCBE0F" points="48.859 16.99 50.643 16.99 50.643 15.166 51.372 15.166 51.372 16.99 53.157 16.99 53.157 17.721 51.372 17.721 51.372 19.546 50.643 19.546 50.643 17.721 48.859 17.721"></polygon>
            </g>
        </g>
    </g>
</svg>