<?xml version="1.0" encoding="UTF-8"?>
<svg width="160px" height="41px" viewBox="0 0 160 41" version="1.1" xmlns="http://www.w3.org/2000/svg" xmlns:xlink="http://www.w3.org/1999/xlink">
    <!-- Generator: Sketch 64 (93537) - https://sketch.com -->
    <title>Group 14</title>
    <desc>Created with Sketch.</desc>
    <defs>
        <path d="M18.121248,0.000749750065 C19.6090358,0.0304896552 21.0011827,1.25762342 21.212246,2.72467118 C21.2314831,2.8595888 21.2617906,2.94264292 21.2617906,3.12833599 C21.2617906,3.53508359 21.4116946,3.70753878 21.7285618,3.88851698 C24.6547743,5.56156798 27.5728202,7.2476755 30.4888698,8.93668454 C30.6892256,9.05310536 30.834774,9.05782022 31.0434781,8.93958599 C33.0241705,7.81073896 35.4257191,8.89261867 35.9079163,11.1263757 C35.9532867,11.3341924 35.9489311,11.5528894 35.9647201,11.7427534 C35.9322348,13.0106888 35.3814376,13.9556562 34.3184987,14.5925254 C34.1223169,14.7096716 34.0542611,14.8289939 34.0548056,15.0524059 C34.0615205,18.5113019 34.060976,21.9703793 34.055713,25.4285499 C34.05535,25.6363666 34.1083427,25.7616732 34.2990801,25.8713844 C35.5288008,26.5815153 36.1511019,27.8913405 35.9302385,29.2682618 C35.7184493,30.5876981 34.6629511,31.6715726 33.2956672,31.9310714 C32.5029547,32.0821284 31.7351053,31.9618993 31.0403929,31.5359296 C30.8286037,31.4064522 30.6794256,31.4293011 30.4808845,31.5435459 C27.5051275,33.2659216 24.5261037,34.9837639 21.5436318,36.6950778 C21.3396463,36.8124053 21.2632425,36.9411574 21.2637869,37.1790766 C21.2668721,38.8432419 19.9814365,40.2914302 18.3756855,40.4528236 C16.665401,40.6252788 15.1532947,39.551378 14.7837978,37.8930157 C14.7271755,37.6380504 14.7081198,37.3714793 14.7023124,37.1105297 C14.6979569,36.9337224 14.6489568,36.8254619 14.4916121,36.7344287 C11.4679438,34.9964577 8.44681626,33.2543158 5.42695914,31.5096352 C5.26344403,31.4144312 5.13495493,31.4137059 4.96998797,31.5134433 C2.99673636,32.7003195 0.481761582,31.5625867 0.0632645524,29.3453317 C-0.200791466,27.9446547 0.369787312,26.6350108 1.62437099,25.8973162 C1.82254912,25.7803513 1.91220113,25.6626611 1.91183816,25.420571 C1.90276407,21.9613122 1.90421593,18.5027789 1.90966038,15.0440642 C1.90984187,14.8362475 1.85576029,14.7132984 1.66538588,14.6028618 C0.40590219,13.8718767 -0.186635885,12.6017652 0.0552793533,11.1757004 C0.295561256,9.75906546 1.39189281,8.71980081 2.81870272,8.51669907 C3.58346702,8.40807584 4.32100905,8.54734566 4.98269169,8.96950721 C5.13640678,9.067794 5.25055883,9.06471122 5.40699614,8.97458479 C8.41796065,7.23353091 11.4312845,5.49737331 14.4469676,3.76520518 C14.6293567,3.66039014 14.7004976,3.54016114 14.701042,3.32545353 C14.7059421,1.42046754 16.2124225,-0.0378758584 18.121248,0.000749750065 Z M17.2212203,0.720377717 C16.0484135,1.07729784 15.394715,1.90490976 15.279741,3.10940175 C15.1912856,4.03880939 15.6313833,5.07128294 16.6932121,5.65102863 C16.8563188,5.73994111 16.9700214,5.81814781 16.9692948,6.0416992 C16.9671297,6.72164284 16.9655359,7.40155291 16.9644688,8.08144608 L17.0036777,13.2380111 C15.3916157,13.5051484 13.9706164,14.4107302 13.0698063,15.7233377 C12.8391586,15.7740223 12.614056,15.8392715 12.3956112,15.91806 C10.3656722,14.7592329 8.34471237,13.5841904 6.31122899,12.4308778 C6.00626654,12.2581335 5.85914349,12.0728689 5.91000084,11.7219368 C5.93034378,11.5820357 5.88711503,11.4321547 5.86422923,11.2880802 C5.65589572,9.9763488 4.37174764,8.87909621 2.82168827,9.13349475 C1.30105351,9.38353847 0.335490401,10.7582343 0.586507749,12.2296452 C0.906545787,14.1087833 3.05308922,15.0599655 4.67253254,14.0320283 C4.85525573,13.9160792 4.98167257,13.9070065 5.1689366,14.0160603 C5.55349308,14.240149 6.1383433,14.5624581 6.92348731,14.9829876 L10.5300024,17.0657549 C9.54027005,18.0029394 8.92324412,19.3128126 8.92324412,20.7702349 C8.92324412,21.8967107 9.29173323,22.9347078 9.91579291,23.7806567 L5.71431667,26.202804 C5.44065512,26.3458021 5.23579433,26.4559691 5.09973428,26.5333051 C5.00855431,26.5850195 4.83146175,26.5743137 4.73882872,26.5184259 C4.30309022,26.2556804 3.8390169,26.0811216 3.33116994,26.0675126 C1.64161612,26.0243265 0.614116023,27.4030144 0.556356606,28.6007926 C0.489515517,30.0037953 1.55207086,31.4409113 3.27050439,31.4280281 C4.77751664,31.4167779 5.92434988,30.2095641 5.90945594,28.7033141 C5.9070947,28.4342178 5.98628686,28.2819778 6.2225919,28.1478833 C7.38343863,27.4875517 9.11629199,26.4901454 11.4211519,25.1556645 C12.2421248,25.6560107 13.2121773,25.9444607 14.247845,25.9444607 C14.2583454,25.9444607 14.2688434,25.944431 14.2793388,25.9443715 C14.2818809,25.9444002 14.2845318,25.9444297 14.2873017,25.9444607 L16.9672894,25.9444607 C16.9678399,26.1357456 16.9680846,26.2488606 16.9680234,26.2838058 C16.9620295,29.0119674 16.9625744,31.7394033 16.9674785,34.4673835 C16.9676601,34.6599062 16.9069945,34.7695045 16.7313551,34.8535177 C15.8112003,35.2966285 15.1168159,36.4399705 15.3062595,37.6627893 C15.5260359,39.0833931 16.9869132,40.1561494 18.3967516,39.8807022 C19.6387608,39.638461 20.454658,38.791252 20.6293893,37.488049 C20.7476327,36.6041864 20.3220656,35.4374368 19.184314,34.8531548 C19.0299257,34.7744037 18.9447396,34.688213 18.9452845,34.498775 C18.9509151,31.8490015 18.95146,29.199228 18.9452845,26.5499989 L18.9452845,25.9444607 L18.9452845,25.9444607 L22.2603609,25.9444607 C22.3629015,25.9444607 22.4647319,25.9362768 22.564953,25.9202132 C23.3202869,25.8430869 24.0205863,25.5857398 24.6200391,25.1928526 L29.326574,27.9165257 C29.48161,28.0212247 29.6009926,28.0973157 29.6847221,28.1447985 C29.9186659,28.2770786 30.0089377,28.4233305 30.0020356,28.6969632 C29.9602599,30.2825087 31.3441248,31.5777277 32.9575742,31.4058907 C34.541599,31.2376828 35.6639117,29.7145575 35.2964674,28.1743755 C34.8560064,26.3286249 32.8547696,25.4957509 31.2382325,26.4933852 C31.0678604,26.5982656 30.9447129,26.6269354 30.7628979,26.5206033 C29.3950168,25.7222055 28.0238663,24.9292513 26.6470852,24.1462771 C26.5992256,24.1191081 26.3886886,23.9855485 26.0154739,23.7455982 C26.4128763,23.0845162 26.6407374,22.3140541 26.6407374,21.4910915 C26.6407374,19.8577188 25.7462842,18.440064 24.4190195,17.6651714 L24.4361056,17.6553213 C24.4591271,17.6379809 24.4855534,17.6209046 24.5154357,17.6037698 C25.0976185,17.2706851 25.6795611,16.9371345 26.2612517,16.6031262 L30.1271803,14.3744218 C30.3408797,14.2507332 30.5545416,14.1269848 30.7681652,14.0031771 C30.9358129,13.9064621 31.0495154,13.904829 31.2140753,14.0151531 C31.8005694,14.408364 32.4580823,14.5328415 33.147926,14.4121745 C34.4907416,14.1770101 35.4639333,12.9630825 35.3442369,11.5301399 C35.2140058,9.975623 33.6877404,8.81359125 32.1632913,9.15073288 C30.8255614,9.44668445 29.9851437,10.4911339 30.0005825,11.8641968 C30.0027621,12.0980911 29.9377374,12.2314598 29.728859,12.3508565 C29.1898868,12.6589397 28.6512571,12.9675537 28.1129457,13.2766835 L28.1133086,13.2773121 L23.1857305,16.1285625 C22.3173997,14.6090113 20.7678243,13.5156775 18.9493265,13.2299902 C18.9498654,10.9199637 18.9543361,8.60994826 18.9418335,6.30008975 C18.9400171,5.95351253 19.0210256,5.7526429 19.3461494,5.56610814 C20.5116909,4.89708705 20.9546947,3.45688625 20.4214191,2.22880524 C19.8836026,0.990018437 18.5097276,0.328255515 17.2212203,0.720377717 Z M17.9660208,36.4603365 C18.3935048,36.4632863 18.7182699,36.795321 18.7163022,37.2274639 C18.7135762,37.6579474 18.3839369,37.982239 17.9506761,37.9794735 C17.5210258,37.9772612 17.1924695,37.6428298 17.1971632,37.2119775 C17.2020374,36.7835218 17.5369119,36.457018 17.9660208,36.4603365 Z M32.709578,27.9529035 C33.1247253,27.9550724 33.4785297,28.2976994 33.4826793,28.7032946 C33.4871899,29.0937341 33.1092091,29.4713634 32.7157123,29.4720851 C32.2944307,29.4720851 31.9637201,29.1366752 31.9635397,28.7085269 C31.9635397,28.2702748 32.2783733,27.9520052 32.709578,27.9529035 Z M3.26792496,27.9529054 C3.69885157,27.9532663 4.01225274,28.2731546 4.0106405,28.7115802 C4.00900319,29.1393609 3.67520206,29.4754871 3.25582941,29.4720591 C2.85956469,29.4682702 2.49326804,29.0989463 2.49144656,28.7002135 C2.4894769,28.3018417 2.8519824,27.9529054 3.26792496,27.9529054 Z M70.426105,13.8549183 C74.2312623,13.8549183 76.9618668,16.6872923 76.9618668,20.1881278 L76.9618668,20.2233671 C76.9618668,23.7242027 74.1961218,26.5918159 70.3909645,26.5918159 C66.5858072,26.5918159 63.8552027,23.759442 63.8552027,20.2585077 L63.8552027,20.2233671 C63.8552027,16.7224329 66.6209477,13.8549183 70.426105,13.8549183 Z M155.323307,13.8549183 C157.109643,13.8549183 158.289151,14.3403816 159.531248,15.3284726 L159.568907,15.3585686 L158.985138,16.0838587 C157.817597,15.0755286 156.650057,14.6863485 155.287926,14.6863485 C153.484077,14.6863485 152.287056,15.7092888 152.263296,16.9827628 L152.262936,17.0214289 L152.262936,17.0568089 C152.262936,18.3658691 152.935157,19.1619192 155.871697,19.7633793 C158.708819,20.3413117 159.916173,21.3526934 159.940036,23.1236517 L159.940398,23.1775499 L159.940398,23.2129299 C159.940398,25.2119002 158.224467,26.5917205 155.836317,26.5917205 C153.874849,26.5917205 152.364169,25.9502155 150.892326,24.650041 L150.847736,24.6104402 L151.449196,23.92053 C152.811326,25.1765202 154.067317,25.7602903 155.889387,25.7602903 C157.728263,25.7602903 158.994985,24.73735 159.020136,23.3437238 L159.020517,23.3013799 L159.020517,23.2659999 C159.020517,21.9569397 158.330608,21.1962696 155.517897,20.6301895 C152.575696,20.034744 151.367291,19.0405252 151.343417,17.2012535 L151.343056,17.1452589 L151.343056,17.1098789 C151.343056,15.2701186 153.023606,13.8549183 155.323307,13.8549183 Z M46.3024601,13.8959815 C48.095323,13.8959815 49.6245324,14.458429 50.8724195,15.460233 L49.4663009,17.4990802 C48.3765467,16.7433593 47.3043628,16.2863338 46.2673195,16.2863338 C45.2302762,16.2863338 44.685399,16.7609297 44.685399,17.3585177 L44.685399,17.3936583 C44.685399,18.2020901 45.2127058,18.4657436 47.3395033,19.0106207 C49.8354749,19.6609197 51.2415935,20.5573018 51.2415935,22.701571 L51.2415935,22.7367116 C51.2415935,25.1797747 49.3784493,26.5507527 46.724345,26.5507527 C44.8612009,26.5507527 42.9804864,25.9004537 41.5039878,24.5821867 L43.1034786,22.6664303 C44.2109019,23.5803827 45.3709374,24.1604005 46.777056,24.1604005 C47.8843805,24.1604005 48.5523485,23.7209452 48.5523485,23.000365 L48.5523485,22.9652243 C48.5523485,22.2797847 48.1304636,21.9282798 46.074046,21.4009729 C43.5956448,20.7682443 41.996154,20.0827059 41.996154,17.6396427 L41.996154,17.6045021 C41.996154,15.3723814 43.7890169,13.8959815 46.3024601,13.8959815 Z M99.6412913,14.0603331 L99.6412913,22.1175061 C99.6412913,25.1082103 97.8842598,26.5507527 95.2839523,26.5507527 C93.3686891,26.5507527 92.1035278,25.7062919 91.2600544,24.7035995 L92.9644731,22.8036367 C93.6673847,23.5776188 94.3526265,24.0350393 95.2136708,24.0350393 C96.2328477,24.0350393 96.8653788,23.4192886 96.8653788,21.9944152 L96.8653788,16.813147 L92.8213445,16.813147 L92.8213445,14.0603331 L99.6412913,14.0603331 Z M108.23473,14.0318184 L108.23473,25.5657003 L115.505321,25.5657003 L115.505321,26.4148204 L107.31485,26.4148204 L107.31485,14.0318184 L108.23473,14.0318184 Z M141.778293,14.0318184 C144.160075,14.0318184 145.761648,15.1934625 145.793441,17.0189775 L145.793923,17.0744989 L145.793923,17.1098789 C145.793923,18.7904292 144.697143,19.6395493 143.688813,20.0464194 C145.159914,20.4317076 146.457635,21.2677832 146.483442,22.9494316 L146.483833,23.0006498 L146.483833,23.0360299 C146.483833,25.0850629 144.750036,26.3885632 142.123507,26.4144283 L142.043642,26.4148204 L136.665882,26.4148204 L136.665882,14.0318184 L141.778293,14.0318184 Z M126.068465,13.9433684 L131.835405,26.4148204 L130.827075,26.4148204 L129.252665,22.9475799 L121.946694,22.9475799 L120.372283,26.4148204 L119.417023,26.4148204 L125.183964,13.9433684 L126.068465,13.9433684 Z M84.8913094,14.0603331 C87.7934712,14.0603331 89.5348077,15.5923064 89.5348077,18.1279592 L89.5348077,18.1631986 C89.5348077,20.1528885 88.4618336,21.4031446 86.896398,21.9842481 L89.9041787,26.3864012 L86.7381664,26.3864012 L84.0997566,22.4420633 L81.9714789,22.4420633 L81.9714789,26.3864012 L79.2626893,26.3864012 L79.2626893,14.0603331 L84.8913094,14.0603331 Z M62.7459038,14.0603331 L62.7459038,16.5607465 L59.0038222,16.5607465 L59.0038222,26.3864012 L56.2983888,26.3864012 L56.2983888,16.5607465 L52.556307,16.5607465 L52.556307,14.0603331 L62.7459038,14.0603331 Z M141.778293,20.5948094 L137.585762,20.5948094 L137.585762,25.5657003 L142.079023,25.5657003 C144.180595,25.5657003 145.519296,24.6121119 145.545861,23.082556 L145.546263,23.0360299 L145.546263,23.0006498 C145.546263,21.4793096 144.219513,20.5948094 141.778293,20.5948094 Z M70.3908655,16.3611557 C68.205731,16.3611557 66.6901433,18.0816644 66.6901433,20.1882265 L66.6901433,20.2233671 C66.6901433,22.3300279 68.2409698,24.0854799 70.4262034,24.0854799 C72.6113385,24.0854799 74.1269262,22.3650698 74.1269262,20.2585077 L74.1269262,20.2233671 C74.1269262,18.1167064 72.5760991,16.3611557 70.3908655,16.3611557 Z M18.0225488,14.9487277 C20.2508374,14.9487277 22.060814,16.6855307 22.0914702,18.8393183 L22.0984643,18.8393097 L22.0984643,18.8393097 C23.5866218,18.8393097 24.7930118,20.0088529 24.7930118,21.4515576 C24.7930118,22.8280886 23.6947527,23.955942 22.3013723,24.0565104 C22.2919274,24.0611815 22.281297,24.0638055 22.2700561,24.0638055 L14.3203185,24.0638055 C14.3186969,24.0638055 14.317088,24.0638055 14.3154936,24.0636435 C14.3040015,24.0638055 14.2924959,24.0638055 14.2809772,24.0638055 C12.3676319,24.0638055 10.8165591,22.5707717 10.8165591,20.7290209 C10.8165591,18.8947222 12.3551057,17.406324 14.2577705,17.3943093 C14.8667236,15.9591363 16.3229569,14.9487277 18.0225488,14.9487277 Z M125.608524,14.9516985 L122.335874,22.1161497 L128.863485,22.1161497 L125.608524,14.9516985 Z M84.6587497,16.5255072 L81.9744401,16.5255072 L81.9744401,20.0590156 L84.7113619,20.0590156 C86.0271611,20.0590156 86.7815985,19.3558083 86.7815985,18.3186662 L86.7815985,18.2835256 C86.7815985,17.1232927 85.9745489,16.5255072 84.6587497,16.5255072 Z M141.760603,14.8809385 L137.585762,14.8809385 L137.585762,19.7456893 L141.672153,19.7456893 C143.511028,19.7456893 144.829765,18.8614528 144.855956,17.2474609 L144.856353,17.1983289 L144.856353,17.1629489 C144.856353,15.8008187 143.741883,14.8809385 141.760603,14.8809385 Z M4.01052579,11.7446601 C4.01720427,12.1958706 3.71486757,12.5139491 3.27643423,12.5180057 C2.84323537,12.521878 2.50461827,12.199374 2.4918028,11.7717659 C2.47898734,11.3550369 2.82157543,11.0052427 3.2486373,10.9989733 C3.69447112,10.9921508 4.0042083,11.2956623 4.01052579,11.7446601 Z M32.7246677,10.9989448 C33.152246,11.0050278 33.4926114,11.3515703 33.4824997,11.7703707 C33.4723881,12.194701 33.1313004,12.5211515 32.7008331,12.5180179 C32.262782,12.5148843 31.959252,12.19636 31.9635855,11.7453017 C31.9679191,11.2975613 32.2786718,10.9930462 32.7246677,10.9989448 Z M17.9576064,2.5522215 C18.3861376,2.55186075 18.7146662,2.87906565 18.7162956,3.30564256 C18.7173738,3.71469385 18.3605052,4.07640794 17.9590505,4.071349 C17.5509169,4.06737412 17.1958534,3.70999627 17.1971102,3.30546188 C17.1987415,2.88051106 17.5297972,2.55258345 17.9576064,2.5522215 Z" id="path-1"></path>
    </defs>
    <g id="Page-1" stroke="none" stroke-width="1" fill="none" fill-rule="evenodd">
        <g id="Tardigrade_Security_Sheet-p1" transform="translate(-1420.000000, -484.000000)">
            <g id="Group-14" transform="translate(1420.000000, 484.000000)">
                <g id="storj-logo-horiz-labs">
                    <mask id="mask-2" fill="white">
                        <use xlink:href="#path-1"></use>
                    </mask>
                    <use id="Combined-Shape" fill="#FFFFFF" fill-rule="nonzero" xlink:href="#path-1"></use>
                    <g id="Group-13" mask="url(#mask-2)">
                        <g transform="translate(11.200000, 20.400000) rotate(-270.000000) translate(-11.200000, -20.400000) translate(-9.600000, -6.400000)">
                            <rect id="Rectangle-Copy-5" fill="#FF0000" x="0" y="0.734246575" width="8.32" height="52.8657534"></rect>
                            <rect id="Rectangle-Copy-6" fill="#FF9400" x="8.32" y="0.734246575" width="8.32" height="52.8657534"></rect>
                            <rect id="Rectangle-Copy-7" fill="#FFE900" x="16.64" y="0" width="8.32" height="53.6"></rect>
                            <rect id="Rectangle-Copy-8" fill="#00FF64" x="24.96" y="0.734246575" width="8.32" height="52.8657534"></rect>
                            <rect id="Rectangle-Copy-9" fill="#008BFF" x="33.28" y="0.734246575" width="8.32" height="52.8657534"></rect>
                        </g>
                    </g>
                </g>
                <path d="M18.0225488,14.9487277 C20.2508374,14.9487277 22.060814,16.6855307 22.0914702,18.8393183 L22.0984643,18.8393097 L22.0984643,18.8393097 C23.5866218,18.8393097 24.7930118,20.0088529 24.7930118,21.4515576 C24.7930118,22.8280886 23.6947527,23.955942 22.3013723,24.0565104 C22.2919274,24.0611815 22.281297,24.0638055 22.2700561,24.0638055 L14.3203185,24.0638055 C14.3186969,24.0638055 14.317088,24.0638055 14.3154936,24.0636435 C14.3040015,24.0638055 14.2924959,24.0638055 14.2809772,24.0638055 C12.3676319,24.0638055 10.8165591,22.5707717 10.8165591,20.7290209 C10.8165591,18.8947222 12.3551057,17.406324 14.2577705,17.3943093 C14.8667236,15.9591363 16.3229569,14.9487277 18.0225488,14.9487277 Z" id="Combined-Shape-path" fill="#FFFFFF"></path>
            </g>
        </g>
    </g>
</svg>