<svg width="49" height="32" viewBox="0 0 49 32" fill="none" xmlns="http://www.w3.org/2000/svg">
<path d="M4.49995 13.2504H44.7493C46.6823 13.2504 48.2493 14.8173 48.2493 16.7503V23.7502C48.2493 26.6497 45.8988 29.0001 42.9994 29.0001H6.24992C3.35047 29.0001 1 26.6497 1 23.7502V16.7503C1 14.8173 2.56698 13.2504 4.49995 13.2504Z" fill="white"/>
<path fill-rule="evenodd" clip-rule="evenodd" d="M4.50142 13.9064C2.93089 13.9064 1.65771 15.1795 1.65771 16.7501V25.75C1.65771 28.287 3.71438 30.3437 6.25139 30.3437H43.0008C45.5379 30.3437 47.5945 28.287 47.5945 25.75V16.7501C47.5945 15.1795 46.3213 13.9064 44.7508 13.9064H4.50142Z" fill="url(#paint0_linear)" stroke="url(#paint1_linear)" stroke-width="2"/>
<path d="M9.48077 20.6873H8.26923C7.75882 20.6873 7.46275 21.0207 7.35578 21.1677C7.23288 21.3367 7.16389 21.5168 7.12308 21.6494C7.03769 21.9269 7 22.2494 7 22.5622C7 22.875 7.03769 23.1975 7.12308 23.475C7.16389 23.6077 7.23288 23.7878 7.35578 23.9567C7.46275 24.1038 7.75882 24.4372 8.26923 24.4372H9.48077C9.99118 24.4372 10.2873 24.1038 10.3942 23.9567C10.5171 23.7878 10.5861 23.6077 10.6269 23.475C10.7123 23.1975 10.75 22.875 10.75 22.5622C10.75 22.2494 10.7123 21.9269 10.6269 21.6494C10.5861 21.5168 10.5171 21.3367 10.3942 21.1677C10.2873 21.0207 9.99118 20.6873 9.48077 20.6873Z" fill="white" stroke="url(#paint2_linear)" stroke-width="2"/>
<path d="M17.4808 20.6873H16.2692C15.7588 20.6873 15.4627 21.0207 15.3558 21.1677C15.2329 21.3367 15.1639 21.5168 15.1231 21.6494C15.0377 21.9269 15 22.2494 15 22.5622C15 22.875 15.0377 23.1975 15.1231 23.475C15.1639 23.6077 15.2329 23.7878 15.3558 23.9567C15.4627 24.1038 15.7588 24.4372 16.2692 24.4372H17.4808C17.9912 24.4372 18.2873 24.1038 18.3942 23.9567C18.5171 23.7878 18.5861 23.6077 18.6269 23.475C18.7123 23.1975 18.75 22.875 18.75 22.5622C18.75 22.2494 18.7123 21.9269 18.6269 21.6494C18.5861 21.5168 18.5171 21.3367 18.3942 21.1677C18.2873 21.0207 17.9912 20.6873 17.4808 20.6873Z" fill="white" stroke="url(#paint3_linear)" stroke-width="2"/>
<path d="M25.4808 20.6873H24.2692C23.7588 20.6873 23.4627 21.0207 23.3558 21.1677C23.2329 21.3367 23.1639 21.5168 23.1231 21.6494C23.0377 21.9269 23 22.2494 23 22.5622C23 22.875 23.0377 23.1975 23.1231 23.475C23.1639 23.6077 23.2329 23.7878 23.3558 23.9567C23.4627 24.1038 23.7588 24.4372 24.2692 24.4372H25.4808C25.9912 24.4372 26.2873 24.1038 26.3942 23.9567C26.5171 23.7878 26.5861 23.6077 26.6269 23.475C26.7123 23.1975 26.75 22.875 26.75 22.5622C26.75 22.2494 26.7123 21.9269 26.6269 21.6494C26.5861 21.5168 26.5171 21.3367 26.3942 21.1677C26.2873 21.0207 25.9912 20.6873 25.4808 20.6873Z" fill="white" stroke="url(#paint4_linear)" stroke-width="2"/>
<path d="M48.2495 14.9998L1.00023 14.9998L7.69387 4.28993C8.97302 2.24329 11.2163 0.999969 13.6298 0.999969L35.62 0.999969C38.0335 0.999969 40.2767 2.24329 41.5559 4.28993L48.2495 14.9998Z" fill="white"/>
<path fill-rule="evenodd" clip-rule="evenodd" d="M47.0645 14.3439L40.9983 4.63809C39.8391 2.78332 37.8062 1.65657 35.6189 1.65657L13.6287 1.65657C11.4415 1.65657 9.40856 2.78332 8.24933 4.63809L2.18322 14.3439L47.0645 14.3439Z" fill="url(#paint5_linear)" stroke="url(#paint6_linear)" stroke-width="2" stroke-linejoin="round"/>
<defs>
<linearGradient id="paint0_linear" x1="47.5945" y1="25.4678" x2="24.9445" y2="-0.214429" gradientUnits="userSpaceOnUse">
<stop stop-color="#205193"/>
<stop offset="1" stop-color="#0383FF" stop-opacity="0"/>
</linearGradient>
<linearGradient id="paint1_linear" x1="47.5945" y1="21.9271" x2="6.25722" y2="7.31289" gradientUnits="userSpaceOnUse">
<stop stop-color="#205193"/>
<stop offset="1" stop-color="#0383FF"/>
</linearGradient>
<linearGradient id="paint2_linear" x1="9.75" y1="22.593" x2="8" y2="22.5315" gradientUnits="userSpaceOnUse">
<stop stop-color="#205193"/>
<stop offset="1" stop-color="#0383FF"/>
</linearGradient>
<linearGradient id="paint3_linear" x1="17.75" y1="22.593" x2="16" y2="22.5315" gradientUnits="userSpaceOnUse">
<stop stop-color="#205193"/>
<stop offset="1" stop-color="#0383FF"/>
</linearGradient>
<linearGradient id="paint4_linear" x1="25.75" y1="22.593" x2="24" y2="22.5315" gradientUnits="userSpaceOnUse">
<stop stop-color="#205193"/>
<stop offset="1" stop-color="#0383FF"/>
</linearGradient>
<linearGradient id="paint5_linear" x1="47.0645" y1="-54.0024" x2="47.0645" y2="14.3439" gradientUnits="userSpaceOnUse">
<stop stop-color="#205193"/>
<stop offset="1" stop-color="#0383FF" stop-opacity="0"/>
</linearGradient>
<linearGradient id="paint6_linear" x1="2.18322" y1="7.4433" x2="43.432" y2="20.2536" gradientUnits="userSpaceOnUse">
<stop stop-color="#205193"/>
<stop offset="1" stop-color="#0383FF"/>
</linearGradient>
</defs>
</svg>
