<?xml version="1.0" encoding="UTF-8"?>
<svg width="822px" height="842px" viewBox="0 0 822 842" version="1.1" xmlns="http://www.w3.org/2000/svg" xmlns:xlink="http://www.w3.org/1999/xlink">
    <!-- Generator: Sketch 53.2 (72643) - https://sketchapp.com -->
    <title>Group 20 Copy</title>
    <desc>Created with Sketch.</desc>
    <g id="Page-1" stroke="none" stroke-width="1" fill="none" fill-rule="evenodd">
        <g id="Group-18" transform="translate(-3603.000000, -2267.000000)" fill="#FFFFFF" fill-rule="nonzero">
            <g id="Group-13" transform="translate(0.000000, 1436.000000)">
                <g id="Group-20-Copy" transform="translate(3603.000000, 831.000000)">
                    <g id="Group-22">
                        <path d="M782.377358,703.806452 L725.225806,703.806452 L725.225806,664.903226 L782.377358,664.903226 L821.612903,664.903226 L821.612903,778.76856 C821.612903,821.032985 796.78028,841.419355 760.027998,841.419355 C732.960438,841.419355 715.080949,829.48587 703.16129,815.314857 L727.248935,788.464516 C737.181984,799.403544 746.866707,805.867515 759.034693,805.867515 C773.437614,805.867515 782.377358,797.166015 782.377358,777.02826 L782.377358,703.806452 Z M137.612903,787.519355 C137.612903,822.045161 111.282637,841.419355 73.7744265,841.419355 C47.4441598,841.419355 20.8654944,832.229032 -1.70530257e-13,813.6 L22.6042855,786.525806 C38.2534063,799.441935 54.6477233,807.63871 74.5196227,807.63871 C90.1687434,807.63871 99.6078957,801.429032 99.6078957,791.245161 L99.6078957,790.748387 C99.6078957,781.06129 93.6463258,776.093548 64.583673,768.641935 C29.5594503,759.7 6.95516478,750.012903 6.95516478,715.487097 L6.95516478,714.990323 C6.95516478,683.445161 32.2918365,662.580645 67.8128566,662.580645 C93.1495284,662.580645 114.760219,670.529032 132.39653,684.687097 L112.52463,713.5 C97.1239082,702.819355 81.971585,696.36129 67.3160592,696.36129 C52.6605334,696.36129 44.9601724,703.067742 44.9601724,711.512903 L44.9601724,712.009677 C44.9601724,723.435484 52.4121346,727.16129 82.4683824,734.86129 C117.741004,744.051613 137.612903,756.719355 137.612903,787.022581 L137.612903,787.519355 Z M300.193548,700.239631 L247.31079,700.239631 L247.31079,839.096774 L209.076307,839.096774 L209.076307,700.239631 L156.193548,700.239631 L156.193548,664.903226 L300.193548,664.903226 L300.193548,700.239631 Z M501.096774,752 C501.096774,801.475138 462.010146,842 408.234912,842 C354.459677,842 315.870968,801.972376 315.870968,752.497238 L315.870968,752 C315.870968,702.524862 354.957596,662 408.73283,662 C462.508065,662 501.096774,702.027624 501.096774,751.502762 L501.096774,752 Z M461.032258,752.496188 L461.032258,752 C461.032258,722.228739 439.116343,697.419355 408.234826,697.419355 C377.35331,697.419355 355.935484,721.732551 355.935484,751.503812 L355.935484,752 C355.935484,781.771261 377.851399,806.580645 408.732915,806.580645 C439.614432,806.580645 461.032258,782.267449 461.032258,752.496188 Z M684,839.096774 L639.256732,839.096774 L601.970674,783.354839 L571.893255,783.354839 L571.893255,839.096774 L533.612903,839.096774 L533.612903,664.903226 L613.156492,664.903226 C654.171154,664.903226 678.779952,686.552995 678.779952,722.387097 L678.779952,722.884793 C678.779952,751.004608 663.616955,768.672811 641.493895,776.884793 L684,839.096774 Z M639.870968,725.08233 L639.870968,724.58546 C639.870968,708.188734 628.465741,699.741935 609.870261,699.741935 L571.935484,699.741935 L571.935484,749.677419 L610.614081,749.677419 C629.20956,749.677419 639.870968,739.74001 639.870968,725.08233 Z" id="Combined-Shape"></path>
                        <path d="M358.831445,365 C358.979016,365 359.126554,364.999581 359.274056,364.998744 C359.309782,364.999147 359.347038,364.999564 359.385965,365 L397.050262,365 C397.058,367.69241 397.061438,369.284549 397.060578,369.776416 C396.97634,408.176366 396.983998,446.566101 397.05292,484.963497 C397.055473,487.673331 396.202885,489.215969 393.734464,490.398489 C380.802694,496.635448 371.04388,512.728437 373.706303,529.940094 C376.79502,549.935652 397.326054,565.03512 417.139792,561.158092 C434.594873,557.748452 446.061416,545.823652 448.517073,527.480556 C450.178854,515.03984 444.197975,498.617381 428.20812,490.393381 C426.03836,489.284929 424.841163,488.071761 424.848821,485.405346 C424.927954,448.108739 424.935612,410.812133 424.848821,373.523189 C424.848821,372.325075 425.047537,371.471231 425.43834,370.845072 L425.43834,365 L471.438596,365 C472.879693,365 474.310808,364.884808 475.719304,364.658707 C486.334697,363.573123 496.17664,359.950861 504.601294,354.42082 L570.746498,392.757592 L570.486652,392.959185 C572.250392,393.964272 574.014788,394.968112 575.779876,395.970622 C579.067701,397.832515 580.336372,399.891069 580.239371,403.742558 C579.65226,426.059735 599.100967,444.290454 621.776235,441.87178 C644.037972,439.504188 659.81085,418.065599 654.646822,396.38693 C648.456624,370.407263 620.33143,358.684232 597.612767,372.726329 C595.218373,374.202562 593.48767,374.6061 590.932459,373.109434 C571.708386,361.87167 552.438365,350.710527 533.089211,339.689857 C532.080291,339.116235 531.379814,338.556901 530.935643,337.938643 L524.212605,334.050144 C529.797662,324.745154 533,313.900597 533,302.317073 C533,279.326708 520.429438,259.372658 501.776182,248.46574 L502.016309,248.327095 C502.339853,248.083022 502.711244,247.842667 503.131208,247.601488 C511.31315,242.913189 519.491717,238.218334 527.666743,233.517034 L581.998143,202.147141 C585.001454,200.406176 588.004239,198.664369 591.006486,196.921726 C593.36259,195.560424 594.960554,195.537438 597.273263,197.090293 C605.515798,202.624892 614.756423,204.376961 624.451421,202.678526 C643.323227,199.368494 657.000373,182.281985 655.318171,162.112752 C653.487915,140.232315 632.037923,123.87626 610.613458,128.621661 C591.813126,132.787296 580.001974,147.488335 580.21895,166.814735 C580.249582,170.106889 579.33573,171.984106 576.400172,173.664663 C568.825508,178.001055 561.255656,182.344919 553.690278,186.696042 L553.695378,186.704891 L484.443654,226.837363 C472.240215,205.449082 450.462626,190.059978 424.905627,186.038815 C424.913201,153.524283 424.976032,121.009904 424.800321,88.4977354 C424.774794,83.6195242 425.91328,80.7922049 430.482539,78.1666546 C446.862951,68.7499191 453.088885,48.4785252 445.594279,31.1928008 C438.035857,13.7563883 418.727546,4.4418143 400.618984,9.96108888 C384.136467,14.9848802 374.949448,26.6338443 373.333615,43.5875438 C372.09047,56.6693228 378.275562,71.2017949 393.198405,79.3619441 C395.490693,80.6134223 397.088657,81.7142124 397.078447,84.8607863 C397.048018,94.431261 397.025619,104.001263 397.010622,113.571027 L397.56166,113.571027 L397.56166,186.151713 C374.905891,189.911776 354.935299,202.658197 342.275398,221.133664 C339.033896,221.847071 335.870326,222.765479 332.800323,223.874458 C304.271749,207.56351 275.869368,191.024323 247.290983,174.790993 C243.005069,172.35955 240.937415,169.751878 241.652159,164.81237 C241.938057,162.843207 241.330524,160.733572 241.008889,158.705666 C238.08099,140.242531 220.033692,124.798267 198.249302,128.379028 C176.878443,131.898491 163.308509,151.247878 166.836284,171.958566 C171.334068,198.408176 201.50139,211.796439 224.260895,197.327818 C226.82887,195.695788 228.60552,195.568087 231.237312,197.103063 C239.344093,201.834267 247.463076,206.545344 255.588451,211.245901 L255.895604,210.712946 L306.581231,240.028716 C292.671625,253.219957 284,271.656939 284,292.170732 C284,308.026324 289.178712,322.636541 297.949188,334.543606 L238.902032,368.636284 L238.865072,368.381863 C235.99971,370.019835 233.133012,371.655415 230.264749,373.288217 C228.983314,374.016118 226.494472,373.865429 225.192616,373.078786 C219.068787,369.38054 212.546744,366.923556 205.40951,366.732003 C181.664678,366.124142 167.224288,385.529718 166.412542,402.388918 C165.473164,422.136734 180.406218,442.36471 204.556922,442.183373 C225.736332,442.025023 241.853819,425.033012 241.644501,403.831949 C241.611317,400.044312 242.724276,397.901474 246.045285,396.014041 C262.359717,386.719614 286.713076,372.680728 319.105363,353.897382 C330.643239,360.939953 344.276266,365 358.831445,365 Z M640.711857,205.523724 C637.952433,207.173632 636.995186,208.854189 637.002844,212.000762 C637.097293,260.71647 637.089635,309.434731 637.015608,358.140222 C637.010502,361.067149 637.755879,362.831988 640.438723,364.377181 C657.735539,374.378791 666.488606,392.826602 663.38202,412.219407 C660.403067,430.802583 645.556804,446.068064 626.325073,449.722891 C615.175059,451.850404 604.37476,450.157077 594.603182,444.157644 C591.624229,442.334061 589.525944,442.65587 586.733335,444.264913 C544.877389,468.523159 502.975496,492.717555 461.025101,516.820004 C458.155913,518.472467 457.081244,520.285833 457.088902,523.63673 C457.132297,547.07513 439.051815,567.471672 416.46589,569.744765 C392.409634,572.173655 371.140881,557.048646 365.943668,533.691975 C365.147238,530.100998 364.879209,526.346564 364.797524,522.671304 C364.73626,520.181118 364.047042,518.656357 361.833887,517.374231 C319.304039,492.896337 276.809929,468.359701 234.333687,443.787308 C232.033741,442.446439 230.226459,442.436223 227.906092,443.840943 C200.151033,460.557117 164.776288,444.533087 158.889857,413.304873 C155.175738,393.577489 163.201297,375.132232 180.847828,364.742408 C183.635331,363.095054 184.896344,361.437484 184.891239,358.027844 C184.763606,309.307029 184.784027,260.59643 184.860607,211.883277 C184.86316,208.95635 184.102467,207.224713 181.424728,205.669304 C163.709277,195.37398 155.374846,177.485503 158.77754,157.400553 C162.15726,137.448414 177.577872,122.811226 197.646875,119.950705 C208.403779,118.420836 218.777784,120.382337 228.084778,126.328136 C230.24688,127.712424 231.852502,127.669005 234.052894,126.399649 C276.404056,101.878337 318.788402,77.4259838 361.205933,53.0298196 C363.771355,51.5535861 364.771997,49.8602594 364.779655,46.8362792 C364.848577,20.0061175 386.038197,-0.533450329 412.887062,0.0105596133 C433.813759,0.429421728 453.395204,17.712592 456.363946,38.3747537 C456.634528,40.2749574 457.060822,41.4447065 457.060822,44.0600407 C457.060822,49.7887463 459.169318,52.2176358 463.626261,54.766565 C504.785331,78.330113 545.829531,102.077552 586.845652,125.865855 C589.663787,127.505547 591.71102,127.571952 594.646577,125.90672 C622.506295,110.007837 656.285629,125.245224 663.068043,156.705855 C663.706208,159.632782 663.644944,162.712951 663.867025,165.387028 C663.410099,183.244857 655.66278,196.553945 640.711857,205.523724 Z M607.284791,404.539417 C607.284791,398.335661 611.73918,393.830339 617.840035,393.843109 C623.713703,393.873758 628.719467,398.723874 628.778178,404.46535 C628.841994,409.992287 623.494174,415.337887 617.926825,415.348103 C611.966367,415.348103 607.287344,410.600148 607.284791,404.539417 Z M400.205454,46.1594593 C400.228427,40.1523636 404.910004,35.516786 410.959805,35.5116779 C417.019817,35.5065698 421.665656,40.1319313 421.68863,46.1620134 C421.703946,51.9443538 416.657339,57.0575364 410.980226,56.9860234 C405.208665,56.9298346 400.187585,51.8779488 400.205454,46.1594593 Z M214.601634,404.582836 C214.578661,410.638458 209.858794,415.39663 203.928968,415.348103 C198.325882,415.294468 193.146537,410.066354 193.121011,404.421932 C193.092932,398.782617 198.21867,393.843109 204.099996,393.843109 C210.193193,393.848217 214.624608,398.376525 214.601634,404.582836 Z M411.077227,513.377162 C417.121923,513.418027 421.714156,518.017848 421.686077,524.004511 C421.647787,529.968188 416.986632,534.46074 410.860251,534.422429 C404.784923,534.391781 400.139084,529.758757 400.205454,523.789972 C400.274375,517.85439 405.009557,513.33119 411.077227,513.377162 Z M204.219971,176.113985 C198.09359,176.167619 193.304802,171.700608 193.123564,165.777796 C192.942325,160.005671 197.787271,155.160663 203.826862,155.073825 C210.131929,154.979326 214.512291,159.183271 214.601634,165.402352 C214.696083,171.652081 210.420379,176.057796 204.219971,176.113985 Z M617.707297,176.129309 C611.514546,176.08589 607.223527,171.672514 607.284791,165.422784 C607.346055,159.219028 611.73918,154.999758 618.044248,155.081487 C624.088944,155.165771 628.900705,159.967361 628.757756,165.770134 C628.614808,171.649527 623.792835,176.172727 617.707297,176.129309 Z M358.831445,339 C331.862583,339 310,318.033822 310,292.170732 C310,266.412286 331.686024,245.511206 358.504342,245.342488 C367.087619,225.188832 387.613425,211 411.569405,211 C442.977435,211 468.489301,235.389346 468.921404,265.634267 C468.954255,265.634187 468.987116,265.634146 469.019987,265.634146 C489.995769,265.634146 507,282.057652 507,302.317073 C507,321.647239 491.519889,337.485309 471.880003,338.897557 C471.746876,338.963151 471.597039,339 471.438596,339 L359.385965,339 C359.363109,339 359.340432,338.999233 359.317958,338.997724 C359.155974,338.99924 358.993802,339 358.831445,339 Z" id="Shape"></path>
                    </g>
                </g>
            </g>
        </g>
    </g>
</svg>