<svg width="103" height="41" viewBox="0 0 103 41" fill="none" xmlns="http://www.w3.org/2000/svg">
<path d="M33.0762 28.3291C32.6374 28.3281 32.317 28.6522 32.317 29.0985C32.3172 29.5344 32.6537 29.8759 33.0825 29.8759C33.4829 29.8752 33.8676 29.4907 33.863 29.0931C33.8588 28.6801 33.4987 28.3313 33.0762 28.3291Z" fill="#0055C6"/>
<path d="M18.1954 2.55435C17.7602 2.55472 17.4234 2.88815 17.4218 3.32024C17.4205 3.73157 17.7817 4.09495 18.1968 4.09899C18.6052 4.10414 18.9682 3.73635 18.9671 3.32043C18.9654 2.88668 18.6312 2.55398 18.1954 2.55435Z" fill="#0055C6"/>
<path d="M3.30366 29.8759C3.73019 29.8794 4.06969 29.5372 4.07134 29.1016C4.073 28.6552 3.75425 28.3294 3.31596 28.3291C2.89292 28.3291 2.52423 28.6844 2.52625 29.09C2.52808 29.496 2.90063 29.8721 3.30366 29.8759Z" fill="#0055C6"/>
<path d="M18.9669 37.6916C18.9689 37.2609 18.6386 36.9301 18.2038 36.9271C17.7673 36.9238 17.4268 37.2492 17.4218 37.6761C17.417 38.1055 17.7512 38.4387 18.1882 38.4409C18.6289 38.4437 18.9641 38.1205 18.9669 37.6916Z" fill="#0055C6"/>
<path d="M2.52643 11.9244C2.53947 12.3504 2.88392 12.6717 3.32459 12.6678C3.77059 12.6638 4.07814 12.3469 4.07134 11.8974C4.06492 11.45 3.74984 11.1476 3.29632 11.1544C2.86189 11.1607 2.51339 11.5092 2.52643 11.9244Z" fill="#0055C6"/>
<path d="M32.317 11.8988C32.3126 12.3484 32.6212 12.6658 33.0667 12.669C33.5044 12.6721 33.8512 12.3467 33.8615 11.9238C33.8718 11.5064 33.5257 11.161 33.0909 11.155C32.6374 11.1491 32.3214 11.4526 32.317 11.8988Z" fill="#0055C6"/>
<path d="M10.9333 21.0158C10.9333 22.8761 12.5059 24.3842 14.4458 24.3842L14.4808 24.384L14.4857 24.3842H22.5456C22.557 24.3842 22.5678 24.3816 22.5773 24.3768C23.99 24.2753 25.1035 23.136 25.1035 21.7456C25.1035 20.2884 23.8804 19.107 22.3716 19.107L22.3645 19.107C22.3334 16.9315 20.4984 15.1772 18.2392 15.1772C16.5161 15.1772 15.0396 16.1978 14.4222 17.6474C12.4932 17.6596 10.9333 19.163 10.9333 21.0158Z" fill="#0055C6"/>
<path fill-rule="evenodd" clip-rule="evenodd" d="M34.4546 15.2492C34.454 15.0228 34.5229 14.902 34.7214 14.7833C35.7968 14.1381 36.3541 13.1808 36.3869 11.8963C36.3821 11.8385 36.3792 11.7781 36.3761 11.7162C36.3691 11.5719 36.3616 11.4192 36.3294 11.2718C35.8416 9.00887 33.4118 7.91285 31.4079 9.05645C31.1968 9.17623 31.0495 9.17145 30.8468 9.05351C27.8965 7.34242 24.9442 5.63427 21.9836 3.93935C21.6631 3.75601 21.5114 3.5813 21.5114 3.16923C21.5114 3.03673 21.4962 2.95582 21.4804 2.87179C21.4738 2.83652 21.467 2.8007 21.4613 2.76029C21.2477 1.27406 19.8392 0.0308882 18.334 0.000759551C16.4027 -0.038371 14.8786 1.43904 14.8736 3.36893C14.8731 3.58644 14.8011 3.70824 14.6166 3.81443C11.5655 5.56924 8.51678 7.32809 5.47047 9.0919C5.3122 9.18321 5.1967 9.18633 5.04118 9.08676C4.37173 8.65908 3.62553 8.51799 2.85179 8.62803C1.40823 8.83379 0.299031 9.88664 0.0559283 11.3218C-0.188827 12.7665 0.410667 14.0532 1.68494 14.7938C1.87755 14.9056 1.93226 15.0302 1.93208 15.2407C1.92657 18.7447 1.9251 22.2484 1.93428 25.7529C1.93465 25.9981 1.84394 26.1174 1.64344 26.2359C0.374128 26.9832 -0.203149 28.31 0.0640072 29.7289C0.487417 31.9752 3.03192 33.1278 5.02833 31.9254C5.19524 31.8244 5.32523 31.8251 5.49067 31.9215C8.54598 33.689 11.6026 35.4539 14.6617 37.2146C14.8209 37.3069 14.8705 37.4165 14.8749 37.5957C14.8808 37.86 14.9001 38.1301 14.9573 38.3884C15.3312 40.0684 16.861 41.1563 18.5914 40.9816C20.216 40.8181 21.5165 39.351 21.5134 37.6651C21.5129 37.4241 21.5902 37.2936 21.7965 37.1748C24.814 35.4411 27.828 33.7008 30.8387 31.9559C31.0396 31.8402 31.1905 31.817 31.4048 31.9482C32.1077 32.3797 32.8845 32.5015 33.6865 32.3485C35.0699 32.0856 36.1378 30.9876 36.352 29.6509C36.5755 28.256 35.9459 26.929 34.7017 26.2096C34.5087 26.0984 34.4551 25.9715 34.4555 25.761C34.4608 22.2576 34.4614 18.7533 34.4546 15.2492ZM14.4776 26.2543L14.4458 26.2544C13.3988 26.2544 12.4182 25.9623 11.5883 25.4558C9.25831 26.8069 7.50658 27.8167 6.33308 28.4852C6.0942 28.621 6.01415 28.7751 6.01653 29.0476C6.03159 30.5725 4.87226 31.7948 3.34883 31.8062C1.61168 31.8192 0.537543 30.3642 0.605113 28.9438C0.663501 27.7311 1.7022 26.3352 3.41016 26.379C3.92354 26.3927 4.39267 26.5695 4.83315 26.8355C4.92679 26.8921 5.10582 26.9029 5.19799 26.8506C5.4043 26.7331 5.6105 26.6155 5.81661 26.4976L5.81927 26.5159L10.0665 24.0637C9.43566 23.2072 9.06316 22.1563 9.06316 21.0158C9.06316 19.5402 9.68691 18.2141 10.6874 17.2652L7.04161 15.1565L7.01952 15.1949C6.43506 14.8568 5.85107 14.5179 5.26795 14.1776C5.07864 14.0672 4.95085 14.0764 4.76613 14.1938C3.12905 15.2345 0.959117 14.2715 0.635592 12.369C0.38184 10.8792 1.35792 9.48744 2.89512 9.23428C4.46207 8.97672 5.76021 10.0876 5.97081 11.4157C5.97631 11.4504 5.98298 11.4854 5.98966 11.5205C6.0111 11.6331 6.03276 11.747 6.01708 11.8549C5.96567 12.2102 6.1144 12.3978 6.42268 12.5727C7.6048 13.2442 8.78272 13.9229 9.9606 14.6016C10.831 15.1032 11.7014 15.6047 12.5734 16.1033C12.7942 16.0235 13.0217 15.9574 13.2549 15.9061C14.1655 14.5772 15.602 13.6603 17.2316 13.3899V8.16914H17.192C17.1931 7.48079 17.1947 6.79242 17.1969 6.10402C17.1976 5.87769 17.0827 5.79851 16.9178 5.70849C15.8444 5.12153 15.3995 4.07621 15.4889 3.13524C15.6051 1.91577 16.266 1.07786 17.4515 0.716499C18.7541 0.319499 20.1429 0.989494 20.6866 2.24369C21.2257 3.48705 20.7779 4.94517 19.5996 5.62251C19.271 5.81137 19.1891 6.01474 19.1909 6.36563C19.2012 8.26462 19.2001 10.1637 19.1991 12.0629C19.1988 12.5025 19.1986 12.9421 19.1985 13.3817C21.0368 13.671 22.6032 14.7779 23.481 16.3164L28.4623 13.4297C29.0065 13.1167 29.5506 12.8036 30.0954 12.4917C30.3066 12.3708 30.3723 12.2358 30.3701 11.999C30.3545 10.6088 31.2041 9.55137 32.5564 9.25173C34.0975 8.9104 35.6404 10.0869 35.772 11.6607C35.893 13.1115 34.9092 14.3405 33.5518 14.5786C32.8544 14.7008 32.1897 14.5748 31.5968 14.1767C31.4305 14.065 31.3155 14.0666 31.1461 14.1645L30.4981 14.5404L26.5901 16.7968C26.002 17.135 25.4137 17.4727 24.8252 17.8099C24.795 17.8273 24.7683 17.8446 24.745 17.8621L24.7278 17.8721C26.0695 18.6566 26.9737 20.0919 26.9737 21.7456C26.9737 22.5788 26.7433 23.3589 26.3416 24.0282L26.8252 24.3079C26.8571 24.3523 26.9075 24.3926 26.9801 24.4338C28.3719 25.2265 29.758 26.0294 31.1408 26.8377C31.3245 26.9454 31.449 26.9163 31.6213 26.8101C33.2554 25.8001 35.2785 26.6433 35.7237 28.512C36.0952 30.0714 34.9606 31.6135 33.3593 31.7838C31.7283 31.9577 30.3294 30.6464 30.3716 29.0411C30.3786 28.7641 30.2873 28.616 30.0508 28.4821C29.9239 28.41 29.797 28.3378 29.6701 28.2655L29.6888 28.251L24.931 25.4934C24.325 25.8912 23.6171 26.1518 22.8535 26.2298C22.7522 26.2461 22.6492 26.2544 22.5456 26.2544H19.2368V26.6748C19.2087 26.7199 19.1944 26.7813 19.1944 26.8675C19.2006 29.5496 19.2001 32.2324 19.1944 34.9151C19.1938 35.1069 19.2799 35.1942 19.436 35.2739C20.5862 35.8655 21.0164 37.0467 20.8968 37.9416C20.7202 39.261 19.8954 40.1187 18.6399 40.364C17.2147 40.6429 15.7379 39.5568 15.5157 38.1185C15.3242 36.8805 16.0262 35.7229 16.9563 35.2743C17.1339 35.1892 17.1952 35.0783 17.195 34.8833C17.1901 32.1214 17.1895 29.3601 17.1956 26.598C17.1956 26.5626 17.1954 26.4481 17.1948 26.2544H14.4857L14.4776 26.2543Z" fill="#0055C6"/>
<path d="M95.309 16.9215H99.4059V22.1704C99.4059 23.614 98.765 24.2378 97.7326 24.2378C96.8603 24.2378 96.166 23.7744 95.454 22.9902L93.7272 24.915C94.5817 25.9309 95.8634 26.7863 97.8038 26.7863C100.438 26.7863 102.219 25.3249 102.219 22.2952V14.1327H95.309V16.9215Z" fill="#0055C6"/>
<path d="M48.6094 26.7863C51.2981 26.7863 53.1856 25.3975 53.1856 22.9225V22.8869C53.1856 20.7146 51.7611 19.8065 49.2326 19.1477C47.078 18.5957 46.5438 18.3286 46.5438 17.5095V17.4739C46.5438 16.8685 47.0958 16.3878 48.1464 16.3878C49.197 16.3878 50.2832 16.8507 51.3872 17.6164L52.8117 15.5509C51.5474 14.536 49.9983 13.9662 48.182 13.9662C45.6357 13.9662 43.8194 15.4619 43.8194 17.7232V17.7588C43.8194 20.2338 45.4398 20.9282 47.9505 21.5693C50.0339 22.1034 50.4612 22.4595 50.4612 23.154V23.1896C50.4612 23.9196 49.7846 24.3648 48.6628 24.3648C47.2383 24.3648 46.063 23.7772 44.9412 22.8513L43.3208 24.7921C44.8166 26.1275 46.7219 26.7863 48.6094 26.7863Z" fill="#0055C6"/>
<path d="M61.0494 16.6658H64.8403V14.1327H54.5176V16.6658H58.3085V26.6198H61.0494V16.6658Z" fill="#0055C6"/>
<path fill-rule="evenodd" clip-rule="evenodd" d="M72.5853 26.828C76.4402 26.828 79.2422 23.9229 79.2422 20.3763V20.3406C79.2422 16.794 76.4759 13.9246 72.621 13.9246C68.7661 13.9246 65.9642 16.8296 65.9642 20.3763V20.4119C65.9642 23.9586 68.7304 26.828 72.5853 26.828ZM76.3701 20.3763V20.4118C76.3701 22.546 74.8348 24.2889 72.621 24.2889C70.4073 24.2889 68.8362 22.5104 68.8362 20.3763V20.3407C68.8362 18.2065 70.3716 16.4636 72.5853 16.4636C74.7991 16.4636 76.3701 18.2421 76.3701 20.3763Z" fill="#0055C6"/>
<path fill-rule="evenodd" clip-rule="evenodd" d="M89.1462 26.6198H92.3537L89.3066 22.1601C90.8925 21.5715 91.9795 20.3049 91.9795 18.2891V18.2534C91.9795 15.6847 90.2154 14.1327 87.2752 14.1327H81.5731V26.6198H84.3172V22.624H86.4734L89.1462 26.6198ZM89.1903 18.411V18.4467C89.1903 19.4974 88.426 20.2098 87.093 20.2098H84.3203V16.6301H87.0396C88.3727 16.6301 89.1903 17.2356 89.1903 18.411Z" fill="#0055C6"/>
</svg>
