<svg width="52" height="37" viewBox="0 0 52 37" fill="none" xmlns="http://www.w3.org/2000/svg">
<path d="M22.9048 1.76196C28.1371 1.76196 32.7036 4.613 35.1355 8.84633C35.4601 8.82174 35.7882 8.80958 36.1191 8.80958C43.4171 8.80958 49.3333 14.7258 49.3333 22.0239C49.3333 29.0261 43.8869 34.7563 36.9993 35.2093L37 35.2382L36.2272 35.2377C36.1912 35.238 36.1551 35.2382 36.1191 35.2382L36.0116 35.2364L12.4132 35.2379C12.3866 35.2381 12.36 35.2382 12.3333 35.2382C6.4949 35.2382 1.76191 30.5052 1.76191 24.6667C1.76191 20.0451 4.72767 16.1161 8.85986 14.6792C9.45583 7.44648 15.5165 1.76196 22.9048 1.76196Z" fill="url(#paint0_linear)"/>
<path d="M22.9048 1.76196C28.1371 1.76196 32.7036 4.613 35.1355 8.84633C35.4601 8.82174 35.7882 8.80958 36.1191 8.80958C43.4171 8.80958 49.3333 14.7258 49.3333 22.0239C49.3333 29.0261 43.8869 34.7563 36.9993 35.2093L37 35.2382L36.2272 35.2377C36.1912 35.238 36.1551 35.2382 36.1191 35.2382L36.0116 35.2364L12.4132 35.2379C12.3866 35.2381 12.36 35.2382 12.3333 35.2382C6.4949 35.2382 1.76191 30.5052 1.76191 24.6667C1.76191 20.0451 4.72767 16.1161 8.85986 14.6792C9.45583 7.44648 15.5165 1.76196 22.9048 1.76196Z" stroke="url(#paint1_linear)" stroke-width="2"/>
<defs>
<linearGradient id="paint0_linear" x1="1.76191" y1="74.0639" x2="1.76191" y2="1.76196" gradientUnits="userSpaceOnUse">
<stop stop-color="#205193"/>
<stop offset="1" stop-color="#0383FF" stop-opacity="0"/>
</linearGradient>
<linearGradient id="paint1_linear" x1="49.3333" y1="26.7887" x2="9.7152" y2="-1.09068" gradientUnits="userSpaceOnUse">
<stop stop-color="#205193"/>
<stop offset="1" stop-color="#0383FF"/>
</linearGradient>
</defs>
</svg>
