<?xml version="1.0" encoding="UTF-8"?>
<svg width="160px" height="23px" viewBox="0 0 160 23" version="1.1" xmlns="http://www.w3.org/2000/svg" xmlns:xlink="http://www.w3.org/1999/xlink">
    <!-- Generator: Sketch 53.2 (72643) - https://sketchapp.com -->
    <title>Combined-Shapewhite</title>
    <desc>Created with Sketch.</desc>
    <g id="Page-1" stroke="none" stroke-width="1" fill="none" fill-rule="evenodd">
        <g id="tardigrade-logo-logotype-horizontal-copy" fill="#FFFFFF" fill-rule="nonzero">
            <path d="M6.24512725,5.93306197 L6.24512725,21.1193601 C6.24512725,21.7247175 5.75438811,22.2154567 5.14903069,22.2154567 C4.98491164,22.2154567 4.8228874,22.178602 4.6749159,22.1076125 L0.621981761,20.1632145 C0.241838978,19.9808407 -1.42108547e-14,19.5965884 -1.42108547e-14,19.1749621 L-1.42108547e-14,8.77706375 L6.24512725,5.93306197 Z M13.9811018,2.41013529 L13.9811018,21.1193601 C13.9811018,21.7247175 13.4903627,22.2154567 12.8850053,22.2154567 C12.7208862,22.2154567 12.558862,22.178602 12.4108905,22.1076125 L8.35795632,20.1632145 C7.97781354,19.9808407 7.73597456,19.5965884 7.73597456,19.1749621 L7.73597456,5.25413707 L13.9811018,2.41013529 Z M15.4719491,1.73121038 L16.0997821,1.44529817 C17.8902505,0.629927206 19.7942235,0.157611013 21.7170764,0.0299482127 L21.7170764,21.1193601 C21.7170764,21.7247175 21.2263372,22.2154567 20.6209798,22.2154567 C20.4568608,22.2154567 20.2948365,22.178602 20.146865,22.1076125 L16.0939309,20.1632145 C15.7137881,19.9808407 15.4719491,19.5965884 15.4719491,19.1749621 L15.4719491,1.73121038 Z M29.4530509,1.42720431 L29.4530509,21.1193601 C29.4530509,21.7247175 28.9623118,22.2154567 28.3569544,22.2154567 C28.1928353,22.2154567 28.0308111,22.178602 27.8828396,22.1076125 L23.8299054,20.1632145 C23.4497627,19.9808407 23.2079237,19.5965884 23.2079237,19.1749621 L23.2079237,3.37507799e-14 C25.1685593,0.0512315272 27.1234556,0.459941709 28.9728363,1.2278162 L29.4530509,1.42720431 Z M37.1890255,8.91835278 L37.1890255,9.17857008 L37.1850518,9.17857008 L37.1850518,13.4593433 L30.9438982,16.0507094 L30.9438982,2.04621346 L37.1850518,4.63757957 L37.1850518,8.91835278 L37.1890255,8.91835278 Z M50.2810311,13.2297271 L50.2810311,8.76267102 L49.176815,8.76267102 L49.176815,6.83865812 L50.2810311,6.83865812 L50.2810311,4.54657319 L52.6400382,4.54657319 L52.6400382,6.83865812 L54.714626,6.83865812 L54.714626,8.76267102 L52.6400382,8.76267102 L52.6400382,13.2464576 C52.6400382,13.8654878 52.8909964,14.1331766 53.6271405,14.1331766 L54.714626,14.1331766 L54.714626,16.1073811 L53.2423379,16.1073811 C51.4688999,16.1073811 50.2810311,15.3545065 50.2810311,13.2297271 Z M55.7914325,11.4395585 C55.7914325,8.54517391 57.6652538,6.6880832 60.0242609,6.6880832 C61.5132796,6.6880832 62.5338429,7.39076617 63.085951,8.16037133 L63.085951,6.83865812 L65.4449581,6.83865812 L65.4449581,16.1073811 L63.085951,16.1073811 L63.085951,14.7522068 C62.5338429,15.5552731 61.4798185,16.2579561 60.0075303,16.2579561 C57.6652538,16.2579561 55.7914325,14.3339432 55.7914325,11.4395585 Z M63.085951,11.4730196 C63.085951,9.7163122 61.9148127,8.74594047 60.6265606,8.74594047 C59.3717696,8.74594047 58.1839007,9.6828511 58.1839007,11.4395585 C58.1839007,13.196266 59.3717696,14.2000988 60.6265606,14.2000988 C61.9148127,14.2000988 63.085951,13.2297271 63.085951,11.4730196 Z M70.0686405,11.4897502 L70.0686405,16.1073811 L67.726364,16.1073811 L67.726364,6.83865812 L70.0686405,6.83865812 L70.0686405,8.27748516 C70.6542097,7.32384398 71.6245814,6.70481374 72.9128335,6.70481374 L72.9128335,9.16420415 L72.2938033,9.16420415 C70.9051679,9.16420415 70.0686405,9.69958165 70.0686405,11.4897502 Z M73.8725262,11.4395585 C73.8725262,8.54517391 75.7463474,6.6880832 78.1220851,6.6880832 C79.343415,6.6880832 80.5145533,7.25692179 81.1503141,8.12691024 L81.1503141,3.72677638 L83.5260518,3.72677638 L83.5260518,16.1073811 L81.1503141,16.1073811 L81.1503141,14.7354763 C80.5982061,15.5887342 79.5609122,16.2579561 78.1053546,16.2579561 C75.7463474,16.2579561 73.8725262,14.3339432 73.8725262,11.4395585 Z M81.1670447,11.4730196 C81.1670447,9.7163122 79.9959064,8.74594047 78.7076543,8.74594047 C77.4528632,8.74594047 76.2649944,9.6828511 76.2649944,11.4395585 C76.2649944,13.196266 77.4528632,14.2000988 78.7076543,14.2000988 C79.9959064,14.2000988 81.1670447,13.2297271 81.1670447,11.4730196 Z M85.8074576,16.1073811 L85.8074576,6.83865812 L88.1497342,6.83865812 L88.1497342,16.1073811 L85.8074576,16.1073811 Z M86.9953265,5.73444202 C86.1587991,5.73444202 85.5564994,5.13214233 85.5564994,4.36253717 C85.5564994,3.59293201 86.1587991,2.99063232 86.9953265,2.99063232 C87.8151233,2.99063232 88.4341535,3.59293201 88.4341535,4.36253717 C88.4341535,5.13214233 87.8151233,5.73444202 86.9953265,5.73444202 Z M89.8455709,11.4395585 C89.8455709,8.54517391 91.7193922,6.6880832 94.0783993,6.6880832 C95.5339569,6.6880832 96.5879814,7.35730508 97.1400894,8.16037133 L97.1400894,6.83865812 L99.4990965,6.83865812 L99.4990965,16.1743033 C99.4990965,18.6838854 97.9598862,20.6748205 94.9149267,20.6748205 C92.3049613,20.6748205 90.4813317,19.3698378 90.2471041,17.2450583 L92.5726501,17.2450583 C92.8068777,18.0815857 93.6768662,18.6336937 94.8480045,18.6336937 C96.1362566,18.6336937 97.1400894,17.8975497 97.1400894,16.1743033 L97.1400894,14.7354763 C96.5879814,15.5385425 95.5339569,16.2579561 94.0783993,16.2579561 C91.7193922,16.2579561 89.8455709,14.3339432 89.8455709,11.4395585 Z M97.1400894,11.4730196 C97.1400894,9.7163122 95.9689511,8.74594047 94.680699,8.74594047 C93.425908,8.74594047 92.2380392,9.6828511 92.2380392,11.4395585 C92.2380392,13.196266 93.425908,14.2000988 94.680699,14.2000988 C95.9689511,14.2000988 97.1400894,13.2297271 97.1400894,11.4730196 Z M104.122779,11.4897502 L104.122779,16.1073811 L101.780502,16.1073811 L101.780502,6.83865812 L104.122779,6.83865812 L104.122779,8.27748516 C104.708348,7.32384398 105.67872,6.70481374 106.966972,6.70481374 L106.966972,9.16420415 L106.347942,9.16420415 C104.959306,9.16420415 104.122779,9.69958165 104.122779,11.4897502 Z M107.926665,11.4395585 C107.926665,8.54517391 109.800486,6.6880832 112.159493,6.6880832 C113.648512,6.6880832 114.669075,7.39076617 115.221183,8.16037133 L115.221183,6.83865812 L117.58019,6.83865812 L117.58019,16.1073811 L115.221183,16.1073811 L115.221183,14.7522068 C114.669075,15.5552731 113.615051,16.2579561 112.142762,16.2579561 C109.800486,16.2579561 107.926665,14.3339432 107.926665,11.4395585 Z M115.221183,11.4730196 C115.221183,9.7163122 114.050045,8.74594047 112.761793,8.74594047 C111.507002,8.74594047 110.319133,9.6828511 110.319133,11.4395585 C110.319133,13.196266 111.507002,14.2000988 112.761793,14.2000988 C114.050045,14.2000988 115.221183,13.2297271 115.221183,11.4730196 Z M119.259296,11.4395585 C119.259296,8.54517391 121.133118,6.6880832 123.508855,6.6880832 C124.730185,6.6880832 125.901324,7.25692179 126.537084,8.12691024 L126.537084,3.72677638 L128.912822,3.72677638 L128.912822,16.1073811 L126.537084,16.1073811 L126.537084,14.7354763 C125.984976,15.5887342 124.947682,16.2579561 123.492125,16.2579561 C121.133118,16.2579561 119.259296,14.3339432 119.259296,11.4395585 Z M126.553815,11.4730196 C126.553815,9.7163122 125.382677,8.74594047 124.094424,8.74594047 C122.839633,8.74594047 121.651765,9.6828511 121.651765,11.4395585 C121.651765,13.196266 122.839633,14.2000988 124.094424,14.2000988 C125.382677,14.2000988 126.553815,13.2297271 126.553815,11.4730196 Z M135.176098,8.6120961 C134.055151,8.6120961 133.168432,9.33150962 132.984396,10.6030312 L137.38453,10.6030312 C137.351069,9.38170126 136.380697,8.6120961 135.176098,8.6120961 Z M139.576232,13.196266 C139.074315,14.9027818 137.535105,16.2579561 135.24302,16.2579561 C132.549402,16.2579561 130.591928,14.3841348 130.591928,11.4730196 C130.591928,8.54517391 132.49921,6.6880832 135.24302,6.6880832 C137.919908,6.6880832 139.81046,8.51171282 139.81046,11.2722531 C139.81046,11.5734029 139.793729,11.8745528 139.743537,12.1757026 L132.967666,12.1757026 C133.08478,13.5476075 134.02169,14.3172126 135.192829,14.3172126 C136.196661,14.3172126 136.748769,13.8152962 137.049919,13.196266 L139.576232,13.196266 Z M143.965687,14.8525901 C143.965687,15.6221953 143.363387,16.224495 142.54359,16.224495 C141.690332,16.224495 141.088033,15.6221953 141.088033,14.8525901 C141.088033,14.082985 141.690332,13.4806853 142.54359,13.4806853 C143.363387,13.4806853 143.965687,14.082985 143.965687,14.8525901 Z M145.845559,16.1073811 L145.845559,6.83865812 L148.187836,6.83865812 L148.187836,16.1073811 L145.845559,16.1073811 Z M147.033428,5.73444202 C146.196901,5.73444202 145.594601,5.13214233 145.594601,4.36253717 C145.594601,3.59293201 146.196901,2.99063232 147.033428,2.99063232 C147.853225,2.99063232 148.472255,3.59293201 148.472255,4.36253717 C148.472255,5.13214233 147.853225,5.73444202 147.033428,5.73444202 Z M159.436815,11.4730196 C159.436815,14.3841348 157.295305,16.2579561 154.601687,16.2579561 C151.924799,16.2579561 149.900403,14.3841348 149.900403,11.4730196 C149.900403,8.54517391 151.991722,6.6880832 154.668609,6.6880832 C157.345497,6.6880832 159.436815,8.54517391 159.436815,11.4730196 Z M152.276141,11.4730196 C152.276141,13.3133798 153.346896,14.2168293 154.601687,14.2168293 C155.839747,14.2168293 157.027616,13.3133798 157.027616,11.4730196 C157.027616,9.61592892 155.873208,8.72920993 154.635148,8.72920993 C153.397088,8.72920993 152.276141,9.61592892 152.276141,11.4730196 Z" id="Combined-Shape"></path>
        </g>
    </g>
</svg>