<svg width="187" height="26" viewBox="0 0 187 26" fill="none" xmlns="http://www.w3.org/2000/svg">
<path d="M7.30902 6.9438V24.7172C7.30902 25.4257 6.73468 26 6.0262 26C5.83412 26 5.64449 25.9569 5.47131 25.8738L0.72794 23.5981C0.283038 23.3847 0 22.935 0 22.4415V10.2723L7.30902 6.9438ZM16.3629 2.82072V24.7172C16.3629 25.4257 15.7885 26 15.08 26C14.888 26 14.6983 25.9569 14.5252 25.8738L9.78178 23.5981C9.33688 23.3847 9.05384 22.935 9.05384 22.4415V6.14921L16.3629 2.82072ZM18.1077 2.02613L18.8425 1.69151C20.938 0.737239 23.1663 0.184461 25.4167 0.0350501V24.7172C25.4167 25.4257 24.8424 26 24.1339 26C23.9418 26 23.7522 25.9569 23.579 25.8738L18.8356 23.5981C18.3907 23.3847 18.1077 22.935 18.1077 22.4415V2.02613ZM34.4705 1.67034V24.7172C34.4705 25.4257 33.8962 26 33.1877 26C32.9956 26 32.806 25.9569 32.6328 25.8738L27.8895 23.5981C27.4446 23.3847 27.1615 22.935 27.1615 22.4415V0C29.4562 0.0599591 31.7441 0.538296 33.9085 1.43698L34.4705 1.67034ZM43.5244 10.7422L43.5197 15.7522L36.2154 18.785V2.3948L43.5197 5.42762V10.4377L43.5244 10.7422ZM58.8467 15.4835V10.2554H57.5544V8.00367H58.8467V5.32111H61.6076V8.00367H64.0356V10.2554H61.6076V15.5031C61.6076 16.2276 61.9013 16.5409 62.7628 16.5409H64.0356V18.8514H62.3125C60.2369 18.8514 58.8467 17.9702 58.8467 15.4835ZM65.2958 13.3884C65.2958 10.0009 67.4889 7.82744 70.2497 7.82744C71.9924 7.82744 73.1868 8.64983 73.833 9.55054V8.00367H76.5939V18.8514H73.833V17.2653C73.1868 18.2052 71.9533 19.0276 70.2302 19.0276C67.4889 19.0276 65.2958 16.7758 65.2958 13.3884ZM73.833 13.4275C73.833 11.3715 72.4624 10.2359 70.9546 10.2359C69.4861 10.2359 68.0959 11.3324 68.0959 13.3884C68.0959 15.4443 69.4861 16.6192 70.9546 16.6192C72.4624 16.6192 73.833 15.4835 73.833 13.4275ZM82.0052 13.4471V18.8514H79.2639V8.00367H82.0052V9.68761C82.6906 8.57151 83.8262 7.84702 85.334 7.84702V10.7254H84.6095C82.9843 10.7254 82.0052 11.352 82.0052 13.4471ZM86.4571 13.3884C86.4571 10.0009 88.6502 7.82744 91.4306 7.82744C92.86 7.82744 94.2307 8.49318 94.9747 9.51138V4.36166H97.7552V18.8514H94.9747V17.2458C94.3286 18.2444 93.1146 19.0276 91.411 19.0276C88.6502 19.0276 86.4571 16.7758 86.4571 13.3884ZM94.9943 13.4275C94.9943 11.3715 93.6237 10.2359 92.116 10.2359C90.6474 10.2359 89.2572 11.3324 89.2572 13.3884C89.2572 15.4443 90.6474 16.6192 92.116 16.6192C93.6237 16.6192 94.9943 15.4835 94.9943 13.4275ZM100.425 18.8514V8.00367H103.167V18.8514H100.425ZM101.815 6.71134C100.836 6.71134 100.132 6.00643 100.132 5.10572C100.132 4.20501 100.836 3.50011 101.815 3.50011C102.775 3.50011 103.499 4.20501 103.499 5.10572C103.499 6.00643 102.775 6.71134 101.815 6.71134ZM105.151 13.3884C105.151 10.0009 107.344 7.82744 110.105 7.82744C111.809 7.82744 113.042 8.61067 113.688 9.55054V8.00367H116.449V18.9297C116.449 21.8668 114.648 24.1969 111.084 24.1969C108.03 24.1969 105.895 22.6696 105.621 20.1829H108.343C108.617 21.1619 109.635 21.8081 111.006 21.8081C112.514 21.8081 113.688 20.9465 113.688 18.9297V17.2458C113.042 18.1856 111.809 19.0276 110.105 19.0276C107.344 19.0276 105.151 16.7758 105.151 13.3884ZM113.688 13.4275C113.688 11.3715 112.318 10.2359 110.81 10.2359C109.342 10.2359 107.951 11.3324 107.951 13.3884C107.951 15.4443 109.342 16.6192 110.81 16.6192C112.318 16.6192 113.688 15.4835 113.688 13.4275ZM121.861 13.4471V18.8514H119.119V8.00367H121.861V9.68761C122.546 8.57151 123.682 7.84702 125.189 7.84702V10.7254H124.465C122.84 10.7254 121.861 11.352 121.861 13.4471ZM126.313 13.3884C126.313 10.0009 128.506 7.82744 131.267 7.82744C133.009 7.82744 134.204 8.64983 134.85 9.55054V8.00367H137.611V18.8514H134.85V17.2653C134.204 18.2052 132.97 19.0276 131.247 19.0276C128.506 19.0276 126.313 16.7758 126.313 13.3884ZM134.85 13.4275C134.85 11.3715 133.479 10.2359 131.971 10.2359C130.503 10.2359 129.113 11.3324 129.113 13.3884C129.113 15.4443 130.503 16.6192 131.971 16.6192C133.479 16.6192 134.85 15.4835 134.85 13.4275ZM139.576 13.3884C139.576 10.0009 141.769 7.82744 144.549 7.82744C145.979 7.82744 147.349 8.49318 148.093 9.51138V4.36166H150.874V18.8514H148.093V17.2458C147.447 18.2444 146.233 19.0276 144.53 19.0276C141.769 19.0276 139.576 16.7758 139.576 13.3884ZM148.113 13.4275C148.113 11.3715 146.742 10.2359 145.235 10.2359C143.766 10.2359 142.376 11.3324 142.376 13.3884C142.376 15.4443 143.766 16.6192 145.235 16.6192C146.742 16.6192 148.113 15.4835 148.113 13.4275ZM158.204 10.0792C156.892 10.0792 155.854 10.9212 155.639 12.4093H160.789C160.75 10.9799 159.614 10.0792 158.204 10.0792ZM163.354 15.4443C162.766 17.4416 160.965 19.0276 158.282 19.0276C155.13 19.0276 152.839 16.8346 152.839 13.4275C152.839 10.0009 155.071 7.82744 158.282 7.82744C161.415 7.82744 163.628 9.96174 163.628 13.1926C163.628 13.545 163.608 13.8975 163.55 14.2499H155.619C155.757 15.8555 156.853 16.7562 158.224 16.7562C159.399 16.7562 160.045 16.1688 160.397 15.4443H163.354ZM168.491 17.3828C168.491 18.2835 167.786 18.9884 166.827 18.9884C165.828 18.9884 165.123 18.2835 165.123 17.3828C165.123 16.4821 165.828 15.7772 166.827 15.7772C167.786 15.7772 168.491 16.4821 168.491 17.3828ZM170.691 18.8514V8.00367H173.432V18.8514H170.691ZM172.081 6.71134C171.102 6.71134 170.397 6.00643 170.397 5.10572C170.397 4.20501 171.102 3.50011 172.081 3.50011C173.041 3.50011 173.765 4.20501 173.765 5.10572C173.765 6.00643 173.041 6.71134 172.081 6.71134ZM186.598 13.4275C186.598 16.8346 184.091 19.0276 180.939 19.0276C177.806 19.0276 175.437 16.8346 175.437 13.4275C175.437 10.0009 177.884 7.82744 181.017 7.82744C184.15 7.82744 186.598 10.0009 186.598 13.4275ZM178.217 13.4275C178.217 15.5814 179.47 16.6388 180.939 16.6388C182.388 16.6388 183.778 15.5814 183.778 13.4275C183.778 11.2541 182.427 10.2163 180.978 10.2163C179.529 10.2163 178.217 11.2541 178.217 13.4275Z" fill="#2582FF"/>
</svg>
