<?xml version="1.0" encoding="UTF-8"?>
<svg width="32px" height="19px" viewBox="0 0 32 19" version="1.1" xmlns="http://www.w3.org/2000/svg" xmlns:xlink="http://www.w3.org/1999/xlink">
    <!-- Generator: Sketch 53.2 (72643) - https://sketchapp.com -->
    <title>Combined Shape</title>
    <desc>Created with Sketch.</desc>
    <g id="Page-1" stroke="none" stroke-width="1" fill="none" fill-rule="evenodd">
        <path d="M5.3412099,5.07431286 L5.3412099,18.062552 C5.3412099,18.5802903 4.9215001,19 4.4037619,19 C4.2633974,19 4.1248245,18.9684796 3.9982703,18.9077652 L0.5319563,17.2447986 C0.2068353,17.0888215 -1.59872116e-14,16.7601857 -1.59872116e-14,16.3995854 L-1.59872116e-14,7.50667491 L5.3412099,5.07431286 Z M11.9574825,2.06129323 L11.9574825,18.062552 C11.9574825,18.5802903 11.5377727,19 11.0200345,19 C10.87967,19 10.7410971,18.9684796 10.6145429,18.9077652 L7.1482289,17.2447986 C6.8231078,17.0888215 6.6162725,16.7601857 6.6162725,16.3995854 L6.6162725,4.49365529 L11.9574825,2.06129323 Z M13.2325451,1.48063566 L13.7695058,1.23610627 C15.3008225,0.538751784 16.9292152,0.134798455 18.573755,0.0256135199 L18.573755,18.062552 C18.573755,18.5802903 18.1540453,19 17.6363071,19 C17.4959425,19 17.3573696,18.9684796 17.2308155,18.9077652 L13.7645015,17.2447986 C13.4393804,17.0888215 13.2325451,16.7601857 13.2325451,16.3995854 L13.2325451,1.48063566 Z M25.1900276,1.2206313 L25.1900276,18.062552 C25.1900276,18.5802903 24.7703178,19 24.2525796,19 C24.1122151,19 23.9736422,18.9684796 23.847088,18.9077652 L20.380774,17.2447986 C20.055653,17.0888215 19.8488177,16.7601857 19.8488177,16.3995854 L19.8488177,1.0658141e-14 C21.5256717,0.0438162956 23.197617,0.393369923 24.7793191,1.05010255 L25.1900276,1.2206313 Z M31.8063002,7.62751382 L31.8063002,7.85006737 L31.8029016,7.85006737 L31.8029016,11.5112431 L26.4650902,13.7275359 L26.4650902,1.75004531 L31.8029016,3.96633809 L31.8029016,7.62751382 L31.8063002,7.62751382 Z" id="Combined-Shape" fill="#FFFFFF"></path>
    </g>
</svg>