<svg width="1188" height="573" viewBox="0 0 1188 573" fill="none" xmlns="http://www.w3.org/2000/svg">
<path d="M-116 11.9999H1324V573H-116V11.9999Z" fill="#656565"/>
<mask id="mask0" mask-type="alpha" maskUnits="userSpaceOnUse" x="-116" y="11" width="1440" height="562">
<path d="M-116 11.9999H1324V573H-116V11.9999Z" fill="white"/>
</mask>
<g mask="url(#mask0)">
<rect y="11.9999" width="1188" height="562" fill="url(#paint0_linear)"/>
<rect y="11.9999" width="1188" height="562" fill="url(#paint1_linear)" fill-opacity="0.87"/>
<g opacity="0.0538737">
<path fill-rule="evenodd" clip-rule="evenodd" d="M494.024 128.055V130.192L498.261 127.788V125.651L494.024 128.055Z" fill="#F9F8FA"/>
<path fill-rule="evenodd" clip-rule="evenodd" d="M494.024 128.055V130.192L489.787 127.788V125.651L494.024 128.055Z" fill="#96ADBE"/>
<path fill-rule="evenodd" clip-rule="evenodd" d="M498.261 125.638L494.024 128.044L489.787 125.638L494.024 123.231L498.261 125.638Z" fill="#DCE1EA"/>
</g>
<g opacity="0.0538737">
<path fill-rule="evenodd" clip-rule="evenodd" d="M454.024 68.055V70.1921L458.261 67.7879V65.6508L454.024 68.055Z" fill="#F9F8FA"/>
<path fill-rule="evenodd" clip-rule="evenodd" d="M454.024 68.055V70.1921L449.787 67.7879V65.6508L454.024 68.055Z" fill="#96ADBE"/>
<path fill-rule="evenodd" clip-rule="evenodd" d="M458.261 65.6375L454.024 68.0439L449.787 65.6375L454.024 63.2313L458.261 65.6375Z" fill="#DCE1EA"/>
</g>
<g opacity="0.0538737">
<path fill-rule="evenodd" clip-rule="evenodd" d="M71.0244 338.055V340.192L75.2614 337.788V335.651L71.0244 338.055Z" fill="#F9F8FA"/>
<path fill-rule="evenodd" clip-rule="evenodd" d="M71.0241 338.055V340.192L66.7871 337.788V335.651L71.0241 338.055Z" fill="#96ADBE"/>
<path fill-rule="evenodd" clip-rule="evenodd" d="M75.2612 335.638L71.0241 338.044L66.7871 335.638L71.0241 333.231L75.2612 335.638Z" fill="#DCE1EA"/>
</g>
<g opacity="0.0538737">
<path fill-rule="evenodd" clip-rule="evenodd" d="M121.024 148.055V150.192L125.261 147.788V145.651L121.024 148.055Z" fill="#F9F8FA"/>
<path fill-rule="evenodd" clip-rule="evenodd" d="M121.024 148.055V150.192L116.787 147.788V145.651L121.024 148.055Z" fill="#96ADBE"/>
<path fill-rule="evenodd" clip-rule="evenodd" d="M125.261 145.638L121.024 148.044L116.787 145.638L121.024 143.231L125.261 145.638Z" fill="#DCE1EA"/>
</g>
<g opacity="0.1539">
<path fill-rule="evenodd" clip-rule="evenodd" d="M44.0244 108.055V110.192L48.2614 107.788V105.651L44.0244 108.055Z" fill="#F9F8FA"/>
<path fill-rule="evenodd" clip-rule="evenodd" d="M44.0241 108.055V110.192L39.7871 107.788V105.651L44.0241 108.055Z" fill="#96ADBE"/>
<path fill-rule="evenodd" clip-rule="evenodd" d="M48.2612 105.638L44.0241 108.044L39.7871 105.638L44.0241 103.231L48.2612 105.638Z" fill="#DCE1EA"/>
</g>
<g opacity="0.1539">
<path fill-rule="evenodd" clip-rule="evenodd" d="M334.024 108.055V110.192L338.261 107.788V105.651L334.024 108.055Z" fill="#F9F8FA"/>
<path fill-rule="evenodd" clip-rule="evenodd" d="M334.024 108.055V110.192L329.787 107.788V105.651L334.024 108.055Z" fill="#96ADBE"/>
<path fill-rule="evenodd" clip-rule="evenodd" d="M338.261 105.638L334.024 108.044L329.787 105.638L334.024 103.231L338.261 105.638Z" fill="#DCE1EA"/>
</g>
<g opacity="0.0538737">
<path fill-rule="evenodd" clip-rule="evenodd" d="M674.024 118.055V120.192L678.261 117.788V115.651L674.024 118.055Z" fill="#F9F8FA"/>
<path fill-rule="evenodd" clip-rule="evenodd" d="M674.024 118.055V120.192L669.787 117.788V115.651L674.024 118.055Z" fill="#96ADBE"/>
<path fill-rule="evenodd" clip-rule="evenodd" d="M678.261 115.638L674.024 118.044L669.787 115.638L674.024 113.231L678.261 115.638Z" fill="#DCE1EA"/>
</g>
<g opacity="0.1539">
<path fill-rule="evenodd" clip-rule="evenodd" d="M864.024 208.055V210.192L868.261 207.788V205.651L864.024 208.055Z" fill="#F9F8FA"/>
<path fill-rule="evenodd" clip-rule="evenodd" d="M864.024 208.055V210.192L859.787 207.788V205.651L864.024 208.055Z" fill="#96ADBE"/>
<path fill-rule="evenodd" clip-rule="evenodd" d="M868.261 205.638L864.024 208.044L859.787 205.638L864.024 203.231L868.261 205.638Z" fill="#DCE1EA"/>
</g>
<g opacity="0.1539">
<path fill-rule="evenodd" clip-rule="evenodd" d="M529.237 441.823V443.961L533.474 441.556V439.419L529.237 441.823Z" fill="#F9F8FA"/>
<path fill-rule="evenodd" clip-rule="evenodd" d="M529.237 441.823V443.961L525 441.556V439.419L529.237 441.823Z" fill="#96ADBE"/>
<path fill-rule="evenodd" clip-rule="evenodd" d="M533.474 439.406L529.237 441.812L525 439.406L529.237 437L533.474 439.406Z" fill="#DCE1EA"/>
</g>
<g opacity="0.1539">
<path fill-rule="evenodd" clip-rule="evenodd" d="M379.237 541.823V543.96L383.474 541.556V539.419L379.237 541.823Z" fill="#F9F8FA"/>
<path fill-rule="evenodd" clip-rule="evenodd" d="M379.237 541.823V543.96L375 541.556V539.419L379.237 541.823Z" fill="#96ADBE"/>
<path fill-rule="evenodd" clip-rule="evenodd" d="M383.474 539.406L379.237 541.812L375 539.406L379.237 537L383.474 539.406Z" fill="#DCE1EA"/>
</g>
<g opacity="0.1539">
<path fill-rule="evenodd" clip-rule="evenodd" d="M999.237 531.823V533.96L1003.47 531.556V529.419L999.237 531.823Z" fill="#F9F8FA"/>
<path fill-rule="evenodd" clip-rule="evenodd" d="M999.237 531.823V533.96L995 531.556V529.419L999.237 531.823Z" fill="#96ADBE"/>
<path fill-rule="evenodd" clip-rule="evenodd" d="M1003.47 529.406L999.237 531.812L995 529.406L999.237 527L1003.47 529.406Z" fill="#DCE1EA"/>
</g>
<g opacity="0.1539">
<path fill-rule="evenodd" clip-rule="evenodd" d="M174.45 545.592V547.729L178.687 545.325V543.188L174.45 545.592Z" fill="#F9F8FA"/>
<path fill-rule="evenodd" clip-rule="evenodd" d="M174.45 545.592V547.729L170.213 545.325V543.188L174.45 545.592Z" fill="#96ADBE"/>
<path fill-rule="evenodd" clip-rule="evenodd" d="M178.687 543.175L174.45 545.581L170.213 543.175L174.45 540.768L178.687 543.175Z" fill="#DCE1EA"/>
</g>
<g opacity="0.1539">
<path fill-rule="evenodd" clip-rule="evenodd" d="M414.45 515.592V517.729L418.687 515.325V513.188L414.45 515.592Z" fill="#F9F8FA"/>
<path fill-rule="evenodd" clip-rule="evenodd" d="M414.45 515.592V517.729L410.213 515.325V513.188L414.45 515.592Z" fill="#96ADBE"/>
<path fill-rule="evenodd" clip-rule="evenodd" d="M418.687 513.175L414.45 515.581L410.213 513.175L414.45 510.768L418.687 513.175Z" fill="#DCE1EA"/>
</g>
<g opacity="0.05">
<path fill-rule="evenodd" clip-rule="evenodd" d="M554.237 544.823V546.96L558.474 544.556V542.419L554.237 544.823Z" fill="#F9F8FA"/>
<path fill-rule="evenodd" clip-rule="evenodd" d="M554.237 544.823V546.96L550 544.556V542.419L554.237 544.823Z" fill="#96ADBE"/>
<path fill-rule="evenodd" clip-rule="evenodd" d="M558.474 542.406L554.237 544.812L550 542.406L554.237 540L558.474 542.406Z" fill="#DCE1EA"/>
</g>
<g opacity="0.1539">
<path fill-rule="evenodd" clip-rule="evenodd" d="M734.45 555.592V557.729L738.687 555.325V553.188L734.45 555.592Z" fill="#F9F8FA"/>
<path fill-rule="evenodd" clip-rule="evenodd" d="M734.45 555.592V557.729L730.213 555.325V553.188L734.45 555.592Z" fill="#96ADBE"/>
<path fill-rule="evenodd" clip-rule="evenodd" d="M738.687 553.175L734.45 555.581L730.213 553.175L734.45 550.768L738.687 553.175Z" fill="#DCE1EA"/>
</g>
<g opacity="0.1539">
<path fill-rule="evenodd" clip-rule="evenodd" d="M1064.45 505.592V507.729L1068.69 505.325V503.188L1064.45 505.592Z" fill="#F9F8FA"/>
<path fill-rule="evenodd" clip-rule="evenodd" d="M1064.45 505.592V507.729L1060.21 505.325V503.188L1064.45 505.592Z" fill="#96ADBE"/>
<path fill-rule="evenodd" clip-rule="evenodd" d="M1068.69 503.175L1064.45 505.581L1060.21 503.175L1064.45 500.768L1068.69 503.175Z" fill="#DCE1EA"/>
</g>
<g opacity="0.0639">
<path fill-rule="evenodd" clip-rule="evenodd" d="M854.45 525.592V527.729L858.687 525.325V523.188L854.45 525.592Z" fill="#F9F8FA"/>
<path fill-rule="evenodd" clip-rule="evenodd" d="M854.45 525.592V527.729L850.213 525.325V523.188L854.45 525.592Z" fill="#96ADBE"/>
<path fill-rule="evenodd" clip-rule="evenodd" d="M858.687 523.175L854.45 525.581L850.213 523.175L854.45 520.768L858.687 523.175Z" fill="#DCE1EA"/>
</g>
<g opacity="0.0538737">
<path fill-rule="evenodd" clip-rule="evenodd" d="M1014.02 136.055V138.192L1018.26 135.788V133.651L1014.02 136.055Z" fill="#F9F8FA"/>
<path fill-rule="evenodd" clip-rule="evenodd" d="M1014.02 136.055V138.192L1009.79 135.788V133.651L1014.02 136.055Z" fill="#96ADBE"/>
<path fill-rule="evenodd" clip-rule="evenodd" d="M1018.26 133.638L1014.02 136.044L1009.79 133.638L1014.02 131.231L1018.26 133.638Z" fill="#DCE1EA"/>
</g>
<g opacity="0.2539">
<path fill-rule="evenodd" clip-rule="evenodd" d="M1144.02 66.055V68.1921L1148.26 65.7879V63.6508L1144.02 66.055Z" fill="#F9F8FA"/>
<path fill-rule="evenodd" clip-rule="evenodd" d="M1144.02 66.055V68.1921L1139.79 65.7879V63.6508L1144.02 66.055Z" fill="#96ADBE"/>
<path fill-rule="evenodd" clip-rule="evenodd" d="M1148.26 63.6375L1144.02 66.0439L1139.79 63.6375L1144.02 61.2313L1148.26 63.6375Z" fill="#DCE1EA"/>
</g>
<g opacity="0.0538737">
<path fill-rule="evenodd" clip-rule="evenodd" d="M1054.02 276.055V278.192L1058.26 275.788V273.651L1054.02 276.055Z" fill="#F9F8FA"/>
<path fill-rule="evenodd" clip-rule="evenodd" d="M1054.02 276.055V278.192L1049.79 275.788V273.651L1054.02 276.055Z" fill="#96ADBE"/>
<path fill-rule="evenodd" clip-rule="evenodd" d="M1058.26 273.638L1054.02 276.044L1049.79 273.638L1054.02 271.231L1058.26 273.638Z" fill="#DCE1EA"/>
</g>
<g opacity="0.152669">
<path fill-rule="evenodd" clip-rule="evenodd" d="M557.06 180.218V182.236L562.034 179.607V177.588L557.06 180.218Z" fill="#F9F8FA"/>
<path fill-rule="evenodd" clip-rule="evenodd" d="M557.06 180.218V182.236L552.085 179.607V177.588L557.06 180.218Z" fill="#96ADBE"/>
<path fill-rule="evenodd" clip-rule="evenodd" d="M562.034 177.573L557.06 180.205L552.085 177.573L557.06 174.942L562.034 177.573Z" fill="#DCE1EA"/>
<path opacity="0.410296" fill-rule="evenodd" clip-rule="evenodd" d="M627.725 137.656L628.013 144.295L599.092 159.3L559.032 180.854L557.06 181.873L557.06 180.205L552.092 177.784L624.606 138.767L627.725 137.656Z" fill="url(#paint2_linear)"/>
</g>
<g opacity="0.2025">
<path fill-rule="evenodd" clip-rule="evenodd" d="M942.06 172.352V174.529L947.034 171.693V169.516L942.06 172.352Z" fill="#F9F8FA"/>
<path fill-rule="evenodd" clip-rule="evenodd" d="M942.06 172.352V174.529L937.085 171.693V169.516L942.06 172.352Z" fill="#96ADBE"/>
<path fill-rule="evenodd" clip-rule="evenodd" d="M947.034 169.5L942.06 172.339L937.085 169.5L942.06 166.662L947.034 169.5Z" fill="#DCE1EA"/>
<path opacity="0.410296" fill-rule="evenodd" clip-rule="evenodd" d="M1012.73 126.452L1013.01 133.612L984.092 149.793L944.032 173.038L942.06 174.137L942.06 172.339L937.092 169.727L1009.61 127.65L1012.73 126.452Z" fill="url(#paint3_linear)"/>
</g>
<g opacity="0.4025">
<path fill-rule="evenodd" clip-rule="evenodd" d="M80.8379 161.352V163.529L75.8637 160.693V158.516L80.8379 161.352Z" fill="#F9F8FA"/>
<path fill-rule="evenodd" clip-rule="evenodd" d="M80.8379 161.352V163.529L85.812 160.693V158.516L80.8379 161.352Z" fill="#96ADBE"/>
<path fill-rule="evenodd" clip-rule="evenodd" d="M75.8637 158.5L80.8379 161.339L85.812 158.5L80.8379 155.662L75.8637 158.5Z" fill="#DCE1EA"/>
<path opacity="0.410296" fill-rule="evenodd" clip-rule="evenodd" d="M10.1723 115.452L9.88482 122.612L38.8059 138.793L78.865 162.038L80.8379 163.137L80.8379 161.339L85.8057 158.727L13.2917 116.65L10.1723 115.452Z" fill="url(#paint4_linear)"/>
</g>
<g opacity="0.4025">
<path fill-rule="evenodd" clip-rule="evenodd" d="M1136.84 392.352V394.529L1131.86 391.693V389.516L1136.84 392.352Z" fill="#F9F8FA"/>
<path fill-rule="evenodd" clip-rule="evenodd" d="M1136.84 392.352V394.529L1141.81 391.693V389.516L1136.84 392.352Z" fill="#96ADBE"/>
<path fill-rule="evenodd" clip-rule="evenodd" d="M1131.86 389.5L1136.84 392.339L1141.81 389.5L1136.84 386.662L1131.86 389.5Z" fill="#DCE1EA"/>
<path opacity="0.410296" fill-rule="evenodd" clip-rule="evenodd" d="M1066.17 346.452L1065.88 353.612L1094.81 369.793L1134.87 393.038L1136.84 394.137L1136.84 392.338L1141.81 389.727L1069.29 347.65L1066.17 346.452Z" fill="url(#paint5_linear)"/>
</g>
<g opacity="0.4025">
<path fill-rule="evenodd" clip-rule="evenodd" d="M1066.84 131.352V133.529L1061.86 130.693V128.516L1066.84 131.352Z" fill="#F9F8FA"/>
<path fill-rule="evenodd" clip-rule="evenodd" d="M1066.84 131.352V133.529L1071.81 130.693V128.516L1066.84 131.352Z" fill="#96ADBE"/>
<path fill-rule="evenodd" clip-rule="evenodd" d="M1061.86 128.5L1066.84 131.339L1071.81 128.5L1066.84 125.662L1061.86 128.5Z" fill="#DCE1EA"/>
</g>
<g opacity="0.3025">
<path fill-rule="evenodd" clip-rule="evenodd" d="M689.06 533.352V535.529L694.034 532.693V530.516L689.06 533.352Z" fill="#F9F8FA"/>
<path fill-rule="evenodd" clip-rule="evenodd" d="M689.06 533.352V535.529L684.085 532.693V530.516L689.06 533.352Z" fill="#96ADBE"/>
<path fill-rule="evenodd" clip-rule="evenodd" d="M694.034 530.5L689.06 533.339L684.085 530.5L689.06 527.662L694.034 530.5Z" fill="#DCE1EA"/>
<path opacity="0.410296" fill-rule="evenodd" clip-rule="evenodd" d="M759.725 487.452L760.013 494.612L731.092 510.793L691.032 534.038L689.06 535.137L689.06 533.339L684.092 530.727L756.606 488.65L759.725 487.452Z" fill="url(#paint6_linear)"/>
</g>
<g opacity="0.0985398">
<path fill-rule="evenodd" clip-rule="evenodd" d="M1114 165.778V167.922L1119 165.129V162.986L1114 165.778Z" fill="#F9F8FA"/>
<path fill-rule="evenodd" clip-rule="evenodd" d="M1114 165.778V167.922L1109 165.129V162.986L1114 165.778Z" fill="#96ADBE"/>
<path fill-rule="evenodd" clip-rule="evenodd" d="M1119 162.97L1114 165.765L1109 162.97L1114 160.176L1119 162.97Z" fill="#DCE1EA"/>
</g>
</g>
<defs>
<linearGradient id="paint0_linear" x1="1188" y1="574" x2="12.5638" y2="-13.1519" gradientUnits="userSpaceOnUse">
<stop stop-color="#133E9C"/>
<stop offset="1" stop-color="#588CFF"/>
</linearGradient>
<linearGradient id="paint1_linear" x1="594" y1="11.9999" x2="594" y2="574" gradientUnits="userSpaceOnUse">
<stop/>
<stop offset="1" stop-color="#002167"/>
</linearGradient>
<linearGradient id="paint2_linear" x1="578.393" y1="163.832" x2="582.953" y2="178.972" gradientUnits="userSpaceOnUse">
<stop stop-color="white" stop-opacity="0.01"/>
<stop offset="1" stop-color="white"/>
</linearGradient>
<linearGradient id="paint3_linear" x1="963.393" y1="154.681" x2="968.626" y2="170.79" gradientUnits="userSpaceOnUse">
<stop stop-color="white" stop-opacity="0.01"/>
<stop offset="1" stop-color="white"/>
</linearGradient>
<linearGradient id="paint4_linear" x1="59.5044" y1="143.681" x2="54.2716" y2="159.79" gradientUnits="userSpaceOnUse">
<stop stop-color="white" stop-opacity="0.01"/>
<stop offset="1" stop-color="white"/>
</linearGradient>
<linearGradient id="paint5_linear" x1="1115.5" y1="374.681" x2="1110.27" y2="390.79" gradientUnits="userSpaceOnUse">
<stop stop-color="white" stop-opacity="0.01"/>
<stop offset="1" stop-color="white"/>
</linearGradient>
<linearGradient id="paint6_linear" x1="710.393" y1="515.681" x2="715.626" y2="531.79" gradientUnits="userSpaceOnUse">
<stop stop-color="white" stop-opacity="0.01"/>
<stop offset="1" stop-color="white"/>
</linearGradient>
</defs>
</svg>
