<?xml version="1.0" encoding="UTF-8"?>
<svg width="110px" height="54px" viewBox="0 0 110 54" version="1.1" xmlns="http://www.w3.org/2000/svg" xmlns:xlink="http://www.w3.org/1999/xlink">
    <!-- Generator: Sketch 52.2 (67145) - http://www.bohemiancoding.com/sketch -->
    <title>icon-illustration-test</title>
    <desc>Created with Sketch.</desc>
    <defs>
        <linearGradient x1="50%" y1="0%" x2="50%" y2="100%" id="linearGradient-1">
            <stop stop-color="#14AFFF" offset="0%"></stop>
            <stop stop-color="#0061FF" offset="100%"></stop>
        </linearGradient>
        <linearGradient x1="50%" y1="0%" x2="50%" y2="100%" id="linearGradient-2">
            <stop stop-color="#12EAC0" offset="0%"></stop>
            <stop stop-color="#06AFFE" offset="100%"></stop>
        </linearGradient>
        <linearGradient x1="57.8605134%" y1="0%" x2="57.8605134%" y2="100%" id="linearGradient-3">
            <stop stop-color="#F4E113" offset="0%"></stop>
            <stop stop-color="#F49D1A" offset="100%"></stop>
        </linearGradient>
    </defs>
    <g id="Page-1" stroke="none" stroke-width="1" fill="none" fill-rule="evenodd">
        <g id="website-community-alt3" transform="translate(-665.000000, -853.000000)">
            <g id="icon-illustration-test" transform="translate(665.000000, 853.000000)">
                <g id="Group-40">
                    <g id="Group-33-Copy-2" transform="translate(-0.000000, 21.162162)" fill-rule="nonzero">
                        <path d="M52.5155134,17.5835274 L52.5155134,16.9850885 L46.3909223,3.92093659 C46.2278592,3.57452773 47.5326554,7.18020309 44.923445,7.52533784 C41.5675784,7.96923695 34.1077186,5.21330813 33.7597297,4.88781234 C32.5099976,3.71885964 41.9618132,2.68988932e-12 40.180746,2.68988932e-12 L12.3597945,-3.99680289e-13 C9.6971912,-3.99680289e-13 7.27559445,1.52893038 6.14961819,3.92093659 L0.0536275165,16.9850885 L0.0536275165,17.5835274 L52.5155134,17.5835274 Z" id="Combined-Shape" fill="#2682FF"></path>
                        <path d="M52.6430157,17.9186113 L52.7260483,25.957529 C52.7260483,29.7574186 49.6578046,32.8378378 45.8729343,32.8378378 L6.85311398,32.8378378 C3.06824364,32.8378378 1.69109171e-12,29.7574186 1.69109171e-12,25.957529 L0.0830325143,17.9186113 C0.0895256477,17.2899689 0.598965396,16.7837838 1.22515677,16.7837838 L51.5008915,16.7837838 C52.1270829,16.7837838 52.6365226,17.2899689 52.6430157,17.9186113 Z M39.6756757,23.3513514 C39.1233909,23.3513514 38.6756757,23.7990666 38.6756757,24.3513514 L38.6756757,24.5405405 C38.6756757,25.0928253 39.1233909,25.5405405 39.6756757,25.5405405 L44.2432432,25.5405405 C44.795528,25.5405405 45.2432432,25.0928253 45.2432432,24.5405405 L45.2432432,24.3513514 C45.2432432,23.7990666 44.795528,23.3513514 44.2432432,23.3513514 L39.6756757,23.3513514 Z" id="Combined-Shape" fill="url(#linearGradient-1)"></path>
                    </g>
                    <g id="Group-33" transform="translate(83.500000, 37.500000) scale(-1, 1) translate(-83.500000, -37.500000) translate(57.000000, 21.000000)" fill-rule="nonzero">
                        <path d="M52.5155134,17.5835274 L52.5155134,16.9850885 L46.3909223,3.92093659 C46.2278592,3.57452773 47.5326554,7.18020309 44.923445,7.52533784 C41.5675784,7.96923695 34.1077186,5.21330813 33.7597297,4.88781234 C32.5099976,3.71885964 41.9618132,2.68988932e-12 40.180746,2.68988932e-12 L12.3597945,-3.99680289e-13 C9.6971912,-3.99680289e-13 7.27559445,1.52893038 6.14961819,3.92093659 L0.0536275165,16.9850885 L0.0536275165,17.5835274 L52.5155134,17.5835274 Z" id="Combined-Shape" fill="#1B9DBB"></path>
                        <path d="M52.6430157,17.9186113 L52.7260483,25.957529 C52.7260483,29.7574186 49.6578046,32.8378378 45.8729343,32.8378378 L6.85311398,32.8378378 C3.06824364,32.8378378 1.69109171e-12,29.7574186 1.69109171e-12,25.957529 L0.0830325143,17.9186113 C0.0895256477,17.2899689 0.598965396,16.7837838 1.22515677,16.7837838 L51.5008915,16.7837838 C52.1270829,16.7837838 52.6365226,17.2899689 52.6430157,17.9186113 Z M7.67567568,23.3513514 C7.12339093,23.3513514 6.67567568,23.7990666 6.67567568,24.3513514 L6.67567568,24.5405405 C6.67567568,25.0928253 7.12339093,25.5405405 7.67567568,25.5405405 L12.2432432,25.5405405 C12.795528,25.5405405 13.2432432,25.0928253 13.2432432,24.5405405 L13.2432432,24.3513514 C13.2432432,23.7990666 12.795528,23.3513514 12.2432432,23.3513514 L7.67567568,23.3513514 Z" id="Combined-Shape" fill="url(#linearGradient-2)"></path>
                    </g>
                    <g id="Group-33-Copy" transform="translate(29.000000, 0.000000)">
                        <path d="M52.5155134,17.5835274 L52.5155134,16.9850885 L46.3909223,3.92093659 C45.2649461,1.52893038 42.8433493,2.68988932e-12 40.180746,2.68988932e-12 L12.3597945,-3.99680289e-13 C9.6971912,-3.99680289e-13 7.27559445,1.52893038 6.14961819,3.92093659 L0.0536275165,16.9850885 L0.0536275165,17.5835274 L52.5155134,17.5835274 Z" id="Combined-Shape" fill="#F49D1A"></path>
                        <path d="M52.6430157,17.9186113 L52.7260483,25.957529 C52.7260483,29.7574186 49.6578046,32.8378378 45.8729343,32.8378378 L6.85311398,32.8378378 C3.06824364,32.8378378 1.69109171e-12,29.7574186 1.69109171e-12,25.957529 L0.0830325143,17.9186113 C0.0895256477,17.2899689 0.598965396,16.7837838 1.22515677,16.7837838 L51.5008915,16.7837838 C52.1270829,16.7837838 52.6365226,17.2899689 52.6430157,17.9186113 Z M39.6756757,23.3513514 C39.1233909,23.3513514 38.6756757,23.7990666 38.6756757,24.3513514 L38.6756757,24.5405405 C38.6756757,25.0928253 39.1233909,25.5405405 39.6756757,25.5405405 L44.2432432,25.5405405 C44.795528,25.5405405 45.2432432,25.0928253 45.2432432,24.5405405 L45.2432432,24.3513514 C45.2432432,23.7990666 44.795528,23.3513514 44.2432432,23.3513514 L39.6756757,23.3513514 Z" id="Combined-Shape" fill="url(#linearGradient-3)"></path>
                    </g>
                </g>
            </g>
        </g>
    </g>
</svg>