<svg width="15" height="12" viewBox="0 0 15 12" fill="none" xmlns="http://www.w3.org/2000/svg">
<path fill-rule="evenodd" clip-rule="evenodd" d="M14.9627 1.556C14.42 1.798 13.9627 1.806 13.4773 1.56667C14.1033 1.192 14.132 0.929333 14.358 0.220667C13.7727 0.568 13.124 0.820667 12.434 0.957333C11.882 0.368667 11.094 0 10.2233 0C8.55 0 7.194 1.35733 7.194 3.02933C7.194 3.26733 7.22067 3.49867 7.272 3.72C4.754 3.594 2.522 2.38733 1.028 0.554C0.767333 1.002 0.617333 1.52267 0.617333 2.078C0.617333 3.12933 1.15267 4.056 1.96533 4.59933C1.46867 4.58333 1.002 4.44733 0.593333 4.22067C0.592667 4.23333 0.592667 4.24533 0.592667 4.25867C0.592667 5.72667 1.63733 6.95067 3.02333 7.22933C2.57933 7.35 2.11133 7.36867 1.65467 7.28133C2.04067 8.48467 3.15933 9.36067 4.48467 9.38533C3.18867 10.4013 1.58133 10.8247 0 10.6393C1.34067 11.4987 2.93267 12 4.644 12C10.216 12 13.262 7.384 13.262 3.38067C13.262 3.24867 13.26 3.11933 13.254 2.98867C13.8453 2.562 14.5567 2.164 14.9627 1.556Z" fill="#7E8B9C"/>
</svg>
