<svg width="38" height="28" viewBox="0 0 38 28" fill="none" xmlns="http://www.w3.org/2000/svg">
<mask id="path-1-outside-1" maskUnits="userSpaceOnUse" x="0" y="0" width="38" height="28" fill="black">
<rect fill="white" width="38" height="28"/>
<path d="M5.13158 2C3.40206 2 2 3.95383 2 5.13043C2 6.30704 3.40206 8.26087 5.13158 8.26087H32.8684C34.5979 8.26087 36 6.30704 36 5.13043C36 3.95383 34.5979 2 32.8684 2H5.13158Z"/>
<path d="M5.13158 19.7391C3.40206 19.7391 2 21.693 2 22.8696C2 24.0462 3.40206 26 5.13158 26H32.8684C34.5979 26 36 24.0462 36 22.8696C36 21.693 34.5979 19.7391 32.8684 19.7391H5.13158Z"/>
</mask>
<path d="M5.13158 2C3.40206 2 2 3.95383 2 5.13043C2 6.30704 3.40206 8.26087 5.13158 8.26087H32.8684C34.5979 8.26087 36 6.30704 36 5.13043C36 3.95383 34.5979 2 32.8684 2H5.13158Z" fill="#0091FF"/>
<path d="M5.13158 19.7391C3.40206 19.7391 2 21.693 2 22.8696C2 24.0462 3.40206 26 5.13158 26H32.8684C34.5979 26 36 24.0462 36 22.8696C36 21.693 34.5979 19.7391 32.8684 19.7391H5.13158Z" fill="#0091FF"/>
<path d="M4 5.13043C4 5.20459 3.98661 5.149 4.06683 4.97252C4.1395 4.81266 4.25667 4.62696 4.40995 4.45506C4.74894 4.0749 5.03098 4 5.13158 4V0C3.50265 0 2.21891 0.902013 1.42448 1.79292C0.659458 2.65086 0 3.88756 0 5.13043H4ZM5.13158 6.26087C5.03098 6.26087 4.74894 6.18597 4.40995 5.80581C4.25667 5.63391 4.1395 5.44821 4.06683 5.28835C3.98661 5.11187 4 5.05628 4 5.13043H0C0 6.37331 0.659458 7.61001 1.42448 8.46795C2.21891 9.35886 3.50265 10.2609 5.13158 10.2609V6.26087ZM32.8684 6.26087H5.13158V10.2609H32.8684V6.26087ZM34 5.13043C34 5.05628 34.0134 5.11187 33.9332 5.28835C33.8605 5.44821 33.7433 5.63391 33.59 5.80581C33.2511 6.18597 32.969 6.26087 32.8684 6.26087V10.2609C34.4973 10.2609 35.7811 9.35886 36.5755 8.46795C37.3405 7.61001 38 6.37331 38 5.13043H34ZM32.8684 4C32.969 4 33.2511 4.0749 33.59 4.45506C33.7433 4.62696 33.8605 4.81266 33.9332 4.97252C34.0134 5.149 34 5.20459 34 5.13043H38C38 3.88756 37.3405 2.65086 36.5755 1.79292C35.7811 0.902013 34.4973 0 32.8684 0V4ZM5.13158 4H32.8684V0H5.13158V4ZM4 22.8696C4 22.9437 3.98661 22.8881 4.06683 22.7116C4.1395 22.5518 4.25667 22.3661 4.40995 22.1942C4.74894 21.814 5.03098 21.7391 5.13158 21.7391V17.7391C3.50265 17.7391 2.21891 18.6411 1.42448 19.532C0.659458 20.39 0 21.6267 0 22.8696H4ZM5.13158 24C5.03098 24 4.74894 23.9251 4.40995 23.5449C4.25667 23.373 4.1395 23.1873 4.06683 23.0275C3.98661 22.851 4 22.7954 4 22.8696H0C0 24.1124 0.659458 25.3491 1.42448 26.2071C2.21891 27.098 3.50265 28 5.13158 28V24ZM32.8684 24H5.13158V28H32.8684V24ZM34 22.8696C34 22.7954 34.0134 22.851 33.9332 23.0275C33.8605 23.1873 33.7433 23.373 33.59 23.5449C33.2511 23.9251 32.969 24 32.8684 24V28C34.4973 28 35.7811 27.098 36.5755 26.2071C37.3405 25.3491 38 24.1124 38 22.8696H34ZM32.8684 21.7391C32.969 21.7391 33.2511 21.814 33.59 22.1942C33.7433 22.3661 33.8605 22.5518 33.9332 22.7116C34.0134 22.8881 34 22.9437 34 22.8696H38C38 21.6267 37.3405 20.39 36.5755 19.532C35.7811 18.6411 34.4973 17.7391 32.8684 17.7391V21.7391ZM5.13158 21.7391H32.8684V17.7391H5.13158V21.7391Z" fill="#133E9B" mask="url(#path-1-outside-1)"/>
</svg>
