<svg xmlns="http://www.w3.org/2000/svg" xmlns:xlink="http://www.w3.org/1999/xlink" viewBox="0 0 921.58 855.64"><defs><style>.cls-1,.cls-10,.cls-11,.cls-14,.cls-15,.cls-20,.cls-21,.cls-22,.cls-25,.cls-26,.cls-27,.cls-28,.cls-29,.cls-3,.cls-31,.cls-32,.cls-33,.cls-34,.cls-39,.cls-4,.cls-42,.cls-46,.cls-49,.cls-5,.cls-50,.cls-55,.cls-56,.cls-59,.cls-63,.cls-64,.cls-67,.cls-7,.cls-8,.cls-9{fill:none;stroke-miterlimit:10;}.cls-1{stroke:#f4b244;}.cls-1,.cls-38,.cls-46,.cls-59,.cls-67,.cls-7{opacity:0.5;}.cls-2{fill:url(#linear-gradient);}.cls-25,.cls-26,.cls-3,.cls-4,.cls-5{stroke:#fff;}.cls-4{stroke-dasharray:10.36 5.76;}.cls-5{stroke-dasharray:9.69 5.38;}.cls-6{fill:url(#linear-gradient-2);}.cls-7{stroke:url(#linear-gradient-3);}.cls-10,.cls-11,.cls-20,.cls-21,.cls-22,.cls-27,.cls-28,.cls-29,.cls-31,.cls-32,.cls-33,.cls-34,.cls-42,.cls-8,.cls-9{stroke-dasharray:9 5;}.cls-10,.cls-11,.cls-20,.cls-21,.cls-22,.cls-27,.cls-28,.cls-29,.cls-31,.cls-32,.cls-33,.cls-34,.cls-41,.cls-8,.cls-9{opacity:0.8;}.cls-8{stroke:url(#linear-gradient-4);}.cls-9{stroke:url(#linear-gradient-5);}.cls-10{stroke:url(#linear-gradient-6);}.cls-11{stroke:url(#linear-gradient-7);}.cls-12{fill:url(#linear-gradient-8);}.cls-13{fill:url(#linear-gradient-9);}.cls-14,.cls-49,.cls-55,.cls-63{opacity:0.4;}.cls-14{stroke:url(#linear-gradient-10);}.cls-15{stroke:url(#linear-gradient-11);}.cls-16{fill:url(#linear-gradient-12);}.cls-17{fill:url(#linear-gradient-13);}.cls-18{fill:url(#linear-gradient-14);}.cls-19{fill:#f4c444;}.cls-20{stroke:url(#linear-gradient-15);}.cls-21{stroke:url(#linear-gradient-16);}.cls-22{stroke:url(#linear-gradient-17);}.cls-23{fill:url(#linear-gradient-18);}.cls-24{fill:url(#linear-gradient-19);}.cls-25{stroke-dasharray:10.42 5.79;}.cls-26{stroke-dasharray:8.77 4.87;}.cls-27{stroke:url(#linear-gradient-20);}.cls-28{stroke:url(#linear-gradient-21);}.cls-29{stroke:url(#linear-gradient-22);}.cls-30{fill:url(#linear-gradient-23);}.cls-31{stroke:url(#linear-gradient-24);}.cls-32{stroke:url(#linear-gradient-25);}.cls-33{stroke:url(#linear-gradient-26);}.cls-34{stroke:url(#linear-gradient-27);}.cls-35{fill:url(#linear-gradient-28);}.cls-36{fill:#191966;}.cls-37{fill:url(#linear-gradient-29);}.cls-39{stroke:url(#linear-gradient-30);}.cls-40{fill:url(#linear-gradient-31);}.cls-42{stroke:url(#linear-gradient-32);}.cls-43{fill:#fff;}.cls-44{fill:url(#linear-gradient-33);}.cls-45,.cls-54,.cls-62,.cls-79{opacity:0.6;}.cls-45{fill:url(#linear-gradient-34);}.cls-46{stroke:url(#linear-gradient-35);}.cls-47{fill:url(#linear-gradient-36);}.cls-48{fill:url(#linear-gradient-37);}.cls-49{stroke:url(#linear-gradient-38);}.cls-50{stroke:url(#linear-gradient-39);}.cls-51{fill:url(#linear-gradient-40);}.cls-52{fill:url(#linear-gradient-41);}.cls-53{fill:url(#linear-gradient-42);}.cls-54{fill:url(#linear-gradient-43);}.cls-55{stroke:url(#linear-gradient-44);}.cls-56{stroke:url(#linear-gradient-45);}.cls-57{fill:url(#linear-gradient-46);}.cls-58{fill:url(#linear-gradient-47);}.cls-59{stroke:url(#linear-gradient-48);}.cls-60{fill:url(#linear-gradient-49);}.cls-61{fill:url(#linear-gradient-50);}.cls-62{fill:url(#linear-gradient-51);}.cls-63{stroke:url(#linear-gradient-52);}.cls-64{stroke:url(#linear-gradient-53);}.cls-65{fill:url(#linear-gradient-54);}.cls-66{fill:url(#linear-gradient-55);}.cls-67{stroke:url(#linear-gradient-56);}.cls-68{fill:url(#linear-gradient-57);}.cls-69{fill:url(#linear-gradient-58);}.cls-70{fill:url(#linear-gradient-59);}.cls-71{fill:url(#linear-gradient-60);}.cls-72{fill:url(#linear-gradient-61);}.cls-73{fill:#2682ff;}.cls-74{fill:url(#linear-gradient-62);}.cls-75,.cls-76,.cls-77{opacity:0.2;}.cls-75{fill:url(#linear-gradient-63);}.cls-76{fill:url(#linear-gradient-64);}.cls-77{fill:url(#linear-gradient-65);}.cls-78{fill:url(#linear-gradient-66);}.cls-79{fill:url(#linear-gradient-68);}.cls-80{fill:#0c3784;}.cls-81{fill:url(#linear-gradient-69);}.cls-82{fill:url(#linear-gradient-70);}.cls-83{fill:url(#linear-gradient-71);}.cls-84{fill:url(#linear-gradient-72);}.cls-85{fill:url(#linear-gradient-73);}.cls-86{fill:url(#linear-gradient-74);}.cls-87{fill:url(#linear-gradient-75);}.cls-88{fill:url(#linear-gradient-76);}.cls-89{fill:url(#linear-gradient-77);}.cls-90{fill:url(#linear-gradient-78);}.cls-91{fill:url(#linear-gradient-79);}.cls-92{fill:url(#linear-gradient-80);}.cls-93{fill:url(#linear-gradient-81);}.cls-94{fill:url(#linear-gradient-82);}.cls-95{fill:url(#linear-gradient-83);}.cls-96{fill:url(#linear-gradient-84);}</style><linearGradient id="linear-gradient" x1="611.65" y1="704.14" x2="611.65" y2="661.68" gradientTransform="matrix(-1, 0, 0, 1, 1495.58, 0)" gradientUnits="userSpaceOnUse"><stop offset="0" stop-color="#f4e113"/><stop offset="1" stop-color="#f49d1a"/></linearGradient><linearGradient id="linear-gradient-2" x1="519.65" y1="314.14" x2="519.65" y2="271.68" gradientTransform="matrix(-1, 0, 0, 1, 1327.58, 0)" xlink:href="#linear-gradient"/><linearGradient id="linear-gradient-3" x1="78" y1="443.91" x2="153.29" y2="443.91" gradientUnits="userSpaceOnUse"><stop offset="0" stop-color="#10b0ff"/><stop offset="1" stop-color="#08ebbf"/></linearGradient><linearGradient id="linear-gradient-4" x1="236.79" y1="424.42" x2="267.43" y2="424.42" gradientUnits="userSpaceOnUse"><stop offset="0" stop-color="#10b0ff"/><stop offset="1" stop-color="#005eff"/></linearGradient><linearGradient id="linear-gradient-5" x1="322.3" y1="557.91" x2="445.79" y2="557.91" xlink:href="#linear-gradient-4"/><linearGradient id="linear-gradient-6" x1="444.79" y1="447.15" x2="445.79" y2="447.15" xlink:href="#linear-gradient-4"/><linearGradient id="linear-gradient-7" x1="444.79" y1="220.9" x2="445.79" y2="220.9" xlink:href="#linear-gradient-4"/><linearGradient id="linear-gradient-8" x1="115.65" y1="314.14" x2="115.65" y2="271.68" gradientTransform="matrix(1, 0, 0, 1, 0, 0)" xlink:href="#linear-gradient"/><linearGradient id="linear-gradient-9" x1="115.65" y1="455.14" x2="115.65" y2="412.68" xlink:href="#linear-gradient-3"/><linearGradient id="linear-gradient-10" x1="135.19" y1="373.91" x2="342.16" y2="373.91" xlink:href="#linear-gradient-4"/><linearGradient id="linear-gradient-11" x1="135.19" y1="359.91" x2="342.16" y2="359.91" xlink:href="#linear-gradient-4"/><linearGradient id="linear-gradient-12" x1="238.65" y1="397.13" x2="238.65" y2="295.57" xlink:href="#linear-gradient-4"/><linearGradient id="linear-gradient-13" x1="238.67" y1="353.77" x2="238.67" y2="236.06" xlink:href="#linear-gradient-4"/><linearGradient id="linear-gradient-14" x1="275.42" y1="503.18" x2="314.14" y2="503.18" xlink:href="#linear-gradient-4"/><linearGradient id="linear-gradient-15" x1="204.79" y1="780.83" x2="315.7" y2="780.83" xlink:href="#linear-gradient-4"/><linearGradient id="linear-gradient-16" x1="377.85" y1="578.21" x2="456.79" y2="578.21" xlink:href="#linear-gradient-4"/><linearGradient id="linear-gradient-17" x1="455.79" y1="226.9" x2="456.79" y2="226.9" xlink:href="#linear-gradient-4"/><linearGradient id="linear-gradient-18" x1="444.79" y1="547.15" x2="444.79" y2="497.15" xlink:href="#linear-gradient-4"/><linearGradient id="linear-gradient-19" x1="326.94" y1="765.15" x2="366.64" y2="765.15" xlink:href="#linear-gradient-3"/><linearGradient id="linear-gradient-20" x1="626.62" y1="433.31" x2="686.79" y2="433.31" xlink:href="#linear-gradient-4"/><linearGradient id="linear-gradient-21" x1="477.79" y1="509.83" x2="567.72" y2="509.83" xlink:href="#linear-gradient-4"/><linearGradient id="linear-gradient-22" x1="477.79" y1="241.67" x2="478.79" y2="241.67" xlink:href="#linear-gradient-4"/><linearGradient id="linear-gradient-23" x1="577.44" y1="523.18" x2="616.16" y2="523.18" gradientUnits="userSpaceOnUse"><stop offset="0" stop-color="#702aff"/><stop offset="1" stop-color="#c842ff"/></linearGradient><linearGradient id="linear-gradient-24" x1="657.19" y1="780.83" x2="718.79" y2="780.83" xlink:href="#linear-gradient-4"/><linearGradient id="linear-gradient-25" x1="466.79" y1="725.83" x2="596.83" y2="725.83" xlink:href="#linear-gradient-4"/><linearGradient id="linear-gradient-26" x1="466.79" y1="512.95" x2="467.79" y2="512.95" xlink:href="#linear-gradient-4"/><linearGradient id="linear-gradient-27" x1="466.79" y1="234.8" x2="467.79" y2="234.8" xlink:href="#linear-gradient-4"/><linearGradient id="linear-gradient-28" x1="606.94" y1="794.15" x2="646.64" y2="794.15" xlink:href="#linear-gradient-4"/><linearGradient id="linear-gradient-29" x1="199.47" y1="283.56" x2="278.11" y2="283.56" gradientTransform="matrix(1, 0, 0, 1, 0, 0)" xlink:href="#linear-gradient"/><linearGradient id="linear-gradient-30" x1="414.29" y1="101" x2="525.29" y2="101" xlink:href="#linear-gradient-4"/><linearGradient id="linear-gradient-31" x1="404.79" y1="109" x2="514.79" y2="109" xlink:href="#linear-gradient-4"/><linearGradient id="linear-gradient-32" x1="416.29" y1="335.5" x2="501.29" y2="335.5" xlink:href="#linear-gradient-4"/><linearGradient id="linear-gradient-33" x1="500.59" y1="92.67" x2="500.59" y2="13.69" gradientTransform="matrix(1, 0, 0, 1, 0, 0)" xlink:href="#linear-gradient"/><linearGradient id="linear-gradient-34" x1="238.79" y1="310.81" x2="238.79" y2="167.15" gradientUnits="userSpaceOnUse"><stop offset="0" stop-color="#f4e113"/><stop offset="1" stop-color="#f49d1a" stop-opacity="0"/></linearGradient><linearGradient id="linear-gradient-35" x1="0" y1="833.91" x2="75.29" y2="833.91" xlink:href="#linear-gradient-3"/><linearGradient id="linear-gradient-36" x1="37.65" y1="704.14" x2="37.65" y2="661.68" gradientTransform="matrix(1, 0, 0, 1, 0, 0)" xlink:href="#linear-gradient"/><linearGradient id="linear-gradient-37" x1="37.65" y1="845.14" x2="37.65" y2="802.68" xlink:href="#linear-gradient-3"/><linearGradient id="linear-gradient-38" x1="57.19" y1="763.91" x2="264.16" y2="763.91" xlink:href="#linear-gradient-4"/><linearGradient id="linear-gradient-39" x1="57.19" y1="749.91" x2="264.16" y2="749.91" xlink:href="#linear-gradient-4"/><linearGradient id="linear-gradient-40" x1="160.65" y1="787.13" x2="160.65" y2="685.57" xlink:href="#linear-gradient-4"/><linearGradient id="linear-gradient-41" x1="160.67" y1="743.77" x2="160.67" y2="626.06" xlink:href="#linear-gradient-4"/><linearGradient id="linear-gradient-42" x1="121.47" y1="673.56" x2="200.11" y2="673.56" gradientTransform="matrix(1, 0, 0, 1, 0, 0)" xlink:href="#linear-gradient"/><linearGradient id="linear-gradient-43" x1="160.79" y1="700.81" x2="160.79" y2="547.15" xlink:href="#linear-gradient-34"/><linearGradient id="linear-gradient-44" x1="659.19" y1="763.91" x2="866.16" y2="763.91" xlink:href="#linear-gradient-4"/><linearGradient id="linear-gradient-45" x1="659.19" y1="749.91" x2="866.16" y2="749.91" xlink:href="#linear-gradient-4"/><linearGradient id="linear-gradient-46" x1="762.65" y1="787.13" x2="762.65" y2="685.57" xlink:href="#linear-gradient-4"/><linearGradient id="linear-gradient-47" x1="762.67" y1="743.77" x2="762.67" y2="626.06" xlink:href="#linear-gradient-4"/><linearGradient id="linear-gradient-48" x1="574" y1="833.91" x2="649.29" y2="833.91" gradientTransform="matrix(-1, 0, 0, 1, 1495.58, 0)" xlink:href="#linear-gradient-3"/><linearGradient id="linear-gradient-49" x1="611.65" y1="845.14" x2="611.65" y2="802.68" gradientTransform="matrix(-1, 0, 0, 1, 1495.58, 0)" xlink:href="#linear-gradient-3"/><linearGradient id="linear-gradient-50" x1="723.47" y1="673.56" x2="802.11" y2="673.56" gradientTransform="matrix(1, 0, 0, 1, 0, 0)" xlink:href="#linear-gradient"/><linearGradient id="linear-gradient-51" x1="762.79" y1="700.81" x2="762.79" y2="557.15" xlink:href="#linear-gradient-34"/><linearGradient id="linear-gradient-52" x1="580.19" y1="373.91" x2="787.16" y2="373.91" xlink:href="#linear-gradient-4"/><linearGradient id="linear-gradient-53" x1="580.19" y1="359.91" x2="787.16" y2="359.91" xlink:href="#linear-gradient-4"/><linearGradient id="linear-gradient-54" x1="683.65" y1="397.13" x2="683.65" y2="295.57" xlink:href="#linear-gradient-4"/><linearGradient id="linear-gradient-55" x1="683.67" y1="353.77" x2="683.67" y2="236.06" xlink:href="#linear-gradient-4"/><linearGradient id="linear-gradient-56" x1="482" y1="443.91" x2="557.29" y2="443.91" gradientTransform="matrix(-1, 0, 0, 1, 1327.58, 0)" xlink:href="#linear-gradient-3"/><linearGradient id="linear-gradient-57" x1="519.65" y1="455.14" x2="519.65" y2="412.68" gradientTransform="matrix(-1, 0, 0, 1, 1327.58, 0)" xlink:href="#linear-gradient-3"/><linearGradient id="linear-gradient-58" x1="644.47" y1="283.56" x2="723.11" y2="283.56" gradientTransform="matrix(1, 0, 0, 1, 0, 0)" xlink:href="#linear-gradient"/><linearGradient id="linear-gradient-59" x1="199.22" y1="211.94" x2="199.22" y2="79.41" gradientTransform="matrix(0.99, 0.12, 0.02, 1.01, 35.1, -12.3)" xlink:href="#linear-gradient-23"/><linearGradient id="linear-gradient-60" x1="721.48" y1="535.19" x2="721.48" y2="402.66" gradientTransform="matrix(0.99, 0.12, 0.02, 1.01, 35.1, -12.3)" xlink:href="#linear-gradient-23"/><linearGradient id="linear-gradient-61" x1="467.79" y1="665.15" x2="467.79" y2="615.15" gradientTransform="matrix(1, 0, 0, 1, 0, 0)" xlink:href="#linear-gradient"/><linearGradient id="linear-gradient-62" x1="540.79" y1="400.65" x2="542.79" y2="400.65" xlink:href="#linear-gradient-23"/><linearGradient id="linear-gradient-63" x1="389.79" y1="393.65" x2="391.79" y2="393.65" xlink:href="#linear-gradient-4"/><linearGradient id="linear-gradient-64" x1="369.29" y1="338.65" x2="372.29" y2="338.65" xlink:href="#linear-gradient-4"/><linearGradient id="linear-gradient-65" x1="538.79" y1="294.15" x2="541.79" y2="294.15" xlink:href="#linear-gradient-4"/><linearGradient id="linear-gradient-66" x1="438.58" y1="363.55" x2="482.68" y2="319.45" xlink:href="#linear-gradient-3"/><linearGradient id="linear-gradient-68" x1="683.79" y1="310.81" x2="683.79" y2="157.15" xlink:href="#linear-gradient-34"/><linearGradient id="linear-gradient-69" x1="611.65" y1="107.19" x2="687.51" y2="107.19" xlink:href="#linear-gradient-3"/><linearGradient id="linear-gradient-70" x1="622.47" y1="192.4" x2="622.47" y2="116.84" xlink:href="#linear-gradient-4"/><linearGradient id="linear-gradient-71" x1="-1314.01" y1="176.52" x2="-1286.53" y2="176.52" gradientTransform="matrix(-1, 0, 0, 1, -591.22, 0)" xlink:href="#linear-gradient-4"/><linearGradient id="linear-gradient-72" x1="685.79" y1="219.96" x2="685.79" y2="180.33" xlink:href="#linear-gradient-4"/><linearGradient id="linear-gradient-73" x1="-1342.73" y1="144.02" x2="-1264.87" y2="144.02" gradientTransform="matrix(-1, 0, 0, 1, -591.22, 0)" xlink:href="#linear-gradient-4"/><linearGradient id="linear-gradient-74" x1="673.58" y1="145.62" x2="746.37" y2="145.62" xlink:href="#linear-gradient-3"/><linearGradient id="linear-gradient-75" x1="689.6" y1="146.3" x2="729.42" y2="146.3" xlink:href="#linear-gradient-3"/><linearGradient id="linear-gradient-76" x1="689.6" y1="157.91" x2="729.42" y2="157.91" xlink:href="#linear-gradient-3"/><linearGradient id="linear-gradient-77" x1="89.65" y1="499.19" x2="165.51" y2="499.19" xlink:href="#linear-gradient-3"/><linearGradient id="linear-gradient-78" x1="100.47" y1="584.4" x2="100.47" y2="508.84" xlink:href="#linear-gradient-4"/><linearGradient id="linear-gradient-79" x1="-792.01" y1="568.52" x2="-764.53" y2="568.52" gradientTransform="matrix(-1, 0, 0, 1, -591.22, 0)" xlink:href="#linear-gradient-4"/><linearGradient id="linear-gradient-80" x1="163.79" y1="611.96" x2="163.79" y2="572.33" xlink:href="#linear-gradient-4"/><linearGradient id="linear-gradient-81" x1="-820.73" y1="536.02" x2="-742.87" y2="536.02" gradientTransform="matrix(-1, 0, 0, 1, -591.22, 0)" xlink:href="#linear-gradient-4"/><linearGradient id="linear-gradient-82" x1="151.58" y1="537.62" x2="224.37" y2="537.62" xlink:href="#linear-gradient-3"/><linearGradient id="linear-gradient-83" x1="167.6" y1="538.3" x2="207.42" y2="538.3" xlink:href="#linear-gradient-3"/><linearGradient id="linear-gradient-84" x1="167.6" y1="549.91" x2="207.42" y2="549.91" xlink:href="#linear-gradient-3"/></defs><title>storj</title><g id="Layer_2" data-name="Layer 2"><g id="design"><path class="cls-1" d="M919.48,696.05l-30.92,16.84a10.25,10.25,0,0,1-10-.08l-30.25-17.15a3.07,3.07,0,0,1,0-5.32l29.79-17.27A10.22,10.22,0,0,1,888.3,673l31.23,17.67A3.07,3.07,0,0,1,919.48,696.05Z"/><path class="cls-2" d="M919.48,686.05l-30.92,16.84a10.25,10.25,0,0,1-10-.08l-30.25-17.15a3.07,3.07,0,0,1,0-5.32l29.79-17.27A10.22,10.22,0,0,1,888.3,663l31.23,17.67A3.07,3.07,0,0,1,919.48,686.05Z"/><line class="cls-3" x1="884.29" y1="679.15" x2="884.29" y2="674.65"/><line class="cls-4" x1="884.29" y1="668.89" x2="884.29" y2="639.52"/><polyline class="cls-3" points="884.29 636.65 884.29 632.15 880.25 634.13"/><line class="cls-5" x1="875.42" y1="636.51" x2="823.74" y2="661.97"/><line class="cls-3" x1="821.33" y1="663.16" x2="817.29" y2="665.15"/><path class="cls-1" d="M843.48,306.05l-30.92,16.84a10.25,10.25,0,0,1-10-.08l-30.25-17.15a3.07,3.07,0,0,1,0-5.32l29.79-17.27A10.22,10.22,0,0,1,812.3,283l31.23,17.67A3.07,3.07,0,0,1,843.48,306.05Z"/><path class="cls-6" d="M843.48,296.05l-30.92,16.84a10.25,10.25,0,0,1-10-.08l-30.25-17.15a3.07,3.07,0,0,1,0-5.32l29.79-17.27A10.22,10.22,0,0,1,812.3,273l31.23,17.67A3.07,3.07,0,0,1,843.48,296.05Z"/><line class="cls-3" x1="808.29" y1="289.15" x2="808.29" y2="284.65"/><line class="cls-4" x1="808.29" y1="278.89" x2="808.29" y2="249.52"/><polyline class="cls-3" points="808.29 246.65 808.29 242.15 804.25 244.13"/><line class="cls-5" x1="799.42" y1="246.51" x2="747.74" y2="271.97"/><line class="cls-3" x1="745.33" y1="273.16" x2="741.29" y2="275.15"/><path class="cls-7" d="M80.1,447.05,111,463.89a10.25,10.25,0,0,0,10-.08l30.25-17.15a3.07,3.07,0,0,0,0-5.32l-29.78-17.27a10.23,10.23,0,0,0-10.2-.05L80.06,441.69A3.06,3.06,0,0,0,80.1,447.05Z"/><path class="cls-1" d="M80.1,306.05,111,322.89a10.25,10.25,0,0,0,10-.08l30.25-17.15a3.07,3.07,0,0,0,0-5.32l-29.78-17.27a10.23,10.23,0,0,0-10.2-.05L80.06,300.69A3.06,3.06,0,0,0,80.1,306.05Z"/><polyline class="cls-8" points="267.17 487.35 237.29 469.35 237.29 361.06"/><polyline class="cls-9" points="445.29 553.65 445.29 594.65 322.56 520.72"/><line class="cls-10" x1="445.29" y1="401.65" x2="445.29" y2="492.65"/><line class="cls-11" x1="445.29" y1="185.99" x2="445.29" y2="255.82"/><path class="cls-12" d="M80.1,296.05,111,312.89a10.25,10.25,0,0,0,10-.08l30.25-17.15a3.07,3.07,0,0,0,0-5.32l-29.78-17.27a10.23,10.23,0,0,0-10.2-.05L80.06,290.69A3.06,3.06,0,0,0,80.1,296.05Z"/><line class="cls-3" x1="115.29" y1="289.15" x2="115.29" y2="284.65"/><line class="cls-4" x1="115.29" y1="278.89" x2="115.29" y2="249.52"/><polyline class="cls-3" points="115.29 246.65 115.29 242.15 119.33 244.13"/><line class="cls-5" x1="124.16" y1="246.51" x2="175.84" y2="271.97"/><line class="cls-3" x1="178.25" y1="273.16" x2="182.29" y2="275.15"/><path class="cls-13" d="M80.1,437.05,111,453.89a10.25,10.25,0,0,0,10-.08l30.25-17.15a3.07,3.07,0,0,0,0-5.32l-29.78-17.27a10.23,10.23,0,0,0-10.2-.05L80.06,431.69A3.06,3.06,0,0,0,80.1,437.05Z"/><path class="cls-14" d="M140.12,382.61l85.74,46.7a28.42,28.42,0,0,0,27.62-.24l83.87-47.54a8.49,8.49,0,0,0,.07-14.74l-82.58-47.9a28.44,28.44,0,0,0-28.28-.14l-86.56,49A8.5,8.5,0,0,0,140.12,382.61Z"/><path class="cls-15" d="M140.12,368.61l85.74,46.7a28.42,28.42,0,0,0,27.62-.24l83.87-47.54a8.49,8.49,0,0,0,.07-14.74l-82.58-47.9a28.44,28.44,0,0,0-28.28-.14l-86.56,49A8.5,8.5,0,0,0,140.12,368.61Z"/><path class="cls-16" d="M341.6,338.4a8.48,8.48,0,0,1-4.34,7.42l-83.8,47.59a28.53,28.53,0,0,1-27.73.24l-85.66-46.74a8.54,8.54,0,0,1-4.38-8.78V296.65l206-1.08Z"/><path class="cls-17" d="M140.12,303.61l85.74,46.7a28.42,28.42,0,0,0,27.62-.24l83.87-47.54a8.49,8.49,0,0,0,.07-14.74l-82.58-47.9a28.44,28.44,0,0,0-28.28-.14l-86.56,49A8.5,8.5,0,0,0,140.12,303.61Z"/><polygon class="cls-18" points="314.14 518.99 275.42 497.1 275.42 487.36 314.14 509.26 314.14 518.99"/><polygon class="cls-19" points="160.02 328.5 146.14 320.65 146.14 330.38 160.02 338.23 160.02 328.5"/><polygon class="cls-19" points="182.02 340.5 168.14 332.65 168.14 342.38 182.02 350.23 182.02 340.5"/><polyline class="cls-20" points="315.45 783.73 205.29 847.15 205.29 713.65"/><polyline class="cls-21" points="456.29 408.75 456.29 702.65 378.09 747.24"/><line class="cls-22" x1="456.29" y1="193.15" x2="456.29" y2="260.65"/><polygon class="cls-23" points="448.79 547.15 440.79 542.15 440.79 497.15 448.79 502.15 448.79 547.15"/><polygon class="cls-24" points="326.94 780.86 327.39 771.43 366.64 749.44 366.19 758.86 326.94 780.86"/><line class="cls-3" x1="115.29" y1="431.15" x2="115.29" y2="426.65"/><line class="cls-25" x1="115.29" y1="420.86" x2="115.29" y2="407.54"/><polyline class="cls-3" points="115.29 404.65 115.29 400.15 119.24 397.98"/><line class="cls-26" x1="123.51" y1="395.64" x2="193.21" y2="357.48"/><line class="cls-3" x1="195.34" y1="356.31" x2="199.29" y2="354.15"/><polyline class="cls-27" points="626.88 505.14 686.29 469.35 686.29 361.06"/><polyline class="cls-28" points="478.29 424.13 478.29 594.65 567.46 540.93"/><line class="cls-29" x1="478.29" y1="206.65" x2="478.29" y2="276.68"/><polygon class="cls-30" points="577.44 538.99 616.16 517.1 616.16 507.36 577.44 529.26 577.44 538.99"/><polyline class="cls-31" points="657.44 812.11 718.29 847.15 718.29 713.65"/><polyline class="cls-32" points="467.29 674.14 467.29 702.65 596.58 777.08"/><line class="cls-33" x1="467.29" y1="415.75" x2="467.29" y2="610.15"/><line class="cls-34" x1="467.29" y1="200.96" x2="467.29" y2="268.65"/><polygon class="cls-35" points="646.64 809.86 646.19 800.43 606.94 778.44 607.39 787.86 646.64 809.86"/><ellipse class="cls-36" cx="238.79" cy="290.98" rx="39.32" ry="19.83"/><path class="cls-37" d="M238.79,281.15c18.29,0,33.66,6.3,38,14.83a10.79,10.79,0,0,0,1.27-5c0-11-17.61-19.83-39.32-19.83S199.47,280,199.47,291a10.79,10.79,0,0,0,1.27,5C205.13,287.45,220.5,281.15,238.79,281.15Z"/><g class="cls-38"><path class="cls-39" d="M516.4,200.73,424,148.09a18.48,18.48,0,0,1-9.18-16V6.09a5.58,5.58,0,0,1,8.39-4.82l92.43,52.64a18.46,18.46,0,0,1,9.18,16v126A5.58,5.58,0,0,1,516.4,200.73Z"/></g><path class="cls-40" d="M506.4,208.73,414,156.09a18.48,18.48,0,0,1-9.18-16v-126a5.58,5.58,0,0,1,8.39-4.82l92.43,52.64a18.46,18.46,0,0,1,9.18,16v126A5.58,5.58,0,0,1,506.4,208.73Z"/><g class="cls-41"><path class="cls-42" d="M494.38,414.16,423.8,374a14.11,14.11,0,0,1-7-12.19V260.52a4.27,4.27,0,0,1,6.41-3.68L493.78,297a14.11,14.11,0,0,1,7,12.19V410.48A4.26,4.26,0,0,1,494.38,414.16Z"/></g><polygon class="cls-43" points="460.14 78.99 421.42 57.09 421.42 47.36 460.14 69.26 460.14 78.99"/><polygon class="cls-43" points="492.79 125.99 421.42 85.09 421.42 75.36 492.79 116.26 492.79 125.99"/><polygon class="cls-43" points="492.79 149.99 421.42 109.09 421.42 99.36 492.79 140.26 492.79 149.99"/><polygon class="cls-43" points="492.79 173.99 421.42 133.09 421.42 123.36 492.79 164.26 492.79 173.99"/><path class="cls-44" d="M518.29,90.73c8.67,5,16.42.06,17.31-10.94.83-10.35-4.71-22.42-12.6-27.94.32-13.85-7.65-29.48-18.41-35.64-11.28-6.45-21.35-.09-22.5,14.22,0,.69-.08,1.38-.09,2.08-.29-.18-.57-.38-.85-.54-7.81-4.47-14.78-.06-15.58,9.84s4.89,21.55,12.69,26Z"/><path class="cls-45" d="M278.11,291c0,10.95-17.61,19.83-39.32,19.83s-39.32-8.88-39.32-19.83V187c0-11,17.61-19.83,39.32-19.83S278.11,176,278.11,187Z"/><path class="cls-46" d="M2.1,837.05,33,853.89a10.25,10.25,0,0,0,10-.08l30.25-17.15a3.07,3.07,0,0,0,0-5.32L43.48,814.07a10.23,10.23,0,0,0-10.2-.05L2.06,831.69A3.06,3.06,0,0,0,2.1,837.05Z"/><path class="cls-1" d="M2.1,696.05,33,712.89a10.25,10.25,0,0,0,10-.08l30.25-17.15a3.07,3.07,0,0,0,0-5.32L43.48,673.07a10.23,10.23,0,0,0-10.2-.05L2.06,690.69A3.06,3.06,0,0,0,2.1,696.05Z"/><path class="cls-47" d="M2.1,686.05,33,702.89a10.25,10.25,0,0,0,10-.08l30.25-17.15a3.07,3.07,0,0,0,0-5.32L43.48,663.07a10.23,10.23,0,0,0-10.2-.05L2.06,680.69A3.06,3.06,0,0,0,2.1,686.05Z"/><line class="cls-3" x1="37.29" y1="679.15" x2="37.29" y2="674.65"/><line class="cls-4" x1="37.29" y1="668.89" x2="37.29" y2="639.52"/><polyline class="cls-3" points="37.29 636.65 37.29 632.15 41.33 634.13"/><line class="cls-5" x1="46.16" y1="636.51" x2="97.84" y2="661.97"/><line class="cls-3" x1="100.25" y1="663.16" x2="104.29" y2="665.15"/><path class="cls-48" d="M2.1,827.05,33,843.89a10.25,10.25,0,0,0,10-.08l30.25-17.15a3.07,3.07,0,0,0,0-5.32L43.48,804.07a10.23,10.23,0,0,0-10.2-.05L2.06,821.69A3.06,3.06,0,0,0,2.1,827.05Z"/><path class="cls-49" d="M62.12,772.61l85.74,46.7a28.42,28.42,0,0,0,27.62-.24l83.87-47.54a8.49,8.49,0,0,0,.07-14.74l-82.58-47.9a28.44,28.44,0,0,0-28.28-.14L62,757.75A8.5,8.5,0,0,0,62.12,772.61Z"/><path class="cls-50" d="M62.12,758.61l85.74,46.7a28.42,28.42,0,0,0,27.62-.24l83.87-47.54a8.49,8.49,0,0,0,.07-14.74l-82.58-47.9a28.44,28.44,0,0,0-28.28-.14L62,743.75A8.5,8.5,0,0,0,62.12,758.61Z"/><path class="cls-51" d="M263.6,728.4a8.48,8.48,0,0,1-4.34,7.42l-83.8,47.59a28.53,28.53,0,0,1-27.73.24L62.07,736.91a8.54,8.54,0,0,1-4.38-8.78V686.65l206-1.08Z"/><path class="cls-52" d="M62.12,693.61l85.74,46.7a28.42,28.42,0,0,0,27.62-.24l83.87-47.54a8.49,8.49,0,0,0,.07-14.74l-82.58-47.9a28.44,28.44,0,0,0-28.28-.14L62,678.75A8.5,8.5,0,0,0,62.12,693.61Z"/><polygon class="cls-19" points="82.02 718.5 68.14 710.65 68.14 720.38 82.02 728.23 82.02 718.5"/><polygon class="cls-19" points="104.02 730.5 90.14 722.65 90.14 732.38 104.02 740.23 104.02 730.5"/><line class="cls-3" x1="37.29" y1="821.15" x2="37.29" y2="816.65"/><line class="cls-25" x1="37.29" y1="810.86" x2="37.29" y2="797.54"/><polyline class="cls-3" points="37.29 794.65 37.29 790.15 41.24 787.98"/><line class="cls-26" x1="45.51" y1="785.64" x2="115.21" y2="747.48"/><line class="cls-3" x1="117.34" y1="746.31" x2="121.29" y2="744.15"/><ellipse class="cls-36" cx="160.79" cy="680.98" rx="39.32" ry="19.83"/><path class="cls-53" d="M160.79,671.15c18.29,0,33.66,6.3,38.05,14.83a10.79,10.79,0,0,0,1.27-5c0-11-17.61-19.83-39.32-19.83S121.47,670,121.47,681a10.79,10.79,0,0,0,1.27,5C127.13,677.45,142.5,671.15,160.79,671.15Z"/><path class="cls-54" d="M200.11,681c0,10.95-17.61,19.83-39.32,19.83s-39.32-8.88-39.32-19.83V567c0-11,17.61-19.83,39.32-19.83S200.11,556,200.11,567Z"/><path class="cls-55" d="M664.12,772.61l85.74,46.7a28.42,28.42,0,0,0,27.62-.24l83.87-47.54a8.49,8.49,0,0,0,.07-14.74l-82.58-47.9a28.44,28.44,0,0,0-28.28-.14l-86.56,49A8.5,8.5,0,0,0,664.12,772.61Z"/><path class="cls-56" d="M664.12,758.61l85.74,46.7a28.42,28.42,0,0,0,27.62-.24l83.87-47.54a8.49,8.49,0,0,0,.07-14.74l-82.58-47.9a28.44,28.44,0,0,0-28.28-.14l-86.56,49A8.5,8.5,0,0,0,664.12,758.61Z"/><path class="cls-57" d="M865.6,728.4a8.48,8.48,0,0,1-4.34,7.42l-83.8,47.59a28.53,28.53,0,0,1-27.73.24l-85.66-46.74a8.54,8.54,0,0,1-4.38-8.78V686.65l206-1.08Z"/><path class="cls-58" d="M664.12,693.61l85.74,46.7a28.42,28.42,0,0,0,27.62-.24l83.87-47.54a8.49,8.49,0,0,0,.07-14.74l-82.58-47.9a28.44,28.44,0,0,0-28.28-.14l-86.56,49A8.5,8.5,0,0,0,664.12,693.61Z"/><polygon class="cls-19" points="684.02 718.5 670.14 710.65 670.14 720.38 684.02 728.23 684.02 718.5"/><polygon class="cls-19" points="706.02 730.5 692.14 722.65 692.14 732.38 706.02 740.23 706.02 730.5"/><path class="cls-59" d="M919.48,837.05l-30.92,16.84a10.25,10.25,0,0,1-10-.08l-30.25-17.15a3.07,3.07,0,0,1,0-5.32l29.79-17.27A10.22,10.22,0,0,1,888.3,814l31.23,17.67A3.07,3.07,0,0,1,919.48,837.05Z"/><path class="cls-60" d="M919.48,827.05l-30.92,16.84a10.25,10.25,0,0,1-10-.08l-30.25-17.15a3.07,3.07,0,0,1,0-5.32l29.79-17.27A10.22,10.22,0,0,1,888.3,804l31.23,17.67A3.07,3.07,0,0,1,919.48,827.05Z"/><line class="cls-3" x1="884.29" y1="821.15" x2="884.29" y2="816.65"/><line class="cls-25" x1="884.29" y1="810.86" x2="884.29" y2="797.54"/><polyline class="cls-3" points="884.29 794.65 884.29 790.15 880.34 787.98"/><line class="cls-26" x1="876.07" y1="785.64" x2="806.38" y2="747.48"/><line class="cls-3" x1="804.24" y1="746.31" x2="800.29" y2="744.15"/><ellipse class="cls-36" cx="762.79" cy="680.98" rx="39.32" ry="19.83"/><path class="cls-61" d="M762.79,671.15c18.29,0,33.66,6.3,38.05,14.83a10.79,10.79,0,0,0,1.27-5c0-11-17.61-19.83-39.32-19.83S723.47,670,723.47,681a10.79,10.79,0,0,0,1.27,5C729.13,677.45,744.5,671.15,762.79,671.15Z"/><path class="cls-62" d="M802.11,681c0,10.95-17.61,19.83-39.32,19.83s-39.32-8.88-39.32-19.83V577c0-11,17.61-19.83,39.32-19.83S802.11,566,802.11,577Z"/><path class="cls-63" d="M585.12,382.61l85.74,46.7a28.42,28.42,0,0,0,27.62-.24l83.87-47.54a8.49,8.49,0,0,0,.07-14.74l-82.58-47.9a28.44,28.44,0,0,0-28.28-.14l-86.56,49A8.5,8.5,0,0,0,585.12,382.61Z"/><path class="cls-64" d="M585.12,368.61l85.74,46.7a28.42,28.42,0,0,0,27.62-.24l83.87-47.54a8.49,8.49,0,0,0,.07-14.74l-82.58-47.9a28.44,28.44,0,0,0-28.28-.14l-86.56,49A8.5,8.5,0,0,0,585.12,368.61Z"/><path class="cls-65" d="M786.6,338.4a8.48,8.48,0,0,1-4.34,7.42l-83.8,47.59a28.53,28.53,0,0,1-27.73.24l-85.66-46.74a8.54,8.54,0,0,1-4.38-8.78V296.65l206-1.08Z"/><path class="cls-66" d="M585.12,303.61l85.74,46.7a28.42,28.42,0,0,0,27.62-.24l83.87-47.54a8.49,8.49,0,0,0,.07-14.74l-82.58-47.9a28.44,28.44,0,0,0-28.28-.14l-86.56,49A8.5,8.5,0,0,0,585.12,303.61Z"/><polygon class="cls-19" points="605.02 328.5 591.14 320.65 591.14 330.38 605.02 338.23 605.02 328.5"/><polygon class="cls-19" points="627.02 340.5 613.14 332.65 613.14 342.38 627.02 350.23 627.02 340.5"/><path class="cls-67" d="M843.48,447.05l-30.92,16.84a10.25,10.25,0,0,1-10-.08l-30.25-17.15a3.07,3.07,0,0,1,0-5.32l29.79-17.27A10.22,10.22,0,0,1,812.3,424l31.23,17.67A3.07,3.07,0,0,1,843.48,447.05Z"/><path class="cls-68" d="M843.48,437.05l-30.92,16.84a10.25,10.25,0,0,1-10-.08l-30.25-17.15a3.07,3.07,0,0,1,0-5.32l29.79-17.27A10.22,10.22,0,0,1,812.3,414l31.23,17.67A3.07,3.07,0,0,1,843.48,437.05Z"/><line class="cls-3" x1="808.29" y1="431.15" x2="808.29" y2="426.65"/><line class="cls-25" x1="808.29" y1="420.86" x2="808.29" y2="407.54"/><polyline class="cls-3" points="808.29 404.65 808.29 400.15 804.34 397.98"/><line class="cls-26" x1="800.07" y1="395.64" x2="730.38" y2="357.48"/><line class="cls-3" x1="728.24" y1="356.31" x2="724.29" y2="354.15"/><ellipse class="cls-36" cx="683.79" cy="290.98" rx="39.32" ry="19.83"/><path class="cls-69" d="M683.79,281.15c18.29,0,33.66,6.3,38.05,14.83a10.79,10.79,0,0,0,1.27-5c0-11-17.61-19.83-39.32-19.83S644.47,280,644.47,291a10.79,10.79,0,0,0,1.27,5C650.13,287.45,665.5,281.15,683.79,281.15Z"/><path class="cls-70" d="M277.8,229.94,196.15,183.8a19.36,19.36,0,0,1-9.86-16.15l-1.15-75.44c-.07-4.64,4.57-7.17,8.78-4.79L223.33,104a26.67,26.67,0,0,1,10.78,11.52l9.68,19.95,32.09,18.14a19.33,19.33,0,0,1,9.86,16.15l.84,55.35C286.65,229.79,282,232.32,277.8,229.94Z"/><polygon class="cls-43" points="236.5 183.12 198.43 161.61 198.57 169.61 236.63 191.13 236.5 183.12"/><path class="cls-71" d="M802.8,618.94,721.15,572.8a19.36,19.36,0,0,1-9.86-16.15l-1.15-75.44c-.07-4.64,4.57-7.17,8.78-4.79L748.33,493a26.67,26.67,0,0,1,10.78,11.52l9.68,19.95,32.09,18.14a19.33,19.33,0,0,1,9.86,16.15l.84,55.35C811.65,618.79,807,621.32,802.8,618.94Z"/><polygon class="cls-43" points="761.5 572.12 723.43 550.61 723.57 558.61 761.63 580.13 761.5 572.12"/><polygon class="cls-72" points="471.79 665.15 463.79 660.15 463.79 615.15 471.79 620.15 471.79 665.15"/><circle class="cls-19" cx="516.29" cy="282.15" r="2.5"/><circle class="cls-73" cx="388.29" cy="366.15" r="2.5"/><circle class="cls-73" cx="372.29" cy="307.15" r="2.5"/><circle class="cls-74" cx="541.79" cy="400.65" r="1"/><circle class="cls-19" cx="392.79" cy="323.65" r="1"/><circle class="cls-19" cx="521.29" cy="369.15" r="2.5"/><circle class="cls-75" cx="390.79" cy="393.65" r="1"/><circle class="cls-19" cx="390.79" cy="276.65" r="2"/><circle class="cls-76" cx="370.79" cy="338.65" r="1.5"/><circle class="cls-19" cx="539.29" cy="330.15" r="1.5"/><circle class="cls-77" cx="540.29" cy="294.15" r="1.5"/><path class="cls-78" d="M476,337.81l-2-1.08V325.82c0-11.76-7.39-25.33-16.52-30.24s-16.57.66-16.59,12.42l0,10.91-2-1.09c-2.95-1.59-5.35.21-5.35,4l-.05,31.75c0,3.8,2.38,8.17,5.33,9.75l37.15,20c2.95,1.59,5.34-.2,5.35-4l0-31.74C481.34,343.77,479,339.4,476,337.81Zm-29.22-26.64c0-7.58,4.8-11.17,10.69-8s10.66,11.91,10.65,19.49l0,10.91-21.34-11.49Z"/><path class="cls-43" d="M438.15,332.64a10.33,10.33,0,0,1,.25-2.49,3.51,3.51,0,0,1,.68-1.49,1.47,1.47,0,0,1,1.06-.54,2.53,2.53,0,0,1,1.37.36,5.69,5.69,0,0,1,2.48,2.79,12,12,0,0,1,.86,5,10.84,10.84,0,0,1-.24,2.5,3.73,3.73,0,0,1-.69,1.51,1.47,1.47,0,0,1-1.06.54,2.56,2.56,0,0,1-1.38-.37,5.63,5.63,0,0,1-2.48-2.87A12.51,12.51,0,0,1,438.15,332.64Zm1.66.89V334c0,.15,0,.31,0,.47l3.09-2a3.12,3.12,0,0,0-1.43-2.18.82.82,0,0,0-1.24.34A6.62,6.62,0,0,0,439.81,333.53Zm3.39,1.83c0-.18,0-.35,0-.51s0-.32,0-.48l-3.1,2a3.18,3.18,0,0,0,1.43,2.26.82.82,0,0,0,1.25-.33A6.59,6.59,0,0,0,443.2,335.36Z"/><path class="cls-43" d="M445.8,336.76a10.81,10.81,0,0,1,.24-2.49,3.75,3.75,0,0,1,.69-1.5,1.55,1.55,0,0,1,1.06-.54,2.67,2.67,0,0,1,1.37.37,5.74,5.74,0,0,1,2.48,2.79,12.32,12.32,0,0,1,.86,5,10.34,10.34,0,0,1-.25,2.51,3.61,3.61,0,0,1-.68,1.5,1.52,1.52,0,0,1-1.07.55,2.65,2.65,0,0,1-1.37-.37,5.62,5.62,0,0,1-2.48-2.87A12.39,12.39,0,0,1,445.8,336.76Zm1.65.89c0,.16,0,.32,0,.47s0,.3,0,.46l3.09-2a3.08,3.08,0,0,0-1.43-2.18.82.82,0,0,0-1.25.34A6.71,6.71,0,0,0,447.45,337.65Zm3.39,1.82V339c0-.16,0-.32,0-.48l-3.1,2a3.2,3.2,0,0,0,1.42,2.27.83.83,0,0,0,1.26-.33A6.68,6.68,0,0,0,450.84,339.47Z"/><path class="cls-43" d="M454.3,345.29l1.95,1v-7.17l-1.68.75-.76-1.72,2.9-1.3,1.13.61,0,9.68,1.91,1V350l-5.44-2.93Z"/><path class="cls-43" d="M461.09,345a10.81,10.81,0,0,1,.24-2.49A3.68,3.68,0,0,1,462,341a1.55,1.55,0,0,1,1.06-.54,2.58,2.58,0,0,1,1.37.37,5.74,5.74,0,0,1,2.48,2.79,12.15,12.15,0,0,1,.86,5,10.4,10.4,0,0,1-.25,2.51,3.61,3.61,0,0,1-.68,1.5,1.52,1.52,0,0,1-1.07.55,2.57,2.57,0,0,1-1.37-.38,5.54,5.54,0,0,1-2.48-2.87A12.49,12.49,0,0,1,461.09,345Zm1.65.89c0,.16,0,.32,0,.47s0,.3,0,.46l3.09-2a3.08,3.08,0,0,0-1.43-2.18.82.82,0,0,0-1.25.34A6.71,6.71,0,0,0,462.74,345.88Zm3.39,1.82v-.5c0-.16,0-.32,0-.48l-3.1,2a3.22,3.22,0,0,0,1.42,2.27.83.83,0,0,0,1.26-.33A6.68,6.68,0,0,0,466.13,347.7Z"/><path class="cls-43" d="M469.59,353.52l2,1.05V347.4l-1.68.75-.76-1.73,2.91-1.29,1.12.6,0,9.69,1.91,1v1.81l-5.44-2.93Z"/><path class="cls-43" d="M438.13,349.06a10.93,10.93,0,0,1,.24-2.49,3.63,3.63,0,0,1,.69-1.49,1.47,1.47,0,0,1,1.06-.54,2.56,2.56,0,0,1,1.37.36,5.74,5.74,0,0,1,2.48,2.79,12.34,12.34,0,0,1,.86,5,10.25,10.25,0,0,1-.25,2.5,3.6,3.6,0,0,1-.68,1.51,1.47,1.47,0,0,1-1.07.54,2.55,2.55,0,0,1-1.37-.37A5.58,5.58,0,0,1,439,354,12.33,12.33,0,0,1,438.13,349.06Zm1.65.89c0,.17,0,.32,0,.47s0,.31,0,.47l3.09-2a3.12,3.12,0,0,0-1.43-2.18.83.83,0,0,0-1.25.34A6.77,6.77,0,0,0,439.78,350Zm3.39,1.83v-.51c0-.16,0-.32,0-.48l-3.1,2a3.17,3.17,0,0,0,1.42,2.26.83.83,0,0,0,1.26-.33A6.63,6.63,0,0,0,443.17,351.78Z"/><path class="cls-43" d="M446.63,357.6l1.95,1v-7.18l-1.68.76-.76-1.73,2.91-1.29,1.12.6,0,9.69,1.91,1v1.8l-5.44-2.92Z"/><path class="cls-43" d="M453.42,357.29a10.87,10.87,0,0,1,.24-2.49,3.63,3.63,0,0,1,.69-1.49,1.47,1.47,0,0,1,1.06-.54,2.56,2.56,0,0,1,1.37.36,5.74,5.74,0,0,1,2.48,2.79,12.17,12.17,0,0,1,.86,5,10.31,10.31,0,0,1-.25,2.5,3.6,3.6,0,0,1-.68,1.51,1.47,1.47,0,0,1-1.07.54,2.65,2.65,0,0,1-1.37-.37,5.58,5.58,0,0,1-2.48-2.87A12.51,12.51,0,0,1,453.42,357.29Zm1.65.89c0,.17,0,.32,0,.47s0,.31,0,.46l3.09-2a3.12,3.12,0,0,0-1.43-2.18.83.83,0,0,0-1.25.34A6.77,6.77,0,0,0,455.07,358.18Zm3.39,1.83v-.51c0-.16,0-.32,0-.48l-3.1,2a3.17,3.17,0,0,0,1.42,2.26A.83.83,0,0,0,458,363,6.66,6.66,0,0,0,458.46,360Z"/><path class="cls-43" d="M461.92,365.83l1.95,1.05V359.7l-1.68.76-.76-1.73,2.91-1.29,1.12.6,0,9.69,1.92,1v1.8l-5.44-2.93Z"/><path class="cls-43" d="M468.71,365.52A10.22,10.22,0,0,1,469,363a3.51,3.51,0,0,1,.68-1.49,1.47,1.47,0,0,1,1.06-.54,2.53,2.53,0,0,1,1.37.36,5.74,5.74,0,0,1,2.48,2.79,12.17,12.17,0,0,1,.86,5,10.31,10.31,0,0,1-.25,2.5,3.55,3.55,0,0,1-.68,1.5,1.48,1.48,0,0,1-1.07.55,2.65,2.65,0,0,1-1.37-.37,5.63,5.63,0,0,1-2.48-2.87A12.51,12.51,0,0,1,468.71,365.52Zm1.66.89v.47c0,.15,0,.31,0,.46l3.09-2a3.1,3.1,0,0,0-1.43-2.18.81.81,0,0,0-1.24.34A6.47,6.47,0,0,0,470.37,366.41Zm3.39,1.83c0-.18,0-.35,0-.51s0-.32,0-.48l-3.1,2a3.17,3.17,0,0,0,1.43,2.26.83.83,0,0,0,1.25-.33A6.77,6.77,0,0,0,473.76,368.24Z"/><ellipse class="cls-36" cx="683.79" cy="290.98" rx="39.32" ry="19.83"/><path class="cls-69" d="M683.79,281.15c18.29,0,33.66,6.3,38.05,14.83a10.79,10.79,0,0,0,1.27-5c0-11-17.61-19.83-39.32-19.83S644.47,280,644.47,291a10.79,10.79,0,0,0,1.27,5C650.13,287.45,665.5,281.15,683.79,281.15Z"/><path class="cls-79" d="M723.11,291c0,10.95-17.61,19.83-39.32,19.83s-39.32-8.88-39.32-19.83V177c0-11,17.61-19.83,39.32-19.83S723.11,166,723.11,177Z"/><polygon class="cls-80" points="633.37 128.72 633.37 192.4 687.51 161.28 687.51 97.76 633.37 128.72"/><polygon class="cls-81" points="687.51 97.76 665.81 85.65 611.65 116.84 633.37 128.72 687.51 97.76"/><polygon class="cls-82" points="611.68 180.51 611.58 116.84 633.37 128.88 633.37 192.4 611.68 180.51"/><polygon class="cls-83" points="701.8 158.46 722.79 170.62 722.79 190.69 716.31 194.59 716.31 174.47 695.31 162.38 701.8 158.46"/><polygon class="cls-84" points="698.95 219.96 719.79 207.59 673.37 180.33 651.79 192.7 698.95 219.96"/><path class="cls-43" d="M724.81,227.7l6.3-3.5a3.1,3.1,0,0,0,.09-5.36h0a12,12,0,0,0-11.84-.31L712.79,222a3.09,3.09,0,0,0-.06,5.43l.37.21A12,12,0,0,0,724.81,227.7Z"/><polygon class="cls-85" points="678.81 86.65 751.51 128.76 751.51 198.28 746.37 201.4 746.37 131.72 673.65 89.84 678.81 86.65"/><polygon class="cls-86" points="746.37 131.88 673.58 89.84 673.68 159.51 695.31 171.98 695.32 182.5 716.31 194.59 716.31 184.08 746.37 201.4 746.37 131.88"/><polygon class="cls-80" points="678.02 158.34 678.02 98.53 742.66 135.16 742.66 194.84 678.02 158.34"/><polygon class="cls-43" points="713.79 139.57 689.6 125.84 689.6 121.65 713.79 135.38 713.79 139.57"/><polygon class="cls-87" points="729.42 159.32 689.6 137.46 689.6 133.27 729.42 155.13 729.42 159.32"/><polygon class="cls-88" points="729.42 170.94 689.6 149.07 689.6 144.88 729.42 166.75 729.42 170.94"/><polygon class="cls-80" points="111.37 520.73 111.37 584.4 165.51 553.28 165.51 489.76 111.37 520.73"/><polygon class="cls-89" points="165.51 489.76 143.81 477.65 89.65 508.84 111.37 520.73 165.51 489.76"/><polygon class="cls-90" points="89.68 572.51 89.58 508.84 111.37 520.88 111.37 584.4 89.68 572.51"/><polygon class="cls-91" points="179.8 550.46 200.79 562.62 200.79 582.69 194.31 586.59 194.31 566.47 173.31 554.38 179.8 550.46"/><polygon class="cls-92" points="176.95 611.96 197.79 599.59 151.37 572.33 129.79 584.7 176.95 611.96"/><path class="cls-43" d="M202.81,619.7l6.3-3.5a3.1,3.1,0,0,0,.09-5.36h0a12,12,0,0,0-11.84-.31L190.79,614a3.09,3.09,0,0,0-.06,5.43l.37.21A12,12,0,0,0,202.81,619.7Z"/><polygon class="cls-93" points="156.81 478.65 229.51 520.76 229.51 590.28 224.37 593.4 224.37 523.73 151.65 481.84 156.81 478.65"/><polygon class="cls-94" points="224.37 523.88 151.58 481.84 151.68 551.51 173.31 563.98 173.32 574.5 194.31 586.59 194.31 576.08 224.37 593.4 224.37 523.88"/><polygon class="cls-80" points="156.02 550.34 156.02 490.53 220.66 527.16 220.66 586.84 156.02 550.34"/><polygon class="cls-43" points="191.79 531.57 167.6 517.85 167.6 513.65 191.79 527.38 191.79 531.57"/><polygon class="cls-95" points="207.42 551.32 167.6 529.46 167.6 525.27 207.42 547.13 207.42 551.32"/><polygon class="cls-96" points="207.42 562.94 167.6 541.07 167.6 536.88 207.42 558.75 207.42 562.94"/></g></g></svg>