<?xml version="1.0" encoding="UTF-8"?>
<svg width="63px" height="39px" viewBox="0 0 63 39" version="1.1" xmlns="http://www.w3.org/2000/svg" xmlns:xlink="http://www.w3.org/1999/xlink">
    <!-- Generator: Sketch 53.2 (72643) - https://sketchapp.com -->
    <title>tardigrade-logo-logotype-vertical-halfwidthwhite</title>
    <desc>Created with Sketch.</desc>
    <g id="Page-1" stroke="none" stroke-width="1" fill="none" fill-rule="evenodd">
        <g id="tardigrade-logo-logotype-vertical-halfwidth" fill="#FFFFFF" fill-rule="nonzero">
            <path d="M20.3412099,5.07431286 L20.3412099,18.062552 C20.3412099,18.5802903 19.9215001,19 19.4037619,19 C19.2633974,19 19.1248245,18.9684796 18.9982703,18.9077652 L15.5319563,17.2447986 C15.2068353,17.0888215 15,16.7601857 15,16.3995854 L15,7.50667491 L20.3412099,5.07431286 Z M26.9574825,2.06129323 L26.9574825,18.062552 C26.9574825,18.5802903 26.5377727,19 26.0200345,19 C25.87967,19 25.7410971,18.9684796 25.6145429,18.9077652 L22.1482289,17.2447986 C21.8231078,17.0888215 21.6162725,16.7601857 21.6162725,16.3995854 L21.6162725,4.49365529 L26.9574825,2.06129323 Z M28.2325451,1.48063566 L28.7695058,1.23610627 C30.3008225,0.538751784 31.9292152,0.134798455 33.573755,0.0256135199 L33.573755,18.062552 C33.573755,18.5802903 33.1540453,19 32.6363071,19 C32.4959425,19 32.3573696,18.9684796 32.2308155,18.9077652 L28.7645015,17.2447986 C28.4393804,17.0888215 28.2325451,16.7601857 28.2325451,16.3995854 L28.2325451,1.48063566 Z M40.1900276,1.2206313 L40.1900276,18.062552 C40.1900276,18.5802903 39.7703178,19 39.2525796,19 C39.1122151,19 38.9736422,18.9684796 38.847088,18.9077652 L35.380774,17.2447986 C35.055653,17.0888215 34.8488177,16.7601857 34.8488177,16.3995854 L34.8488177,2.48689958e-14 C36.5256717,0.0438162956 38.197617,0.393369923 39.7793191,1.05010255 L40.1900276,1.2206313 Z M46.8063002,7.62751382 L46.8063002,7.85006737 L46.8029016,7.85006737 L46.8029016,11.5112431 L41.4650902,13.7275359 L41.4650902,1.75004531 L46.8029016,3.96633809 L46.8029016,7.62751382 L46.8063002,7.62751382 Z M0.623612702,34.7825905 L0.623612702,32.2597937 L-3.55271368e-15,32.2597937 L-3.55271368e-15,31.1731958 L0.623612702,31.1731958 L0.623612702,29.878727 L1.9558762,29.878727 L1.9558762,31.1731958 L3.12751219,31.1731958 L3.12751219,32.2597937 L1.9558762,32.2597937 L1.9558762,34.7920392 C1.9558762,35.1416402 2.09760636,35.2928191 2.51334816,35.2928191 L3.12751219,35.2928191 L3.12751219,36.407763 L2.29602858,36.407763 C1.29446879,36.407763 0.623612702,35.9825725 0.623612702,34.7825905 Z M3.73564514,33.771582 C3.73564514,32.1369609 4.793897,31.0881577 6.1261605,31.0881577 C6.96709278,31.0881577 7.54346209,31.4850021 7.85526844,31.9196413 L7.85526844,31.1731958 L9.18753194,31.1731958 L9.18753194,36.407763 L7.85526844,36.407763 L7.85526844,35.6424201 C7.54346209,36.0959567 6.94819542,36.4928011 6.11671182,36.4928011 C4.793897,36.4928011 3.73564514,35.4062032 3.73564514,33.771582 Z M7.85526844,33.7904794 C7.85526844,32.7983683 7.19386103,32.250345 6.46631288,32.250345 C5.75766208,32.250345 5.08680599,32.7794709 5.08680599,33.771582 C5.08680599,34.7636932 5.75766208,35.3306138 6.46631288,35.3306138 C7.19386103,35.3306138 7.85526844,34.7825905 7.85526844,33.7904794 Z M11.7987844,33.7999281 L11.7987844,36.407763 L10.4759696,36.407763 L10.4759696,31.1731958 L11.7987844,31.1731958 L11.7987844,31.985782 C12.1294882,31.4472074 12.6775114,31.0976064 13.4050596,31.0976064 L13.4050596,32.4865619 L13.0554585,32.4865619 C12.2712183,32.4865619 11.7987844,32.7889196 11.7987844,33.7999281 Z M13.9470518,33.771582 C13.9470518,32.1369609 15.0053037,31.0881577 16.3470158,31.0881577 C17.0367693,31.0881577 17.6981767,31.4094127 18.0572264,31.9007439 L18.0572264,29.4157418 L19.3989386,29.4157418 L19.3989386,36.407763 L18.0572264,36.407763 L18.0572264,35.6329715 C17.7454201,36.114854 17.1596021,36.4928011 16.3375672,36.4928011 C15.0053037,36.4928011 13.9470518,35.4062032 13.9470518,33.771582 Z M18.0666751,33.7904794 C18.0666751,32.7983683 17.4052677,32.250345 16.6777195,32.250345 C15.9690687,32.250345 15.2982127,32.7794709 15.2982127,33.771582 C15.2982127,34.7636932 15.9690687,35.3306138 16.6777195,35.3306138 C17.4052677,35.3306138 18.0666751,34.7825905 18.0666751,33.7904794 Z M20.6873763,36.407763 L20.6873763,31.1731958 L22.0101911,31.1731958 L22.0101911,36.407763 L20.6873763,36.407763 Z M21.3582324,30.5495831 C20.8857985,30.5495831 20.5456462,30.2094307 20.5456462,29.7747915 C20.5456462,29.3401524 20.8857985,29 21.3582324,29 C21.8212176,29 22.1708187,29.3401524 22.1708187,29.7747915 C22.1708187,30.2094307 21.8212176,30.5495831 21.3582324,30.5495831 Z M22.9679252,33.771582 C22.9679252,32.1369609 24.026177,31.0881577 25.3584405,31.0881577 C26.1804754,31.0881577 26.7757421,31.4661048 27.0875485,31.9196413 L27.0875485,31.1731958 L28.419812,31.1731958 L28.419812,36.4455577 C28.419812,37.8628593 27.5505337,38.9872519 25.8308744,38.9872519 C24.3568807,38.9872519 23.3269749,38.2502551 23.1946934,37.0502731 L24.5080596,37.0502731 C24.640341,37.5227069 25.1316723,37.8345133 25.7930797,37.8345133 C26.5206278,37.8345133 27.0875485,37.4187715 27.0875485,36.4455577 L27.0875485,35.6329715 C26.7757421,36.086508 26.1804754,36.4928011 25.3584405,36.4928011 C24.026177,36.4928011 22.9679252,35.4062032 22.9679252,33.771582 Z M27.0875485,33.7904794 C27.0875485,32.7983683 26.4261411,32.250345 25.6985929,32.250345 C24.9899421,32.250345 24.319086,32.7794709 24.319086,33.771582 C24.319086,34.7636932 24.9899421,35.3306138 25.6985929,35.3306138 C26.4261411,35.3306138 27.0875485,34.7825905 27.0875485,33.7904794 Z M31.0310645,33.7999281 L31.0310645,36.407763 L29.7082497,36.407763 L29.7082497,31.1731958 L31.0310645,31.1731958 L31.0310645,31.985782 C31.3617682,31.4472074 31.9097915,31.0976064 32.6373396,31.0976064 L32.6373396,32.4865619 L32.2877386,32.4865619 C31.5034984,32.4865619 31.0310645,32.7889196 31.0310645,33.7999281 Z M33.1793319,33.771582 C33.1793319,32.1369609 34.2375837,31.0881577 35.5698472,31.0881577 C36.4107795,31.0881577 36.9871488,31.4850021 37.2989552,31.9196413 L37.2989552,31.1731958 L38.6312187,31.1731958 L38.6312187,36.407763 L37.2989552,36.407763 L37.2989552,35.6424201 C36.9871488,36.0959567 36.3918821,36.4928011 35.5603985,36.4928011 C34.2375837,36.4928011 33.1793319,35.4062032 33.1793319,33.771582 Z M37.2989552,33.7904794 C37.2989552,32.7983683 36.6375478,32.250345 35.9099996,32.250345 C35.2013488,32.250345 34.5304927,32.7794709 34.5304927,33.771582 C34.5304927,34.7636932 35.2013488,35.3306138 35.9099996,35.3306138 C36.6375478,35.3306138 37.2989552,34.7825905 37.2989552,33.7904794 Z M39.579504,33.771582 C39.579504,32.1369609 40.6377559,31.0881577 41.979468,31.0881577 C42.6692215,31.0881577 43.3306289,31.4094127 43.6896786,31.9007439 L43.6896786,29.4157418 L45.0313908,29.4157418 L45.0313908,36.407763 L43.6896786,36.407763 L43.6896786,35.6329715 C43.3778723,36.114854 42.7920543,36.4928011 41.9700194,36.4928011 C40.6377559,36.4928011 39.579504,35.4062032 39.579504,33.771582 Z M43.6991273,33.7904794 C43.6991273,32.7983683 43.0377199,32.250345 42.3101717,32.250345 C41.6015209,32.250345 40.9306649,32.7794709 40.9306649,33.771582 C40.9306649,34.7636932 41.6015209,35.3306138 42.3101717,35.3306138 C43.0377199,35.3306138 43.6991273,34.7825905 43.6991273,33.7904794 Z M48.5686137,32.1747556 C47.9355523,32.1747556 47.4347724,32.5810487 47.330837,33.2991482 L49.8158391,33.2991482 C49.7969418,32.6093947 49.2489185,32.1747556 48.5686137,32.1747556 Z M51.0536159,34.7636932 C50.7701555,35.7274582 49.9008772,36.4928011 48.6064084,36.4928011 C47.0851714,36.4928011 45.9796761,35.4345492 45.9796761,33.7904794 C45.9796761,32.1369609 47.0568254,31.0881577 48.6064084,31.0881577 C50.1181968,31.0881577 51.1858973,32.1180635 51.1858973,33.6770953 C51.1858973,33.8471715 51.1764487,34.0172476 51.1481026,34.1873238 L47.3213883,34.1873238 C47.3875291,34.9621154 47.916655,35.3967545 48.5780624,35.3967545 C49.144983,35.3967545 49.4567894,35.1132942 49.6268656,34.7636932 L51.0536159,34.7636932 Z M53.5325869,35.6991122 C53.5325869,36.1337514 53.1924345,36.4739037 52.7294493,36.4739037 C52.2475668,36.4739037 51.9074144,36.1337514 51.9074144,35.6991122 C51.9074144,35.2644731 52.2475668,34.9243207 52.7294493,34.9243207 C53.1924345,34.9243207 53.5325869,35.2644731 53.5325869,35.6991122 Z M54.5942564,36.407763 L54.5942564,31.1731958 L55.9170712,31.1731958 L55.9170712,36.407763 L54.5942564,36.407763 Z M55.2651125,30.5495831 C54.7926786,30.5495831 54.4525262,30.2094307 54.4525262,29.7747915 C54.4525262,29.3401524 54.7926786,29 55.2651125,29 C55.7280977,29 56.0776987,29.3401524 56.0776987,29.7747915 C56.0776987,30.2094307 55.7280977,30.5495831 55.2651125,30.5495831 Z M62.27,33.7904794 C62.27,35.4345492 61.0605693,36.4928011 59.5393322,36.4928011 C58.0275438,36.4928011 56.8842539,35.4345492 56.8842539,33.7904794 C56.8842539,32.1369609 58.0653386,31.0881577 59.5771269,31.0881577 C61.0889153,31.0881577 62.27,32.1369609 62.27,33.7904794 Z M58.2259661,33.7904794 C58.2259661,34.8298339 58.8306814,35.3400625 59.5393322,35.3400625 C60.2385343,35.3400625 60.9093904,34.8298339 60.9093904,33.7904794 C60.9093904,32.7416762 60.2574317,32.2408963 59.5582296,32.2408963 C58.8590275,32.2408963 58.2259661,32.7416762 58.2259661,33.7904794 Z" id="Combined-Shape"></path>
        </g>
    </g>
</svg>