<?xml version="1.0" encoding="UTF-8"?>
<svg width="63px" height="52px" viewBox="0 0 63 52" version="1.1" xmlns="http://www.w3.org/2000/svg" xmlns:xlink="http://www.w3.org/1999/xlink">
    <!-- Generator: Sketch 53.2 (72643) - https://sketchapp.com -->
    <title>tardigrade-logo-logotype-vertical-fullwidth copywhite</title>
    <desc>Created with Sketch.</desc>
    <g id="Page-1" stroke="none" stroke-width="1" fill="none" fill-rule="evenodd">
        <g id="tardigrade-logo-logotype-vertical-fullwidth-copy" fill="#FFFFFF" fill-rule="nonzero">
            <path d="M10.5267243,9.93442935 L10.5267243,35.3626495 C10.5267243,36.3762712 9.7050215,37.197974 8.69139979,37.197974 C8.4165958,37.197974 8.14529939,37.1362637 7.89753316,37.0173977 L1.11122483,33.7616615 C0.474706684,33.4562914 0.069767,32.8128922 0.069767,32.1069133 L0.069767,14.6964788 L10.5267243,9.93442935 Z M23.479984,4.03557536 L23.479984,35.3626495 C23.479984,36.3762712 22.6582812,37.197974 21.6446595,37.197974 C21.3698555,37.197974 21.0985591,37.1362637 20.8507929,37.0173977 L14.0644846,33.7616615 C13.4279664,33.4562914 13.0230267,32.8128922 13.0230267,32.1069133 L13.0230267,8.79762486 L23.479984,4.03557536 Z M25.9762865,2.89877088 L27.0275417,2.42003414 C30.0255354,1.05476183 33.2135832,0.263906812 36.4332437,0.0501458445 L36.4332437,35.3626495 C36.4332437,36.3762712 35.611541,37.197974 34.5979192,37.197974 C34.3231152,37.197974 34.0518188,37.1362637 33.8040526,37.0173977 L27.0177443,33.7616615 C26.3812261,33.4562914 25.9762865,32.8128922 25.9762865,32.1069133 L25.9762865,2.89877088 Z M49.3865034,2.38973744 L49.3865034,35.3626495 C49.3865034,36.3762712 48.5648007,37.197974 47.551179,37.197974 C47.276375,37.197974 47.0050786,37.1362637 46.7573123,37.0173977 L39.971004,33.7616615 C39.3344859,33.4562914 38.9295462,32.8128922 38.9295462,32.1069133 L38.9295462,-5.32907052e-14 C42.212471,0.0857830223 45.4857857,0.770134955 48.5824232,2.05587829 L49.3865034,2.38973744 Z M62.3397632,14.9330558 L62.3397632,15.3687685 L62.3331095,15.3687685 L62.3331095,22.5365748 L51.8828059,26.8756064 L51.8828059,3.42621789 L62.3331095,7.76524952 L62.3331095,14.9330558 L62.3397632,14.9330558 Z M0.693379702,47.7825905 L0.693379702,45.2597937 L0.069767,45.2597937 L0.069767,44.1731958 L0.693379702,44.1731958 L0.693379702,42.878727 L2.0256432,42.878727 L2.0256432,44.1731958 L3.19727919,44.1731958 L3.19727919,45.2597937 L2.0256432,45.2597937 L2.0256432,47.7920392 C2.0256432,48.1416402 2.16737336,48.2928191 2.58311516,48.2928191 L3.19727919,48.2928191 L3.19727919,49.407763 L2.36579558,49.407763 C1.36423579,49.407763 0.693379702,48.9825725 0.693379702,47.7825905 Z M3.80541214,46.771582 C3.80541214,45.1369609 4.863664,44.0881577 6.1959275,44.0881577 C7.03685978,44.0881577 7.61322909,44.4850021 7.92503545,44.9196413 L7.92503545,44.1731958 L9.25729895,44.1731958 L9.25729895,49.407763 L7.92503545,49.407763 L7.92503545,48.6424201 C7.61322909,49.0959567 7.01796242,49.4928011 6.18647882,49.4928011 C4.863664,49.4928011 3.80541214,48.4062032 3.80541214,46.771582 Z M7.92503545,46.7904794 C7.92503545,45.7983683 7.26362803,45.250345 6.53607988,45.250345 C5.82742908,45.250345 5.156573,45.7794709 5.156573,46.771582 C5.156573,47.7636932 5.82742908,48.3306138 6.53607988,48.3306138 C7.26362803,48.3306138 7.92503545,47.7825905 7.92503545,46.7904794 Z M11.8685515,46.7999281 L11.8685515,49.407763 L10.5457367,49.407763 L10.5457367,44.1731958 L11.8685515,44.1731958 L11.8685515,44.985782 C12.1992552,44.4472074 12.7472785,44.0976064 13.4748266,44.0976064 L13.4748266,45.4865619 L13.1252256,45.4865619 C12.3409854,45.4865619 11.8685515,45.7889196 11.8685515,46.7999281 Z M14.0168188,46.771582 C14.0168188,45.1369609 15.0750707,44.0881577 16.4167829,44.0881577 C17.1065363,44.0881577 17.7679437,44.4094127 18.1269935,44.9007439 L18.1269935,42.4157418 L19.4687056,42.4157418 L19.4687056,49.407763 L18.1269935,49.407763 L18.1269935,48.6329715 C17.8151871,49.114854 17.2293691,49.4928011 16.4073342,49.4928011 C15.0750707,49.4928011 14.0168188,48.4062032 14.0168188,46.771582 Z M18.1364421,46.7904794 C18.1364421,45.7983683 17.4750347,45.250345 16.7474866,45.250345 C16.0388358,45.250345 15.3679797,45.7794709 15.3679797,46.771582 C15.3679797,47.7636932 16.0388358,48.3306138 16.7474866,48.3306138 C17.4750347,48.3306138 18.1364421,47.7825905 18.1364421,46.7904794 Z M20.7571434,49.407763 L20.7571434,44.1731958 L22.0799582,44.1731958 L22.0799582,49.407763 L20.7571434,49.407763 Z M21.4279995,43.5495831 C20.9555656,43.5495831 20.6154132,43.2094307 20.6154132,42.7747915 C20.6154132,42.3401524 20.9555656,42 21.4279995,42 C21.8909846,42 22.2405857,42.3401524 22.2405857,42.7747915 C22.2405857,43.2094307 21.8909846,43.5495831 21.4279995,43.5495831 Z M23.0376922,46.771582 C23.0376922,45.1369609 24.0959441,44.0881577 25.4282076,44.0881577 C26.2502425,44.0881577 26.8455092,44.4661048 27.1573155,44.9196413 L27.1573155,44.1731958 L28.489579,44.1731958 L28.489579,49.4455577 C28.489579,50.8628593 27.6203007,51.9872519 25.9006414,51.9872519 C24.4266478,51.9872519 23.3967419,51.2502551 23.2644605,50.0502731 L24.5778266,50.0502731 C24.7101081,50.5227069 25.2014393,50.8345133 25.8628467,50.8345133 C26.5903949,50.8345133 27.1573155,50.4187715 27.1573155,49.4455577 L27.1573155,48.6329715 C26.8455092,49.086508 26.2502425,49.4928011 25.4282076,49.4928011 C24.0959441,49.4928011 23.0376922,48.4062032 23.0376922,46.771582 Z M27.1573155,46.7904794 C27.1573155,45.7983683 26.4959081,45.250345 25.7683599,45.250345 C25.0597091,45.250345 24.3888531,45.7794709 24.3888531,46.771582 C24.3888531,47.7636932 25.0597091,48.3306138 25.7683599,48.3306138 C26.4959081,48.3306138 27.1573155,47.7825905 27.1573155,46.7904794 Z M31.1008315,46.7999281 L31.1008315,49.407763 L29.7780167,49.407763 L29.7780167,44.1731958 L31.1008315,44.1731958 L31.1008315,44.985782 C31.4315353,44.4472074 31.9795585,44.0976064 32.7071067,44.0976064 L32.7071067,45.4865619 L32.3575056,45.4865619 C31.5732654,45.4865619 31.1008315,45.7889196 31.1008315,46.7999281 Z M33.2490989,46.771582 C33.2490989,45.1369609 34.3073508,44.0881577 35.6396143,44.0881577 C36.4805465,44.0881577 37.0569159,44.4850021 37.3687222,44.9196413 L37.3687222,44.1731958 L38.7009857,44.1731958 L38.7009857,49.407763 L37.3687222,49.407763 L37.3687222,48.6424201 C37.0569159,49.0959567 36.4616492,49.4928011 35.6301656,49.4928011 C34.3073508,49.4928011 33.2490989,48.4062032 33.2490989,46.771582 Z M37.3687222,46.7904794 C37.3687222,45.7983683 36.7073148,45.250345 35.9797666,45.250345 C35.2711158,45.250345 34.6002598,45.7794709 34.6002598,46.771582 C34.6002598,47.7636932 35.2711158,48.3306138 35.9797666,48.3306138 C36.7073148,48.3306138 37.3687222,47.7825905 37.3687222,46.7904794 Z M39.649271,46.771582 C39.649271,45.1369609 40.7075229,44.0881577 42.0492351,44.0881577 C42.7389885,44.0881577 43.4003959,44.4094127 43.7594457,44.9007439 L43.7594457,42.4157418 L45.1011578,42.4157418 L45.1011578,49.407763 L43.7594457,49.407763 L43.7594457,48.6329715 C43.4476393,49.114854 42.8618213,49.4928011 42.0397864,49.4928011 C40.7075229,49.4928011 39.649271,48.4062032 39.649271,46.771582 Z M43.7688943,46.7904794 C43.7688943,45.7983683 43.1074869,45.250345 42.3799388,45.250345 C41.671288,45.250345 41.0004319,45.7794709 41.0004319,46.771582 C41.0004319,47.7636932 41.671288,48.3306138 42.3799388,48.3306138 C43.1074869,48.3306138 43.7688943,47.7825905 43.7688943,46.7904794 Z M48.6383808,45.1747556 C48.0053194,45.1747556 47.5045395,45.5810487 47.400604,46.2991482 L49.8856062,46.2991482 C49.8667088,45.6093947 49.3186855,45.1747556 48.6383808,45.1747556 Z M51.1233829,47.7636932 C50.8399226,48.7274582 49.9706443,49.4928011 48.6761755,49.4928011 C47.1549384,49.4928011 46.0494432,48.4345492 46.0494432,46.7904794 C46.0494432,45.1369609 47.1265924,44.0881577 48.6761755,44.0881577 C50.1879638,44.0881577 51.2556644,45.1180635 51.2556644,46.6770953 C51.2556644,46.8471715 51.2462157,47.0172476 51.2178697,47.1873238 L47.3911554,47.1873238 C47.4572961,47.9621154 47.986422,48.3967545 48.6478294,48.3967545 C49.2147501,48.3967545 49.5265564,48.1132942 49.6966326,47.7636932 L51.1233829,47.7636932 Z M53.602354,48.6991122 C53.602354,49.1337514 53.2622016,49.4739037 52.7992164,49.4739037 C52.3173338,49.4739037 51.9771815,49.1337514 51.9771815,48.6991122 C51.9771815,48.2644731 52.3173338,47.9243207 52.7992164,47.9243207 C53.2622016,47.9243207 53.602354,48.2644731 53.602354,48.6991122 Z M54.6640234,49.407763 L54.6640234,44.1731958 L55.9868382,44.1731958 L55.9868382,49.407763 L54.6640234,49.407763 Z M55.3348795,43.5495831 C54.8624456,43.5495831 54.5222933,43.2094307 54.5222933,42.7747915 C54.5222933,42.3401524 54.8624456,42 55.3348795,42 C55.7978647,42 56.1474658,42.3401524 56.1474658,42.7747915 C56.1474658,43.2094307 55.7978647,43.5495831 55.3348795,43.5495831 Z M62.339767,46.7904794 C62.339767,48.4345492 61.1303363,49.4928011 59.6090993,49.4928011 C58.0973109,49.4928011 56.9540209,48.4345492 56.9540209,46.7904794 C56.9540209,45.1369609 58.1351056,44.0881577 59.646894,44.0881577 C61.1586823,44.0881577 62.339767,45.1369609 62.339767,46.7904794 Z M58.2957331,46.7904794 C58.2957331,47.8298339 58.9004485,48.3400625 59.6090993,48.3400625 C60.3083014,48.3400625 60.9791575,47.8298339 60.9791575,46.7904794 C60.9791575,45.7416762 60.3271987,45.2408963 59.6279966,45.2408963 C58.9287945,45.2408963 58.2957331,45.7416762 58.2957331,46.7904794 Z" id="Combined-Shape"></path>
        </g>
    </g>
</svg>