<?xml version="1.0" encoding="utf-8"?>
<!-- Generator: Adobe Illustrator 22.1.0, SVG Export Plug-In . SVG Version: 6.00 Build 0)  -->
<svg version="1.1" id="Layer_1" xmlns="http://www.w3.org/2000/svg" xmlns:xlink="http://www.w3.org/1999/xlink" x="0px" y="0px"
	 viewBox="0 0 698.2 166.1" style="enable-background:new 0 0 698.2 166.1;" xml:space="preserve">
<style type="text/css">
	.st0{fill:#484848;}
</style>
<g>
	<path class="st0" d="M0,2.7h38.1l42.2,67.9l42.2-67.9h38.1v160.6h-35.1V58.5l-45.2,68.6h-0.9L34.6,59.2v104.1H0V2.7z"/>
	<path class="st0" d="M200.8,2.7h35.3v160.6h-35.3V2.7z"/>
	<path class="st0" d="M276.3,2.7h32.6l75.3,98.9V2.7H419v160.6h-30.1L311.1,61.2v102.1h-34.9L276.3,2.7L276.3,2.7z"/>
	<path class="st0" d="M459.2,2.7h35.3v160.6h-35.3V2.7z"/>
	<path class="st0" d="M527.5,83.5V83c0-45.7,36-83,85.6-83s85.1,36.9,85.1,82.6V83c0,45.7-36,83-85.6,83
		C563.1,166.1,527.5,129.1,527.5,83.5z M661.3,83.5V83c0-27.5-20.2-50.5-48.6-50.5c-28.5,0-48.2,22.5-48.2,50V83
		c0,27.5,20.2,50.5,48.6,50.5C641.6,133.5,661.3,111,661.3,83.5z"/>
</g>
</svg>
