<svg width="67" height="34" viewBox="0 0 67 34" fill="none" xmlns="http://www.w3.org/2000/svg">
<g opacity="0.6">
<path opacity="0.3" d="M24.2258 15.3954C25.3006 16.1952 25.3006 17.8048 24.2258 18.6046L9.78945 29.346C8.47003 30.3277 6.59556 29.386 6.59556 27.7414L6.59556 6.25856C6.59556 4.61398 8.47003 3.67227 9.78945 4.65399L24.2258 15.3954Z" fill="#B9BECA" fill-opacity="0.5"/>
<path d="M44.8728 15.3954C45.9476 16.1952 45.9476 17.8048 44.8728 18.6046L30.4364 29.346C29.117 30.3277 27.2425 29.386 27.2425 27.7414L27.2425 6.25856C27.2425 4.61398 29.117 3.67227 30.4364 4.65399L44.8728 15.3954Z" fill="#B9BECA" fill-opacity="0.5"/>
<path d="M64.3728 15.3954C65.4476 16.1952 65.4476 17.8048 64.3728 18.6046L49.9364 29.346C48.617 30.3277 46.7425 29.386 46.7425 27.7414L46.7425 6.25856C46.7425 4.61398 48.617 3.67227 49.9364 4.65399L64.3728 15.3954Z" fill="#B9BECA"/>
</g>
</svg>
