<svg width="14" height="12" viewBox="0 0 14 12" fill="none" xmlns="http://www.w3.org/2000/svg">
<path fill-rule="evenodd" clip-rule="evenodd" d="M12.6084 4.43938C13.2361 5.37785 13.5776 6.55262 13.4674 7.97538C13.3198 9.89846 11.7161 12 9.78621 12H3.70129C1.77267 12 0.168365 9.89846 0.0200574 7.97538C-0.0888657 6.55385 0.252673 5.38031 0.878519 4.44123C0.80775 4.31508 -0.69625 1.60123 1.25698 0C2.48467 0 4.35913 2.02154 4.36898 2.032C5.90498 1.58831 7.62498 1.59138 9.1579 2.04185L9.14375 2.03262C9.14375 2.03262 11.0262 0 12.257 0C14.257 1.64 12.6281 4.45292 12.6281 4.45292L12.6084 4.43938ZM11.3596 8.61514C11.3596 4.94191 8.82049 6.44222 6.74418 6.44222C4.66726 6.44222 2.1288 4.98006 2.1288 8.61514C2.1288 9.80468 3.0931 10.769 4.28264 10.769H9.20572C10.3959 10.769 11.3596 9.80468 11.3596 8.61514ZM9.83372 8.61514C9.83372 9.27525 9.45337 9.84591 8.91064 9.84591C8.36838 9.84591 7.98757 9.27495 7.98757 8.61514C7.98757 7.95533 8.36838 7.38437 8.91064 7.38437C9.45337 7.38437 9.83372 7.95503 9.83372 8.61514ZM5.52603 8.61514C5.52603 9.27525 5.14568 9.84591 4.60295 9.84591C4.06069 9.84591 3.67987 9.27495 3.67987 8.61514C3.67987 7.95533 4.06069 7.38437 4.60295 7.38437C5.14568 7.38437 5.52603 7.95503 5.52603 8.61514Z" fill="#7E8B9C"/>
</svg>
