<svg width="15" height="12" viewBox="0 0 15 12" fill="none" xmlns="http://www.w3.org/2000/svg">
<path fill-rule="evenodd" clip-rule="evenodd" d="M3.40737 5.18876C4.34531 4.61629 5.56163 4.2528 6.90017 4.20531L6.90016 4.20507C6.90013 4.20285 6.90013 4.20285 6.90006 4.19668C6.89643 3.77839 6.94867 3.21295 7.11175 2.64907C7.55169 1.1279 8.60216 0.494668 10.2631 1.32624C10.471 0.561882 11.1698 0 12.0001 0C12.9944 0 13.8001 0.805715 13.8001 1.8C13.8001 2.79429 12.9944 3.6 12.0001 3.6C11.0655 3.6 10.2975 2.88809 10.2087 1.97684C8.77677 1.16235 8.04851 1.56969 7.68813 2.81577C7.54427 3.31318 7.49687 3.82626 7.50004 4.19148L7.50008 4.19493C7.50014 4.1984 7.50014 4.20186 7.50008 4.20531C8.83859 4.25282 10.0551 4.61642 10.9931 5.18906C11.2962 4.5886 11.9132 4.20024 12.6002 4.20024C13.5945 4.20024 14.4002 5.00595 14.4002 6.00024C14.4002 6.88998 13.7507 7.64152 12.881 7.77833C12.8937 7.88441 12.9001 7.99169 12.9001 8.1C12.9001 10.254 10.3477 12 7.20012 12C4.05192 12 1.50012 10.254 1.50012 8.1C1.50012 7.99159 1.50659 7.88422 1.51927 7.77805C0.648902 7.64197 0 6.89029 0 5.99994C0 5.00565 0.805715 4.19994 1.8 4.19994C2.48672 4.19994 3.1041 4.58857 3.40737 5.18876ZM2.91192 5.53075C2.9012 5.51604 2.89167 5.50014 2.88353 5.48312C2.68575 5.06934 2.26693 4.79994 1.8 4.79994C1.13709 4.79994 0.6 5.33703 0.6 5.99994C0.6 6.59518 1.03484 7.09732 1.61659 7.18596C1.62962 7.18795 1.64233 7.19075 1.65467 7.19429C1.87253 6.56766 2.31144 5.99956 2.91192 5.53075ZM11.4885 5.53101C12.0889 5.99984 12.5278 6.56794 12.7456 7.19456C12.7578 7.19106 12.7704 7.18829 12.7833 7.18631C13.3648 7.09707 13.8002 6.59478 13.8002 6.00024C13.8002 5.33733 13.2631 4.80024 12.6002 4.80024C12.1332 4.80024 11.715 5.06913 11.5172 5.48282C11.509 5.50005 11.4993 5.51614 11.4885 5.53101ZM10.8001 1.7956C10.8002 1.79868 10.8002 1.80177 10.8001 1.80486C10.8027 2.46554 11.3388 3 12.0001 3C12.663 3 13.2001 2.46291 13.2001 1.8C13.2001 1.13709 12.663 0.6 12.0001 0.6C11.3387 0.6 10.8025 1.13471 10.8001 1.7956ZM9.17266 9.56881C8.62953 9.88161 7.93639 10.058 7.20018 10.058C6.46058 10.058 5.76403 9.87996 5.21865 9.56433C5.07525 9.48134 4.89172 9.53031 4.80873 9.67371C4.72574 9.81711 4.77471 10.0006 4.91811 10.0836C5.5571 10.4534 6.35743 10.658 7.20018 10.658C8.03911 10.658 8.83563 10.4553 9.4721 10.0887C9.61568 10.0061 9.66504 9.82264 9.58235 9.67906C9.49966 9.53548 9.31624 9.48612 9.17266 9.56881ZM10.8001 7.2C10.8001 6.53709 10.2628 6 9.60012 6C8.93746 6 8.40012 6.53709 8.40012 7.2C8.40012 7.86333 8.93728 8.4 9.60012 8.4C10.263 8.4 10.8001 7.86333 10.8001 7.2ZM6.00012 7.2C6.00012 6.53709 5.46278 6 4.80012 6C4.13746 6 3.60012 6.53709 3.60012 7.2C3.60012 7.86333 4.13728 8.4 4.80012 8.4C5.46296 8.4 6.00012 7.86333 6.00012 7.2Z" fill="#7E8B9C"/>
</svg>
