<?xml version="1.0" encoding="UTF-8"?>
<svg width="2633px" height="666px" viewBox="0 0 2633 666" version="1.1" xmlns="http://www.w3.org/2000/svg" xmlns:xlink="http://www.w3.org/1999/xlink">
    <!-- Generator: Sketch 64 (93537) - https://sketch.com -->
    <title>storj-logo-horiz-labs</title>
    <desc>Created with Sketch.</desc>
    <g id="Page-1" stroke="none" stroke-width="1" fill="none" fill-rule="evenodd">
        <g id="storj-logo-horiz-labs" fill="#0059D0" fill-rule="nonzero">
            <path d="M298.207788,0.0123380745 C322.691196,0.501745388 345.600713,20.6957654 349.074024,44.8378701 C349.390594,47.0581082 349.889342,48.4248676 349.889342,51.4806791 C349.889342,58.1742194 352.356199,61.012185 357.570645,63.9904075 C405.72513,91.5225531 453.745222,119.26956 501.732463,147.064315 C505.029569,148.980165 507.42475,149.057754 510.859237,147.112062 C543.454005,128.535473 582.97449,146.339156 590.909647,183.09842 C591.656275,186.518303 591.584598,190.117237 591.844425,193.241685 C591.309839,214.107148 582.245782,229.657767 564.753794,240.138246 C561.525377,242.066033 560.405435,244.029631 560.414395,247.706154 C560.524896,304.626612 560.515936,361.550054 560.429327,418.458575 C560.423354,421.878458 561.295415,423.940534 564.434237,425.745969 C584.670828,437.432061 594.91157,458.986872 591.276988,481.645834 C587.791731,503.358807 570.422189,521.195316 547.921824,525.465694 C534.876749,527.951525 522.240826,525.973006 510.808466,518.963142 C507.323209,516.832429 504.868298,517.208437 501.601056,519.088478 C452.631254,547.432323 403.607694,575.701564 354.527391,603.863374 C351.170554,605.794145 349.913234,607.912921 349.922193,611.828179 C349.972964,639.214099 328.819514,663.045848 302.394875,665.701778 C274.250006,668.539744 249.366406,650.867365 243.285872,623.576939 C242.354081,619.381167 242.040497,614.994406 241.944929,610.700155 C241.873253,607.790569 241.066895,606.009007 238.477591,604.510943 C188.71935,575.910457 139.00292,547.241335 89.3073963,518.530434 C86.6165509,516.963734 84.502102,516.951797 81.7873645,518.593102 C49.3150427,538.124632 7.92798904,519.401818 1.04109729,482.914115 C-3.30427456,459.864224 6.08531245,438.312397 26.7310551,426.172709 C29.9923239,424.247906 31.4676598,422.311166 31.4616868,418.327271 C31.3123613,361.400844 31.3362534,304.486355 31.4258487,247.568881 C31.4288352,244.148998 30.5388552,242.125717 27.4060064,240.308345 C6.67962792,228.279071 -3.07132679,207.377798 0.909690858,183.91012 C4.86382992,160.597621 22.905336,143.495222 46.3852766,140.152929 C58.9704291,138.365398 71.1076052,140.657257 81.9964202,147.604453 C84.525994,149.221885 86.4045087,149.171154 88.9788803,147.688011 C138.528065,119.036793 188.116075,90.4661495 237.74291,61.9611577 C240.744352,60.2362953 241.915064,58.2577767 241.924023,54.7244947 C242.004659,23.3755689 266.795678,-0.623294595 298.207788,0.0123380745 Z M283.396707,11.8547158 C264.096705,17.7282825 253.339278,31.3476712 251.447238,51.1690925 C249.991593,66.463657 257.233951,83.4542998 274.707671,92.9947399 C277.391797,94.4579059 279.262914,95.7448949 279.250958,99.4237124 C279.215328,110.613035 279.1891,121.801805 279.17154,132.990297 L279.816771,217.84802 C253.288276,222.244099 229.903956,237.146579 215.08,258.747176 C211.284403,259.581255 207.580059,260.655012 203.985277,261.951575 C170.580093,242.881627 137.322673,223.544833 103.859162,204.565632 C98.8406237,201.72291 96.41953,198.674149 97.2564513,192.899122 C97.5912198,190.596875 96.8798367,188.130395 96.5032222,185.759469 C93.074834,164.17329 71.9425721,146.116627 46.4344076,150.303073 C21.4104619,154.417855 5.52091391,177.040194 9.65171814,201.254099 C14.9183441,232.177666 50.2423994,247.830557 76.8923636,230.914566 C79.8993021,229.006478 81.9796493,228.857175 85.0613129,230.651793 C91.3896705,234.339452 101.014112,239.643451 113.934638,246.56379 L173.284352,280.838329 C156.997069,296.260872 146.843136,317.816472 146.843136,341.800178 C146.843136,360.337746 152.907085,377.419285 163.176767,391.340432 L94.0362237,431.199894 C89.5327809,433.553105 86.1615404,435.366041 83.9225022,436.638702 C82.4220219,437.489727 79.5077425,437.31355 77.9833502,436.393846 C70.8127284,432.070041 63.1758219,429.197458 54.8185653,428.973504 C27.0148453,428.262823 10.1060468,450.950855 9.15554339,470.661793 C8.05558973,493.749956 25.5412661,517.399497 53.8202378,517.187488 C78.6200082,517.002352 97.4925827,497.13614 97.2474843,472.348913 C97.2086272,467.920596 98.5118332,465.415297 102.400528,463.208604 C121.503712,452.342023 150.01998,435.928456 187.949331,413.967904 C201.459466,422.201726 217.422892,426.948531 234.4661,426.948531 C234.638897,426.948531 234.811654,426.948042 234.984369,426.947063 C235.026203,426.947535 235.069827,426.948022 235.115408,426.948531 L279.217956,426.948531 C279.227016,430.096364 279.231042,431.957813 279.230035,432.532879 C279.131398,477.428189 279.140365,522.311555 279.221068,567.203879 C279.224057,570.372082 278.225729,572.175658 275.335362,573.5582 C260.193065,580.850142 248.766101,599.665264 251.883633,619.788276 C255.500328,643.166087 279.540891,660.819633 302.741544,656.286805 C323.180357,652.300424 336.606965,638.358541 339.482388,616.912707 C341.42823,602.367642 334.424992,583.16732 315.701868,573.552228 C313.161214,572.256281 311.759371,570.837906 311.768338,567.720466 C311.860997,524.115131 311.869964,480.509796 311.768338,436.913419 L311.768338,426.948531 L311.768338,426.948531 L366.322064,426.948531 C368.009498,426.948531 369.685245,426.813855 371.334507,426.549509 C383.764471,425.280298 395.288774,421.04533 405.153519,414.579881 L482.605434,459.401326 C485.156744,461.124279 487.121335,462.376451 488.499208,463.157841 C492.349045,465.334674 493.834581,467.741432 493.720998,472.244401 C493.033527,498.336534 515.806753,519.650982 542.35808,516.823189 C568.425188,514.055118 586.894247,488.990187 580.847491,463.644567 C573.599155,433.270434 540.666303,419.56445 514.064163,435.98177 C511.260477,437.707709 509.233932,438.179506 506.241938,436.429678 C483.731745,423.291044 461.16775,410.241992 438.511096,397.357172 C437.723507,396.910072 434.258856,394.712182 428.117143,390.763501 C434.656896,379.88457 438.406635,367.205653 438.406635,353.662775 C438.406635,326.783585 423.68729,303.454303 401.845489,290.702477 L402.126662,290.540381 C402.505511,290.255023 402.940388,289.974012 403.432139,289.692037 C413.012684,284.210711 422.589277,278.72172 432.161724,273.225195 L495.780411,236.549078 C499.297101,234.513629 502.813175,232.477194 506.328619,230.439783 C509.087471,228.848217 510.958587,228.821343 513.666626,230.636863 C523.318121,237.10764 534.138317,239.156073 545.490557,237.170347 C567.588267,233.300422 583.603353,213.323726 581.633599,189.742864 C579.490483,164.161346 554.373878,145.038661 529.287163,150.586748 C507.273145,155.457001 493.443021,172.644723 493.697086,195.240188 C493.732954,199.089211 492.662891,201.28396 489.225536,203.248783 C480.356075,208.318676 471.49225,213.397306 462.633663,218.484423 L462.639634,218.494768 L381.550177,265.415656 C367.260709,240.409543 341.760509,222.417368 311.834854,217.716026 C311.843722,179.701653 311.917293,141.687461 311.711547,103.675852 C311.681657,97.9724906 313.014753,94.6669297 318.365071,91.597267 C337.545513,80.5876888 344.835695,56.8873844 336.059978,36.6777762 C327.209535,16.2919909 304.600705,5.40185482 283.396707,11.8547158 Z M295.653329,600.000413 C302.688113,600.048955 308.032529,605.513001 308,612.624452 C307.955289,619.708597 302.530662,625.04522 295.400813,624.999711 C288.33038,624.963304 282.923577,619.459818 283.000817,612.369604 C283.081028,605.318831 288.591807,599.945802 295.653329,600.000413 Z M538.276993,460 C545.108761,460.035661 550.931054,465.674015 550.999342,472.348591 C551.073568,478.773761 544.853423,484.988124 538.37794,485 C531.445225,485 526.002969,479.480411 526,472.434695 C526,465.222709 531.18098,459.985186 538.276993,460 Z M53.7777902,460 C60.8692262,460.005938 66.0266342,465.2701 66,472.484941 C65.9731588,479.524607 60.4800439,485.055985 53.5787428,484.999572 C47.0577114,484.937222 41.0298422,478.859535 41,472.297889 C40.9674542,465.742182 46.9329354,460 53.7777902,460 Z M1158.94959,228 C1221.56821,228 1266.50372,274.610254 1266.50372,332.220878 L1266.50372,332.800785 C1266.50372,390.41141 1220.98993,437.601571 1158.37131,437.601571 C1095.75269,437.601571 1050.81718,390.991317 1050.81718,333.379068 L1050.81718,332.800785 C1050.81718,275.188537 1096.33097,228 1158.94959,228 Z M2556.03917,228 C2585.43557,228 2604.84584,235.988904 2625.2861,252.249177 L2625.90583,252.744444 L2616.29917,264.68 C2597.08583,248.086667 2577.8725,241.682222 2555.45694,241.682222 C2525.77234,241.682222 2506.07387,258.515984 2505.68287,279.472591 L2505.67694,280.108889 L2505.67694,280.691111 C2505.67694,302.233333 2516.73917,315.333333 2565.06361,325.231111 C2611.75201,334.741711 2631.62052,351.385261 2632.01322,380.528593 L2632.01917,381.415556 L2632.01917,381.997778 C2632.01917,414.893333 2603.78139,437.6 2564.48139,437.6 C2532.20299,437.6 2507.34286,427.043234 2483.12184,405.647237 L2482.38806,404.995556 L2492.28583,393.642222 C2514.70139,414.311111 2535.37028,423.917778 2565.35472,423.917778 C2595.61572,423.917778 2616.46123,407.084016 2616.87511,384.150155 L2616.88139,383.453333 L2616.88139,382.871111 C2616.88139,361.328889 2605.52806,348.811111 2559.24139,339.495556 C2510.82379,329.696756 2490.93799,313.335642 2490.54511,283.068128 L2490.53917,282.146667 L2490.53917,281.564444 C2490.53917,251.288889 2518.19472,228 2556.03917,228 Z M761.964859,228.675746 C791.468659,228.675746 816.633712,237.931522 837.169254,254.417459 L814.029815,287.969239 C796.096546,275.532907 778.45242,268.01198 761.386576,268.01198 C744.320732,268.01198 735.354098,275.822049 735.354098,285.656107 L735.354098,286.23439 C735.354098,299.538146 744.03159,303.876893 779.030702,312.843527 C820.105034,323.54501 843.244473,338.296098 843.244473,373.582727 L843.244473,374.16101 C843.244473,414.364668 812.584107,436.925824 768.907502,436.925824 C738.247137,436.925824 707.297629,426.224341 683,404.53061 L709.32162,373.004444 C727.545654,388.044673 746.635488,397.58959 769.774927,397.58959 C787.997337,397.58959 798.989585,390.357805 798.989585,378.499756 L798.989585,377.921473 C798.989585,366.641707 792.046941,360.857254 758.20602,352.179761 C717.420829,341.76742 691.09921,330.486029 691.09921,290.282371 L691.09921,289.704088 C691.09921,252.971751 720.60301,228.675746 761.964859,228.675746 Z M1639.722,231.380356 L1639.722,363.97121 C1639.722,413.186985 1610.80785,436.925824 1568.01654,436.925824 C1536.49849,436.925824 1515.67868,423.029166 1501.79827,406.52861 L1529.84661,375.262346 C1541.4139,387.99919 1552.69041,395.526615 1566.85997,395.526615 C1583.6318,395.526615 1594.04089,385.393668 1594.04089,361.945595 L1594.04089,276.681351 L1527.49125,276.681351 L1527.49125,231.380356 L1639.722,231.380356 Z M1781.13778,230.911111 L1781.13778,420.715556 L1900.78444,420.715556 L1900.78444,434.688889 L1766,434.688889 L1766,230.911111 L1781.13778,230.911111 Z M2333.13903,230.911111 C2372.33423,230.911111 2398.69012,250.027417 2399.21332,280.068549 L2399.22125,280.982222 L2399.22125,281.564444 C2399.22125,309.22 2381.17236,323.193333 2364.57903,329.888889 C2388.78783,336.229289 2410.14345,349.987957 2410.56814,377.661584 L2410.57458,378.504444 L2410.57458,379.086667 C2410.57458,412.806067 2382.04278,434.256793 2338.81996,434.682435 L2337.50569,434.688889 L2249.00792,434.688889 L2249.00792,230.911111 L2333.13903,230.911111 Z M2074.61417,229.455556 L2169.51639,434.688889 L2152.92306,434.688889 L2127.01417,377.631111 L2006.78528,377.631111 L1980.87639,434.688889 L1965.15639,434.688889 L2060.05861,229.455556 L2074.61417,229.455556 Z M1396.99261,231.380356 C1444.75131,231.380356 1473.40718,256.590893 1473.40718,298.318229 L1473.40718,298.898137 C1473.40718,331.640971 1455.75005,352.215498 1429.98885,361.778283 L1479.48564,434.221215 L1427.38495,434.221215 L1383.96662,369.312205 L1348.94315,369.312205 L1348.94315,434.221215 L1304.36663,434.221215 L1304.36663,231.380356 L1396.99261,231.380356 Z M1032.56228,231.380356 L1032.56228,272.527785 L970.981649,272.527785 L970.981649,434.221215 L926.460361,434.221215 L926.460361,272.527785 L864.879727,272.527785 L864.879727,231.380356 L1032.56228,231.380356 Z M2333.13903,338.913333 L2264.14569,338.913333 L2264.14569,420.715556 L2338.08792,420.715556 C2372.67192,420.715556 2394.70192,405.023066 2395.13907,379.852312 L2395.14569,379.086667 L2395.14569,378.504444 C2395.14569,353.468889 2373.31236,338.913333 2333.13903,338.913333 Z M1158.36968,269.243268 C1122.41056,269.243268 1097.46967,297.55639 1097.46967,332.222502 L1097.46967,332.800785 C1097.46967,367.468522 1122.99046,396.356678 1158.95121,396.356678 C1194.91034,396.356678 1219.85123,368.04518 1219.85123,333.379068 L1219.85123,332.800785 C1219.85123,298.133049 1194.33043,269.243268 1158.36968,269.243268 Z M296.583569,246 C333.252843,246 363.03827,274.581265 363.542756,310.024532 L363.657853,310.02439 L363.657853,310.02439 C388.147345,310.02439 408,329.270686 408,353.012195 C408,375.664733 389.926774,394.224971 366.996958,395.879949 C366.84153,395.956818 366.666594,396 366.48161,396 L235.658741,396 C235.632056,396 235.60558,396 235.579342,395.997333 C235.390224,396 235.200886,396 235.011331,396 C203.524843,396 178,371.430261 178,341.121951 C178,310.936272 203.318708,286.44282 234.629435,286.245103 C244.65052,262.627537 268.614659,246 296.583569,246 Z M2067.04528,246.048889 L2013.18972,363.948889 L2120.60972,363.948889 L2067.04528,246.048889 Z M1393.16555,271.947878 L1348.99188,271.947878 L1348.99188,330.096176 L1394.03135,330.096176 C1415.68447,330.096176 1428.09968,318.52402 1428.09968,301.456551 L1428.09968,300.878268 C1428.09968,281.785185 1414.81867,271.947878 1393.16555,271.947878 Z M2332.84792,244.884444 L2264.14569,244.884444 L2264.14569,324.94 L2331.39236,324.94 C2361.65336,324.94 2383.35482,310.388782 2383.78582,283.828529 L2383.79236,283.02 L2383.79236,282.437778 C2383.79236,260.022222 2365.45236,244.884444 2332.84792,244.884444 Z M65.998215,193.273062 C66.1081177,200.698295 61.1327894,205.932675 53.9178208,205.999432 C46.7889921,206.063155 41.2166244,200.755949 41.0057299,193.719122 C40.7948354,186.861326 46.4325507,181.105025 53.4603876,181.001855 C60.7971404,180.889581 65.8942529,185.884242 65.998215,193.273062 Z M538.525313,181.001386 C545.561649,181.101488 551.162786,186.804279 550.996386,193.696163 C550.829986,200.679049 545.216963,206.0512 538.133085,205.999632 C530.924406,205.948064 525.92944,200.70635 526.000754,193.283621 C526.072068,185.915493 531.185892,180.904317 538.525313,181.001386 Z M295.51486,42 C302.566877,41.9940584 307.973225,47.3786241 308,54.3984803 C308.017783,61.1299307 302.145063,67.0823882 295.538624,66.999137 C288.822276,66.9337254 282.979262,61.0526261 283,54.395507 C283.02679,47.4024101 288.474725,42.0059514 295.51486,42 Z" id="Combined-Shape"></path>
        </g>
    </g>
</svg>