<?xml version="1.0" encoding="UTF-8" standalone="no"?>
<svg width="24px" height="21px" viewBox="0 0 24 21" version="1.1" xmlns="http://www.w3.org/2000/svg" xmlns:xlink="http://www.w3.org/1999/xlink">
    <!-- Generator: Sketch 40.1 (33804) - http://www.bohemiancoding.com/sketch -->
    <title>Group</title>
    <desc>Created with Sketch.</desc>
    <defs></defs>
    <g id="Page-1" stroke="none" stroke-width="1" fill="none" fill-rule="evenodd" stroke-linejoin="round">
        <g id="Group">
            <polyline id="Stroke-914" stroke="#2684FF" stroke-linecap="round" points="21.1797 12.5449 17.0837 16.9029 14.1587 14.0629"></polyline>
            <path d="M9.5,14.5 L2,14.5 C1.172,14.5 0.5,13.827 0.5,13 L0.5,2 C0.5,1.171 1.172,0.5 2,0.5 L20,0.5 C20.828,0.5 21.5,1.171 21.5,2 L21.5,6.5" id="Stroke-915" stroke="#1A5BB0" stroke-linecap="round"></path>
            <polyline id="Stroke-916" stroke="#1A5BB0" stroke-linecap="round" points="21.0469 0.9521 10.9999 9.0001 0.9379 0.9361"></polyline>
            <path d="M23.4473,14.4883 C23.4473,17.8023 20.7613,20.4883 17.4473,20.4883 C14.1343,20.4883 11.4473,17.8023 11.4473,14.4883 C11.4473,11.1753 14.1343,8.4883 17.4473,8.4883 C20.7613,8.4883 23.4473,11.1753 23.4473,14.4883 L23.4473,14.4883 Z" id="Stroke-917" stroke="#2684FF"></path>
        </g>
    </g>
</svg>