<?xml version="1.0" encoding="UTF-8" standalone="no"?>
<svg width="24px" height="21px" viewBox="0 0 24 21" version="1.1" xmlns="http://www.w3.org/2000/svg" xmlns:xlink="http://www.w3.org/1999/xlink" xmlns:sketch="http://www.bohemiancoding.com/sketch/ns">
    <!-- Generator: Sketch 3.4.2 (15855) - http://www.bohemiancoding.com/sketch -->
    <title>icon-cost</title>
    <desc>Created with Sketch.</desc>
    <defs></defs>
    <g id="Page-1" stroke="none" stroke-width="1" fill="none" fill-rule="evenodd" sketch:type="MSPage">
        <g id="icon-cost" sketch:type="MSLayerGroup" transform="translate(0.000000, 1.458333)" stroke-linejoin="round">
            <path d="M18.1953,13.3916 C18.1953,13.3916 22.5003,12.8316 22.5003,8.6096 C22.5003,5.9336 20.2923,3.7336 17.5463,3.8336 C16.4723,1.5706 14.1733,-0.0004 11.5003,-0.0004 C7.9383,-0.0004 5.0333,2.7836 4.8253,6.2936 C2.5923,5.8276 0.5003,7.5276 0.5003,9.8056 C0.5003,12.7966 3.0793,13.2926 4.0023,13.3756" id="Stroke-482" stroke="#2684FF" stroke-linecap="round" sketch:type="MSShapeGroup"></path>
            <path d="M16,13.5 C16,16.262 13.761,18.5 11,18.5 C8.238,18.5 6,16.262 6,13.5 C6,10.739 8.238,8.5 11,8.5 C13.761,8.5 16,10.739 16,13.5 L16,13.5 Z" id="Stroke-483" stroke="#1A5BB0" sketch:type="MSShapeGroup"></path>
            <path d="M9.8408,14.6006 C9.8408,15.2416 10.3608,15.7596 10.9998,15.7596 C11.6398,15.7596 12.1588,15.2416 12.1588,14.6006 C12.1588,13.9606 11.6398,13.4426 10.9998,13.4426 C10.3608,13.4426 9.8408,12.9226 9.8408,12.2836 C9.8408,11.6426 10.3608,11.1236 10.9998,11.1236 C11.6398,11.1236 12.1588,11.6426 12.1588,12.2836" id="Stroke-484" stroke="#1A5BB0" stroke-linecap="round" sketch:type="MSShapeGroup"></path>
            <path d="M11,15.7598 L11,16.5328" id="Stroke-485" stroke="#1A5BB0" stroke-linecap="round" sketch:type="MSShapeGroup"></path>
            <path d="M11,10.3506 L11,11.1236" id="Stroke-486" stroke="#1A5BB0" stroke-linecap="round" sketch:type="MSShapeGroup"></path>
        </g>
    </g>
</svg>