<?xml version="1.0" encoding="UTF-8" standalone="no"?>
<svg width="17px" height="24px" viewBox="0 0 17 24" version="1.1" xmlns="http://www.w3.org/2000/svg" xmlns:xlink="http://www.w3.org/1999/xlink">
    <!-- Generator: Sketch 3.8.3 (29802) - http://www.bohemiancoding.com/sketch -->
    <title>angellist-logo</title>
    <desc>Created with Sketch.</desc>
    <defs></defs>
    <g id="Page-1" stroke="none" stroke-width="1" fill="none" fill-rule="evenodd">
        <g id="angellist-logo" fill="#0A0A0A">
            <g id="Group" transform="translate(8.500000, 12.000000) scale(1, -1) translate(-8.500000, -12.000000) ">
                <path d="M4.47875354,23.8961856 C3.82379603,23.6413685 3.32294618,22.7825403 3.32294618,21.9142745 C3.32294618,20.9799449 3.9490085,18.762092 5.24929178,15.1002753 C5.5286119,14.3263862 5.72124646,13.6751868 5.701983,13.6468738 C5.67308782,13.6185608 5.40339943,13.6846245 5.10481586,13.7978765 C4.80623229,13.9111286 4.45949008,13.9960676 4.32464589,13.9960676 C3.68895184,13.9960676 2.5427762,13.0900511 2.21529745,12.3350374 C2.01303116,11.8631538 2.03229462,11.5894613 2.301983,10.7872591 C2.44645892,10.3342509 2.48498584,10.0983091 2.41756374,10.0699961 C1.07875354,9.62642548 0.674220963,9.33385765 0.279320113,8.55053087 C0.0192634561,8.04089658 0.00963172805,7.92764451 0,6.87062525 C0,5.87966968 0.0385269122,5.65316555 0.260056657,5.07746756 C1.15580737,2.72748722 3.13031161,1.00039324 5.77903683,0.245379473 C6.54957507,0.0283130161 6.80963173,0 8.04249292,0 C9.24645892,0.00943767204 9.57393768,0.0471883602 10.4022663,0.264254817 C12.3093484,0.773889107 13.7733711,1.70821864 14.9580737,3.17105781 C16.3739377,4.91702713 17,6.84231223 17,9.39992135 C17,10.8721982 16.8555241,11.6649626 16.4413598,12.4199764 C16.1620397,12.9390484 15.4396601,13.4581203 14.7461756,13.6374361 C14.5053824,13.7034998 14.3031161,13.7978765 14.3031161,13.8639402 C14.3031161,13.9205663 14.4186969,14.2697601 14.5535411,14.618954 C15.1892351,16.2799843 16.1235127,19.2339756 16.3739377,20.4231223 C16.6628895,21.7349587 16.4991501,22.5937869 15.8827195,23.1694849 C15.5263456,23.4903657 14.8521246,23.6508061 14.3705382,23.5186787 C13.5903683,23.3110499 12.5308782,21.7160834 11.4810198,19.2056626 C10.9127479,17.8183248 10.8164306,17.55407 10.305949,16.0912308 C9.98810198,15.1569013 9.93031161,15.1757766 9.54504249,16.3554856 C9.40056657,16.7990562 9.21756374,17.2898152 9.15014164,17.4408179 C9.08271955,17.6012584 8.97677054,17.8749508 8.9286119,18.0542666 C8.6878187,18.8470311 8.08101983,20.2815572 7.45495751,21.5367676 C6.91558074,22.6126622 6.66515581,23.0090444 6.22209632,23.4431773 C5.69235127,23.9811247 5.65382436,24 5.20113314,23.9905623 C4.93144476,23.9905623 4.61359773,23.943374 4.47875354,23.8961856 L4.47875354,23.8961856 Z M5.72124646,22.7447896 C6.12577904,22.3672827 6.66515581,21.1403854 7.70538244,18.1486433 C7.898017,17.6012584 8.22549575,16.6952418 8.42776204,16.1195438 C8.91898017,14.7888321 8.93824363,14.6000786 8.6203966,14.6283917 C7.61869688,14.703893 7.06968839,14.6850177 6.96373938,14.5812033 C6.74220963,14.3641368 6.6266289,14.4773889 6.36657224,15.2040897 C4.94107649,19.0546599 4.44985836,20.6118757 4.32464589,21.6500197 C4.1898017,22.8014157 4.96997167,23.4148643 5.72124646,22.7447896 L5.72124646,22.7447896 Z M15.1699717,22.3200944 C15.6322946,21.9520252 15.584136,21.1970114 14.9677054,19.309477 C14.38017,17.4880063 13.5133144,15.0342116 13.2243626,14.3641368 C13.070255,14.0243807 13.070255,14.0243807 12.6560907,14.0904444 C11.6736544,14.2508848 10.9320113,14.4113252 10.9320113,14.4585136 C10.9320113,14.5151396 10.98017,14.647267 12.0011331,17.5351947 C12.3286119,18.4695242 12.6753541,19.4604797 12.7716714,19.7247346 C13.0991501,20.6685018 13.6963173,21.7915847 14.0526912,22.1407786 C14.4475921,22.5371608 14.8232295,22.5937869 15.1699717,22.3200944 L15.1699717,22.3200944 Z M10.2096317,13.6091231 C12.6271955,13.410932 14.8328612,12.7219819 15.3915014,11.9952812 C15.8538244,11.3912702 16.0368272,9.96618168 15.8538244,8.31458907 C15.6322946,6.34211561 14.9291785,4.7943374 13.6192635,3.38812426 C12.3189802,1.9913488 10.9127479,1.29296107 8.93824363,1.05701927 C6.66515581,0.783326779 4.4305949,1.55721589 2.87025496,3.18049548 C1.7529745,4.32245379 1.01133144,5.84191899 1.01133144,6.94612662 C1.02096317,8.06920959 1.76260623,9.08847818 2.58130312,9.08847818 C3.0917847,9.08847818 4.33427762,7.81439245 5.31671388,6.27605191 C5.80793201,5.51160047 5.84645892,5.13409359 5.48045326,4.85096343 C4.77733711,4.31301612 3.78526912,4.85096343 2.60056657,6.42705466 C2.38866856,6.69130948 2.18640227,6.91781361 2.14787535,6.91781361 C2.0611898,6.91781361 2.03229462,6.64412112 2.0611898,6.22886355 C2.13824363,5.266221 3.37110482,3.9826976 4.59433428,3.59575305 C5.1529745,3.41643728 5.2878187,3.40699961 5.63456091,3.510814 C6.42436261,3.73731813 6.93484419,4.41683052 6.8674221,5.17184428 L6.83852691,5.51160047 L7.42606232,5.53991349 L8.01359773,5.57766418 L8.06175637,4.80377507 C8.12917847,3.73731813 8.49518414,2.98230436 9.07308782,2.68973653 C9.18866856,2.62367283 9.32351275,2.57648447 9.38130312,2.57648447 C9.55467422,2.57648447 9.50651558,3.05780574 9.24645892,3.89775855 C8.94787535,4.87927645 8.94787535,5.23790798 9.24645892,6.07786079 C9.69915014,7.36138419 10.9416431,8.68265828 12.1552408,9.17341722 C13.0991501,9.55092411 13.7444759,9.88124263 13.7926346,10.01337 C13.8215297,10.0699961 13.7733711,10.2304365 13.6866856,10.3625639 C13.5325779,10.589068 13.4747875,10.5985057 12.6368272,10.5985057 C9.49688385,10.617381 7.82096317,11.0892646 7.29121813,12.1085332 C6.93484419,12.7880456 7.12747875,13.5430594 7.69575071,13.6468738 C8.09065156,13.7223751 9.06345609,13.7129375 10.2096317,13.6091231 L10.2096317,13.6091231 Z M5.33597734,12.4860401 C6.27025496,11.768777 8.04249292,8.41840346 8.04249292,7.38025954 C8.04249292,7.09712937 7.55127479,6.54030672 7.31048159,6.54030672 C6.52067989,6.54030672 4.60396601,8.57884389 3.60226629,10.4569406 C3.16883853,11.2780181 3.13031161,11.683838 3.43852691,12.1368462 C3.95864023,12.920173 4.62322946,13.0428628 5.33597734,12.4860401 L5.33597734,12.4860401 Z M8.75524079,9.93786866 C8.89971671,9.8906803 9.40056657,9.79630358 9.87252125,9.73967755 C10.3541076,9.68305151 10.7393768,9.59811247 10.7393768,9.56036178 C10.7393768,9.52261109 10.623796,9.40935902 10.4793201,9.3149823 C10.3252125,9.23004326 9.9592068,8.89972473 9.6509915,8.59771923 C9.08271955,8.04089658 8.90934844,7.94651986 8.90934844,8.18246166 C8.90934844,8.29571372 8.52407932,9.32441998 8.26402266,9.91899331 C8.20623229,10.0511207 8.41813031,10.0699961 8.75524079,9.93786866 L8.75524079,9.93786866 Z" id="node1"></path>
            </g>
        </g>
    </g>
</svg>