<?xml version="1.0" encoding="utf-8"?>
<!-- Generator: Adobe Illustrator 22.1.0, SVG Export Plug-In . SVG Version: 6.00 Build 0)  -->
<svg version="1.1"
	 id="svg3074" inkscape:version="0.48.4 r9939" sodipodi:docname="kafka-ar21.svg" xmlns:cc="http://creativecommons.org/ns#" xmlns:dc="http://purl.org/dc/elements/1.1/" xmlns:inkscape="http://www.inkscape.org/namespaces/inkscape" xmlns:rdf="http://www.w3.org/1999/02/22-rdf-syntax-ns#" xmlns:sodipodi="http://sodipodi.sourceforge.net/DTD/sodipodi-0.dtd" xmlns:svg="http://www.w3.org/2000/svg"
	 xmlns="http://www.w3.org/2000/svg" xmlns:xlink="http://www.w3.org/1999/xlink" x="0px" y="0px" viewBox="0 0 112 52"
	 style="enable-background:new 0 0 112 52;" xml:space="preserve">
<style type="text/css">
	.st0{fill:#231F20;}
</style>
<g id="g3175" transform="matrix(1.1458335,0,0,1.1458344,-8.815396,-4.3755997)">
	<path id="path3139" inkscape:connector-curvature="0" class="st0" d="M17.2,7.9L17.2,7.9C16.7,7.4,16,7,15.3,7
		c-0.8,0-1.4,0.3-1.9,0.8l0,0c-0.5,0.5-0.8,1.2-0.8,2s0.3,1.5,0.8,2l0,0c0.5,0.5,1.2,0.8,1.9,0.8c0.8,0,1.4-0.3,1.9-0.8l0,0
		c0.5-0.5,0.8-1.2,0.8-2C18,9.1,17.7,8.4,17.2,7.9L17.2,7.9z M15.3,46L15.3,46c0.8,0,1.4-0.3,1.9-0.8l0,0c0.5-0.5,0.8-1.2,0.8-2
		c0-0.8-0.3-1.5-0.8-2l0,0c-0.5-0.5-1.2-0.8-1.9-0.8c-0.8,0-1.4,0.3-1.9,0.8l0,0c-0.5,0.5-0.8,1.2-0.8,2c0,0.8,0.3,1.5,0.8,2l0,0
		C13.8,45.7,14.5,46,15.3,46L15.3,46z M30.2,37.5L30.2,37.5c0.7-0.2,1.3-0.6,1.7-1.3l0.1-0.1l0,0c0.3-0.6,0.4-1.4,0.2-2
		c-0.2-0.7-0.6-1.3-1.3-1.7l0,0c-0.6-0.4-1.4-0.4-2-0.2c-0.7,0.2-1.3,0.6-1.7,1.3c-0.4,0.7-0.5,1.4-0.3,2.1c0.2,0.7,0.6,1.3,1.3,1.7
		l0,0C28.7,37.7,29.5,37.7,30.2,37.5L30.2,37.5L30.2,37.5z M18.1,23.7L18.1,23.7c-0.7-0.7-1.7-1.2-2.8-1.2s-2.1,0.5-2.8,1.2
		c-0.7,0.7-1.2,1.7-1.2,2.8c0,1.1,0.4,2.1,1.2,2.9c0.7,0.7,1.7,1.2,2.8,1.2s2.1-0.5,2.8-1.2s1.2-1.7,1.2-2.9
		C19.2,25.4,18.8,24.4,18.1,23.7L18.1,23.7z M16.5,18.9L16.5,18.9c1.6,0.3,3,1,4.1,2.2l0,0c0.2,0.2,0.3,0.4,0.5,0.6l2.7-1.6
		c-0.4-1.1-0.4-2.3-0.1-3.4c0.4-1.5,1.3-2.8,2.8-3.6l0,0c1.4-0.8,3-1,4.4-0.6c1.5,0.4,2.8,1.4,3.6,2.8l0,0c0.8,1.4,1,3.1,0.6,4.6
		s-1.3,2.8-2.8,3.6L32,23.6l0,0c-1.3,0.6-2.7,0.7-4.1,0.4c-1.1-0.3-2.1-0.9-2.9-1.8l-2.7,1.6c0.3,0.8,0.5,1.8,0.5,2.7
		c0,1-0.2,1.9-0.5,2.7l2.7,1.6c0.8-0.9,1.8-1.5,2.9-1.8c1.5-0.4,3.1-0.2,4.5,0.6h0.1l0,0c1.4,0.8,2.3,2.1,2.7,3.6
		c0.4,1.5,0.2,3.1-0.6,4.5v0.1l0,0l0,0c-0.8,1.4-2.1,2.3-3.5,2.7c-1.5,0.4-3.1,0.2-4.5-0.6l0,0c-1.4-0.8-2.4-2.2-2.8-3.6
		c-0.3-1.1-0.3-2.3,0.1-3.4l-2.7-1.6c-0.2,0.2-0.3,0.4-0.5,0.6l0,0c-1.1,1.1-2.5,1.9-4.1,2.2v3.2c1.1,0.2,2.2,0.8,2.9,1.6l0,0l0,0
		c1.1,1.1,1.7,2.6,1.7,4.2s-0.7,3.1-1.7,4.2l0,0l0,0c-1.1,1.1-2.5,1.8-4.2,1.8c-1.6,0-3.1-0.7-4.2-1.8l0,0l0,0
		c-1.1-1.1-1.7-2.6-1.7-4.2c0-1.7,0.7-3.2,1.7-4.2l0,0l0,0c0.8-0.8,1.8-1.4,2.9-1.6v-3.2c-1.6-0.3-3-1-4.1-2.2l0,0
		c-1.4-1.4-2.2-3.3-2.2-5.4s0.9-4,2.2-5.4l0,0c1.1-1.1,2.5-1.9,4.1-2.2v-3.2c-1.1-0.2-2.1-0.8-2.9-1.6l0,0l0,0
		C10,13,9.4,11.5,9.4,9.8c0-1.6,0.7-3.2,1.7-4.2l0,0l0,0c1.1-1.1,2.5-1.8,4.2-1.8c1.6,0,3.1,0.7,4.2,1.8l0,0l0,0
		c1.1,1.1,1.7,2.6,1.7,4.2c0,1.7-0.7,3.2-1.7,4.2l0,0c-0.8,0.8-1.8,1.4-2.9,1.6C16.5,15.7,16.5,18.9,16.5,18.9z M31.8,16.8
		L31.8,16.8c-0.4-0.7-1-1.1-1.7-1.3c-0.7-0.2-1.4-0.1-2.1,0.3l0,0c-0.7,0.4-1.1,1-1.3,1.7c-0.2,0.7-0.1,1.5,0.3,2.1l0,0
		c0.4,0.7,1,1.1,1.7,1.3c0.7,0.2,1.4,0.1,2.1-0.3l0,0c0.6-0.4,1.1-1,1.2-1.7C32.3,18.2,32.2,17.4,31.8,16.8L31.8,16.8"/>
	<path id="path3141" inkscape:connector-curvature="0" class="st0" d="M44,17.7h3v9.5l4.4-4.9h3.7L49.7,28l5.3,7.3h-3.5L47,28.7v6.5
		h-3V17.7"/>
	<path id="path3143" inkscape:connector-curvature="0" class="st0" d="M58.6,28.8c0,1.6,1.1,4,3.9,4c1.7,0,2.8-0.9,3.4-2.1
		c0.3-0.6,0.4-1.2,0.5-1.8c0-0.6-0.1-1.3-0.4-1.8c-0.5-1.2-1.7-2.3-3.6-2.3C60,24.7,58.6,26.8,58.6,28.8L58.6,28.8z M69.4,35.2h-3.1
		v-1.9c-0.8,1.5-2.5,2.3-4.3,2.3c-4.1,0-6.5-3.2-6.5-6.9c0-4.1,2.9-6.9,6.5-6.9c2.3,0,3.7,1.3,4.3,2.3v-1.9h3.1V35.2"/>
	<path id="path3145" inkscape:connector-curvature="0" class="st0" d="M72.8,24.6h-1.6v-2.4h1.6v-0.7c0-3.9,2.9-4.1,5.1-4.1v2.4
		c-0.8,0-2,0-2,1.8v0.6h2v2.4h-2v10.6h-3.1V24.6"/>
	<path id="path3147" inkscape:connector-curvature="0" class="st0" d="M80,17.7h3v9.5l4.4-4.9h3.7L85.8,28l5.3,7.3h-3.5L83,28.7v6.5
		h-3V17.7"/>
	<path id="path3149" inkscape:connector-curvature="0" class="st0" d="M94.6,28.8c0,1.6,1.1,4,3.9,4c1.7,0,2.8-0.9,3.4-2.1
		c0.3-0.6,0.4-1.2,0.5-1.8c0-0.6-0.1-1.3-0.4-1.8c-0.5-1.2-1.7-2.3-3.6-2.3C96,24.7,94.6,26.8,94.6,28.8L94.6,28.8z M105.4,35.2h-3
		v-1.9c-0.8,1.5-2.5,2.3-4.3,2.3c-4.1,0-6.5-3.2-6.5-6.9c0-4.1,2.9-6.9,6.5-6.9c2.3,0,3.7,1.3,4.3,2.3v-1.9h3V35.2"/>
</g>
</svg>
