<?xml version="1.0" encoding="utf-8"?>
<!-- Generator: Adobe Illustrator 22.1.0, SVG Export Plug-In . SVG Version: 6.00 Build 0)  -->
<svg version="1.1"
	 id="Layer_1" inkscape:export-filename="nextcloud-logo-white-transparent.png" inkscape:export-xdpi="300.09631" inkscape:export-ydpi="300.09631" inkscape:version="0.91 r13725" sodipodi:docname="nextcloud-logo-white-transparent.svg" xmlns:cc="http://creativecommons.org/ns#" xmlns:dc="http://purl.org/dc/elements/1.1/" xmlns:inkscape="http://www.inkscape.org/namespaces/inkscape" xmlns:rdf="http://www.w3.org/1999/02/22-rdf-syntax-ns#" xmlns:sodipodi="http://sodipodi.sourceforge.net/DTD/sodipodi-0.dtd" xmlns:svg="http://www.w3.org/2000/svg"
	 xmlns="http://www.w3.org/2000/svg" xmlns:xlink="http://www.w3.org/1999/xlink" x="0px" y="0px" viewBox="0 0 113.9 74.6"
	 style="enable-background:new 0 0 113.9 74.6;" xml:space="preserve">
<style type="text/css">
	.st0{fill:#0082C9;}
</style>
<path id="XMLID_107_" inkscape:connector-curvature="0" class="st0" d="M57,0C45.2,0,35.2,8,32.1,18.8C29.4,13,23.6,9,16.8,9
	C7.6,9.1,0,16.7,0,25.9c0,9.3,7.6,16.9,16.9,16.9c6.7,0,12.6-4,15.3-9.8c3,10.8,13,18.8,24.8,18.8c11.7,0,21.7-7.9,24.9-18.6
	c2.7,5.6,8.5,9.5,15.1,9.5c9.3,0,16.9-7.6,16.9-16.9S106.3,9.1,97,9.1c-6.6,0-12.4,3.9-15.1,9.5C78.7,7.9,68.8,0,57,0z M57,9.9
	c8.9,0,16,7.1,16,16s-7.1,16-16,16s-16-7.1-16-16S48.1,9.9,57,9.9z M16.9,19c3.9,0,7,3.1,7,7s-3.1,7-7,7s-7-3.1-7-7
	C9.9,22,13,19,16.9,19z M97,19c3.9,0,7,3.1,7,7s-3.1,7-7,7s-7-3.1-7-7C90.1,22,93.1,19,97,19z"/>
<g id="g4571" transform="matrix(0.47038519,0,0,0.47038519,21.389201,50.75959)">
	<path id="XMLID_121_" inkscape:connector-curvature="0" class="st0" d="M16.4,27.6c5.9,0,9.2,4.2,9.2,10.5c0,0.6-0.5,1.1-1.1,1.1
		H8.6c0.1,5.6,4,8.8,8.5,8.8c2.8,0,4.8-1.2,5.8-2c0.6-0.4,1.1-0.3,1.4,0.3l0.3,0.5c0.3,0.5,0.2,1-0.3,1.4c-1.2,0.9-3.8,2.4-7.3,2.4
		c-6.5,0-11.5-4.7-11.5-11.5C5.6,31.9,10.4,27.6,16.4,27.6z M22.5,37c-0.2-4.6-3-6.9-6.2-6.9c-3.7,0-6.9,2.4-7.6,6.9H22.5z"/>
	<path id="XMLID_119_" inkscape:connector-curvature="0" class="st0" d="M55.6,30.8v-2.5v-5.2c0-0.7,0.4-1.1,1.1-1.1h0.8
		c0.7,0,1,0.4,1,1.1v5.2H63c0.7,0,1.1,0.4,1.1,1.1v0.3c0,0.7-0.4,1-1.1,1h-4.5v11c0,5.1,3.1,5.7,4.8,5.8c0.9,0.1,1.2,0.3,1.2,1.1
		v0.6c0,0.7-0.3,1-1.2,1c-4.8,0-7.7-2.9-7.7-8.1C55.6,42.1,55.6,30.8,55.6,30.8z"/>
	<path id="XMLID_117_" inkscape:connector-curvature="0" class="st0" d="M78.5,27.6c3.8,0,6.2,1.6,7.3,2.5c0.5,0.4,0.6,0.9,0.1,1.5
		l-0.3,0.5c-0.4,0.6-0.9,0.6-1.5,0.2c-1-0.7-2.9-2-5.5-2c-4.8,0-8.6,3.6-8.6,8.9c0,5.2,3.8,8.8,8.6,8.8c3.1,0,5.2-1.4,6.2-2.3
		c0.6-0.4,1-0.3,1.4,0.3l0.3,0.4c0.3,0.6,0.2,1-0.3,1.5c-1.1,0.9-3.8,2.8-7.8,2.8c-6.5,0-11.5-4.7-11.5-11.5
		C67,32.4,72,27.6,78.5,27.6z"/>
	<path id="XMLID_115_" inkscape:connector-curvature="0" class="st0" d="M91.8,20.5c0-0.7-0.4-1.1,0.3-1.1h0.8
		c0.7,0,1.8,0.4,1.8,1.1v23.9c0,2.8,1.3,3.1,2.3,3.2c0.5,0,0.9,0.3,0.9,1v0.7c0,0.7-0.3,1.1-1.1,1.1c-1.8,0-5-0.6-5-5.4
		C91.8,45,91.8,20.5,91.8,20.5z"/>
	<path id="XMLID_112_" inkscape:connector-curvature="0" class="st0" d="M112.3,27.6c6.4,0,11.6,4.9,11.6,11.4
		c0,6.6-5.2,11.6-11.6,11.6s-11.6-5-11.6-11.6C100.7,32.5,105.9,27.6,112.3,27.6z M112.3,48c4.7,0,8.5-3.8,8.5-9
		c0-5-3.8-8.7-8.5-8.7s-8.6,3.8-8.6,8.7C103.8,44.1,107.6,48,112.3,48z"/>
	<path id="XMLID_109_" inkscape:connector-curvature="0" class="st0" d="M162.2,27.6c5.3,0,7.2,4.4,7.2,4.4h0.1c0,0-0.1-0.7-0.1-1.7
		v-9.9c0-0.7-0.3-1.1,0.4-1.1h0.8c0.7,0,1.8,0.4,1.8,1.1v28.5c0,0.7-0.3,1.1-1,1.1h-0.7c-0.7,0-1.1-0.3-1.1-1v-1.7
		c0-0.8,0.2-1.4,0.2-1.4h-0.1c0,0-1.9,4.6-7.6,4.6c-5.9,0-9.6-4.7-9.6-11.5C152.3,32.2,156.4,27.6,162.2,27.6L162.2,27.6z M162.3,48
		c3.7,0,7.1-2.6,7.1-8.9c0-4.5-2.3-8.8-7-8.8c-3.9,0-7.1,3.2-7.1,8.8C155.4,44.5,158.2,48,162.3,48z"/>
	<path id="XMLID_103_" inkscape:connector-curvature="0" sodipodi:nodetypes="ssssssssssscccccsss" class="st0" d="M-20.3,50.1h0.8
		c0.7,0,1.1-0.4,1.1-1.1V27.6c0-3.4,3.7-5.8,7.9-5.8s7.9,2.4,7.9,5.8V49c0,0.7,0.4,1.1,1.1,1.1h0.8c0.7,0,1-0.4,1-1.1V27.4
		c0-5.7-5.7-8.5-10.9-8.5l0,0l0,0l0,0l0,0c-5,0-10.7,2.8-10.7,8.5V49C-21.3,49.7-21,50.1-20.3,50.1z"/>
	<path id="XMLID_102_" inkscape:connector-curvature="0" class="st0" d="M146.6,28.1h-0.8c-0.7,0-1.1,0.4-1.1,1.1v12.1
		c0,3.4-2.2,6.5-6.5,6.5c-4.2,0-6.5-3.1-6.5-6.5V29.2c0-0.7-0.4-1.1-1.1-1.1h-0.8c-0.7,0-1,0.4-1,1.1v12.9c0,5.7,4.2,8.5,9.4,8.5
		l0,0l0,0l0,0l0,0c5.2,0,9.4-2.8,9.4-8.5V29.2C147.7,28.5,147.3,28.1,146.6,28.1L146.6,28.1z"/>
	<path id="path4165-9" inkscape:connector-curvature="0" class="st0" d="M47.6,28c-0.2,0-0.5,0.2-0.7,0.5l-4,4.8l-3,3.6l-4.6-5.5
		l-2.5-3C32.6,28.2,32.3,28,32,28c-0.3,0-0.5,0.1-0.8,0.3l-0.6,0.5c-0.5,0.4-0.5,0.9-0.1,1.5l4,4.8l3.4,4L33.1,45l0,0l-2.5,3
		c-0.4,0.5-0.4,1.1,0.1,1.6l0.6,0.5c0.5,0.4,1,0.3,1.5-0.2l4-4.8l3-3.6l4.6,5.5l0,0l2.5,3c0.4,0.5,1,0.6,1.5,0.1l0.6-0.5
		c0.5-0.4,0.5-0.9,0.1-1.5l-4-4.8l-3.4-4l4.9-5.9l0,0l2.5-3c0.4-0.5,0.4-1.1-0.1-1.6l-0.6-0.5C48.1,28,47.9,27.9,47.6,28L47.6,28z"
		/>
</g>
</svg>
