<svg width="48" height="48" viewBox="0 0 48 48" fill="none" xmlns="http://www.w3.org/2000/svg">
<path fill-rule="evenodd" clip-rule="evenodd" d="M31.27 35.7865L31.6235 35.5679L32.0215 35.6877C32.7067 35.894 33.4227 36 34.1539 36C38.2323 36 41.5385 32.6938 41.5385 28.6154C41.5385 28.0343 41.4716 27.4628 41.3404 26.9082L41.1694 26.1854L41.8388 25.8637C45.0144 24.3377 47.0769 21.1242 47.0769 17.5385C47.0769 13.98 45.0457 10.7867 41.9071 9.2464L41.484 9.03881L41.404 8.57446C40.647 4.18018 36.8177 0.923096 32.3077 0.923096C31.1236 0.923096 29.972 1.14566 28.8966 1.57356L28.5875 1.69659L28.2709 1.59405C26.9038 1.15124 25.4679 0.923096 24 0.923096C18.9838 0.923096 14.4376 3.61234 11.9843 7.88395L11.7472 8.29674L11.2734 8.34294C7.51156 8.70977 4.6154 11.8842 4.6154 15.6923C4.6154 17.0551 4.98426 18.3616 5.67245 19.5019L5.97138 19.9972L5.65593 20.4822C4.98022 21.521 4.6154 22.7323 4.6154 24C4.6154 27.5686 7.50833 30.4616 11.0769 30.4616C11.1337 30.4614 11.1337 30.4614 11.1902 30.4606L11.7332 30.4513L12.0051 30.9214C14.464 35.1729 18.9986 37.8462 24 37.8462C26.6056 37.8462 29.1029 37.1262 31.27 35.7865ZM8.30771 41.5385C10.3469 41.5385 12 39.8854 12 37.8462C12 35.807 10.3469 34.1539 8.30771 34.1539C6.26851 34.1539 4.6154 35.807 4.6154 37.8462C4.6154 39.8854 6.26851 41.5385 8.30771 41.5385ZM2.76925 47.0769C3.78885 47.0769 4.6154 46.2504 4.6154 45.2308C4.6154 44.2112 3.78885 43.3846 2.76925 43.3846C1.74965 43.3846 0.923096 44.2112 0.923096 45.2308C0.923096 46.2504 1.74965 47.0769 2.76925 47.0769Z" fill="url(#paint0_linear)" stroke="url(#paint1_linear)"/>
<path fill-rule="evenodd" clip-rule="evenodd" d="M20.1188 15.2678C20.1188 14.5397 20.344 13.8019 20.7945 13.0546C21.245 12.3072 21.9022 11.6883 22.7662 11.1977C23.6302 10.7072 24.6382 10.4619 25.7902 10.4619C26.861 10.4619 27.8062 10.6669 28.6259 11.077C29.4456 11.4871 30.0788 12.0447 30.5256 12.7499C30.9723 13.4551 31.1957 14.2216 31.1957 15.0494C31.1957 15.7009 31.0683 16.2719 30.8136 16.7625C30.5588 17.253 30.256 17.6765 29.9053 18.033C29.5545 18.3894 28.925 18.9891 28.0167 19.8323C27.7656 20.0699 27.5643 20.2788 27.413 20.4589C27.2616 20.639 27.149 20.8038 27.0751 20.9533C27.0013 21.1028 26.944 21.2522 26.9034 21.4017C26.8628 21.5512 26.8019 21.8137 26.7207 22.1893C26.5803 22.9864 26.141 23.385 25.4025 23.385C25.0185 23.385 24.6954 23.2547 24.4333 22.9941C24.1711 22.7335 24.04 22.3464 24.04 21.8328C24.04 21.189 24.136 20.6314 24.328 20.16C24.52 19.6886 24.7748 19.2747 25.0923 18.9183C25.4099 18.5618 25.8382 18.1383 26.3773 17.6478C26.8499 17.2186 27.1914 16.8947 27.4019 16.6763C27.6123 16.4578 27.7896 16.2144 27.9336 15.9462C28.0776 15.6779 28.1496 15.3866 28.1496 15.0724C28.1496 14.4592 27.9299 13.9418 27.4905 13.5202C27.0511 13.0986 26.4843 12.8879 25.7902 12.8879C24.9779 12.8879 24.3797 13.1006 23.9957 13.526C23.6117 13.9514 23.2868 14.578 23.021 15.4058C22.7699 16.2719 22.2936 16.705 21.592 16.705C21.1785 16.705 20.8296 16.5536 20.5453 16.2509C20.261 15.9481 20.1188 15.6204 20.1188 15.2678ZM25.6757 29.5057C25.1768 29.5057 24.7413 29.3431 24.3693 29.0179C23.9972 28.6927 23.8111 28.2379 23.8111 27.6533C23.8111 27.1347 23.991 26.6984 24.3509 26.3444C24.7107 25.9904 25.1523 25.8134 25.6757 25.8134C26.1909 25.8134 26.6243 25.9904 26.9759 26.3444C27.3276 26.6984 27.5034 27.1347 27.5034 27.6533C27.5034 28.2296 27.3194 28.6824 26.9514 29.0117C26.5834 29.341 26.1582 29.5057 25.6757 29.5057Z" fill="#002D5C"/>
<defs>
<linearGradient id="paint0_linear" x1="43.565" y1="47.0769" x2="21.3838" y2="0.923091" gradientUnits="userSpaceOnUse">
<stop stop-color="#A2CAFF"/>
<stop offset="1" stop-color="#006DFF"/>
</linearGradient>
<linearGradient id="paint1_linear" x1="0.923095" y1="5.83419" x2="43.5955" y2="47.0769" gradientUnits="userSpaceOnUse">
<stop/>
<stop offset="1" stop-color="#0055C6"/>
</linearGradient>
</defs>
</svg>
