<?xml version="1.0" encoding="utf-8"?>
<!-- Generator: Adobe Illustrator 22.1.0, SVG Export Plug-In . SVG Version: 6.00 Build 0)  -->
<svg version="1.1" id="Layer_1" xmlns="http://www.w3.org/2000/svg" xmlns:xlink="http://www.w3.org/1999/xlink" x="0px" y="0px"
	 viewBox="0 0 135 53" style="enable-background:new 0 0 135 53;" xml:space="preserve">
<style type="text/css">
	.st0{fill:#EA6D4D;}
	.st1{fill:#0A71B3;}
</style>
<g>
	<path class="st0" d="M100.1,37.6V14c0-1.7-1.4-3.1-3.1-3.1C95.4,11,94,12.3,94,14v23.6c0,1.7,1.4,3.1,3.1,3.1
		C98.8,40.7,100.1,39.3,100.1,37.6z"/>
	<path class="st0" d="M57.4,11.1c-1.7,0-3.1,1.4-3.1,3.1V26c0,4.7-3.8,8.5-8.5,8.5c-4.7,0-8.5-3.8-8.5-8.5V14.2
		c0-1.7-1.4-3.1-3.1-3.1c-1.7,0-3.1,1.4-3.1,3.1V26c0,8.1,6.6,14.7,14.7,14.7c3.2,0,6.1-1,8.5-2.7v0.3c0,4.7-3.8,8.5-8.5,8.5
		c-1.7,0-3.1,1.4-3.1,3.1c0,1.7,1.4,3.1,3.1,3.1c8.1,0,14.7-6.6,14.7-14.7V27.3c0-0.1,0-0.3,0-0.4c0-0.3,0-0.6,0-0.9V14.2
		C60.5,12.5,59.1,11.1,57.4,11.1z"/>
	<path class="st0" d="M97.1,8.7c2,0,3.6-1.6,3.6-3.6S99,1.5,97.1,1.5c-2,0-3.6,1.6-3.6,3.6S95.1,8.7,97.1,8.7z"/>
	<path class="st0" d="M14.7,5.5C6.9,5.5,0.4,11.6,0,19.4c0,0.1,0,0.2,0,0.4v21.6c0,1.7,1.4,3.1,3.1,3.1c1.7,0,3.1-1.4,3.1-3.1v-9
		C8.6,34,11.5,35,14.7,35c8.1,0,14.7-6.6,14.7-14.7v-0.2C29.4,12.1,22.8,5.5,14.7,5.5z M23.2,20.4c0,4.7-3.8,8.5-8.5,8.5
		c-4.7,0-8.5-3.8-8.5-8.5v-0.2c0-4.7,3.8-8.5,8.5-8.5c4.7,0,8.5,3.8,8.5,8.5V20.4z"/>
	<path class="st0" d="M88.5,1.4c-1.7,0-3.1,1.4-3.1,3.1v9.3c-2.4-1.7-5.4-2.7-8.5-2.7c-8.1,0-14.7,6.6-14.7,14.7V26
		c0,8.1,6.6,14.7,14.7,14.7c7.7,0,14.1-6,14.6-13.6c0-0.2,0-0.3,0-0.5v-22C91.6,2.8,90.2,1.4,88.5,1.4z M85.4,26
		c0,4.7-3.8,8.5-8.5,8.5c-4.7,0-8.5-3.8-8.5-8.5v-0.2c0-4.7,3.8-8.5,8.5-8.5c4.7,0,8.5,3.8,8.5,8.5V26z"/>
	<path class="st1" d="M125.2,15.5c0.1-0.1,0.1-0.3,0.2-0.4c-2.4-2-5.5-3.2-8.8-3.2c-7.7,0-13.9,6.2-13.9,13.9V26
		c0,5.6,3.3,10.3,8,12.6c2.4-3.3,5-7.1,7.5-11C120.8,23.4,123.3,19.2,125.2,15.5z"/>
	<path class="st1" d="M115.9,39.9c0.2,0,0.5,0,0.7,0c7.7,0,13.9-6.2,13.9-13.9v-0.2c0-2.4-0.6-4.6-1.7-6.6c-1.9,3.5-4,7.2-6.4,11
		C120.3,33.6,118.1,36.9,115.9,39.9z"/>
	<g>
		<path class="st0" d="M133.3,15.2c-1,0-1.8,0.8-1.8,1.8c0,1,0.8,1.8,1.8,1.8c1,0,1.8-0.8,1.8-1.8C135.2,16,134.3,15.2,133.3,15.2z"
			/>
		<path class="st0" d="M133.8,4.6c0.3-1.4,0.6-3.4-0.8-4.3c-1.4-0.9-3.1,0.2-4.2,1.1c-1.3,1-2.9,2.6-4.8,4.8
			c-1.5,1.7-3.1,3.7-4.7,5.9c0.9,0.2,1.8,0.5,2.7,0.8c0,0,0,0,0,0c1.1-1.5,2.2-2.9,3.3-4.1c3.5-4.2,5.3-5.6,6.1-6
			c-0.1,0.9-0.5,3.1-2.8,8.1c-0.7,1.5-1.5,3.2-2.4,4.9c0,0,0,0.1-0.1,0.1c-2,3.8-4.4,8-7,12.2c-2.4,3.9-5,7.6-7.4,10.8
			c-0.1,0.2-0.2,0.3-0.3,0.5c-1.3,1.7-2.5,3.3-3.7,4.7c-3.5,4.2-5.3,5.6-6.1,6c0.1-0.9,0.5-3.1,2.8-8.1c0.8-1.7,1.6-3.4,2.6-5.3
			c0.1-0.1,0.1-0.3,0.2-0.4c-0.7-0.6-1.3-1.3-1.9-2.1c-0.1,0.1-0.1,0.2-0.2,0.4c-1.4,2.7-2.7,5.2-3.7,7.5c-1.1,2.6-1.9,4.7-2.3,6.4
			c-0.3,1.4-0.6,3.4,0.8,4.3c1.4,0.9,3.1-0.2,4.2-1.1c1.3-1,2.9-2.6,4.8-4.8c1.6-1.9,3.3-4.1,5.1-6.5c0.1-0.2,0.3-0.4,0.4-0.5
			c2.2-3.1,4.6-6.5,6.8-10.1c2.5-4,4.7-7.9,6.7-11.5c0,0,0,0,0,0c1.3-2.5,2.5-4.9,3.4-7.1C132.7,8.4,133.5,6.3,133.8,4.6z"/>
	</g>
</g>
</svg>
