<?xml version="1.0" encoding="utf-8"?>
<!-- Generator: Adobe Illustrator 22.1.0, SVG Export Plug-In . SVG Version: 6.00 Build 0)  -->
<svg version="1.1" id="Layer_1" xmlns="http://www.w3.org/2000/svg" xmlns:xlink="http://www.w3.org/1999/xlink" x="0px" y="0px"
	 viewBox="0 0 1118.6 254.6" style="enable-background:new 0 0 1118.6 254.6;" xml:space="preserve">
<style type="text/css">
	.st0{fill:#253746;}
	.st1{fill:#8A1B61;}
</style>
<g>
	<g>
		<path class="st0" d="M954.7,159.7c0,8.3-4.8,13.3-12.8,13.3s-12.8-5-12.8-13.3s4.8-13.1,12.8-13.1
			C949.9,146.6,954.7,151.4,954.7,159.7z"/>
		<path class="st0" d="M997.3,168.6c0,1.3-0.7,2.2-2.2,2.2h-14.8c-1.3,0-2.2-0.9-2.2-2.2v-88l-10.4-4.4c-2.4-1-2.2-1.7-2.2-3v-5
			c0-1.5,0.9-2.2,2.2-2.2h27.4c1.3,0,2.2,0.7,2.2,2.2V168.6z M997.1,26.5c0,7.8-4.4,12.2-11.7,12.2c-7.6,0-12-4.4-12-12.2
			c0-7.6,4.3-12.2,12-12.2C992.8,14.4,997.1,18.9,997.1,26.5z"/>
		<path class="st0" d="M1115.5,118.4c0,33.5-18.5,54.6-48.7,54.6s-48.9-21.1-48.9-54.6s18.7-54.6,48.9-54.6
			C1097,63.8,1115.5,84.9,1115.5,118.4z M1037,118.4c0,23.3,11.1,37.2,29.8,37.2c18.5,0,29.8-13.9,29.8-37.2s-11.3-37.2-29.8-37.2
			C1048.1,81.2,1037,95.1,1037,118.4z"/>
	</g>
	<g>
		<g>
			<path class="st1" d="M176.7,230.1c-4.7-4.8-11.1-7.6-17.8-7.6h-2.1c-6.7,0-13.2,2.7-17.8,7.6l-0.1,0.1c-2,2.1-3.2,4.8-3.3,7.7
				l0,0c-0.2,5.4,3.4,10.3,8.6,11.7c4.4,1.2,9.2,2.2,11.8,2.3l0,0c0.3,0,0.6,0,0.9,0c0.3,0,0.6,0,1,0c0.3,0,0.6,0,1,0
				c0.3,0,0.6,0,0.9,0l0,0c2.6-0.1,7.4-1.1,11.8-2.3c5.3-1.4,8.8-6.3,8.6-11.7c-0.1-2.9-1.3-5.6-3.3-7.6
				C176.7,230.2,176.7,230.1,176.7,230.1z"/>
		</g>
		<g>
			<path class="st1" d="M314,35c-1.9,2.5-4.5,5.7-6.6,8.4l-0.1-0.5c0.5-3.6,0.9-7.1,1.4-10.7s0.9-7.3,1.2-10.9c0-0.7-0.8-1-1.2-0.4
				c-1,1.3-2.3,2.9-3.5,4.5L303,7.9c-0.7-5.8-7.5-8.6-12.1-5l-34.3,26.8c-8.9,7-21.1,8.1-31.1,3l-23-11.7
				c-13.5-6.9-28.2-10.4-43-10.7l0,0h-0.1c-0.6,0-1.1,0-1.7,0c-0.6,0-1.1,0-1.7,0h-0.1l0,0c-14.7,0.3-29.5,3.8-43,10.7l-23,11.7
				c-10.1,5.1-22.2,4-31.1-3L22.4,1.3c-3.6-2.9-9-0.6-9.6,4l-2.5,20.1c-1.2-1.5-2.5-3.1-3.5-4.5c-0.4-0.5-1.3-0.2-1.2,0.4
				c0.2,3.7,0.7,7.3,1.2,10.9s0.9,7.1,1.4,10.7l-0.1,0.5C6,40.7,3.4,37.5,1.5,35C1,34.3-0.1,34.7,0,35.5c0.3,4.6,0.9,9.2,1.5,13.8
				c0.9,6.7,1.7,13.3,2.6,20c0.5,4.2,1.8,14.5,3.3,24.3c0.3,2,3.2,2.1,3.6,0.1l13.5-63.3c1.4-3.5,5.8-4.7,8.8-2.3l4.3,2.6
				c14.4,8.6,33.7,36,33.7,36c2.3,1.9,1.6,5.6-1.3,6.5l0,0c-4.2,1.3-8.3,2.8-12.3,4.6c-11.4,5-22.2,11.5-30.9,19.8
				c-9.7,9.3-13,23.4-8.7,36.1l8.7,25.9c0.8,3.7,2.1,7.2,3.8,10.4c1.3,2.4,2.9,4.6,4.6,6.7c1.1,1.3,3.1,0.1,2.7-1.5
				c-0.5-1.9-0.9-3.9-1.2-5.8c0-0.1,0.1-0.2,0.2-0.2c0.1,0,0.2,0.1,0.2,0.1v-0.1c1.4,2.7,2.9,5.2,4.9,7.4c1.1,1.3,3.2,0.2,2.8-1.5
				c-0.3-1-0.5-1.9-0.7-2.9c0-0.2,0.1-0.3,0.3-0.3h0.1l0,0l21.8,11.2c4.2,2.2,9.2,2.5,13.7,1l38.5-13.3c8.3-2.9,17.4,0.9,21.3,8.7
				l6.1,12.3c1.7,3.4,4.8,6.1,8.5,7c6,1.5,11.9-1.5,14.5-6.7l6.2-12.6c3.9-7.9,13-11.6,21.3-8.7l38.5,13.3c4.5,1.6,9.4,1.2,13.7-1
				l21.8-11.2l0,0h0.1c0.2,0,0.3,0.1,0.3,0.3c-0.2,1-0.4,2-0.7,2.9c-0.4,1.7,1.6,2.8,2.8,1.5c1.9-2.2,3.5-4.8,4.9-7.4v0.1
				c0-0.1,0.1-0.1,0.2-0.1s0.2,0.1,0.2,0.2c-0.3,2-0.7,3.9-1.2,5.8c-0.4,1.6,1.6,2.8,2.7,1.5c3.7-4.3,6.5-9.5,8-15.2l9.3-28.1
				c4.2-12.7,0.9-26.8-8.8-36.1c-8.6-8.2-19.3-14.6-30.6-19.6c-4-1.7-8.1-3.3-12.3-4.6l0,0c-2.9-0.9-1.3-6.5-1.3-6.5
				c7.7-14.9,19.4-27.4,33.8-36l4.3-2.6c2.9-2.4,7.4-1.3,8.8,2.3l13.4,62.5c0.4,2,3.3,1.9,3.6-0.1c1.4-9.5,2.6-19.4,3.2-23.5
				c0.9-6.7,1.7-13.3,2.6-20c0.6-4.6,1.2-9.2,1.5-13.8C315.5,34.7,314.5,34.3,314,35z M121.1,143.6c-1.6,0.6-3.2,1.1-4.8,1.5
				c0-0.1,0-0.2,0-0.2c0-1.9-0.3-3.7-0.8-5.5c-0.9,0.6-1.9,0.9-2.9,0.9c-3.2,0-5.9-2.9-5.9-6.5c0-1.6,0.6-3.1,1.5-4.3
				c-2.3-1.4-4.9-2.2-7.7-2.2c-8.3,0-15.1,7.1-15.8,16.1c-1.8-0.7-3.6-1.5-5.4-2.5l4.1-10c1.4-3.4,3.8-6.3,6.9-8.3
				c5.7-3.7,13.1-3.8,18.9-0.4c4.1,2.4,7.7,5.5,10.6,9.2l7.8,9.6L121.1,143.6z M230.8,143.4c-0.1-1.3-0.3-2.6-0.7-3.9
				c-1.1,1.3-2.6,2.1-4.3,2.1c-3.2,0-5.9-2.9-5.9-6.5c0-2.3,1.1-4.4,2.8-5.5c-2.3-1.4-4.9-2.3-7.8-2.3c-8.8,0-15.8,7.9-15.8,17.6
				c0,0.1,0,0.2,0,0.2c-1.6-0.4-3.2-0.9-4.8-1.5l-6.5-2.5l7.8-9.6c3-3.7,6.6-6.8,10.6-9.2c5.9-3.5,13.2-3.3,18.9,0.4
				c3.1,2,5.5,4.9,6.9,8.3l4.1,10C234.4,141.8,232.6,142.6,230.8,143.4z"/>
		</g>
	</g>
	<g>
		<path class="st0" d="M482.9,67.6c0.9,1.1,0.7,2,0,3.1c-3.5,4.4-6.6,8.7-9.6,14.4l-36.1,56.4c-1.7,3.3-4.4,6.8-7.2,10.3
			c-1.1,1.3-0.7,2.4,1.1,2.2c4.2-0.2,7.9-0.2,11.2-0.2h37.6c1.5,0,2.4,0.9,2,2.4l-3.9,13.1c-0.2,1.1-1.1,1.7-2.4,1.7h-71.5
			c-1.3,0-2-0.4-2.6-1.5l-0.2-0.4c-0.7-1.1-0.4-2,0.2-3.1c3.7-4.8,7.2-9.8,10.5-15.5l35-55.3c1.7-3.3,4.6-7.2,7.4-10.1
			c1.1-1.5,0.7-2.4-1.1-2.4c-3.9,0.2-7.7,0.2-11.1,0.2H405c-1.3,0-2.2-0.9-2.2-2.2V67.9c0-1.5,0.9-2.2,2.2-2.2h75
			c1.3,0,2,0.4,2.6,1.5L482.9,67.6z"/>
		<path class="st0" d="M567.3,170.4c-7.9,2.2-15.5,2.8-23,2.8c-31.7,0-50.1-21-50.1-54.9s18.6-54.9,49.4-54.9
			c25.6,0,40.9,12.7,40.9,33.7c0,16-9.8,25.4-30.6,28.6l-38.7,6.1c2.8,14.9,12.9,23.8,28.9,23.8c6.8,0,13.6-0.9,18.8-2.4l8.1-2.2
			c1.5-0.4,2.4,0,2.8,1.5l3.5,12.5c0.4,1.5,0,2.4-1.5,2.8L567.3,170.4z M550.7,110.3c9.8-1.5,14.9-5.9,14.9-12.9
			c0-10.5-8.1-16.4-22.1-16.4c-17.5,0-28.6,11.4-29.7,35.4L550.7,110.3z"/>
		<path class="st0" d="M618.7,78.8c1.1,2.4,2.4,2.2,4.2,0.2c8.5-10.7,19.7-15.5,32.6-15.5c24.5,0,39.4,15.7,39.4,42v63.4
			c0,1.3-0.7,2.2-2.2,2.2h-14.9c-1.3,0-2.2-0.9-2.2-2.2v-61.7c0-16.4-8.5-26.2-22.3-26.2c-19,0-30.2,14-30.2,38.5v49.4
			c0,1.3-0.7,2.2-2.2,2.2H606c-1.3,0-2.2-0.9-2.2-2.2v-101c0-1.3,0.9-2.2,2.2-2.2h4.9c1.7,0,2.2,0.2,3,2L618.7,78.8z"/>
		<path class="st0" d="M808.8,168.4c0.9,1.5,0.4,2.6-1.5,2.6h-16.6c-1.3,0-2-0.4-2.6-1.3L770.8,145c-7-9.8-13.8-18.6-26.9-18.6H740
			v42.4c0,1.3-0.7,2.2-2.2,2.2h-14.9c-1.3,0-2.2-0.9-2.2-2.2V17.6c0-1.3,0.9-2.2,2.2-2.2h14.9c1.3,0,2.2,0.7,2.2,2.2v91.6h3.7
			c11.6,0,19.2-10.5,26-19.7L786.1,67c0.7-0.9,1.3-1.3,2.6-1.3h16.6c2,0,2.4,1.1,1.5,2.6l-20.1,29.5c-6.3,8.7-13.6,16-20.3,18.6
			c-1.3,0.4-1.3,1.3,0,1.7c7.9,3.3,15.1,10.3,21.6,19L808.8,168.4z"/>
		<path class="st0" d="M915.2,118.4c0,33.7-18.6,54.9-49,54.9S817,152.1,817,118.4s18.8-54.9,49.2-54.9
			C896.6,63.5,915.2,84.7,915.2,118.4z M836.2,118.4c0,23.4,11.1,37.4,30,37.4c18.6,0,30-14,30-37.4S884.8,81,866.2,81
			C847.4,81,836.2,95,836.2,118.4z"/>
	</g>
</g>
</svg>
