<?xml version="1.0" encoding="UTF-8"?>
<svg width="84px" height="70px" viewBox="0 0 84 70" version="1.1" xmlns="http://www.w3.org/2000/svg" xmlns:xlink="http://www.w3.org/1999/xlink">
    <!-- Generator: Sketch 52.2 (67145) - http://www.bohemiancoding.com/sketch -->
    <title>icon-illustration-help</title>
    <desc>Created with Sketch.</desc>
    <defs>
        <linearGradient x1="50%" y1="0%" x2="50%" y2="100%" id="linearGradient-1">
            <stop stop-color="#14AFFF" offset="0%"></stop>
            <stop stop-color="#0061FF" offset="100%"></stop>
        </linearGradient>
        <linearGradient x1="0%" y1="99.9890579%" x2="50%" y2="49.9945289%" id="linearGradient-2">
            <stop stop-color="#F4E113" offset="0%"></stop>
            <stop stop-color="#F49D1A" offset="100%"></stop>
        </linearGradient>
    </defs>
    <g id="Page-1" stroke="none" stroke-width="1" fill="none" fill-rule="evenodd">
        <g id="website-community-alt3" transform="translate(-306.000000, -835.000000)">
            <g id="icon-illustration-help" transform="translate(306.000000, 835.000000)">
                <path d="M33.2158163,50 L17.5909207,61.0471089 C16.2380493,62.0036156 14.3659285,61.6822986 13.4094218,60.3294272 C12.9743442,59.7140588 12.7868144,58.9574794 12.8841263,58.21015 L14.2675862,47.5855537 C5.83111948,43.5694816 1.22044703e-15,34.9657063 0,25 C-1.69088438e-15,11.1928813 11.1928813,-3.10102477e-13 25,-3.12638804e-13 L43,-3.12638804e-13 C56.8071187,-3.1517513e-13 68,11.1928813 68,25 C68,29.5130037 66.8041763,33.7467077 64.7121046,37.4015366 C63.5009044,39.5174916 57.7531508,37.3302337 55.9992741,39 C54.149279,40.7612752 56.2658785,46.3511787 53.945,47.4831158 C50.6393799,49.0953304 46.9253384,50 43,50 L33.2158163,50 Z" id="Combined-Shape" fill="url(#linearGradient-1)" fill-rule="nonzero"></path>
                <path d="M65.971698,69.943396 C56.0462033,69.943396 48,61.8971927 48,51.971698 C48,42.0462033 56.0462033,34 65.971698,34 C75.8971927,34 83.943396,42.0462033 83.943396,51.971698 C83.943396,61.8971927 75.8971927,69.943396 65.971698,69.943396 Z M59,47.0014655 C59,47.4417666 59.1842537,47.8509533 59.5527666,48.2290379 C59.9212794,48.6071226 60.3735385,48.7961621 60.9095572,48.7961621 C61.8188747,48.7961621 62.4362441,48.2553656 62.7616841,47.1737563 C63.1062676,46.1400059 63.5274188,45.357526 64.0251505,44.8262932 C64.5228822,44.2950603 65.2981834,44.0294479 66.3510773,44.0294479 C67.250823,44.0294479 67.9854448,44.2926674 68.5549647,44.8191144 C69.1244847,45.3455614 69.4092403,45.9916457 69.4092403,46.7573867 C69.4092403,47.149829 69.315917,47.5135506 69.1292677,47.8485623 C68.9426183,48.183574 68.7128994,48.4874729 68.4401042,48.7602681 C68.1673089,49.0330634 67.7246215,49.4374643 67.1120287,49.973483 C66.41329,50.5860759 65.858136,51.1149079 65.4465502,51.5599949 C65.0349644,52.0050818 64.7047435,52.5219493 64.4558777,53.1106127 C64.2070119,53.6992762 64.0825808,54.3956115 64.0825808,55.1996396 C64.0825808,55.8409477 64.252477,56.3243145 64.5922746,56.6497544 C64.9320722,56.9751944 65.3508306,57.1379119 65.8485623,57.1379119 C66.8057386,57.1379119 67.3752499,56.6401877 67.5571134,55.6447243 C67.6624028,55.1757079 67.7413687,54.84788 67.7940134,54.6612306 C67.8466581,54.4745812 67.9208381,54.2879346 68.0165558,54.1012853 C68.1122734,53.9146359 68.2582406,53.708846 68.4544617,53.4839096 C68.6506829,53.2589732 68.9115095,52.9981466 69.2369495,52.7014219 C70.4142763,51.648528 71.2302569,50.8995487 71.6849156,50.4544617 C72.1395744,50.0093748 72.5320108,49.4805428 72.8622366,48.8679499 C73.1924624,48.2553571 73.3575729,47.5422714 73.3575729,46.7286716 C73.3575729,45.6949212 73.0680314,44.7377592 72.4889397,43.857157 C71.909848,42.9765548 71.0890817,42.2802195 70.026616,41.7681301 C68.9641503,41.2560408 67.738983,41 66.3510773,41 C64.8578823,41 63.5513562,41.3062918 62.4314599,41.9188847 C61.3115636,42.5314775 60.4596895,43.3043858 59.8758119,44.2376327 C59.2919344,45.1708796 59,46.092148 59,47.0014655 Z M66.0064956,63.65625 C66.5712296,63.65625 67.0689538,63.4648176 67.4996831,63.0819471 C67.9304125,62.6990766 68.1457739,62.1726375 68.1457739,61.5026141 C68.1457739,60.899593 67.9399841,60.3922972 67.5283983,59.9807113 C67.1168125,59.5691255 66.6095166,59.3633357 66.0064956,59.3633357 C65.3939027,59.3633357 64.8770353,59.5691255 64.4558777,59.9807113 C64.0347201,60.3922972 63.8241445,60.899593 63.8241445,61.5026141 C63.8241445,62.1822092 64.0418988,62.7110412 64.4774141,63.0891259 C64.9129293,63.4672105 65.422618,63.65625 66.0064956,63.65625 Z" id="Combined-Shape" fill="url(#linearGradient-2)"></path>
            </g>
        </g>
    </g>
</svg>