<?xml version="1.0" encoding="UTF-8" standalone="no"?>
<svg width="800px" height="600px" viewBox="0 0 800 600" version="1.1" xmlns="http://www.w3.org/2000/svg" xmlns:xlink="http://www.w3.org/1999/xlink">
    <!-- Generator: Sketch 40.1 (33804) - http://www.bohemiancoding.com/sketch -->
    <title>Happy-Cloud</title>
    <desc>Created with Sketch.</desc>
    <defs>
        <path d="M316.830647,358.977391 L477.83061,358.977391 C477.83061,358.977391 477.997622,422.135286 451.108624,443.187918 C424.219626,464.240549 370.441631,464.240549 343.552633,443.187918 C316.663635,422.135286 316.830647,358.977391 316.830647,358.977391 Z" id="path-1"></path>
        <mask id="mask-2" maskContentUnits="userSpaceOnUse" maskUnits="objectBoundingBox" x="0" y="0" width="161" height="100" fill="white">
            <use xlink:href="#path-1"></use>
        </mask>
    </defs>
    <g id="Page-1" stroke="none" stroke-width="1" fill="none" fill-rule="evenodd">
        <path d="M280.653482,437.463751 C267.58544,446.624156 251.670518,452 234.5,452 C190.041078,452 154,415.958922 154,371.5 C154,340.800883 171.184293,314.115373 196.458452,300.537897 C188.568339,288.089968 184,273.328481 184,257.5 C184,213.041078 220.041078,177 264.5,177 C280.444082,177 295.305529,181.635312 307.810262,189.631857 C330.727876,153.206562 371.287065,129 417.5,129 C481.51865,129 534.687489,175.453564 545.13744,236.491616 C548.881611,236.166144 552.671403,236 556.5,236 C628.020875,236 686,293.979125 686,365.5 C686,437.020875 628.020875,495 556.5,495 C535.424357,495 515.524615,489.965368 497.937858,481.033189 C474.265709,506.829267 440.271293,523 402.5,523 C346.413189,523 298.654185,487.344419 280.653482,437.463751 Z" id="Combined-Shape-Copy-4" fill="#FFFFFF"></path>
        <path d="M237.249999,433.890625 C237.249999,433.890625 188.144531,435.683594 175.210937,389.757813 C162.277344,343.832031 214.675783,304.105469 214.675783,304.105469 C214.675783,304.105469 180.515624,246.644531 226.453124,210.484375 C272.390624,174.324219 315.4961,214.996094 315.4961,214.996094 C315.4961,214.996094 326.816413,174.769531 382.867194,151.238281" id="Path-90" stroke="#E7F2FF" stroke-width="19" stroke-linecap="round" stroke-linejoin="round"></path>
        <path d="M460.757813,156.449219 C460.757813,156.449219 507.042969,156.449219 532.210938,256.117188 C605.667969,245.824219 660.863281,299.898438 666.277344,355.320312 C675.133894,445.981734 579.109375,475.4375 579.109375,475.4375" id="Path-91" stroke="#2684FF" stroke-width="19" stroke-linecap="round" stroke-linejoin="round"></path>
        <path d="M280.653482,437.463751 C267.58544,446.624156 251.670518,452 234.5,452 C190.041078,452 154,415.958922 154,371.5 C154,340.800883 171.184293,314.115373 196.458452,300.537897 C188.568339,288.089968 184,273.328481 184,257.5 C184,213.041078 220.041078,177 264.5,177 C280.444082,177 295.305529,181.635312 307.810262,189.631857 C330.727876,153.206562 371.287065,129 417.5,129 C481.51865,129 534.687489,175.453564 545.13744,236.491616 C548.881611,236.166144 552.671403,236 556.5,236 C628.020875,236 686,293.979125 686,365.5 C686,437.020875 628.020875,495 556.5,495 C535.424357,495 515.524615,489.965368 497.937858,481.033189 C474.265709,506.829267 440.271293,523 402.5,523 C346.413189,523 298.654185,487.344419 280.653482,437.463751 Z" id="Combined-Shape-Copy-52" stroke="#000000" stroke-width="24" stroke-linecap="round" stroke-linejoin="round" stroke-dasharray="9,42,519,42"></path>
        <path d="M540.003664,359.870968 C540.001226,359.769113 540,359.666958 540,359.564516 C540,352.625325 545.625325,347 552.564516,347 C559.503707,347 565.129032,352.625325 565.129032,359.564516 C565.129032,359.666958 565.127806,359.769113 565.125368,359.870968 L565.129032,359.870968 L565.129032,359.874632 C565.230887,359.872194 565.333042,359.870968 565.435484,359.870968 C572.374675,359.870968 578,365.496293 578,372.435484 C578,379.374675 572.374675,385 565.435484,385 C565.333042,385 565.230887,384.998774 565.129032,384.996336 L565.129032,385 L540,385 L540,359.870968 L540.003664,359.870968 Z" id="Combined-Shape-Copy-5" fill="#FF0019"></path>
        <path d="M243.003664,318.870968 C243.001226,318.769113 243,318.666958 243,318.564516 C243,311.625325 248.625325,306 255.564516,306 C262.503707,306 268.129032,311.625325 268.129032,318.564516 C268.129032,318.666958 268.127806,318.769113 268.125368,318.870968 L268.129032,318.870968 L268.129032,318.874632 C268.230887,318.872194 268.333042,318.870968 268.435484,318.870968 C275.374675,318.870968 281,324.496293 281,331.435484 C281,338.374675 275.374675,344 268.435484,344 C268.333042,344 268.230887,343.998774 268.129032,343.996336 L268.129032,344 L243,344 L243,318.870968 L243.003664,318.870968 Z" id="Combined-Shape-Copy-6" fill="#FF0019" transform="translate(262.000000, 325.000000) scale(-1, 1) translate(-262.000000, -325.000000) "></path>
        <use id="Rectangle-1-Copy-2" stroke="#000000" mask="url(#mask-2)" stroke-width="38" stroke-linecap="round" stroke-linejoin="round" stroke-dasharray="1,1,1" fill="#FFFFFF" transform="translate(397.330635, 408.977391) rotate(9.000000) translate(-397.330635, -408.977391) " xlink:href="#path-1"></use>
        <polygon id="Triangle-1-Copy-6" stroke="#000000" stroke-width="14" stroke-linecap="round" stroke-linejoin="round" stroke-dasharray="1,1,1" fill="#FFFFFF" transform="translate(485.024364, 300.024364) rotate(9.000000) translate(-485.024364, -300.024364) " points="504.274364 319.274364 465.774364 319.274364 485.024364 280.774364"></polygon>
        <polygon id="Triangle-1-Copy-16" stroke="#000000" stroke-width="14" stroke-linecap="round" stroke-linejoin="round" stroke-dasharray="1,1,1" fill="#FFFFFF" transform="translate(350.024364, 281.024364) rotate(9.000000) translate(-350.024364, -281.024364) " points="369.274364 300.274364 330.774364 300.274364 350.024364 261.774364"></polygon>
        <path d="M224.5,58 C229.746705,58 234,53.7467051 234,48.5 C234,43.2532949 229.746705,39 224.5,39 C219.253295,39 215,43.2532949 215,48.5 C215,53.7467051 219.253295,58 224.5,58 Z" id="Oval-186" stroke="#FFDC00" stroke-width="9"></path>
        <path d="M717.349242,271 C722.595948,271 726.849242,266.746705 726.849242,261.5 C726.849242,256.253295 722.595948,252 717.349242,252 C712.102537,252 707.849242,256.253295 707.849242,261.5 C707.849242,266.746705 712.102537,271 717.349242,271 Z" id="Oval-186-Copy" stroke="#F6A623" stroke-width="9"></path>
        <path d="M292,122 C296.970563,122 301,117.970563 301,113 C301,108.029437 296.970563,104 292,104 C287.029437,104 283,108.029437 283,113 C283,117.970563 287.029437,122 292,122 Z" id="Oval-186-Copy-2" fill="#7ED321"></path>
        <path d="M105.5,279 C111.851275,279 117,273.851275 117,267.5 C117,261.148725 111.851275,256 105.5,256 C99.1487254,256 94,261.148725 94,267.5 C94,273.851275 99.1487254,279 105.5,279 Z" id="Oval-186-Copy-7" fill="#2684FF"></path>
        <path d="M598,79 C600.761424,79 603,76.7614237 603,74 C603,71.2385763 600.761424,69 598,69 C595.238576,69 593,71.2385763 593,74 C593,76.7614237 595.238576,79 598,79 Z" id="Oval-186-Copy-8" fill="#2684FF"></path>
        <path d="M659.5,109 C664.746705,109 669,104.746705 669,99.5 C669,94.2532949 664.746705,90 659.5,90 C654.253295,90 650,94.2532949 650,99.5 C650,104.746705 654.253295,109 659.5,109 Z" id="Oval-186-Copy-3" fill="#FFDC00"></path>
        <path d="M210.5,143 C212.985281,143 215,140.985281 215,138.5 C215,136.014719 212.985281,134 210.5,134 C208.014719,134 206,136.014719 206,138.5 C206,140.985281 208.014719,143 210.5,143 Z" id="Oval-186-Copy-4" fill="#E6E6E6"></path>
        <path d="M771.5,300 C773.985281,300 776,297.985281 776,295.5 C776,293.014719 773.985281,291 771.5,291 C769.014719,291 767,293.014719 767,295.5 C767,297.985281 769.014719,300 771.5,300 Z" id="Oval-186-Copy-25" fill="#E6E6E6"></path>
        <path d="M559,146 C562.865993,146 566,142.865993 566,139 C566,135.134007 562.865993,132 559,132 C555.134007,132 552,135.134007 552,139 C552,142.865993 555.134007,146 559,146 Z" id="Oval-186-Copy-5" stroke="#FF0019" stroke-width="9"></path>
        <path d="M44,176 C47.8659932,176 51,172.865993 51,169 C51,165.134007 47.8659932,162 44,162 C40.1340068,162 37,165.134007 37,169 C37,172.865993 40.1340068,176 44,176 Z" id="Oval-186-Copy-24" stroke="#E6E6E6" stroke-width="9"></path>
        <g id="Group" transform="translate(111.000000, 171.000000)" stroke="#F6A623" stroke-width="9" stroke-linecap="round" stroke-linejoin="round">
            <path d="M14.5,0.5 L14.5,29.5" id="Line"></path>
            <path d="M29,15 L0,15" id="Line-Copy"></path>
        </g>
        <g id="Group-Copy" transform="translate(697.424621, 171.424621) rotate(-315.000000) translate(-697.424621, -171.424621) translate(692.424621, 165.924621)" stroke="#E6E6E6" stroke-width="9" stroke-linecap="round" stroke-linejoin="round">
            <path d="M4.85762206,0.167504209 L4.85762206,9.88274832" id="Line"></path>
            <path d="M9.71524411,5.02512627 L-4.54747351e-13,5.02512627" id="Line-Copy"></path>
        </g>
        <g id="Group-Copy-2" transform="translate(758.435029, 196.435029) rotate(-315.000000) translate(-758.435029, -196.435029) translate(748.935029, 186.935029)" stroke="#7ED321" stroke-width="9" stroke-linecap="round" stroke-linejoin="round">
            <path d="M9.5,0.316666667 L9.5,18.6833333" id="Line"></path>
            <path d="M19,9.5 L0,9.5" id="Line-Copy"></path>
        </g>
        <g id="Group-Copy-12" transform="translate(626.435029, 184.435029) rotate(-315.000000) translate(-626.435029, -184.435029) translate(616.935029, 174.935029)" stroke="#2684FF" stroke-width="9" stroke-linecap="round" stroke-linejoin="round">
            <path d="M9.5,0.316666667 L9.5,18.6833333" id="Line"></path>
            <path d="M19,9.5 L0,9.5" id="Line-Copy"></path>
        </g>
        <g id="Group-Copy-3" transform="translate(156.435029, 106.435029) rotate(-315.000000) translate(-156.435029, -106.435029) translate(146.935029, 96.935029)" stroke="#2684FF" stroke-width="9" stroke-linecap="round" stroke-linejoin="round">
            <path d="M9.5,0.316666667 L9.5,18.6833333" id="Line"></path>
            <path d="M19,9.5 L0,9.5" id="Line-Copy"></path>
        </g>
        <path d="M163,522.66424 L258.252699,484" id="Line" stroke="#E6E6E6" stroke-width="9" stroke-linecap="round" stroke-linejoin="round" stroke-dasharray="1,21,14,29"></path>
        <path d="M201,551.66424 L296.252699,513" id="Line-Copy-2" stroke="#E6E6E6" stroke-width="11" stroke-linecap="round" stroke-linejoin="round" stroke-dasharray="1,21,14,29"></path>
        <path d="M28,443.66424 L123.252699,405" id="Line-Copy-3" stroke="#E6E6E6" stroke-width="9" stroke-linecap="round" stroke-linejoin="round" stroke-dasharray="1,21,14,29"></path>
        <path d="M49,480.66424 L144.252699,442" id="Line-Copy-4" stroke="#E6E6E6" stroke-width="11" stroke-linecap="round" stroke-linejoin="round" stroke-dasharray="1,21,14,29"></path>
        <path d="M87,511.66424 L182.252699,473" id="Line-Copy-5" stroke="#E6E6E6" stroke-width="9" stroke-linecap="round" stroke-linejoin="round" stroke-dasharray="1,21,14,29"></path>
    </g>
</svg>