<?xml version="1.0" encoding="UTF-8"?>
<svg width="86px" height="70px" viewBox="0 0 86 70" version="1.1" xmlns="http://www.w3.org/2000/svg" xmlns:xlink="http://www.w3.org/1999/xlink">
    <!-- Generator: sketchtool 52.2 (67145) - http://www.bohemiancoding.com/sketch -->
    <title>87C0A4B7-47B9-4431-BD71-CB5DEC14027C</title>
    <desc>Created with sketchtool.</desc>
    <defs>
        <linearGradient x1="0%" y1="99.9890579%" x2="50%" y2="49.9945289%" id="linearGradient-1">
            <stop stop-color="#FFFFFF" offset="0%"></stop>
            <stop stop-color="#BEC7CE" offset="100%"></stop>
        </linearGradient>
        <linearGradient x1="50%" y1="0%" x2="50%" y2="100%" id="linearGradient-2">
            <stop stop-color="#14AFFF" offset="0%"></stop>
            <stop stop-color="#0061FF" offset="100%"></stop>
        </linearGradient>
        <linearGradient x1="50%" y1="114.778733%" x2="50%" y2="20.7677439%" id="linearGradient-3">
            <stop stop-color="#F4E113" offset="0%"></stop>
            <stop stop-color="#F49D1A" offset="100%"></stop>
        </linearGradient>
        <path d="M17.97,69.94 C8.04544305,69.94 -1.58806301e-12,61.894557 -1.58806301e-12,51.97 C-1.58806301e-12,42.045443 8.04544305,34 17.97,34 C27.894557,34 35.94,42.045443 35.94,51.97 C35.94,61.894557 27.894557,69.94 17.97,69.94 Z M26.187797,49.4478034 L21.3829368,44.6429433 L9.67716479,56.3487153 L14.4820249,61.1535755 L26.187797,49.4478034 Z M27.0443169,48.5912835 L28.7573567,46.8782437 C29.0727186,46.5628818 28.937241,45.9161015 28.454759,45.4336195 L25.3971207,42.3759813 C24.9146387,41.8934993 24.2678585,41.7580217 23.9524965,42.0733836 L22.2394567,43.7864234 L27.0443169,48.5912835 Z M13.3300671,61.7146575 L9.11608275,57.5006731 L8.04970236,61.5597661 C8.00594253,61.7263344 8.00594253,61.9013811 8.04970236,62.0679495 C8.19003335,62.6021083 8.73681538,62.9213689 9.27097421,62.7810379 L13.3300671,61.7146575 Z" id="path-4"></path>
    </defs>
    <g id="Page-1" stroke="none" stroke-width="1" fill="none" fill-rule="evenodd">
        <g id="whitepaper_v3_website_alt1" transform="translate(-1038.000000, -837.000000)">
            <g id="icon-contribute-project" transform="translate(1038.000000, 837.000000)">
                <g id="Group-44" transform="translate(31.000000, 0.000000)">
                    <polygon id="Path" fill="url(#linearGradient-1)" points="54.9620526 17.7803739 37.197795 0 36.3174603 18.7259037"></polygon>
                    <path d="M37.2019933,-1.46896384e-14 L37.2019933,15.0648548 C37.2019933,16.5625569 38.4150241,17.7766843 39.9113734,17.7766843 L54.9626216,17.7766843 C54.9626216,30.5839735 54.9626216,40.3561071 54.9626216,47.0930851 C54.9626216,49.6534114 54.9626216,53.1517298 54.9626216,57.5880404 C54.9626216,58.6669241 54.9626216,61.0767372 54.9626216,64.8174796 C54.9626216,67.1274218 53.0917348,69 50.7838789,69 C46.2412921,69 42.834352,69 40.5630586,69 C32.505191,69 20.3770858,69 4.17874272,69 C1.87133122,68.9989266 0.00107246659,67.1269771 -4.53681537e-12,64.8174796 L-4.53681537e-12,4.18252038 C0.00107246659,1.87302294 1.87133122,0.00107343612 4.17874272,-1.46896384e-14 L37.2019933,-1.46896384e-14 Z M14.0345483,35.0058031 L20.5646762,28.4756753 C21.0350879,28.0052635 21.0350879,27.2425754 20.5646762,26.7721636 C20.0942644,26.3017519 19.3315763,26.3017519 18.8611646,26.7721636 L11.4792809,34.1540473 C11.0088692,34.6244591 11.0088692,35.3871472 11.4792809,35.8575589 L18.8611646,43.2394426 C19.3315763,43.7098544 20.0942644,43.7098544 20.5646762,43.2394426 C21.0350879,42.7690309 21.0350879,42.0063427 20.5646762,41.535931 L14.0345483,35.0058031 Z M32.5128969,41.535931 C32.0424852,42.0063427 32.0424852,42.7690309 32.5128969,43.2394426 C32.9833086,43.7098544 33.7459968,43.7098544 34.2164085,43.2394426 L41.5982922,35.8575589 C42.0687039,35.3871472 42.0687039,34.6244591 41.5982922,34.1540473 L34.2164085,26.7721636 C33.7459968,26.3017519 32.9833086,26.3017519 32.5128969,26.7721636 C32.0424852,27.2425754 32.0424852,28.0052635 32.5128969,28.4756753 L39.0430248,35.0058031 L32.5128969,41.535931 Z" id="Combined-Shape" fill="url(#linearGradient-2)" fill-rule="nonzero"></path>
                </g>
                <g id="Combined-Shape">
                    <use fill="url(#linearGradient-3)" xlink:href="#path-4"></use>
                    <use fill-opacity="0.5" fill="#974E4E" style="mix-blend-mode: overlay;" xlink:href="#path-4"></use>
                </g>
            </g>
        </g>
    </g>
</svg>