<?xml version="1.0" encoding="UTF-8" standalone="no"?>
<svg width="31px" height="33px" viewBox="0 0 31 33" version="1.1" xmlns="http://www.w3.org/2000/svg" xmlns:xlink="http://www.w3.org/1999/xlink" xmlns:sketch="http://www.bohemiancoding.com/sketch/ns">
    <!-- Generator: Sketch 3.4.2 (15855) - http://www.bohemiancoding.com/sketch -->
    <title>Ubuntu</title>
    <desc>Created with Sketch.</desc>
    <defs></defs>
    <g id="Page-1" stroke="none" stroke-width="1" fill="none" fill-rule="evenodd" sketch:type="MSPage">
        <path d="M6.69448336,16.2591769 C6.69448336,17.6824635 5.5410272,18.8363892 4.1177406,18.8363892 C2.69345616,18.8363892 1.54,17.6824635 1.54,16.2591769 C1.54,14.8358316 2.69345616,13.6814363 4.1177406,13.6814363 C5.5410272,13.6814363 6.69448336,14.8358316 6.69448336,16.2591769 L6.69448336,16.2591769 Z M19.608162,9.09122992 C22.6645185,9.09122992 25.1830338,11.3925073 25.5267051,14.3570029 L29.531078,14.2353239 C29.3536368,12.0485645 28.469835,10.0615512 27.1081216,8.50290917 C26.5230879,8.91707571 25.8088619,9.16037507 25.0382281,9.16037507 C23.0587867,9.16037507 21.4551827,7.5562428 21.4551827,5.5777406 C21.4551827,5.47267284 21.4594089,5.36995297 21.46792,5.26817225 C20.8653359,5.15412384 20.2438513,5.09401803 19.608162,5.09401803 C18.0158865,5.09401803 16.5112458,5.46838796 15.1768852,6.1329562 L17.1559157,9.61803614 C17.9042447,9.2801171 18.7340452,9.09122992 19.608162,9.09122992 L19.608162,9.09122992 Z M28.6150295,3.5777406 C28.6150295,2.15398443 27.4615147,1 26.0382281,1 C24.6144719,1 23.4609571,2.15398443 23.4609571,3.5777406 C23.4609571,5.0010272 24.6144719,6.15454205 26.0382281,6.15454205 C27.4615147,6.15454205 28.6150295,5.0010272 28.6150295,3.5777406 Z M26.1721161,26.4977585 C24.7488295,26.4977585 23.595432,27.6517429 23.595432,29.0750295 C23.595432,30.4987857 24.7488295,31.6527701 26.1721161,31.6527701 C27.5959897,31.6527701 28.7498567,30.4987857 28.7498567,29.0750295 C28.7498567,27.6517429 27.5959897,26.4977585 26.1721161,26.4977585 L26.1721161,26.4977585 Z M11.64947,16.0504501 C11.64947,14.1462584 12.5421938,12.4503239 13.9327861,11.3592628 L11.8075413,7.95847182 C10.0269069,9.23689404 8.6855027,11.0885519 8.05315915,13.2431453 C9.0443179,13.8807129 9.70031638,14.993492 9.70031638,16.2592356 C9.70031638,17.4784325 9.09162774,18.555289 8.16157264,19.2023655 C8.84222389,21.243791 10.1666059,22.9918484 11.8937086,24.2044712 L13.8689237,20.6900428 C12.5151932,19.5975142 11.64947,17.9257629 11.64947,16.0504501 L11.64947,16.0504501 Z M26.8330671,23.8994593 C28.376624,22.2707329 29.3767634,20.122244 29.54,17.7433691 L25.5356271,17.6643041 C25.2280544,20.6670702 22.6914605,23.0091421 19.608162,23.0091421 C18.7534152,23.0091421 17.9411651,22.828766 17.2061017,22.5045233 L15.2157427,25.9872554 C16.5405943,26.6400255 18.0316173,27.0068235 19.6082207,27.0068235 C20.2898698,27.0068235 20.9558467,26.9372088 21.5995775,26.8070774 C21.736283,24.9531304 23.2836552,23.4919255 25.1721161,23.4919255 C25.7713545,23.4919255 26.3370182,23.639666 26.8330671,23.8994593 Z" id="Ubuntu" stroke="#FFFFFF" stroke-width="2" sketch:type="MSShapeGroup"></path>
    </g>
</svg>