<?xml version="1.0" encoding="UTF-8" standalone="no"?>
<svg width="27px" height="34px" viewBox="0 0 27 34" version="1.1" xmlns="http://www.w3.org/2000/svg" xmlns:xlink="http://www.w3.org/1999/xlink" xmlns:sketch="http://www.bohemiancoding.com/sketch/ns">
    <!-- Generator: Sketch 3.4.2 (15855) - http://www.bohemiancoding.com/sketch -->
    <title>Apple</title>
    <desc>Created with Sketch.</desc>
    <defs></defs>
    <g id="Page-1" stroke="none" stroke-width="1" fill="none" fill-rule="evenodd" sketch:type="MSPage">
        <path d="M25.2669955,26.2034848 C24.8361,27.1989414 24.3260604,28.1152538 23.735118,28.9576985 C22.9296072,30.1061669 22.2700733,30.9011252 21.7617925,31.3425732 C20.9738693,32.0671812 20.1296658,32.4382789 19.2256647,32.459384 C18.5766833,32.459384 17.7940363,32.2747145 16.8830001,31.9000992 C15.9689741,31.5272427 15.1289916,31.3425732 14.3609424,31.3425732 C13.5554316,31.3425732 12.6915301,31.5272427 11.7674791,31.9000992 C10.8420211,32.2747145 10.096484,32.4699365 9.52647076,32.4892829 C8.65957936,32.5262168 7.79550198,32.1445665 6.93300747,31.3425732 C6.38251649,30.8624325 5.69396307,30.0393342 4.86910597,28.8732782 C3.98409937,27.6280781 3.25650154,26.1841385 2.68648835,24.5379418 C2.07602374,22.7598383 1.77,21.0380151 1.77,19.3710651 C1.77,17.4615824 2.18260443,15.8146823 3.00904441,14.4345855 C3.65855342,13.3260409 4.52263081,12.4515868 5.60409058,11.8096405 C6.68555034,11.1676941 7.85406859,10.8405653 9.11245933,10.8196361 C9.80101275,10.8196361 10.7039587,11.0326216 11.8260457,11.4512058 C12.944967,11.871197 13.6634193,12.0841825 13.9784127,12.0841825 C14.2139103,12.0841825 15.0120343,11.8351425 16.3650462,11.3386453 C17.644542,10.8782027 18.7244189,10.6875534 19.6090737,10.7626524 C22.0062597,10.9561156 23.807227,11.9010959 25.0049406,13.6035728 C22.8610157,14.9025908 21.8004851,16.7220251 21.8215902,19.0560717 C21.8409365,20.8740989 22.5004705,22.3869818 23.7966745,23.588213 C24.3840994,24.145739 25.0401158,24.5766345 25.77,24.8826582 C25.6117119,25.3416938 25.4446299,25.7813831 25.2669955,26.2034848 L25.2669955,26.2034848 Z M19.7691206,2.56901319 C19.7691206,3.99397582 19.2485285,5.32445801 18.2108618,6.55593976 C16.9586267,8.01992921 15.4439851,8.8658914 13.8014818,8.73240173 C13.7805525,8.56145053 13.7684171,8.38152968 13.7684171,8.19246329 C13.7684171,6.82450198 14.3639323,5.36051253 15.421473,4.16350242 C15.9494519,3.55743471 16.6209453,3.05349802 17.4352499,2.6514989 C18.2477957,2.25549714 19.0163726,2.0364967 19.7392217,1.999 C19.7603268,2.18949099 19.7691206,2.37999956 19.7691206,2.5689956 L19.7691206,2.56901319 Z" id="Apple" stroke="#FFFFFF" stroke-width="2" sketch:type="MSShapeGroup"></path>
    </g>
</svg>