<?xml version="1.0" encoding="UTF-8" standalone="no"?>
<svg width="24px" height="28px" viewBox="0 0 24 28" version="1.1" xmlns="http://www.w3.org/2000/svg" xmlns:xlink="http://www.w3.org/1999/xlink">
    <!-- Generator: Sketch 40 (33762) - http://www.bohemiancoding.com/sketch -->
    <title>icon-community</title>
    <desc>Created with Sketch.</desc>
    <defs></defs>
    <g id="Page-1" stroke="none" stroke-width="1" fill="none" fill-rule="evenodd">
        <g id="icon-community" transform="translate(1.000000, 1.000000)">
            <g id="Page-1">
                <g id="Group-Copy">
                    <path d="M6.5,16.9985 C6.5,18.3795 5.381,19.4985 4,19.4985 C2.618,19.4985 1.5,18.3795 1.5,16.9985 C1.5,15.6175 2.618,14.4985 4,14.4985 C5.381,14.4985 6.5,15.6175 6.5,16.9985 L6.5,16.9985 L6.5,16.9985 Z" id="Stroke-1788" stroke="#1A5BB0"></path>
                    <path d="M5.5781,23.4985 L0.0001,23.4985 C0.0001,21.2905 1.7901,19.4985 4.0001,19.4985 C5.3251,19.4985 6.4991,20.1425 7.2261,21.1345" id="Stroke-1789" stroke="#1A5BB0"></path>
                    <path d="M20.5,16.9985 C20.5,18.3795 19.381,19.4985 18,19.4985 C16.618,19.4985 15.5,18.3795 15.5,16.9985 C15.5,15.6175 16.618,14.4985 18,14.4985 C19.381,14.4985 20.5,15.6175 20.5,16.9985 L20.5,16.9985 L20.5,16.9985 Z" id="Stroke-1790" stroke="#1A5BB0"></path>
                    <path d="M14.7715,21.1357 C15.4985,20.1437 16.6735,19.4987 18.0005,19.4987 C20.2105,19.4987 22.0005,21.2897 22.0005,23.4987 L16.4215,23.4987" id="Stroke-1791" stroke="#1A5BB0"></path>
                    <path d="M14.6113,16.124 C14.6113,18.119 12.9943,19.735 11.0003,19.735 C9.0043,19.735 7.3883,18.119 7.3883,16.124 C7.3883,14.13 9.0043,12.513 11.0003,12.513 C12.9943,12.513 14.6113,14.13 14.6113,16.124 L14.6113,16.124 L14.6113,16.124 Z" id="Stroke-1792" stroke="#2684FF"></path>
                    <path d="M16.7773,25.5132 L5.2223,25.5132 C5.2223,22.3222 7.8073,19.7352 11.0003,19.7352 C14.1913,19.7352 16.7773,22.3222 16.7773,25.5132 L16.7773,25.5132 L16.7773,25.5132 Z" id="Stroke-1796" stroke="#2684FF"></path>
                    <path d="M14.4137644,9.49999626 L15.4470269,9.49999626 C15.4470269,9.49999626 18.5,9.10318778 18.5,6.10706084 C18.5,4.20884499 16.9328294,2.64947684 14.9855698,2.72192783 C14.2242772,1.11463056 12.592458,0 10.6975861,0 C8.16960398,0 6.1097667,1.97623998 5.96263547,4.46521002 C4.37986007,4.13305011 2.89517217,5.34019501 2.89517217,6.95529469 C2.89517217,9.54012296 5.60929758,9.49999626 5.60929758,9.49999626 L6.96134445,9.49999626 L14.4137644,9.49999626 L14.4137644,9.49999626 L14.4137644,9.49999626 Z" id="Stroke-525" stroke="#2684FF"></path>
                </g>
            </g>
        </g>
    </g>
</svg>