<?xml version="1.0" encoding="UTF-8" standalone="no"?>
<svg width="24px" height="24px" viewBox="0 0 24 24" version="1.1" xmlns="http://www.w3.org/2000/svg" xmlns:xlink="http://www.w3.org/1999/xlink" xmlns:sketch="http://www.bohemiancoding.com/sketch/ns">
    <!-- Generator: Sketch 3.4.2 (15855) - http://www.bohemiancoding.com/sketch -->
    <title>icon-users</title>
    <desc>Created with Sketch.</desc>
    <defs></defs>
    <g id="Page-1" stroke="none" stroke-width="1" fill="none" fill-rule="evenodd" sketch:type="MSPage">
        <g id="icon-users" sketch:type="MSLayerGroup">
            <g id="Page-1" sketch:type="MSShapeGroup">
                <g id="Group">
                    <path d="M5,23.5 L11,23.5" id="Stroke-446" stroke="#1A5BB0"></path>
                    <path d="M8,21.5 L8,23.477" id="Stroke-447" stroke="#1A5BB0"></path>
                    <path d="M0.5,19.5 L15.5,19.5" id="Stroke-448" stroke="#1A5BB0"></path>
                    <path d="M8.5,10.5 L8.5,7.75 C8.5,5.677 10.178,4 12.25,4 L14,4" id="Stroke-449" stroke="#2684FF"></path>
                    <path d="M10.5,8.5 L8.5,10.5 L6.5,8.5" id="Stroke-450" stroke="#2684FF"></path>
                    <path d="M12.5,11.5 L14,11.5 C14.828,11.5 15.5,12.17 15.5,13 L15.5,20 C15.5,20.827 14.828,21.5 14,21.5 L2,21.5 C1.17,21.5 0.5,20.827 0.5,20 L0.5,13 C0.5,12.17 1.17,11.5 2,11.5 L3.5,11.5" id="Stroke-451" stroke="#1A5BB0"></path>
                    <path d="M12.5,2.5 L14,4 L12.5,5.5" id="Stroke-452" stroke="#2684FF"></path>
                    <path d="M12,8.5 L20.761,8.5 C20.761,8.5 23.5,8.165 23.5,5.642 C23.5,4.044 22.094,2.73 20.347,2.791 C19.664,1.437 18.2,0.5 16.5,0.5 C15.618,0.5 14.8,0.75 14.122,1.181" id="Stroke-453" stroke="#2684FF"></path>
                </g>
            </g>
        </g>
    </g>
</svg>