<?xml version="1.0" encoding="UTF-8" standalone="no"?>
<svg width="25px" height="24px" viewBox="0 0 25 24" version="1.1" xmlns="http://www.w3.org/2000/svg" xmlns:xlink="http://www.w3.org/1999/xlink" xmlns:sketch="http://www.bohemiancoding.com/sketch/ns">
    <!-- Generator: Sketch 3.4.2 (15855) - http://www.bohemiancoding.com/sketch -->
    <title>Slice 1</title>
    <desc>Created with Sketch.</desc>
    <defs></defs>
    <g id="Page-1" stroke="none" stroke-width="1" fill="none" fill-rule="evenodd" sketch:type="MSPage">
        <g id="icon-api" sketch:type="MSLayerGroup">
            <g id="Page-1" sketch:type="MSShapeGroup">
                <g id="Group">
                    <path d="M0.5,4.5 L20.5,4.5" id="Stroke-281" stroke="#2684FF"></path>
                    <path d="M3.5,2 C3.224,2 3,2.224 3,2.5 C3,2.776 3.224,3 3.5,3 C3.776,3 4,2.776 4,2.5 C4,2.224 3.776,2 3.5,2" id="Fill-282" fill="#2684FF"></path>
                    <path d="M5.5,2 C5.224,2 5,2.224 5,2.5 C5,2.776 5.224,3 5.5,3 C5.776,3 6,2.776 6,2.5 C6,2.224 5.776,2 5.5,2" id="Fill-283" fill="#2684FF"></path>
                    <path d="M7.5,2 C7.224,2 7,2.224 7,2.5 C7,2.776 7.224,3 7.5,3 C7.776,3 8,2.776 8,2.5 C8,2.224 7.776,2 7.5,2" id="Fill-284" fill="#2684FF"></path>
                    <path d="M9.5,16.5 L2.5,16.5 C1.397,16.5 0.5,15.605 0.5,14.5 L0.5,2.5 C0.5,1.395 1.397,0.5 2.5,0.5 L18.5,0.5 C19.604,0.5 20.5,1.395 20.5,2.5 L20.5,10.5" id="Stroke-285" stroke="#2684FF"></path>
                    <path d="M16.5,13.7617 C16,13.9477 15.486,14.2267 15.072,14.5807 L13.977,13.9507 L12.476,16.5487 L13.565,17.1797 C13.517,17.4457 13.486,17.7187 13.486,17.9997 C13.486,18.2817 13.516,18.5547 13.565,18.8207 L12.474,19.4507 L13.974,22.0487 L15.072,21.4187 C15.486,21.7747 16,22.0527 16.5,22.2387 L16.5,23.4997 L19.5,23.4997 L19.5,22.2387 C20,22.0527 20.5,21.7747 20.915,21.4187 L22.003,22.0487 L23.502,19.4507 L22.409,18.8207 C22.459,18.5547 22.486,18.2817 22.486,17.9997 C22.486,17.7187 22.458,17.4457 22.408,17.1797 L23.5,16.5487 L22,13.9507 L20.915,14.5807 C20.5,14.2267 20,13.9477 19.5,13.7617 L19.5,12.4997 L16.5,12.4997 L16.5,13.7617 L16.5,13.7617 L16.5,13.7617 Z" id="Stroke-286" stroke="#1A5BB0"></path>
                    <path d="M19.9863,18 C19.9863,19.105 19.0903,20 17.9863,20 C16.8823,20 15.9863,19.105 15.9863,18 C15.9863,16.895 16.8823,16 17.9863,16 C19.0903,16 19.9863,16.895 19.9863,18 L19.9863,18 L19.9863,18 Z" id="Stroke-287" stroke="#1A5BB0"></path>
                </g>
            </g>
        </g>
    </g>
</svg>