<?xml version="1.0" encoding="UTF-8" standalone="no"?>
<svg width="25px" height="24px" viewBox="0 0 25 24" version="1.1" xmlns="http://www.w3.org/2000/svg" xmlns:xlink="http://www.w3.org/1999/xlink" xmlns:sketch="http://www.bohemiancoding.com/sketch/ns">
    <!-- Generator: Sketch 3.4.2 (15855) - http://www.bohemiancoding.com/sketch -->
    <title>icon-storage</title>
    <desc>Created with Sketch.</desc>
    <defs></defs>
    <g id="Page-1" stroke="none" stroke-width="1" fill="none" fill-rule="evenodd" sketch:type="MSPage">
        <g id="icon-storage" sketch:type="MSLayerGroup">
            <g id="Page-1" sketch:type="MSShapeGroup">
                <g id="Group">
                    <path d="M19.1514,14.4727 C19.1514,14.4727 23.5004,13.9137 23.5004,9.4997 C23.5004,6.7037 21.1904,4.4027 18.3204,4.5077 C17.1984,2.1407 14.7934,0.4997 12.0004,0.4997 C8.2744,0.4997 5.2384,3.4097 5.0214,7.0797 C2.6874,6.5917 0.5004,8.3697 0.5004,10.7497 C0.5004,14.5587 4.3354,14.4937 4.3354,14.4937" id="Stroke-302" stroke="#2684FF"></path>
                    <path d="M21.5,21 C21.5,22.381 20.381,23.5 19,23.5 L5,23.5 C3.619,23.5 2.5,22.381 2.5,21 L2.5,18.5 L21.5,18.5 L21.5,21 L21.5,21 L21.5,21 Z" id="Stroke-303" stroke="#1A5BB0"></path>
                    <path d="M2.5,18 L4.833,13.408 C5.063,12.908 5.7,12.5 6.25,12.5 L17,12.5 C17.55,12.5 18.227,12.889 18.504,13.363 L21.5,18 L21.5,18.5 L2.5,18.5 L2.5,18 Z" id="Stroke-304" stroke="#1A5BB0"></path>
                    <path d="M15,21.5 L18,21.5" id="Stroke-305" stroke="#1A5BB0"></path>
                </g>
            </g>
        </g>
    </g>
</svg>