<?xml version="1.0" encoding="UTF-8"?>
<svg width="25px" height="22px" viewBox="0 0 25 22" version="1.1" xmlns="http://www.w3.org/2000/svg" xmlns:xlink="http://www.w3.org/1999/xlink">
    <!-- Generator: Sketch 43.2 (39069) - http://www.bohemiancoding.com/sketch -->
    <title>icon-telegram</title>
    <desc>Created with Sketch.</desc>
    <defs></defs>
    <g id="Page-1" stroke="none" stroke-width="1" fill="none" fill-rule="evenodd">
        <g id="icon-telegram" transform="translate(1.000000, 1.000000)" fill-rule="nonzero">
            <path d="M21.4471611,0.132242727 L1.07372086,8.27926616 C-0.316799225,8.85768355 -0.308552736,9.66177285 0.820266778,10.0203224 L5.9014643,11.6645838 L7.84564971,17.844486 C8.08200558,18.5208747 7.96549232,18.7891403 8.65057682,18.7891403 C9.17927561,18.7891403 9.41381612,18.5392305 9.70827735,18.241001 C9.8955307,18.0510197 11.0073261,16.9303451 12.2487252,15.6789914 L17.5341238,19.7276765 C18.5067083,20.2839728 19.2089668,19.9957841 19.4511485,18.7911797 L22.9206025,1.84058974 C23.2758174,0.364112092 22.3776796,-0.305609615 21.4471611,0.132242727 Z" id="path9" stroke="#1A5BB0"></path>
            <path d="M18.1519481,3.79531697 C18.7236958,3.43582635 19.2479305,3.62910277 18.8175113,4.025225 L9.01070878,13.1987935 L8.5,17 L6.69890075,11.2868167 L18.1519481,3.79531697 Z" id="path9-copy" stroke="#2684FF"></path>
        </g>
    </g>
</svg>