<svg xmlns="http://www.w3.org/2000/svg" xmlns:xlink="http://www.w3.org/1999/xlink" viewBox="0 0 1187.41 883.15"><defs><style>.cls-1,.cls-12,.cls-16,.cls-17,.cls-19,.cls-21,.cls-7,.cls-8{fill:none;stroke-miterlimit:10;}.cls-1,.cls-16,.cls-17{stroke-width:1.09px;stroke-dasharray:9.84 5.46;}.cls-1,.cls-16,.cls-17,.cls-7{opacity:0.6;}.cls-1{stroke:url(#linear-gradient);}.cls-2,.cls-23{fill:#fff;}.cls-3{fill:url(#linear-gradient-2);}.cls-4{fill:url(#linear-gradient-4);}.cls-5{fill:url(#New_Gradient_Swatch_21);}.cls-6{fill:url(#New_Gradient_Swatch_21-2);}.cls-7{stroke-width:1.15px;stroke-dasharray:10.36 5.76;stroke:url(#linear-gradient-5);}.cls-12,.cls-8{stroke:#e4eaed;}.cls-8{stroke-width:1.15px;}.cls-9{fill:url(#New_Gradient_Swatch_20);}.cls-10{fill:url(#linear-gradient-6);}.cls-11{fill:url(#linear-gradient-7);}.cls-12,.cls-19{stroke-width:1.05px;}.cls-13{fill:url(#linear-gradient-8);}.cls-14{fill:url(#New_Gradient_Swatch_21-3);}.cls-15{fill:url(#linear-gradient-9);}.cls-16{stroke:url(#linear-gradient-10);}.cls-17{stroke:url(#linear-gradient-11);}.cls-18{opacity:0.3;}.cls-19,.cls-21{stroke:#122652;}.cls-19{stroke-dasharray:9.84 5.46;}.cls-20{fill:#122652;}.cls-21{stroke-width:1.25px;stroke-dasharray:11.68 6.49;}.cls-22{fill:url(#New_Gradient_Swatch_20-2);}.cls-23{font-size:56.59px;font-family:ProximaNova-Bold, Proxima Nova;font-weight:700;}</style><linearGradient id="linear-gradient" x1="288.84" y1="340.18" x2="288.84" y2="63.63" gradientUnits="userSpaceOnUse"><stop offset="0" stop-color="#10b0ff"/><stop offset="1" stop-color="#005eff"/></linearGradient><linearGradient id="linear-gradient-2" x1="94.4" y1="280.05" x2="94.4" y2="122.72" xlink:href="#linear-gradient"/><linearGradient id="linear-gradient-4" x1="94.4" y1="280.05" x2="94.4" y2="122.72" xlink:href="#linear-gradient"/><linearGradient id="New_Gradient_Swatch_21" x1="483.27" y1="280.05" x2="483.27" y2="122.72" gradientUnits="userSpaceOnUse"><stop offset="0" stop-color="#702aff"/><stop offset="1" stop-color="#c842ff"/></linearGradient><linearGradient id="New_Gradient_Swatch_21-2" x1="483.27" y1="280.05" x2="483.27" y2="122.72" xlink:href="#New_Gradient_Swatch_21"/><linearGradient id="linear-gradient-5" x1="853.28" y1="227.32" x2="853.28" y2="84.53" xlink:href="#linear-gradient"/><linearGradient id="New_Gradient_Swatch_20" x1="1072.61" y1="91.38" x2="1118.3" y2="45.69" gradientUnits="userSpaceOnUse"><stop offset="0" stop-color="#f4e113"/><stop offset="1" stop-color="#f49d1a"/></linearGradient><linearGradient id="linear-gradient-6" x1="871.29" y1="326.4" x2="1135.15" y2="62.54" xlink:href="#linear-gradient"/><linearGradient id="linear-gradient-7" x1="837.59" y1="372.1" x2="960.37" y2="249.32" gradientUnits="userSpaceOnUse"><stop offset="0" stop-color="#10b0ff"/><stop offset="1" stop-color="#08ebbf"/></linearGradient><linearGradient id="linear-gradient-8" x1="484.8" y1="804.03" x2="671.79" y2="617.03" xlink:href="#linear-gradient"/><linearGradient id="New_Gradient_Swatch_21-3" x1="652.79" y1="528.11" x2="790.2" y2="528.11" xlink:href="#New_Gradient_Swatch_21"/><linearGradient id="linear-gradient-9" x1="527.2" y1="849.31" x2="639.94" y2="736.58" xlink:href="#linear-gradient-7"/><linearGradient id="linear-gradient-10" x1="546.63" y1="566.71" x2="616.41" y2="496.94" xlink:href="#linear-gradient"/><linearGradient id="linear-gradient-11" x1="717.24" y1="716.34" x2="802.22" y2="631.36" xlink:href="#linear-gradient"/><linearGradient id="New_Gradient_Swatch_20-2" x1="256.2" y1="234.34" x2="321.47" y2="169.08" xlink:href="#New_Gradient_Swatch_20"/></defs><title>partners</title><g id="Layer_2" data-name="Layer 2"><g id="design"><rect class="cls-1" x="92.3" y="64.18" width="393.07" height="275.46" rx="137.73" ry="137.73"/><circle class="cls-2" cx="483.27" cy="201.38" r="94.4"/><circle class="cls-2" cx="94.4" cy="201.38" r="94.4"/><circle class="cls-3" cx="94.4" cy="201.38" r="78.67"/><path class="cls-3" d="M173.06,201.38A78.67,78.67,0,1,0,46.37,263.67c-.14-1.52-.22-3.05-.22-4.6a48.25,48.25,0,0,1,96.5,0c0,1.55-.08,3.08-.23,4.6A78.53,78.53,0,0,0,173.06,201.38Z"/><path class="cls-2" d="M94.4,210.82a48.25,48.25,0,0,0-48.25,48.25c0,1.55.08,3.08.22,4.6a78.59,78.59,0,0,0,96,0c.15-1.52.23-3.05.23-4.6A48.25,48.25,0,0,0,94.4,210.82Z"/><circle class="cls-2" cx="94.4" cy="178.31" r="26.22"/><path class="cls-4" d="M94.4,135.3a66.08,66.08,0,1,1-66.08,66.08A66.16,66.16,0,0,1,94.4,135.3m0-12.58a78.67,78.67,0,1,0,78.66,78.66A78.67,78.67,0,0,0,94.4,122.72Z"/><circle class="cls-5" cx="483.27" cy="201.38" r="78.67"/><path class="cls-2" d="M483.27,210.82A48.25,48.25,0,0,0,435,259.07c0,1.55.08,3.08.23,4.6a78.59,78.59,0,0,0,96,0c.14-1.52.22-3.05.22-4.6A48.25,48.25,0,0,0,483.27,210.82Z"/><path class="cls-6" d="M483.27,135.3a66.08,66.08,0,1,1-66.08,66.08,66.16,66.16,0,0,1,66.08-66.08m0-12.58a78.67,78.67,0,1,0,78.67,78.66,78.66,78.66,0,0,0-78.67-78.66Z"/><path class="cls-7" d="M868.14,85.1h0A29.13,29.13,0,0,0,839,114.23V227.32"/><path class="cls-8" d="M1095.45,22.75H926.19a21.5,21.5,0,0,0-21.5,21.5V350.79a21.5,21.5,0,0,0,21.5,21.5h239.15a21.5,21.5,0,0,0,21.5-21.5V114.13Z"/><polygon class="cls-9" points="1072.61 91.39 1163.99 91.39 1072.61 0 1072.61 91.39"/><path class="cls-10" d="M1072.61,0H903.34a21.51,21.51,0,0,0-21.5,21.5V328.05a21.51,21.51,0,0,0,21.5,21.5h239.15a21.5,21.5,0,0,0,21.5-21.5V91.38h-77.44a13.94,13.94,0,0,1-13.94-13.94Z"/><rect class="cls-2" x="938.96" y="98.24" width="84.53" height="12.57"/><rect class="cls-2" x="938.96" y="143.93" width="167.92" height="12.57"/><rect class="cls-2" x="938.96" y="189.62" width="167.92" height="12.57"/><rect class="cls-2" x="938.96" y="235.32" width="167.92" height="12.57"/><circle class="cls-11" cx="898.98" cy="310.71" r="86.82"/><path class="cls-2" d="M899,254.7a56,56,0,0,0-20.9,108l13.69-36.8a16.81,16.81,0,1,1,14.41,0l13.7,36.8a56,56,0,0,0-20.9-108Z"/><path class="cls-12" d="M666.89,673.45a54.76,54.76,0,0,0,.59-7.94,54,54,0,0,0-75.92-49.38,77.09,77.09,0,0,0-143.33,53.45,61.39,61.39,0,0,0-44,58.86h0a61.36,61.36,0,0,0,61.36,61.36H639.68A61.36,61.36,0,0,0,701,728.44h0A61.33,61.33,0,0,0,666.89,673.45Z"/><path class="cls-13" d="M696.26,672.4a54.66,54.66,0,0,0,.59-7.94,54,54,0,0,0-75.92-49.38A77.08,77.08,0,0,0,477.6,668.53a61.39,61.39,0,0,0-44,58.86h0a61.36,61.36,0,0,0,61.36,61.36H669.05a61.36,61.36,0,0,0,61.36-61.36h0A61.35,61.35,0,0,0,696.26,672.4Z"/><circle class="cls-2" cx="583.57" cy="792.95" r="90.2"/><circle class="cls-14" cx="721.5" cy="528.11" r="68.7"/><polygon class="cls-2" points="746.81 525.4 729.63 525.4 729.63 488.33 694.38 534.43 711.55 534.43 711.55 571.5 746.81 525.4"/><circle class="cls-15" cx="583.57" cy="792.95" r="79.71"/><path class="cls-16" d="M539.52,559.05V546.46a29.36,29.36,0,0,1,29.36-29.37H636"/><path class="cls-17" d="M771.32,601V711.14A29.36,29.36,0,0,1,742,740.5h0"/><path class="cls-2" d="M605.91,779.71V766.4a22.92,22.92,0,0,0-45.84,0v12.49a34.6,34.6,0,1,0,45.84.82Zm-23.39,39.54a14,14,0,1,1,14-14A14,14,0,0,1,582.52,819.25Zm14-45.67a34.65,34.65,0,0,0-27.13-.4V766.4a13.57,13.57,0,1,1,27.13,0Z"/><circle class="cls-2" cx="482.22" cy="178.31" r="26.22"/><g class="cls-18"><path class="cls-19" d="M189.82,396.22A461.36,461.36,0,0,0,358.29,675.63"/><polygon class="cls-20" points="185.08 398.68 188.53 388.8 195.36 396.73 185.08 398.68"/></g><g class="cls-18"><path class="cls-21" d="M849.71,702.79a474.71,474.71,0,0,0,170.28-288"/><polygon class="cls-20" points="854.95 706.38 842.68 708.32 847.13 696.72 854.95 706.38"/></g><line class="cls-12" x1="194.1" y1="201.91" x2="387.57" y2="201.91"/><circle class="cls-2" cx="288.84" cy="201.71" r="58.33"/><circle class="cls-22" cx="288.84" cy="201.71" r="46.15"/><text class="cls-23" transform="translate(270.87 220.6)">$</text></g></g></svg>