<?xml version="1.0" encoding="UTF-8"?>
<svg width="1688px" height="666px" viewBox="0 0 1688 666" version="1.1" xmlns="http://www.w3.org/2000/svg" xmlns:xlink="http://www.w3.org/1999/xlink">
    <!-- Generator: Sketch 55.2 (78181) - https://sketchapp.com -->
    <title>Group Copy 8</title>
    <desc>Created with Sketch.</desc>
    <g id="Page-1" stroke="none" stroke-width="1" fill="none" fill-rule="evenodd">
        <g id="Group-Copy-8" fill="#133E9C" fill-rule="nonzero">
            <path d="M234.4661,426.948531 C234.638897,426.948531 234.811654,426.948042 234.984369,426.947063 C235.026203,426.947535 235.069827,426.948022 235.115408,426.948531 L279.217956,426.948531 C279.227016,430.096364 279.231042,431.957813 279.230035,432.532879 C279.131398,477.428189 279.140365,522.311555 279.221068,567.203879 C279.224057,570.372082 278.225729,572.175658 275.335362,573.5582 C260.193065,580.850142 248.766101,599.665264 251.883633,619.788276 C255.500328,643.166087 279.540891,660.819633 302.741544,656.286805 C323.180357,652.300424 336.606965,638.358541 339.482388,616.912707 C341.42823,602.367642 334.424992,583.16732 315.701868,573.552228 C313.161214,572.256281 311.759371,570.837906 311.768338,567.720466 C311.860997,524.115131 311.869964,480.509796 311.768338,436.913419 C311.768338,435.979569 311.768338,432.65794 311.768338,426.948531 L366.322064,426.948531 C368.009498,426.948531 369.685245,426.813855 371.334507,426.549509 C383.764471,425.280298 395.288774,421.04533 405.153519,414.579881 L482.605434,459.401326 C485.156744,461.124279 487.121335,462.376451 488.499208,463.157841 C492.349045,465.334674 493.834581,467.741432 493.720998,472.244401 C493.033527,498.336534 515.806753,519.650982 542.35808,516.823189 C568.425188,514.055118 586.894247,488.990187 580.847491,463.644567 C573.599155,433.270434 540.666303,419.56445 514.064163,435.98177 C511.260477,437.707709 509.233932,438.179506 506.241938,436.429678 C483.731745,423.291044 461.16775,410.241992 438.511096,397.357172 C437.723507,396.910072 434.258856,394.712182 428.117143,390.763501 C434.656896,379.88457 438.406635,367.205653 438.406635,353.662775 C438.406635,326.783585 423.68729,303.454303 401.845489,290.702477 L402.126662,290.540381 C402.505511,290.255023 402.940388,289.974012 403.432139,289.692037 C413.012684,284.210711 422.589277,278.72172 432.161724,273.225195 L495.780411,236.549078 C499.297101,234.513629 502.813175,232.477194 506.328619,230.439783 C509.087471,228.848217 510.958587,228.821343 513.666626,230.636863 C523.318121,237.10764 534.138317,239.156073 545.490557,237.170347 C567.588267,233.300422 583.603353,213.323726 581.633599,189.742864 C579.490483,164.161346 554.373878,145.038661 529.287163,150.586748 C507.273145,155.457001 493.443021,172.644723 493.697086,195.240188 C493.732954,199.089211 492.662891,201.28396 489.225536,203.248783 C480.356075,208.318676 471.49225,213.397306 462.633663,218.484423 L462.639634,218.494768 L381.550177,265.415656 C367.260709,240.409543 341.760509,222.417368 311.834854,217.716026 C311.843722,179.701653 311.917293,141.687461 311.711547,103.675852 C311.681657,97.9724906 313.014753,94.6669297 318.365071,91.597267 C337.545513,80.5876888 344.835695,56.8873844 336.059978,36.6777762 C327.209535,16.2919909 304.600705,5.40185482 283.396707,11.8547158 C264.096705,17.7282825 253.339278,31.3476712 251.447238,51.1690925 C249.991593,66.463657 257.233951,83.4542998 274.707671,92.9947399 C277.391797,94.4579059 279.262914,95.7448949 279.250958,99.4237124 C279.215328,110.613035 279.1891,121.801805 279.17154,132.990297 L279.816771,217.84802 C253.288276,222.244099 229.903956,237.146579 215.08,258.747176 C211.284403,259.581255 207.580059,260.655012 203.985277,261.951575 C170.580093,242.881627 137.322673,223.544833 103.859162,204.565632 C98.8406237,201.72291 96.41953,198.674149 97.2564513,192.899122 C97.5912198,190.596875 96.8798367,188.130395 96.5032222,185.759469 C93.074834,164.17329 71.9425721,146.116627 46.4344076,150.303073 C21.4104619,154.417855 5.52091391,177.040194 9.65171814,201.254099 C14.9183441,232.177666 50.2423994,247.830557 76.8923636,230.914566 C79.8993021,229.006478 81.9796493,228.857175 85.0613129,230.651793 C91.3896705,234.339452 101.014112,239.643451 113.934638,246.56379 L173.284352,280.838329 C156.997069,296.260872 146.843136,317.816472 146.843136,341.800178 C146.843136,360.337746 152.907085,377.419285 163.176767,391.340432 L94.0362237,431.199894 C89.5327809,433.553105 86.1615404,435.366041 83.9225022,436.638702 C82.4220219,437.489727 79.5077425,437.31355 77.9833502,436.393846 C70.8127284,432.070041 63.1758219,429.197458 54.8185653,428.973504 C27.0148453,428.262823 10.1060468,450.950855 9.15554339,470.661793 C8.05558973,493.749956 25.5412661,517.399497 53.8202378,517.187488 C78.6200082,517.002352 97.4925827,497.13614 97.2474843,472.348913 C97.2086272,467.920596 98.5118332,465.415297 102.400528,463.208604 C121.503712,452.342023 150.01998,435.928456 187.949331,413.967904 C201.459466,422.201726 217.422892,426.948531 234.4661,426.948531 Z M564.753794,240.138246 C561.525377,242.066033 560.405435,244.029631 560.414395,247.706154 C560.524896,304.626612 560.515936,361.550054 560.429327,418.458575 C560.423354,421.878458 561.295415,423.940534 564.434237,425.745969 C584.670828,437.432061 594.91157,458.986872 591.276988,481.645834 C587.791731,503.358807 570.422189,521.195316 547.921824,525.465694 C534.876749,527.951525 522.240826,525.973006 510.808466,518.963142 C507.323209,516.832429 504.868298,517.208437 501.601056,519.088478 C452.631254,547.432323 403.607694,575.701564 354.527391,603.863374 C351.170554,605.794145 349.913234,607.912921 349.922193,611.828179 C349.972964,639.214099 328.819514,663.045848 302.394875,665.701778 C274.250006,668.539744 249.366406,650.867365 243.285872,623.576939 C242.354081,619.381167 242.040497,614.994406 241.944929,610.700155 C241.873253,607.790569 241.066895,606.009007 238.477591,604.510943 C188.71935,575.910457 139.00292,547.241335 89.3073963,518.530434 C86.6165509,516.963734 84.502102,516.951797 81.7873645,518.593102 C49.3150427,538.124632 7.92798904,519.401818 1.04109729,482.914115 C-3.30427456,459.864224 6.08531245,438.312397 26.7310551,426.172709 C29.9923239,424.247906 31.4676598,422.311166 31.4616868,418.327271 C31.3123613,361.400844 31.3362534,304.486355 31.4258487,247.568881 C31.4288352,244.148998 30.5388552,242.125717 27.4060064,240.308345 C6.67962792,228.279071 -3.07132679,207.377798 0.909690858,183.91012 C4.86382992,160.597621 22.905336,143.495222 46.3852766,140.152929 C58.9704291,138.365398 71.1076052,140.657257 81.9964202,147.604453 C84.525994,149.221885 86.4045087,149.171154 88.9788803,147.688011 C138.528065,119.036793 188.116075,90.4661495 237.74291,61.9611577 C240.744352,60.2362953 241.915064,58.2577767 241.924023,54.7244947 C242.004659,23.3755689 266.795678,-0.623294595 298.207788,0.0123380745 C322.691196,0.501745388 345.600713,20.6957654 349.074024,44.8378701 C349.390594,47.0581082 349.889342,48.4248676 349.889342,51.4806791 C349.889342,58.1742194 352.356199,61.012185 357.570645,63.9904075 C405.72513,91.5225531 453.745222,119.26956 501.732463,147.064315 C505.029569,148.980165 507.42475,149.057754 510.859237,147.112062 C543.454005,128.535473 582.97449,146.339156 590.909647,183.09842 C591.656275,186.518303 591.584598,190.117237 591.844425,193.241685 C591.309839,214.107148 582.245782,229.657767 564.753794,240.138246 Z M526,472.434695 C526,465.222709 531.18098,459.985186 538.276993,460 C545.108761,460.035661 550.931054,465.674015 550.999342,472.348591 C551.073568,478.773761 544.853423,484.988124 538.37794,485 C531.445225,485 526.002969,479.480411 526,472.434695 Z M283,54.395507 C283.02679,47.4024101 288.474725,42.0059514 295.51486,42 C302.566877,41.9940584 307.973225,47.3786241 308,54.3984803 C308.017783,61.1299307 302.145063,67.0823882 295.538624,66.999137 C288.822276,66.9337254 282.979262,61.0526261 283,54.395507 Z M66,472.484941 C65.9731588,479.524607 60.4800439,485.055985 53.5787428,484.999572 C47.0577114,484.937222 41.0298422,478.859535 41,472.297889 C40.9674542,465.742182 46.9329354,460 53.7777902,460 C60.8692262,460.005938 66.0266342,465.2701 66,472.484941 Z M295.653329,600.000413 C302.688113,600.048955 308.032529,605.513001 308,612.624452 C307.955289,619.708597 302.530662,625.04522 295.400813,624.999711 C288.33038,624.963304 282.923577,619.459818 283.000817,612.369604 C283.081028,605.318831 288.591807,599.945802 295.653329,600.000413 Z M53.9178208,205.999432 C46.7889921,206.063155 41.2166244,200.755949 41.0057299,193.719122 C40.7948354,186.861326 46.4325507,181.105025 53.4603876,181.001855 C60.7971404,180.889581 65.8942529,185.884242 65.998215,193.273062 C66.1081177,200.698295 61.1327894,205.932675 53.9178208,205.999432 Z M538.133085,205.999632 C530.924406,205.948064 525.92944,200.70635 526.000754,193.283621 C526.072068,185.915493 531.185892,180.904317 538.525313,181.001386 C545.561649,181.101488 551.162786,186.804279 550.996386,193.696163 C550.829986,200.679049 545.216963,206.0512 538.133085,205.999632 Z M235.011331,396 C203.524843,396 178,371.430261 178,341.121951 C178,310.936272 203.318708,286.44282 234.629435,286.245103 C244.65052,262.627537 268.614659,246 296.583569,246 C333.252843,246 363.03827,274.581265 363.542756,310.024532 C363.58111,310.024438 363.619476,310.02439 363.657853,310.02439 C388.147345,310.02439 408,329.270686 408,353.012195 C408,375.664733 389.926774,394.224971 366.996958,395.879949 C366.84153,395.956818 366.666594,396 366.48161,396 L235.658741,396 C235.632056,396 235.60558,396 235.579342,395.997333 C235.390224,396 235.200886,396 235.011331,396 Z M1639.23899,274.096774 L1569.3871,274.096774 L1569.3871,226.548387 L1639.23899,226.548387 L1687.19355,226.548387 L1687.19355,365.717129 C1687.19355,417.373648 1656.84256,442.290323 1611.92311,442.290323 C1578.84054,442.290323 1556.98783,427.704952 1542.41935,410.384825 L1571.85981,377.567742 C1584.0002,390.937665 1595.83709,398.838074 1610.70907,398.838074 C1628.31264,398.838074 1639.23899,388.202908 1639.23899,363.590095 L1639.23899,274.096774 Z M851.193548,376.412545 C851.193548,418.610753 819.012111,442.290323 773.168743,442.290323 C740.987306,442.290323 708.502271,431.057706 683,408.288889 L710.62746,375.198208 C729.754163,390.984588 749.791662,401.002867 774.079539,401.002867 C793.206242,401.002867 804.742984,393.413262 804.742984,380.966308 L804.742984,380.35914 C804.742984,368.519355 797.45662,362.44767 761.9356,353.340143 C719.128217,342.411111 691.500757,330.571326 691.500757,288.373118 L691.500757,287.76595 C691.500757,249.210753 722.4678,223.709677 765.88238,223.709677 C796.849424,223.709677 823.26249,233.424373 844.817981,250.728674 L820.530104,285.944444 C801.706999,272.890323 783.187493,264.997133 765.275183,264.997133 C747.362874,264.997133 737.951322,273.193907 737.951322,283.515771 L737.951322,284.122939 C737.951322,298.087814 747.059276,302.641577 783.79469,312.052688 C826.905671,323.285305 851.193548,338.7681 851.193548,375.805376 L851.193548,376.412545 Z M1049.90323,269.737327 L985.268743,269.737327 L985.268743,439.451613 L938.537709,439.451613 L938.537709,269.737327 L873.903226,269.737327 L873.903226,226.548387 L1049.90323,226.548387 L1049.90323,269.737327 Z M1295.45161,333 C1295.45161,393.469613 1247.67907,443 1181.95378,443 C1116.22849,443 1069.06452,394.077348 1069.06452,333.607735 L1069.06452,333 C1069.06452,272.530387 1116.83706,223 1182.56235,223 C1248.28763,223 1295.45161,271.922652 1295.45161,332.392265 L1295.45161,333 Z M1246.48387,333.606452 L1246.48387,333 C1246.48387,296.612903 1219.69775,266.290323 1181.95368,266.290323 C1144.2096,266.290323 1118.03226,296.006452 1118.03226,332.393548 L1118.03226,333 C1118.03226,369.387097 1144.81838,399.709677 1182.56245,399.709677 C1220.30653,399.709677 1246.48387,369.993548 1246.48387,333.606452 Z M1519,439.451613 L1464.31378,439.451613 L1418.74194,371.322581 L1381.98065,371.322581 L1381.98065,439.451613 L1335.19355,439.451613 L1335.19355,226.548387 L1432.41349,226.548387 C1482.54252,226.548387 1512.61994,253.009217 1512.61994,296.806452 L1512.61994,297.414747 C1512.61994,331.78341 1494.08739,353.37788 1467.04809,363.414747 L1519,439.451613 Z M1465.06452,300.100626 L1465.06452,299.49334 C1465.06452,279.452897 1451.12479,269.129032 1428.39699,269.129032 L1382.03226,269.129032 L1382.03226,330.16129 L1429.3061,330.16129 C1452.03391,330.16129 1465.06452,318.015567 1465.06452,300.100626 Z" id="Combined-Shape"></path>
        </g>
    </g>
</svg>