<?xml version="1.0" encoding="utf-8"?>
<!-- Generator: Adobe Illustrator 22.1.0, SVG Export Plug-In . SVG Version: 6.00 Build 0)  -->
<svg version="1.1" id="Layer_1" xmlns="http://www.w3.org/2000/svg" xmlns:xlink="http://www.w3.org/1999/xlink" x="0px" y="0px"
	 viewBox="0 0 698.2 163.3" style="enable-background:new 0 0 698.2 163.3;" xml:space="preserve">
<style type="text/css">
	.st0{fill:#4D4D4D;}
</style>
<g>
	<path class="st0" d="M0,0h38.1l42.2,67.9L122.5,0h38.1v160.6h-35.1V55.7l-45.2,68.6h-0.9L34.6,56.4v104.1H0V0z"/>
	<path class="st0" d="M200.8,0h35.3v160.6h-35.3V0z"/>
	<path class="st0" d="M276.3,0h32.6l75.3,98.9V0H419v160.6h-30.1L311.1,58.5v102.1h-34.9V0z"/>
	<path class="st0" d="M459.2,0h35.3v160.6h-35.3V0z"/>
	<path class="st0" d="M527.5,80.7v-0.4c0-45.7,36-83,85.6-83c49.6,0,85.1,36.9,85.1,82.6v0.5c0,45.7-36,83-85.6,83
		C563.1,163.3,527.5,126.4,527.5,80.7z M661.3,80.7v-0.4c0-27.5-20.2-50.5-48.6-50.5c-28.5,0-48.2,22.5-48.2,50v0.5
		c0,27.5,20.2,50.5,48.6,50.5C641.6,130.8,661.3,108.3,661.3,80.7z"/>
</g>
</svg>
