<?xml version="1.0" encoding="utf-8"?>
<!-- Generator: Adobe Illustrator 22.1.0, SVG Export Plug-In . SVG Version: 6.00 Build 0)  -->
<svg version="1.1" id="Layer_1" xmlns="http://www.w3.org/2000/svg" xmlns:xlink="http://www.w3.org/1999/xlink" x="0px" y="0px"
	 viewBox="0 0 418.8 173.7" style="enable-background:new 0 0 418.8 173.7;" xml:space="preserve">
<style type="text/css">
	.st0{fill:#53BCE6;}
</style>
<g>
	<g>
		<path d="M12.6,173.7H0V40.7c10.6-3.3,21.1-4.9,31.3-4.9c7.5,0,14.2,1.2,20.3,3.5c6.1,2.3,11.3,5.6,15.7,9.7
			c4.3,4.2,7.7,9.1,10,14.8c2.3,5.7,3.5,12,3.5,18.7c0,8.2-1.4,15.2-4.2,21.1c-2.8,5.9-6.5,10.7-11.1,14.5
			c-4.6,3.8-9.8,6.6-15.7,8.3c-5.9,1.8-11.9,2.7-18,2.7c-3.3,0-6.5-0.2-9.7-0.7c-3.2-0.5-6.4-1.2-9.5-2V173.7z M66.3,82.3
			c0-10.6-3-19.2-8.9-25.7c-5.9-6.5-14.3-9.8-25-9.8c-3.4,0-6.8,0.2-10.1,0.6c-3.3,0.4-6.5,1.2-9.7,2.3v64.9c2.9,1,6,1.8,9.1,2.5
			c3.1,0.7,6.1,1,9.1,1c10.9,0,19.5-3.1,25.9-9.3C63.1,102.6,66.3,93.8,66.3,82.3z"/>
		<path d="M106.5,128.3V0h12.8v128.3H106.5z"/>
		<path d="M224.1,114.9c-4.3,4.6-9.2,8.2-14.8,10.5c-5.6,2.4-12.4,3.6-20.3,3.6c-7.3,0-13.7-1.3-19.2-3.8
			c-5.5-2.5-10.1-5.9-13.7-10.2c-3.7-4.3-6.4-9.2-8.2-14.7c-1.8-5.5-2.7-11.3-2.7-17.4c0-8.1,1.1-15.1,3.3-21
			c2.2-5.9,5.2-10.8,9-14.8c3.8-3.9,8.2-6.8,13.2-8.7c5-1.9,10.3-2.8,15.9-2.8c13.4,0,23.6,4.1,30.4,12.4c6.8,8.2,10.1,20.2,9.9,36
			H158c0.4,10.4,3.4,18.6,9,24.7c5.6,6.1,13.3,9.2,22.9,9.2c5.4,0,10.3-0.9,14.7-2.7c4.4-1.8,8.4-4.6,11.9-8.5L224.1,114.9z
			 M213.9,73.3c0-3.8-0.6-7.3-1.7-10.6c-1.2-3.3-2.8-6.1-4.9-8.4c-2.1-2.3-4.9-4.2-8.3-5.6c-3.4-1.4-7.4-2.1-11.9-2.1
			c-4.6,0-8.6,0.7-12,2.1c-3.4,1.4-6,3.2-8,5.4c-2,2.2-3.8,5-5.4,8.3c-1.7,3.4-2.7,7-3.2,10.9H213.9z"/>
		<path d="M310.7,58.3c-3.2-4-6.7-7-10.4-8.9c-3.7-1.9-8.1-2.8-13.2-2.8c-6.5,0-11.1,1.2-13.7,3.5c-2.6,2.3-3.9,5.3-3.9,8.8
			c0,2.4,0.6,4.5,1.8,6.2c1.2,1.7,2.8,3.2,4.8,4.4c2,1.2,4.3,2.3,6.9,3.2c2.6,0.9,5.3,1.8,8.2,2.7c3.5,1.1,6.9,2.3,10.4,3.6
			c3.5,1.3,6.6,3,9.5,5c2.9,2.1,5.2,4.6,7,7.6c1.8,3,2.7,6.8,2.7,11.3c0,4.2-0.9,7.9-2.7,11.2c-1.8,3.3-4.2,6.1-7.3,8.3
			c-3.1,2.3-6.7,4-10.8,5.1c-4.2,1.2-8.6,1.7-13.3,1.7c-7.3,0-13.8-1.2-19.4-3.6c-5.6-2.4-10.9-6.3-15.9-11.8l10-8.8
			c6.7,8.6,15.3,12.8,25.9,12.8c6.9,0,12-1.3,15.4-3.9c3.3-2.6,5-5.7,5-9.3c0-2.8-0.6-5.2-1.8-7.1c-1.2-1.9-2.9-3.5-5-4.9
			c-2.1-1.3-4.5-2.5-7.3-3.4c-2.8-0.9-5.7-1.8-8.7-2.7c-3.5-1-6.9-2.1-10.3-3.3c-3.4-1.2-6.4-2.8-9.1-4.7c-2.7-1.9-4.9-4.3-6.6-7.2
			c-1.7-2.9-2.6-6.7-2.6-11.2c0-8.1,2.9-14.3,8.8-18.7c5.9-4.4,13.5-6.6,22.9-6.6c6.6,0,12.6,1.1,17.8,3.3c5.2,2.2,10.1,6,14.9,11.5
			l-9.4,8.6L310.7,58.3z"/>
		<path d="M344.7,128.3V0.2h12.8v128.1H344.7z M357.5,81l44-44.4h17.2l-45.1,44l44.9,47.6h-17.8L357.5,81z"/>
	</g>
</g>
<g>
	<path class="st0" d="M151.1,173.7H73.9v-12.1h77.2V173.7z"/>
</g>
</svg>
