<?xml version="1.0" encoding="utf-8"?>
<!DOCTYPE svg PUBLIC "-//W3C//DTD SVG 1.1//EN" "http://www.w3.org/Graphics/SVG/1.1/DTD/svg11.dtd">
<svg version="1.1" id="Layer_1" xmlns:sketch="http://www.bohemiancoding.com/sketch/ns"
	 xmlns="http://www.w3.org/2000/svg" xmlns:xlink="http://www.w3.org/1999/xlink" x="0px" y="0px" width="24px" height="21px"
	 viewBox="0 0 24 21" enable-background="new 0 0 24 21" xml:space="preserve">
<title>icon-cost</title>
<desc>Created with Sketch.</desc>
<g id="icon-cost" transform="translate(0.000000, 1.458333)" sketch:type="MSLayerGroup">
	
		<path id="Stroke-482" sketch:type="MSShapeGroup" fill="none" stroke="#2684FF" stroke-linecap="round" stroke-linejoin="round" d="
		M18.195,13.391c0,0,4.305-0.56,4.305-4.782c0-2.676-2.207-4.876-4.953-4.776C16.473,1.57,14.174,0,11.5,0
		C7.938,0,5.033,2.783,4.825,6.294C2.592,5.827,0.5,7.527,0.5,9.805c0,2.991,2.579,3.487,3.502,3.57"/>
</g>
<g id="Page-1_1_">
	<g id="Stroke-1-_x2B_-Stroke-3">
		<path fill="none" stroke="#1A5BB0" stroke-linecap="round" stroke-linejoin="round" d="M8.781,19.243
			c-1.922-0.874-3.259-2.809-3.259-5.058c0-3.066,2.485-5.553,5.552-5.553c3.067,0,5.553,2.487,5.553,5.553l0,0
			c0,2.147-1.221,4.011-3.004,4.932"/>
		<path fill="none" stroke="#003366" stroke-linecap="round" stroke-linejoin="round" d="M8.781,19.243"/>
		<path fill="none" stroke="#003366" stroke-linecap="round" stroke-linejoin="round" d="M13.623,19.117"/>
		<path fill="none" stroke="#1A5BB0" stroke-linecap="round" stroke-linejoin="round" d="M13.609,19.134l-1.799-3.911
			c0.562-0.274,0.954-0.852,0.954-1.521l0,0c0-0.934-0.755-1.688-1.69-1.688c-0.934,0-1.69,0.755-1.69,1.688
			c0,0.67,0.391,1.247,0.955,1.521L8.81,19.255"/>
	</g>
</g>
</svg>
