<?xml version="1.0" encoding="utf-8"?>
<!-- Generator: Adobe Illustrator 22.1.0, SVG Export Plug-In . SVG Version: 6.00 Build 0)  -->
<svg version="1.1" id="svg3062" xmlns:svg="http://www.w3.org/2000/svg"
	 xmlns="http://www.w3.org/2000/svg" xmlns:xlink="http://www.w3.org/1999/xlink" x="0px" y="0px" viewBox="0 0 380 380"
	 style="enable-background:new 0 0 380 380;" xml:space="preserve">
<style type="text/css">
	.st0{fill:url(#path2312_1_);}
	.st1{fill:#FFFFFF;}
</style>
<linearGradient id="path2312_1_" gradientUnits="userSpaceOnUse" x1="129.0785" y1="315.5512" x2="129.0785" y2="180.5453" gradientTransform="matrix(2.1744 0 0 -2.1744 -90.673 732.2692)">
	<stop  offset="0" style="stop-color:#BF0000"/>
	<stop  offset="1" style="stop-color:#8F0000"/>
</linearGradient>
<path id="path2312" class="st0" d="M0,12.7v16.8c7,0,12.7,5.7,12.7,12.7c0,7-5.7,12.7-12.7,12.7v16.8c7,0,12.7,5.7,12.7,12.7
	c0,7-5.7,12.7-12.7,12.7v16.8c7,0,12.7,5.7,12.7,12.7S7,139.4,0,139.4v16.8c7,0,12.7,5.7,12.7,12.7c0,7-5.7,12.7-12.7,12.7v16.8
	c7,0,12.7,5.7,12.7,12.7c0,7-5.7,12.7-12.7,12.7v16.8c7,0,12.7,5.7,12.7,12.7c0,7-5.7,12.7-12.7,12.7v16.8c7,0,12.7,5.7,12.7,12.7
	S7,308.3,0,308.3v16.8c7,0,12.7,5.7,12.7,12.7S7,350.5,0,350.5v16.8c3.3,0,6.6,1.4,9,3.7c2.4,2.4,3.7,5.6,3.7,9h16.8
	c0-7,5.7-12.7,12.7-12.7c7,0,12.7,5.7,12.7,12.7h16.8c0-7,5.7-12.7,12.7-12.7c7,0,12.7,5.7,12.7,12.7h16.8c0-7,5.7-12.7,12.7-12.7
	s12.7,5.7,12.7,12.7h16.8c0-7,5.7-12.7,12.7-12.7s12.7,5.7,12.7,12.7h16.8c0-7,5.7-12.7,12.7-12.7c7,0,12.7,5.7,12.7,12.7h16.8
	c0-7,5.7-12.7,12.7-12.7c7,0,12.7,5.7,12.7,12.7h16.8c0-7,5.7-12.7,12.7-12.7c7,0,12.7,5.7,12.7,12.7H325c0-7,5.7-12.7,12.7-12.7
	c7,0,12.7,5.7,12.7,12.7h16.8c0-3.4,1.4-6.6,3.7-9c2.4-2.4,5.6-3.7,9-3.7v-16.8c-7,0-12.7-5.7-12.7-12.7c0-7,5.7-12.7,12.7-12.7
	v-16.8c-7,0-12.7-5.7-12.7-12.7c0-7,5.7-12.7,12.7-12.7v-16.8c-7,0-12.7-5.7-12.7-12.7c0-7,5.7-12.7,12.7-12.7v-16.8
	c-7,0-12.7-5.7-12.7-12.7s5.7-12.7,12.7-12.7v-16.8c-7,0-12.7-5.7-12.7-12.7s5.7-12.7,12.7-12.7v-16.8c-7,0-12.7-5.7-12.7-12.7
	s5.7-12.7,12.7-12.7V97.2c-7,0-12.7-5.7-12.7-12.7c0-7,5.7-12.7,12.7-12.7V55c-7,0-12.7-5.7-12.7-12.7c0-7,5.7-12.7,12.7-12.7V12.7
	c-3.4,0-6.6-1.4-9-3.7c-2.4-2.4-3.7-5.6-3.7-9h-16.8c0,7-5.7,12.7-12.7,12.7c-7,0-12.7-5.7-12.7-12.7h-16.8c0,7-5.7,12.7-12.7,12.7
	c-7,0-12.7-5.7-12.7-12.7h-16.8c0,7-5.7,12.7-12.7,12.7c-7,0-12.7-5.7-12.7-12.7h-16.8c0,7-5.7,12.7-12.7,12.7
	c-7,0-12.7-5.7-12.7-12.7h-16.8c0,7-5.7,12.7-12.7,12.7c-7,0-12.7-5.7-12.7-12.7h-16.8c0,7-5.7,12.7-12.7,12.7
	c-7,0-12.7-5.7-12.7-12.7H97.2c0,7-5.7,12.7-12.7,12.7c-7,0-12.7-5.7-12.7-12.7H55c0,7-5.7,12.7-12.7,12.7c-7,0-12.7-5.7-12.7-12.7
	H12.7c0,3.4-1.4,6.6-3.7,9C6.6,11.4,3.3,12.7,0,12.7z"/>
<path id="path2314" class="st1" d="M323.7,152H134.1l9.9-46.3h115.6l10.6-49.8H104L51.7,302.6h50.2l23-107.8h120.4L140.7,298.4
	l18.4,32.5c8.5-5.7,22.3-6.4,31.8-6.4c17,0,33.6,5.7,50.9,5.7c15.9,0,32.1-1.1,58.6-13.8l9.3-43.5c-18,7.4-44.7,14.5-67.9,14.5
	c-9.5,0-18.4-2.1-27.6-3.5l101.4-98.6L323.7,152L323.7,152z"/>
</svg>
