<?xml version="1.0" encoding="utf-8"?>
<!-- Generator: Adobe Illustrator 22.1.0, SVG Export Plug-In . SVG Version: 6.00 Build 0)  -->
<svg version="1.1" id="Layer_1" xmlns="http://www.w3.org/2000/svg" xmlns:xlink="http://www.w3.org/1999/xlink" x="0px" y="0px"
	 viewBox="0 0 344.3 79.9" style="enable-background:new 0 0 344.3 79.9;" xml:space="preserve">
<style type="text/css">
	.st0{fill:url(#symbol_1_);}
	.st1{fill:url(#SVGID_1_);}
	.st2{fill:url(#SVGID_2_);}
	.st3{fill:url(#SVGID_3_);}
	.st4{fill:url(#SVGID_4_);}
	.st5{fill:url(#SVGID_5_);}
	.st6{fill:url(#SVGID_6_);}
	.st7{fill:url(#SVGID_7_);}
</style>
<g id="influxdb_logo">
	
		<linearGradient id="symbol_1_" gradientUnits="userSpaceOnUse" x1="41.5273" y1="558.15" x2="319.2919" y2="558.15" gradientTransform="matrix(1 0 0 1 0 -518.2)">
		<stop  offset="0" style="stop-color:#4591ED"/>
		<stop  offset="1" style="stop-color:#00C9FF"/>
	</linearGradient>
	<path id="symbol_2_" class="st0" d="M78.7,48.2L71.1,15c-0.4-1.8-2.1-3.6-3.9-4.1L32.3,0.2c-0.5-0.1-1-0.2-1.5-0.2
		c-1.5,0-3.1,0.6-4,1.5l-25,23.2c-1.3,1.2-2.1,3.6-1.7,5.4l8.1,35.5c0.4,1.8,2.1,3.6,3.9,4.1l32.6,10c0.5,0.1,1,0.2,1.5,0.2
		c1.5,0,3.1-0.6,4-1.5l26.7-24.8C78.4,52.4,79.1,50,78.7,48.2z M35.9,8l23.9,7.3c0.9,0.3,0.9,0.7,0,0.9l-12.6,2.9
		c-1,0.2-2.3-0.2-2.9-0.9l-8.8-9.5C34.8,8.1,35,7.8,35.9,8z M50.8,50.9c0.2,1-0.4,1.5-1.3,1.2l-25.8-7.9c-0.9-0.3-1.1-1.1-0.4-1.7
		l19.8-18.4c0.7-0.7,1.5-0.4,1.7,0.5L50.8,50.9z M8.3,27.5L29.3,8c0.7-0.7,1.8-0.6,2.5,0.1l10.5,11.3c0.7,0.7,0.6,1.8-0.1,2.5
		l-21,19.5c-0.7,0.7-1.8,0.6-2.5-0.1L8.2,30C7.6,29.3,7.6,28.2,8.3,27.5z M13.4,58.5L7.8,34.2c-0.2-1,0.1-1.1,0.8-0.4l8.8,9.5
		c0.7,0.7,1,2.1,0.7,3l-3.8,12.3C14.1,59.4,13.6,59.4,13.4,58.5z M44.1,72.6l-27.3-8.4c-0.9-0.3-1.5-1.3-1.2-2.2l4.5-14.8
		c0.3-0.9,1.3-1.5,2.2-1.2l27.3,8.4c0.9,0.3,1.5,1.3,1.2,2.2l-4.5,14.8C46,72.4,45,72.9,44.1,72.6z M68.4,52.7l-18.3,17
		c-0.7,0.7-1.1,0.4-0.8-0.5l3.8-12.3c0.3-0.9,1.3-1.9,2.3-2.1L68,51.9C68.9,51.7,69.1,52.1,68.4,52.7z M70.4,49.1l-15.1,3.4
		c-1,0.2-1.9-0.4-2.1-1.3l-6.4-27.9c-0.2-1,0.4-1.9,1.3-2.1l15.1-3.4c1-0.2,1.9,0.4,2.1,1.3L71.7,47C71.9,47.9,71.3,48.9,70.4,49.1z
		"/>
	<g id="type_2_">
		<g>
			
				<linearGradient id="SVGID_1_" gradientUnits="userSpaceOnUse" x1="41.5273" y1="553.65" x2="319.2919" y2="553.65" gradientTransform="matrix(1 0 0 1 0 -518.2)">
				<stop  offset="0" style="stop-color:#4591ED"/>
				<stop  offset="1" style="stop-color:#00C9FF"/>
			</linearGradient>
			<path class="st1" d="M109.7,26.3l8.9-1.2l-6.3,35.8h-8.7L109.7,26.3z M112.3,11.2l8.9-1.2l-1.7,9.8l-8.9,1.3L112.3,11.2z"/>
			
				<linearGradient id="SVGID_2_" gradientUnits="userSpaceOnUse" x1="41.5273" y1="561.2" x2="319.2919" y2="561.2" gradientTransform="matrix(1 0 0 1 0 -518.2)">
				<stop  offset="0" style="stop-color:#4591ED"/>
				<stop  offset="1" style="stop-color:#00C9FF"/>
			</linearGradient>
			<path class="st2" d="M146.4,35.8c0.1-0.4,0.1-0.8,0.1-0.9c0-0.9-0.4-1.5-1.8-1.5c-2.3,0-7.2,2.2-10.5,4.1l-4.1,23.4h-8.7
				l6.1-34.5l7.5-1.3l-0.1,4.3c4.6-2.5,10.1-4.4,14.3-4.4c4.8,0,6.4,3.2,6.4,7c0,1.4-0.1,2.3-0.4,3.5L150.7,61H142L146.4,35.8z"/>
			
				<linearGradient id="SVGID_3_" gradientUnits="userSpaceOnUse" x1="41.5273" y1="560.95" x2="319.2919" y2="560.95" gradientTransform="matrix(1 0 0 1 0 -518.2)">
				<stop  offset="0" style="stop-color:#4591ED"/>
				<stop  offset="1" style="stop-color:#00C9FF"/>
			</linearGradient>
			<path class="st3" d="M183.6,32.7h-8.1l-5.3,29.8c-1,5.7-3.1,9.3-7.7,13.3l-5.6-5.2c2.8-2.7,4.1-5.1,4.7-8.9l5.1-29h-5.4l1.2-7.1
				h5.4l0.9-5.1c1.3-7.5,4.3-10.8,13.2-10.8c2.9,0,6.7,0.4,11.1,1.4l8.9-1.2l-9,50.9h-8.7l7.6-43.1c-3.5-0.7-7-1.1-9.8-1.1
				c-3,0-4.2,1-4.6,3.5l-0.9,5.4h8.8L183.6,32.7z"/>
			
				<linearGradient id="SVGID_4_" gradientUnits="userSpaceOnUse" x1="41.5273" y1="561.5" x2="319.2919" y2="561.5" gradientTransform="matrix(1 0 0 1 0 -518.2)">
				<stop  offset="0" style="stop-color:#4591ED"/>
				<stop  offset="1" style="stop-color:#00C9FF"/>
			</linearGradient>
			<path class="st4" d="M212.3,50.7c-0.1,0.5-0.1,0.8-0.1,0.9c0,0.9,0.4,1.5,1.8,1.5c2.3,0,7.2-2.2,10.5-4.1l4-22.8l8.9-1.2
				l-6.2,35.9h-7.4l0.1-3.7c-4.6,2.5-10.1,4.4-14.3,4.4c-4.8,0-6.4-3.2-6.4-7c0-1.4,0.1-2.3,0.4-3.5l4.3-24.8l8.9-1.2L212.3,50.7z"
				/>
			
				<linearGradient id="SVGID_5_" gradientUnits="userSpaceOnUse" x1="41.5273" y1="561.15" x2="319.2919" y2="561.15" gradientTransform="matrix(1 0 0 1 0 -518.2)">
				<stop  offset="0" style="stop-color:#4591ED"/>
				<stop  offset="1" style="stop-color:#00C9FF"/>
			</linearGradient>
			<path class="st5" d="M251.1,43.1l-7.6-16.6l8.1-1.5l5.3,12.5l8.7-11.9h9.3l-14.4,18.6l7.7,16.7h-8.8l-4.8-10.2l-8.5,10.2h-9.3
				L251.1,43.1z"/>
			
				<linearGradient id="SVGID_6_" gradientUnits="userSpaceOnUse" x1="41.5273" y1="554.05" x2="319.2919" y2="554.05" gradientTransform="matrix(1 0 0 1 0 -518.2)">
				<stop  offset="0" style="stop-color:#4591ED"/>
				<stop  offset="1" style="stop-color:#00C9FF"/>
			</linearGradient>
			<path class="st6" d="M301.5,60.9h-7.4V57c-3,2.7-6.8,4.6-12,4.6c-6.1,0-8.2-3.3-8.2-8c0-1.2,0.1-2.4,0.4-3.7l1.8-10.3
				c1.6-9,3.3-14.7,17.1-14.7c1.3,0,3.8,0.2,5.8,0.7l2.5-14.3l8.9-1.2L301.5,60.9z M297.8,32.7c-1.6-0.4-3.9-0.4-5.1-0.4
				c-5.6,0-7,2.2-7.8,6.9l-2.2,12.4c-0.1,0.4-0.1,0.7-0.1,0.9c0,1.3,0.9,1.9,2.5,1.9c3.7,0,8-3,9.8-5.3L297.8,32.7z"/>
			
				<linearGradient id="SVGID_7_" gradientUnits="userSpaceOnUse" x1="41.5273" y1="554" x2="319.2919" y2="554" gradientTransform="matrix(1 0 0 1 0 -518.2)">
				<stop  offset="0" style="stop-color:#4591ED"/>
				<stop  offset="1" style="stop-color:#00C9FF"/>
			</linearGradient>
			<path class="st7" d="M319.3,11.2l8.9-1.2L325,28c3.9-2.2,7.6-3.1,11.1-3.1c6.1,0,8.2,3.3,8.2,8c0,1.2-0.1,2.4-0.4,3.7l-1.7,10.3
				c-1.9,10.6-5.5,14.7-18.2,14.7c-3.3,0-9.7-1.1-13.2-2.3L319.3,11.2z M320.4,53.8c1.6,0.3,3.3,0.5,5.1,0.5c5.6,0,7-2.3,7.8-6.9
				l2.2-12.4c0.1-0.4,0.1-0.7,0.1-0.9c0-1.3-0.9-1.9-2.5-1.9c-2.7,0-6.4,1.2-9.5,3.3L320.4,53.8z"/>
		</g>
	</g>
</g>
</svg>
