<?xml version="1.0" encoding="utf-8"?>
<!-- Generator: Adobe Illustrator 22.1.0, SVG Export Plug-In . SVG Version: 6.00 Build 0)  -->
<svg version="1.1" id="Layer_1" xmlns="http://www.w3.org/2000/svg" xmlns:xlink="http://www.w3.org/1999/xlink" x="0px" y="0px"
	 viewBox="0 0 1942 554.8" style="enable-background:new 0 0 1942 554.8;" xml:space="preserve">
<style type="text/css">
	.st0{fill:url(#SVGID_1_);}
	.st1{fill:url(#SVGID_2_);}
	.st2{fill:url(#SVGID_3_);}
	.st3{fill:#C0BFBE;}
	.st4{fill:#484748;}
</style>
<linearGradient id="SVGID_1_" gradientUnits="userSpaceOnUse" x1="1161.76" y1="-877.267" x2="991.215" y2="-878.4318" gradientTransform="matrix(-0.9771 -0.323 0.2901 -0.8773 1427.4247 -118.4126)">
	<stop  offset="0.2308" style="stop-color:#999875"/>
	<stop  offset="0.5632" style="stop-color:#9B9977"/>
	<stop  offset="0.6829" style="stop-color:#A09F7E"/>
	<stop  offset="0.7683" style="stop-color:#A9A889"/>
	<stop  offset="0.8373" style="stop-color:#B7B69A"/>
	<stop  offset="0.8964" style="stop-color:#C9C7B0"/>
	<stop  offset="0.9482" style="stop-color:#DEDDCB"/>
	<stop  offset="0.9944" style="stop-color:#F8F6EB"/>
	<stop  offset="1" style="stop-color:#FBF9EF"/>
</linearGradient>
<path class="st0" d="M133.5,540.3l-14.5-4.8c0,0,1.8-73.2-24.6-78.3c-17.4-20.2,2.7-861.9,65.9-2.9c0,0-21.7,10.9-25.8,29.3
	C130.5,502,133.5,540.3,133.5,540.3z"/>
<linearGradient id="SVGID_2_" gradientUnits="userSpaceOnUse" x1="1188.0259" y1="-578.7853" x2="942.6677" y2="-1003.758" gradientTransform="matrix(-0.9771 -0.323 0.2901 -0.8773 1427.4247 -118.4126)">
	<stop  offset="0" style="stop-color:#48A547"/>
	<stop  offset="1" style="stop-color:#3F9143"/>
</linearGradient>
<path class="st1" d="M141.3,469.5c0,0,125.7-82.8,96.3-254.8C209.2,89.9,142.2,48.8,135,33.1C127.1,22,119.1,2.4,119.1,2.4
	l5.3,348.1C124.5,350.4,113.4,456.7,141.3,469.5z"/>
<linearGradient id="SVGID_3_" gradientUnits="userSpaceOnUse" x1="1210.5034" y1="-884.2819" x2="1036.5883" y2="-767.4633" gradientTransform="matrix(-0.9771 -0.323 0.2901 -0.8773 1427.4247 -118.4126)">
	<stop  offset="0" style="stop-color:#41A247"/>
	<stop  offset="0.3523" style="stop-color:#4BA74B"/>
	<stop  offset="0.9557" style="stop-color:#67B554"/>
	<stop  offset="1" style="stop-color:#69B655"/>
</linearGradient>
<path class="st2" d="M111.6,474.2c0,0-117.9-80.4-111.1-222.4C7.3,109.8,90.6,40.1,106.8,27.4c10.5-11.2,10.9-15.5,11.7-26.5
	c7.4,15.8,6.1,235.9,6.9,261.6C128.5,362.6,119.9,455.3,111.6,474.2z"/>
<path class="st3" d="M1457.3,210.3c6.7,0,32.4,1.2,44.3,1.2c22.2,0,37.7-1.2,79.4-1.2c35,0,64.4,9.4,85.4,27.5
	c25.4,22,38.9,52.6,38.9,89.8c0,53-24.2,83.6-48.5,100.8c-24.2,18-55.6,28.2-100.5,28.2c-23.8,0-64.7-0.8-98.9-1.2h-0.5
	c-1.6-3.1,2.9-15.4,5.7-15.7c9.2-1,11.7-1.4,16-3.2c7.2-3,8.9-6.6,9.7-19.6c1.2-24.3,0.8-53.3,0.8-86.3c0-23.5,0.4-69.4-0.4-83.9
	c-1.2-12.2-6.3-15.3-16.7-17.7c-5.2-1.2-12.3-2.4-22.2-3.5C1449.2,223.2,1455.3,212.6,1457.3,210.3z M1536.6,428.4
	c8.3,6.7,25,9.4,39.7,9.4c19.1,0,37.7-3.5,56-20c18.7-16.9,31.4-42.8,31.4-83.9c0-39.6-15.1-71.8-46.1-90.6
	c-17.5-11-40.1-15.3-65.9-15.3c-7.5,0-15.1,0.4-19.5,2.4c-1.2,0.8-3.6,3.9-3.6,5.5c-0.8,7.1-0.8,60.8-0.8,92.6
	c0,32.6,0,78.1,0.8,83.6C1529,416.6,1531.4,424.8,1536.6,428.4z"/>
<path class="st3" d="M1738.8,210.3c3.6,0,14.1,1.2,41.2,1.2c25.4,0,46.1-0.8,70.7-0.8c30.6,0,72.7,11,72.7,56.5
	c0,22.4-15.9,40.4-36.5,49c-1.2,0.4-1.2,1.2,0,1.6c29.4,7.4,55.2,25.5,55.2,60c0,33.7-21,54.9-51.6,68.3c-18.7,8.2-41.7,11-65.1,11
	c-17.9,0-65.8-2-92.4-1.6c-2.8-1.2,2.5-13.7,4.9-15.7c6.4-0.4,11.3-0.8,18-2.8c9.5-2.4,10.7-5.4,11.9-19.5
	c0.8-12.2,0.8-55.7,0.8-86.7c0-42.4,0.4-71,0-85.1c-0.4-11-4.4-14.5-11.9-16.5c-6-1.2-15.9-2.4-23.8-3.5
	C1730.7,223.6,1736.8,211.8,1738.8,210.3z M1900.7,386.4c0-34.5-25.4-54.1-71.9-54.1c-2,0-16.7-0.4-20.3,0.4c-1.2,0.4-2.4,1.2-2.4,2
	c0,24.7-0.4,64.3,0.8,80c0.8,6.7,5.6,16.1,11.5,18.8c6.4,3.5,20.7,4.3,30.6,4.3C1876.5,437.8,1900.7,422.5,1900.7,386.4z
	 M1810.6,229.5c-1.6,0.4-3.6,4.3-3.6,6.3c-0.4,14.1-0.8,51-0.8,76.5c0,0.8,1.2,2,2,2c5.2,0.4,17.9,0.8,28.6,0.8
	c15.1,0,23.8-2,28.6-4.3c12.7-6.3,18.7-20,18.7-34.9c0-34.1-23.8-47.1-59.2-47.1C1822.5,228.7,1815.7,228.7,1810.6,229.5z"/>
<path class="st4" d="M317.9,456.4c-0.7-1.1-1.4-4.2-1.2-7.9c0.1-2.9,0.7-4.7,1.2-5.3c7.5-1.2,11-2,15.2-3.1c7-1.7,9.7-5.5,10.1-14.5
	c1.2-21.2,1.2-60.8,0.8-88.7l0-0.8c0-3,0.1-7.1-3.7-10c-5.5-3.6-12.4-6.6-21.1-9.2c-3.3-1-5.2-2.7-5.1-4.8c0.1-2,2.2-4.5,6.5-5.3
	c11.5-1.2,41.7-8.4,53.5-13.8c0.7,0.9,1.8,2.7,1.6,5.6c-0.1,1.2-0.2,2.5-0.3,3.9c-0.3,3.9-0.7,8.4-0.7,12.9c0,1.3,1.4,2.6,2.9,2.6
	c0.8,0,1.5-0.3,2.1-0.9c22.6-17.6,42.7-23.9,53.1-23.9c17.1,0,30.3,8.1,40.6,24.9c0.6,0.9,1.4,1.4,2.3,1.4c0.9,0,1.7-0.4,2.2-1.2
	c20.7-15.7,41.3-25.1,55-25.1c32.5,0,51.9,24.3,51.9,65c0,11.7-0.1,26.5-0.2,40.4c-0.1,12.1-0.2,23.5-0.2,31.4
	c0,1.9,2.6,7.2,6.4,8.3c4.8,2.3,11.6,3.5,20.3,5l0.3,0.1c0.7,2.3-0.7,11.4-2,13.3c-2.2,0-5.1-0.2-8.8-0.4c-6.8-0.3-16-0.8-26.8-0.8
	c-21.6,0-32.9,0.4-43.7,1.1c-0.8-2.7-1.1-11.4-0.1-13.2c6.3-1.2,9.4-2,13.2-3.1c6.9-2.3,8.9-5.4,9.3-14.5c0.2-6.5,1.4-63.6-0.8-77.1
	c-2-14-12.6-30.5-35.8-30.5c-8.6,0-22.5,3.6-35.7,13.6c-0.8,0.8-1.3,2.3-1.3,3.4l0,0.3c1.6,7.3,1.6,15.9,1.6,28.8
	c0,7.4,0,15.2-0.1,22.9c-0.1,15.7-0.2,30.6,0.1,41.8c0,7.7,4.6,9.5,8.4,11c2,0.4,3.6,0.8,5.2,1.2c3.1,0.8,6.4,1.5,11.1,2.3
	c0.7,1.5,0.7,6-0.2,9.9c-0.5,2.1-1.1,3.1-1.4,3.4c-12-0.4-24.3-0.8-42.1-0.8c-5.4,0-14.2,0.2-22,0.4c-6.3,0.2-12.3,0.3-15.6,0.3
	c-0.5-0.8-1.2-3.3-1.2-6.8c0-3.3,0.6-5.7,1.2-6.4c1.7-0.3,3.3-0.6,4.8-0.9c4.2-0.7,7.8-1.4,11.2-2.2c5.9-1.8,8.1-5.1,8.5-12.5
	c1.1-17.5,2-67.7-0.4-80.3c-4.2-20.2-15.7-30.5-34.2-30.5c-10.8,0-24.5,5.2-35.7,13.6c-1.9,1.4-3.3,4.9-3.3,8.1c0,6,0,13.1,0,20.8
	c-0.1,25.3-0.2,56.7,0.4,70.3c0.4,4.2,1.8,9.2,9.7,11c1.7,0.5,4.7,1,8.2,1.6c2,0.3,4.2,0.7,6.4,1.1c0.8,2.2,0.3,10.6-1.1,13.3
	c-3.5,0-7.7-0.2-12.6-0.4c-7.4-0.3-16.7-0.7-27.2-0.7c-12.4,0-21.1,0.4-28,0.7C325.9,456.2,321.9,456.4,317.9,456.4L317.9,456.4z"/>
<path class="st4" d="M718.3,460c-59.7,0-80.9-43.7-80.9-84.6c0-28.6,11.7-50.9,34.8-66.4c16.4-10.1,36-15.9,53.7-15.9
	c45.5,0,77.4,32.7,77.4,79.5c0,31.8-12.7,57-36.8,72.7C754.9,452.3,734.9,460,718.3,460L718.3,460z M711.9,309.7
	c-7.2,0-14,1.9-19,5.3c-13.8,8.4-20.8,25.1-20.8,49.7c0,46,23.1,78.2,56.1,78.2c9.7,0,17.7-2.8,24.3-8.6
	c10.1-8.3,15.5-25.2,15.5-48.8C768,340.2,745.5,309.7,711.9,309.7L711.9,309.7z"/>
<path class="st4" d="M1336.2,460c-59.7,0-80.9-43.7-80.9-84.6c0-28.6,11.7-50.9,34.8-66.4c16.4-10.1,36-15.9,53.7-15.9
	c45.5,0,77.4,32.7,77.4,79.5c0,31.9-12.7,57-36.8,72.7C1372.8,452.3,1352.8,460,1336.2,460L1336.2,460z M1329.9,309.7
	c-7.2,0-14,1.9-19,5.3c-13.8,8.4-20.8,25.1-20.8,49.7c0,46,23.1,78.2,56.1,78.2c9.7,0,17.7-2.8,24.3-8.6
	c10.1-8.3,15.5-25.2,15.5-48.8C1386,340.2,1363.4,309.7,1329.9,309.7L1329.9,309.7z"/>
<path class="st4" d="M1130.2,554.1c-21.4,0-36.9-4.5-50-14.7c-12.8-9.9-18.6-24.6-18.6-34.7c0-2.9,0.7-10.4,7-17.6
	c3.7-4.2,12.4-12.2,32.4-25.9c0.6-0.2,1-0.8,1-1.6c0-0.8-0.5-1.5-1.3-1.6c-16.5-6.3-21.4-16.6-22.9-22.2c0-0.2-0.1-0.5-0.2-0.9
	c-0.5-2.2-0.9-4.3,2.1-6.4c2.3-1.6,6-3.8,9.9-6.1c5.8-3.4,12.3-7.3,16-10.4c0.6-0.6,0.8-1.4,0.7-2.2c-0.1-0.8-0.6-1.5-1.3-1.9
	c-24.4-8.2-36.6-26.3-36.6-53.8c0-17.8,8.2-33.8,22.5-44.1c9.8-7.7,34.4-17,50.3-17l0.9,0c16.4,0.4,25.6,3.8,38.4,8.5
	c6.9,2.6,13.5,3.6,22.7,3.6c13.6,0,19.5-4.3,24.6-9.2c0.3,0.6,1,2.6,1.3,7c0.3,4.6-0.9,11.3-4.4,16.1c-2.8,3.8-9.2,6.6-15.3,6.6
	c-0.6,0-1.2,0-1.8-0.1c-6.2-0.6-9.2-1.5-9.2-1.5l-1.5,0.5c-0.5,0.7-0.2,1.5,0.2,2.5c0.1,0.2,0.2,0.5,0.2,0.6
	c0.8,3.2,2.2,12.4,2.2,15c0,28.9-11.4,41.5-23.7,50.8c-11.8,8.9-25.5,14.2-41,15.8h0c-0.3,0-1.8,0.1-4.7,0.4
	c-1.9,0.2-4.3,0.4-4.6,0.4l-0.4,0c-2.7,0.8-9.7,4.1-9.7,10.3c0,5.1,3.2,11.5,18.3,12.6c3.1,0.2,6.3,0.5,9.8,0.7
	c19.9,1.4,44.8,3.1,56.6,7.1c16.1,5.9,26.1,20.3,26.1,37.6c0,25.9-18.4,50.3-49.3,65.1C1161.8,550.7,1146.6,554.1,1130.2,554.1
	L1130.2,554.1z M1127.8,463.1c-6.9,0-11.9,2-14.9,3.7c-14.6,9.3-21.3,18.6-21.3,29.4c0,10.1,3.9,18.1,12.4,25.3
	c10.2,8.7,24,12.9,42.1,12.9c35.7,0,51.7-19.2,51.7-38.1c0-13.2-6.6-22.1-20.3-27.1C1166.9,465.2,1149.3,463.1,1127.8,463.1
	L1127.8,463.1z M1130.2,308.2c-18.4,0-30.3,14.5-30.3,37c0,22.7,10.2,49.1,39,49.1c4.9,0,13.9-2.2,18.4-7.1
	c6.7-6.1,11.1-18.8,11.1-32.2C1168.3,325.6,1154.1,308.2,1130.2,308.2L1130.2,308.2z"/>
<path class="st4" d="M1033.2,442c-8.7-1.2-15.1-2.4-22.6-5.9c-1.2-0.8-2.8-4.3-2.8-5.5c-0.8-12.2-0.8-47.5-0.8-70.6
	c0-18.8-3.2-35.3-11.1-47.1c-9.5-13.3-23-21.2-40.5-21.2c-15.5,0-36.1,10.6-53.2,25.1c-0.4,0.4-3,2.9-3-1c0.1-3.9,0.7-11.7,1-16.7
	c0.4-4.9-2.6-7.3-2.6-7.3c-11.1,5.5-42.4,12.9-54,14.1c-8.5,1.6-10.6,9.7-1.6,12.5v0c0,0,0.1,0,0.1,0c9.4,2.8,15.8,5.9,20.5,9
	c3.6,2.7,3.2,6.7,3.2,9.8c0.4,26.3,0.4,66.7-0.8,88.7c-0.4,8.6-2.8,11.8-9.1,13.3l0.6-0.2c-4.8,1.2-8.7,2-14.7,2.7
	c-2,2-2,13.3,0,15.7c4,0,24.2-1.2,40.9-1.2c23,0,35,1.2,40.9,1.2c2.4-2.8,3.2-13.3,1.6-15.7c-6.8-0.4-11.5-1.2-16.3-2.4
	c-6.4-1.6-7.9-4.7-8.3-11.8c-0.8-18.4-0.8-57.7-0.8-84.3c0-7.5,2-11,4.4-12.9c7.9-7.1,21-11.8,32.6-11.8c11.1,0,18.7,3.5,24.2,8.2
	c7.5,6.3,10.3,15.3,11.1,22c1.6,14.9,1.2,44.7,1.2,70.6c0,14.1-1.2,17.7-6.4,19.2c-2.4,1.2-8.7,2.4-16.3,3.1
	c-2.4,2.3-1.6,13.3,0,15.7c10.3,0,22.2-1.2,39.7-1.2c21.8,0,35.7,1.2,41.3,1.2C1034,455,1034.8,444.8,1033.2,442z"/>
</svg>
