<?xml version="1.0" encoding="utf-8"?>
<!-- Generator: Adobe Illustrator 16.0.4, SVG Export Plug-In . SVG Version: 6.00 Build 0)  -->
<!DOCTYPE svg PUBLIC "-//W3C//DTD SVG 1.1//EN" "http://www.w3.org/Graphics/SVG/1.1/DTD/svg11.dtd">
<svg version="1.1" id="Vector_Smart_Object_xA0_Image_1_"
	 xmlns="http://www.w3.org/2000/svg" xmlns:xlink="http://www.w3.org/1999/xlink" x="0px" y="0px" width="800px" height="800px"
	 viewBox="0 0 800 800" enable-background="new 0 0 800 800" xml:space="preserve">
<g>
	<path fill="#2683FF" d="M732.601,242.752c-0.604,23.477-10.795,40.97-30.461,52.762c-3.625,2.17-4.887,4.379-4.877,8.518
		c0.123,64.04,0.117,128.086,0.018,192.111c-0.006,3.847,0.975,6.171,4.5,8.212c22.758,13.14,34.268,37.395,30.182,62.884
		c-3.92,24.431-23.447,44.503-48.742,49.309c-14.664,2.794-28.871,0.566-41.729-7.317c-3.914-2.398-6.676-1.98-10.346,0.145
		c-55.057,31.886-110.172,63.695-165.344,95.385c-3.775,2.164-5.189,4.558-5.186,8.954c0.062,30.815-23.721,57.633-53.432,60.617
		c-31.639,3.188-59.611-16.685-66.446-47.399c-1.051-4.719-1.403-9.646-1.514-14.486c-0.077-3.27-0.986-5.277-3.896-6.966
		c-55.942-32.177-111.835-64.432-167.703-96.74c-3.027-1.758-5.404-1.768-8.453,0.074c-36.504,21.974-83.038,0.905-90.776-40.145
		c-4.888-25.93,5.671-50.187,28.879-63.84c3.669-2.161,5.325-4.345,5.317-8.83c-0.166-64.041-0.142-128.083-0.041-192.118
		c0.003-3.849-0.996-6.122-4.518-8.168c-23.307-13.534-34.266-37.052-29.79-63.457c4.441-26.229,24.729-45.47,51.126-49.228
		c14.148-2.014,27.792,0.563,40.038,8.381c2.842,1.816,4.956,1.762,7.851,0.094c55.706-32.237,111.455-64.379,167.25-96.451
		c3.372-1.938,4.688-4.168,4.697-8.143c0.095-35.273,27.96-62.27,63.279-61.56c27.523,0.553,53.275,23.271,57.186,50.436
		c0.357,2.498,0.918,4.035,0.918,7.475c0,7.529,2.771,10.726,8.637,14.073c54.135,30.975,108.119,62.195,162.074,93.471
		c3.703,2.15,6.398,2.243,10.258,0.051c36.645-20.901,81.076-0.872,89.996,40.488C732.388,235.188,732.308,239.236,732.601,242.752z
		 M254.856,462.453c-0.553,0.469-0.926,0.878-1.389,1.134c-30.367,17.545-60.716,35.134-91.194,52.479
		c-1.684,0.948-4.962,0.752-6.669-0.282c-8.058-4.867-16.631-8.096-26.019-8.346c-31.233-0.801-50.23,24.718-51.294,46.88
		c-1.236,25.956,18.406,52.55,50.173,52.308c27.859-0.201,49.057-22.539,48.781-50.41c-0.046-4.979,1.417-7.799,5.789-10.275
		c32.362-18.434,64.601-37.084,96.808-55.781c3.112-1.816,5.616-2.108,9.004-0.52c20.083,9.438,40.854,11.04,62.267,4.987
		c2.126-0.598,4.95,0.008,7.081,0.917c6.295,2.678,12.309,6.08,18.645,8.634c3.615,1.463,4.832,3.438,4.826,7.273
		c-0.109,50.479-0.105,100.95-0.01,151.426c0.004,3.562-1.121,5.583-4.369,7.144c-17.012,8.194-29.844,29.353-26.344,51.98
		c4.065,26.283,31.075,46.14,57.13,41.043c22.961-4.49,38.043-20.159,41.273-44.273c2.188-16.354-5.684-37.949-26.715-48.76
		c-2.85-1.456-4.424-3.051-4.414-6.559c0.104-49.03,0.109-98.056,0-147.079c-0.004-4.357,1.998-5.25,5.812-5.926
		c10.076-1.771,20.174-3.716,30.018-6.48c4.453-1.244,7.979-1.426,12.293,0.432c21.582,9.29,42.604,7.697,62.705-4.434
		c2.871-1.725,4.928-1.803,7.811-0.119c26.557,15.463,53.162,30.861,79.883,46.035c4.318,2.445,5.994,5.152,5.861,10.227
		c-0.77,29.331,24.807,53.296,54.637,50.12c29.281-3.11,50.023-31.301,43.232-59.8c-8.141-34.154-45.135-49.56-75.018-31.103
		c-3.148,1.944-5.428,2.471-8.781,0.509c-25.289-14.777-50.637-29.444-76.088-43.937c-3.764-2.136-4.264-4.122-3.066-8.155
		c7.676-25.863,2.463-48.867-16.059-68.679c-3.619-3.874-20.602-30.993-22.969-35.994c-1.871-3.955-1.078-6.065,2.689-8.229
		c38.59-22.1,77.121-44.307,115.588-66.619c3.1-1.792,5.203-1.825,8.24,0.216c10.84,7.282,22.994,9.581,35.746,7.352
		c24.82-4.351,42.812-26.812,40.602-53.324c-2.402-28.765-30.621-50.266-58.801-44.032c-24.729,5.477-40.262,24.807-39.979,50.21
		c0.041,4.331-1.162,6.801-5.021,9.005c-39.076,22.355-78.053,44.864-116.961,67.512c-3.51,2.036-5.43,1.617-8.248-1.104
		c-18.336-17.662-40.391-27.582-65.561-30.724c-8.49-1.07-8.496-1.022-8.496-9.789c-0.004-45.952,0.109-91.904-0.137-137.854
		c-0.033-6.413,1.467-10.129,7.473-13.582c21.545-12.376,29.736-39.028,19.877-61.751c-9.941-22.922-35.336-35.169-59.155-27.913
		c-21.68,6.602-33.76,21.919-35.889,44.204c-1.636,17.2,6.5,36.306,26.129,47.029c3.014,1.646,5.119,3.094,5.104,7.231
		c-0.166,50.659-0.152,101.311-0.025,151.973c0.008,4.015-1.82,5.376-5.098,7.033c-9.801,4.941-20.314,9.262-28.634,16.143
		c-9.598,7.924-18.567,12.5-31.934,12.5c-1.304-0.043-2.143,0.088-3.498,0.059c-3.312-0.072-7.032-0.21-9.739-1.758
		c-39.418-22.479-78.623-45.327-118.09-67.733c-5.637-3.196-8.359-6.619-7.418-13.118c0.375-2.589-0.423-5.36-0.844-8.028
		c-3.854-24.271-27.591-44.574-56.246-39.861c-28.106,4.624-45.952,30.062-41.317,57.285c5.915,34.772,45.595,52.375,75.534,33.356
		c3.378-2.148,5.714-2.317,9.174-0.298c29.671,17.304,59.462,34.404,89.212,51.572c5.1,2.941,10.182,5.912,15.247,8.854
		C233.829,381.083,229.992,419.984,254.856,462.453z"/>
	<path fill="#2683FF" d="M337.05,345.426c7.82,0.694,11.715-1.938,17.43-7.247c24.673-22.93,53.781-30.03,85.74-19.414
		c31.418,10.436,50.9,32.762,57.355,65.518c1.262,6.415,3.783,10.27,9.516,13.538c16.381,9.331,25.818,29.515,22.576,46.331
		c-4.201,21.774-18.475,36.868-38.66,40.066c-10.75,1.709-21.426,0.487-30.889-5.342c-4.236-2.612-7.596-2.325-11.975-0.491
		c-28.107,11.815-55.323,9.812-81.19-6.461c-3.975-2.501-7.297-2.696-11.599-1.288c-36.451,11.905-74.365-8.775-83.625-45.133
		C261.124,383.823,294.376,343.524,337.05,345.426z"/>
	<path fill="#2683FF" d="M658.173,557.142c-0.004-8.147,5.857-14.078,13.887-14.057c7.729,0.031,14.305,6.412,14.385,13.964
		c0.084,7.267-6.945,14.291-14.273,14.304C664.327,571.354,658.179,565.112,658.173,557.142z"/>
	<path fill="#2683FF" d="M385.798,86.014c0.031-7.896,6.186-13.991,14.146-13.999c7.965-0.004,14.079,6.072,14.108,14.003
		c0.021,7.603-6.613,14.319-14.086,14.229C392.374,100.173,385.772,93.532,385.798,86.014z"/>
	<path fill="#2683FF" d="M141.666,557.205c-0.029,7.948-6.238,14.209-14.035,14.146c-7.369-0.065-14.182-6.941-14.215-14.365
		c-0.042-7.41,6.701-13.901,14.436-13.901C135.87,543.09,141.698,549.047,141.666,557.205z"/>
	<path fill="#2683FF" d="M400.094,700.219c7.954,0.057,13.995,6.105,13.956,13.978c-0.047,7.845-6.184,13.747-14.239,13.701
		c-7.994-0.049-14.102-6.146-14.014-13.984C385.889,706.115,392.116,700.165,400.094,700.219z"/>
	<path fill="#2683FF" d="M128.013,256.852c-8.057,0.073-14.356-5.796-14.595-13.586c-0.236-7.587,6.136-13.957,14.083-14.073
		c8.29-0.12,14.055,5.405,14.172,13.582C141.793,250.988,136.17,256.782,128.013,256.852z"/>
	<path fill="#2683FF" d="M671.882,256.875c-8.146-0.062-13.791-5.861-13.713-14.076c0.086-8.154,5.861-13.703,14.156-13.596
		c7.949,0.106,14.277,6.423,14.094,14.049C686.228,250.984,679.886,256.93,671.882,256.875z"/>
</g>
</svg>
