<?xml version="1.0" encoding="UTF-8"?>
<svg width="153px" height="143px" viewBox="0 0 153 143" version="1.1" xmlns="http://www.w3.org/2000/svg" xmlns:xlink="http://www.w3.org/1999/xlink">
    <!-- Generator: Sketch 52.6 (67491) - http://www.bohemiancoding.com/sketch -->
    <title>Group 64 Copy</title>
    <desc>Created with Sketch.</desc>
    <defs>
        <path d="M24.463327,33.9529053 C26.1512061,14.9213471 42.1217632,0 61.5740905,0 C76.9054766,0 90.0740455,9.26889018 95.7918171,22.5136828 C97.5357984,22.1659218 99.3393435,21.983531 101.185448,21.983531 C116.347551,21.983531 128.638864,34.2864835 128.638864,49.4629447 C128.638864,64.6394058 116.347551,76.9423584 101.185448,76.9423584 L21.9627329,76.9423584 L21.9627329,76.9388612 C21.8322817,76.9411894 21.7015479,76.9423584 21.5705413,76.9423584 C9.65746028,76.9423584 0,67.2757528 0,55.3513905 C0,43.4270281 9.65746028,33.7604225 21.5705413,33.7604225 C22.5514742,33.7604225 23.5171141,33.8259623 24.4633286,33.9529055 L24.463327,33.9529053 Z" id="path-1"></path>
        <filter x="-12.4%" y="-20.8%" width="124.9%" height="141.6%" filterUnits="objectBoundingBox" id="filter-2">
            <feGaussianBlur stdDeviation="11.5" in="SourceAlpha" result="shadowBlurInner1"></feGaussianBlur>
            <feOffset dx="0" dy="-9" in="shadowBlurInner1" result="shadowOffsetInner1"></feOffset>
            <feComposite in="shadowOffsetInner1" in2="SourceAlpha" operator="arithmetic" k2="-1" k3="1" result="shadowInnerInner1"></feComposite>
            <feColorMatrix values="0 0 0 0 0.45373104   0 0 0 0 0.545333256   0 0 0 0 0.62457483  0 0 0 0.231516078 0" type="matrix" in="shadowInnerInner1" result="shadowMatrixInner1"></feColorMatrix>
            <feMorphology radius="3" operator="erode" in="SourceAlpha" result="shadowSpreadInner2"></feMorphology>
            <feGaussianBlur stdDeviation="8" in="shadowSpreadInner2" result="shadowBlurInner2"></feGaussianBlur>
            <feOffset dx="0" dy="-4" in="shadowBlurInner2" result="shadowOffsetInner2"></feOffset>
            <feComposite in="shadowOffsetInner2" in2="SourceAlpha" operator="arithmetic" k2="-1" k3="1" result="shadowInnerInner2"></feComposite>
            <feColorMatrix values="0 0 0 0 0.24635155   0 0 0 0 0.289930235   0 0 0 0 0.34332483  0 0 0 0.0908061594 0" type="matrix" in="shadowInnerInner2" result="shadowMatrixInner2"></feColorMatrix>
            <feMerge>
                <feMergeNode in="shadowMatrixInner1"></feMergeNode>
                <feMergeNode in="shadowMatrixInner2"></feMergeNode>
            </feMerge>
        </filter>
        <linearGradient x1="18.4556011%" y1="0%" x2="18.4556011%" y2="150.807169%" id="linearGradient-3">
            <stop stop-color="#E9EAEE" offset="0%"></stop>
            <stop stop-color="#AEB1C4" offset="100%"></stop>
        </linearGradient>
        <linearGradient x1="23.8705998%" y1="133.504977%" x2="27.6443346%" y2="-206.02208%" id="linearGradient-4">
            <stop stop-color="#E2E6EA" offset="0%"></stop>
            <stop stop-color="#4A4A9D" offset="100%"></stop>
            <stop stop-color="#A1B4C2" offset="100%"></stop>
        </linearGradient>
        <path d="M1.57955988,0 L87.8774176,3.33066907e-15 C88.4297023,1.10776544e-14 88.8774176,0.44771525 88.8774176,1 C88.8774176,1.14062147 88.8477596,1.27966197 88.7903798,1.40804407 L81.112047,18.5876293 C78.0540775,25.4295635 71.2599784,29.834792 63.7657646,29.834792 L26.1475668,29.834792 C18.8025583,29.834792 12.1154391,25.6012588 8.9735715,18.9621461 L0.675665391,1.42775548 C0.439422565,0.928548334 0.652597263,0.332348335 1.15180441,0.0961055085 C1.28552537,0.0328239262 1.4316212,6.9330971e-16 1.57955988,6.66133815e-16 Z" id="path-5"></path>
        <filter x="-20.0%" y="-62.0%" width="140.1%" height="224.0%" filterUnits="objectBoundingBox" id="filter-6">
            <feGaussianBlur stdDeviation="15.5" in="SourceAlpha" result="shadowBlurInner1"></feGaussianBlur>
            <feOffset dx="0" dy="-6" in="shadowBlurInner1" result="shadowOffsetInner1"></feOffset>
            <feComposite in="shadowOffsetInner1" in2="SourceAlpha" operator="arithmetic" k2="-1" k3="1" result="shadowInnerInner1"></feComposite>
            <feColorMatrix values="0 0 0 0 0   0 0 0 0 0.0673843966   0 0 0 0 0.225047832  0 0 0 0.155853714 0" type="matrix" in="shadowInnerInner1"></feColorMatrix>
        </filter>
        <path d="M65.4960071,46.3224402 C64.6296012,46.3224402 63.9272405,45.6194144 63.9272405,44.752188 C63.9272405,43.8849617 64.6296012,43.1819358 65.4960071,43.1819358 L74.7284398,43.1819358 C75.5948457,43.1819358 76.2972064,43.8849617 76.2972064,44.752188 C76.2972064,45.6194144 75.5948457,46.3224402 74.7284398,46.3224402 L65.4960071,46.3224402 Z" id="path-7"></path>
        <filter x="-97.0%" y="-382.1%" width="294.0%" height="864.2%" filterUnits="objectBoundingBox" id="filter-8">
            <feMorphology radius="1" operator="dilate" in="SourceAlpha" result="shadowSpreadOuter1"></feMorphology>
            <feOffset dx="0" dy="0" in="shadowSpreadOuter1" result="shadowOffsetOuter1"></feOffset>
            <feGaussianBlur stdDeviation="3" in="shadowOffsetOuter1" result="shadowBlurOuter1"></feGaussianBlur>
            <feColorMatrix values="0 0 0 0 1   0 0 0 0 1   0 0 0 0 1  0 0 0 0.5 0" type="matrix" in="shadowBlurOuter1"></feColorMatrix>
        </filter>
        <linearGradient x1="-2.2524695%" y1="54.8599281%" x2="50%" y2="49.9945289%" id="linearGradient-9">
            <stop stop-color="#F4E113" offset="0%"></stop>
            <stop stop-color="#F49D1A" offset="100%"></stop>
        </linearGradient>
        <linearGradient x1="80.105678%" y1="38.8079107%" x2="-3.98912268%" y2="35.3022829%" id="linearGradient-10">
            <stop stop-color="#F4E113" offset="0%"></stop>
            <stop stop-color="#F49D1A" offset="100%"></stop>
        </linearGradient>
        <linearGradient x1="16.3684081%" y1="28.5622417%" x2="107.398523%" y2="28.5622417%" id="linearGradient-11">
            <stop stop-color="#F4E113" offset="0%"></stop>
            <stop stop-color="#F49D1A" offset="100%"></stop>
        </linearGradient>
        <linearGradient x1="54.1138725%" y1="94.8356608%" x2="-9.01737646%" y2="78.9020452%" id="linearGradient-12">
            <stop stop-color="#F4E113" offset="0%"></stop>
            <stop stop-color="#F49D1A" offset="100%"></stop>
        </linearGradient>
    </defs>
    <g id="Page-1" stroke="none" stroke-width="1" fill="none" fill-rule="evenodd">
        <g id="Group-64-Copy" transform="translate(0.000000, -7.000000)" fill-rule="nonzero">
            <g id="Group-13-Copy-2" transform="translate(-0.000000, 32.030303)">
                <g id="Group-13-Copy" transform="translate(-0.000000, 0.000000)">
                    <g id="Group-5">
                        <g id="Path">
                            <use fill="#2E8DFF" xlink:href="#path-1"></use>
                            <use fill="black" fill-opacity="1" filter="url(#filter-2)" xlink:href="#path-1"></use>
                        </g>
                        <g id="Group-14" transform="translate(20.393966, 58.884458)">
                            <g id="Group-8">
                                <g id="Group-7">
                                    <g id="Group-6">
                                        <path d="M1,29.0496659 L88.4196983,29.0496659 C88.9719831,29.0496659 89.4196983,29.4973812 89.4196983,30.0496659 L89.4196983,43.9670619 C89.4196983,52.2057122 82.7409526,58.8844579 74.5023023,58.8844579 L14.917396,58.8844579 C6.67874569,58.8844579 1.00894367e-15,52.2057122 0,43.9670619 L0,30.0496659 C-6.76353751e-17,29.4973812 0.44771525,29.0496659 1,29.0496659 Z" id="Rectangle" fill="url(#linearGradient-3)"></path>
                                        <g id="Rectangle-Copy-2" transform="translate(44.709849, 14.917396) rotate(-180.000000) translate(-44.709849, -14.917396) ">
                                            <use fill="url(#linearGradient-4)" xlink:href="#path-5"></use>
                                            <use fill-opacity="0.634142889" fill="#FFFFFF" xlink:href="#path-5"></use>
                                            <use fill="black" fill-opacity="1" filter="url(#filter-6)" xlink:href="#path-5"></use>
                                        </g>
                                    </g>
                                </g>
                            </g>
                            <g id="Line">
                                <use fill="black" fill-opacity="1" filter="url(#filter-8)" xlink:href="#path-7"></use>
                                <use fill="#FFFFFF" xlink:href="#path-7"></use>
                            </g>
                        </g>
                    </g>
                </g>
            </g>
            <g id="Group-47" transform="translate(77.714286, 0.000000)">
                <g id="Group-12" transform="translate(24.951782, 50.775996) rotate(-210.000000) translate(-24.951782, -50.775996) translate(6.026068, 33.636516)">
                    <path d="M0.557622456,14.1643969 C0.559660222,13.9640277 0.562701797,13.8140375 0.566747183,13.7144264 C0.875055636,6.12282253 8.95730524,0.0415425608 18.8825204,0.0415425608 C28.8135095,0.0415425608 36.8993882,6.1299001 37.1988238,13.727677 C37.2026344,13.8243663 37.2054993,13.9699396 37.2074184,14.1643969 L37.2074184,19.596264 C37.2055596,19.7876486 37.2027845,19.9309261 37.1990931,20.0260963 C36.9042744,27.627081 28.8165103,33.7191183 18.8825204,33.7191183 C9.03796684,33.7191183 1.00654524,27.7362811 0.575801149,20.2310223 C0.567750074,20.0907408 0.56169051,19.8791547 0.557622456,19.596264 L0.557622456,14.1643969 Z" id="Path" fill="url(#linearGradient-9)"></path>
                    <ellipse id="Oval" fill="url(#linearGradient-10)" cx="19.0949411" cy="19.6444139" rx="18.324898" ry="14.1325541"></ellipse>
                </g>
                <g id="Group-12-Copy" transform="translate(56.132111, 25.514617) rotate(-315.000000) translate(-56.132111, -25.514617) translate(37.206396, 8.375136)">
                    <path d="M0.557622456,14.1643969 C0.559660222,13.9640277 0.562701797,13.8140375 0.566747183,13.7144264 C0.875055636,6.12282253 8.95730524,0.0415425608 18.8825204,0.0415425608 C28.8135095,0.0415425608 36.8993882,6.1299001 37.1988238,13.727677 C37.2026344,13.8243663 37.2054993,13.9699396 37.2074184,14.1643969 L37.2074184,19.596264 C37.2055596,19.7876486 37.2027845,19.9309261 37.1990931,20.0260963 C36.9042744,27.627081 28.8165103,33.7191183 18.8825204,33.7191183 C9.03796684,33.7191183 1.00654524,27.7362811 0.575801149,20.2310223 C0.567750074,20.0907408 0.56169051,19.8791547 0.557622456,19.596264 L0.557622456,14.1643969 Z" id="Path" fill="url(#linearGradient-11)"></path>
                    <ellipse id="Oval" fill="url(#linearGradient-12)" cx="19.0949411" cy="19.6444139" rx="18.324898" ry="14.1325541"></ellipse>
                </g>
            </g>
        </g>
    </g>
</svg>