<?xml version="1.0" encoding="UTF-8"?>
<svg width="89px" height="61px" viewBox="0 0 89 61" version="1.1" xmlns="http://www.w3.org/2000/svg" xmlns:xlink="http://www.w3.org/1999/xlink">
    <!-- Generator: Sketch 52.6 (67491) - http://www.bohemiancoding.com/sketch -->
    <title>tar-com-blocks</title>
    <desc>Created with Sketch.</desc>
    <defs>
        <linearGradient x1="63.2326955%" y1="81.7900367%" x2="81.4007366%" y2="44.0196847%" id="linearGradient-1">
            <stop stop-color="#00FFE9" offset="0%"></stop>
            <stop stop-color="#06B5BF" offset="100%"></stop>
        </linearGradient>
        <linearGradient x1="0%" y1="0%" x2="101.999998%" y2="100.999999%" id="linearGradient-2">
            <stop stop-color="#4152FF" offset="0%"></stop>
            <stop stop-color="#00ACFF" offset="100%"></stop>
        </linearGradient>
        <polygon id="path-3" points="1.64845915e-12 -1.98951966e-13 44.2632152 21.809958 44.2632152 40.2049365 1.64845915e-12 18.3949786"></polygon>
        <linearGradient x1="0%" y1="0%" x2="101.999998%" y2="100.999999%" id="linearGradient-4">
            <stop stop-color="#B341FF" offset="0%"></stop>
            <stop stop-color="#4664FF" offset="4.79749186%"></stop>
            <stop stop-color="#00ACFF" offset="100%"></stop>
        </linearGradient>
        <path d="M24.9300367,18.5972931 L0.726117575,30.5233689 L0.726117575,12.1283903 L24.9300367,0.202314498 L24.9300367,18.5972931 Z" id="path-5"></path>
        <linearGradient x1="0%" y1="0%" x2="101.999998%" y2="100.999999%" id="linearGradient-7">
            <stop stop-color="#4146FF" offset="0%"></stop>
            <stop stop-color="#00ACFF" offset="100%"></stop>
        </linearGradient>
        <linearGradient x1="50%" y1="0%" x2="50%" y2="100%" id="linearGradient-8">
            <stop stop-color="#CBE6FF" stop-opacity="0.5" offset="0%"></stop>
            <stop stop-color="#2596FF" stop-opacity="0.5" offset="100%"></stop>
        </linearGradient>
        <polygon id="path-9" points="24.5165079 0.480883228 68.7797231 22.2908412 44.2632152 34.3959959 0 12.586038"></polygon>
        <linearGradient x1="66.9416916%" y1="83.1573758%" x2="81.4007366%" y2="44.0196847%" id="linearGradient-11">
            <stop stop-color="#9300F6" offset="0%"></stop>
            <stop stop-color="#8200D2" offset="100%"></stop>
        </linearGradient>
        <polygon id="path-12" points="24.5165079 0.480883228 68.7797231 22.2908412 44.2632152 34.3959959 0 12.586038"></polygon>
    </defs>
    <g id="Page-1" stroke="none" stroke-width="1" fill="none" fill-rule="evenodd">
        <g id="tar-com-blocks">
            <g id="Group-61" transform="translate(0.000000, 7.745254)">
                <g id="Group-13" transform="translate(0.000000, 12.586038)">
                    <g id="Rectangle-2" fill-rule="nonzero">
                        <g id="Rectangle">
                            <use fill="url(#linearGradient-1)" xlink:href="#path-3"></use>
                            <use fill="url(#linearGradient-2)" xlink:href="#path-3"></use>
                        </g>
                    </g>
                    <g id="Combined-Shape-3" transform="translate(43.567055, 9.681568)">
                        <g id="Combined-Shape-2">
                            <mask id="mask-6" fill="white">
                                <use xlink:href="#path-5"></use>
                            </mask>
                            <use id="Combined-Shape" fill="url(#linearGradient-4)" fill-rule="nonzero" xlink:href="#path-5"></use>
                        </g>
                    </g>
                </g>
                <g id="Group-59">
                    <mask id="mask-10" fill="white">
                        <use xlink:href="#path-9"></use>
                    </mask>
                    <g id="Rectangle-Copy-47" fill-rule="nonzero">
                        <use fill="url(#linearGradient-7)" xlink:href="#path-9"></use>
                        <use fill="url(#linearGradient-8)" xlink:href="#path-9"></use>
                    </g>
                    <path d="M35.5854476,0.0750792203 L35.6500307,0.11411849 C36.7330712,0.768796232 37.0803279,2.17749525 36.4256501,3.26053581 C36.2080947,3.62044012 35.8956899,3.91353238 35.5226531,4.10771028 L28.8247788,7.59417436 L26.881261,6.55572791 C25.3072253,5.71470046 24.7130046,3.75690491 25.5540321,2.18286916 C25.8529661,1.62339543 26.3099546,1.16427829 26.8680331,0.862747626 L28.6367776,-0.0929076544 C30.8191571,-1.27205056 33.4625967,-1.20814435 35.5854476,0.0750792203 Z" id="Rectangle" fill-opacity="0.605978261" fill="#0100E9" fill-rule="nonzero" opacity="0.17" mask="url(#mask-10)"></path>
                    <path d="M49.1396423,7.82033335 L49.2042254,7.85937262 C50.2872659,8.51405037 50.6345226,9.92274938 49.9798449,11.0057899 C49.7622895,11.3656943 49.4498846,11.6587865 49.0768478,11.8529644 L42.3789736,15.3394285 L40.4354557,14.300982 C38.86142,13.4599546 38.2671994,11.502159 39.1082268,9.9281233 C39.4071608,9.36864956 39.8641493,8.90953242 40.4222278,8.60800176 L42.1909723,7.65234648 C44.3733518,6.47320357 47.0167915,6.53710978 49.1396423,7.82033335 Z" id="Rectangle-Copy-48" fill="#A45200" fill-rule="nonzero" opacity="0.531575521" mask="url(#mask-10)"></path>
                    <path d="M64.6301506,14.5974307 L64.6947337,14.63647 C65.7777742,15.2911477 66.1250309,16.6998467 65.4703532,17.7828873 C65.2527977,18.1427916 64.9403929,18.4358839 64.5673561,18.6300618 L57.8694818,22.1165259 L55.925964,21.0780794 C54.3519283,20.237052 53.7577076,18.2792564 54.5987351,16.7052207 C54.8976691,16.1457469 55.3546576,15.6866298 55.9127361,15.3850991 L57.6814806,14.4294438 C59.8638601,13.2503009 62.5072997,13.3142071 64.6301506,14.5974307 Z" id="Rectangle-Copy-49" fill="#A45200" fill-rule="nonzero" opacity="0.531575521" mask="url(#mask-10)"></path>
                </g>
                <g id="Group-60" transform="translate(9.681568, 0.000000)" fill-rule="nonzero">
                    <g id="Group-58-Copy" transform="translate(12.586038, 0.000000)">
                        <path d="M0,1.93631353 C0,0.866917098 1.7338342,0 3.87262707,0 C6.01141994,0 7.74525413,0.866917098 7.74525413,1.93631353 L7.74525413,6.77709737 C7.74525413,7.8464938 6.01141994,8.7134109 3.87262707,8.7134109 C1.7338342,8.7134109 0,7.8464938 0,6.77709737 L0,1.93631353 Z" id="Path" fill="#4055FF"></path>
                        <ellipse id="Oval" fill="#9DD9FF" cx="3.87262707" cy="1.93631353" rx="3.87262707" ry="1.93631353"></ellipse>
                    </g>
                    <g id="Group-58" transform="translate(0.000000, 5.808941)">
                        <path d="M13.6297673,1.48430054 L13.6943504,1.52333981 C14.777391,2.17801755 15.1246477,3.58671657 14.4699699,4.66975713 C14.2524145,5.02966144 13.9400096,5.3227537 13.5669729,5.5169316 L6.86909859,9.00339568 L4.92558077,7.96494923 C3.35154502,7.12392178 2.75732439,5.16612623 3.59835184,3.59209048 C3.89728582,3.03261675 4.35427434,2.57349961 4.91235287,2.27196895 L6.68109734,1.31631367 C8.86347686,0.137170755 11.5069165,0.201076965 13.6297673,1.48430054 Z" id="Rectangle" fill-opacity="0.605978261" fill="#0100E9" opacity="0.17"></path>
                        <path d="M0,2.9044703 C0,1.83507386 1.7338342,0.968156767 3.87262707,0.968156767 C6.01141994,0.968156767 7.74525413,1.83507386 7.74525413,2.9044703 L7.74525413,7.74525413 C7.74525413,8.81465057 6.01141994,9.68156767 3.87262707,9.68156767 C1.7338342,9.68156767 0,8.81465057 0,7.74525413 L0,2.9044703 Z" id="Path" fill="#4055FF"></path>
                        <ellipse id="Oval" fill="#9DD9FF" cx="3.87262707" cy="2.9044703" rx="3.87262707" ry="1.93631353"></ellipse>
                    </g>
                </g>
                <g id="Group-60-Copy" transform="translate(24.203919, 6.777097)" fill-rule="nonzero">
                    <g id="Group-58-Copy" transform="translate(12.586038, 0.000000)">
                        <path d="M0,1.93631353 C0,0.866917098 1.7338342,0 3.87262707,0 C6.01141994,0 7.74525413,0.866917098 7.74525413,1.93631353 L7.74525413,6.77709737 C7.74525413,7.8464938 6.01141994,8.7134109 3.87262707,8.7134109 C1.7338342,8.7134109 0,7.8464938 0,6.77709737 L0,1.93631353 Z" id="Path" fill="#E57300"></path>
                        <ellipse id="Oval" fill="#FF8700" cx="3.87262707" cy="1.93631353" rx="3.87262707" ry="1.93631353"></ellipse>
                    </g>
                    <g id="Group-58" transform="translate(0.000000, 5.808941)">
                        <path d="M13.6297673,1.48430054 L13.6943504,1.52333981 C14.777391,2.17801755 15.1246477,3.58671657 14.4699699,4.66975713 C14.2524145,5.02966144 13.9400096,5.3227537 13.5669729,5.5169316 L6.86909859,9.00339568 L4.92558077,7.96494923 C3.35154502,7.12392178 2.75732439,5.16612623 3.59835184,3.59209048 C3.89728582,3.03261675 4.35427434,2.57349961 4.91235287,2.27196895 L6.68109734,1.31631367 C8.86347686,0.137170755 11.5069165,0.201076965 13.6297673,1.48430054 Z" id="Rectangle" fill="#A45200" opacity="0.109979539"></path>
                        <path d="M0,2.9044703 C0,1.83507386 1.7338342,0.968156767 3.87262707,0.968156767 C6.01141994,0.968156767 7.74525413,1.83507386 7.74525413,2.9044703 L7.74525413,7.74525413 C7.74525413,8.81465057 6.01141994,9.68156767 3.87262707,9.68156767 C1.7338342,9.68156767 0,8.81465057 0,7.74525413 L0,2.9044703 Z" id="Path" fill="#E57300"></path>
                        <ellipse id="Oval" fill="#FF8700" cx="3.87262707" cy="2.9044703" rx="3.87262707" ry="1.93631353"></ellipse>
                    </g>
                </g>
                <g id="Group-60-Copy-2" transform="translate(39.694427, 13.554195)" fill-rule="nonzero">
                    <g id="Group-58-Copy" transform="translate(12.586038, 0.000000)">
                        <path d="M0,1.93631353 C0,0.866917098 1.7338342,0 3.87262707,0 C6.01141994,0 7.74525413,0.866917098 7.74525413,1.93631353 L7.74525413,6.77709737 C7.74525413,7.8464938 6.01141994,8.7134109 3.87262707,8.7134109 C1.7338342,8.7134109 0,7.8464938 0,6.77709737 L0,1.93631353 Z" id="Path" fill="#E57300"></path>
                        <ellipse id="Oval" fill="#FF8700" cx="3.87262707" cy="1.93631353" rx="3.87262707" ry="1.93631353"></ellipse>
                    </g>
                    <g id="Group-58" transform="translate(0.000000, 5.808941)">
                        <path d="M13.6297673,1.48430054 L13.6943504,1.52333981 C14.777391,2.17801755 15.1246477,3.58671657 14.4699699,4.66975713 C14.2524145,5.02966144 13.9400096,5.3227537 13.5669729,5.5169316 L6.86909859,9.00339568 L4.92558077,7.96494923 C3.35154502,7.12392178 2.75732439,5.16612623 3.59835184,3.59209048 C3.89728582,3.03261675 4.35427434,2.57349961 4.91235287,2.27196895 L6.68109734,1.31631367 C8.86347686,0.137170755 11.5069165,0.201076965 13.6297673,1.48430054 Z" id="Rectangle" fill="#A45200" opacity="0.109979539"></path>
                        <path d="M0,2.9044703 C0,1.83507386 1.7338342,0.968156767 3.87262707,0.968156767 C6.01141994,0.968156767 7.74525413,1.83507386 7.74525413,2.9044703 L7.74525413,7.74525413 C7.74525413,8.81465057 6.01141994,9.68156767 3.87262707,9.68156767 C1.7338342,9.68156767 0,8.81465057 0,7.74525413 L0,2.9044703 Z" id="Path" fill="#E57300"></path>
                        <ellipse id="Oval" fill="#FF8700" cx="3.87262707" cy="2.9044703" rx="3.87262707" ry="1.93631353"></ellipse>
                    </g>
                </g>
            </g>
            <g id="Group-61-Copy" transform="translate(54.093386, 21.878445) scale(-1, 1) translate(-54.093386, -21.878445) translate(19.600429, 0.484078)">
                <g id="Group-13" transform="translate(0.000000, 12.586038)" fill-rule="nonzero">
                    <polygon id="Rectangle" fill="url(#linearGradient-11)" points="1.5312196e-12 -1.98951966e-13 44.2632152 21.809958 44.2632152 29.5552121 1.5312196e-12 7.74525413"></polygon>
                    <path d="M68.4970912,17.6291363 L44.2931721,29.5552121 L44.2931721,21.809958 L68.4970912,9.88388217 L68.4970912,17.6291363 Z" id="Combined-Shape" fill="#D391FF"></path>
                </g>
                <g id="Group-59">
                    <mask id="mask-13" fill="white">
                        <use xlink:href="#path-12"></use>
                    </mask>
                    <use id="Rectangle-Copy-47" fill="#C171FF" fill-rule="nonzero" xlink:href="#path-12"></use>
                    <g id="Group-62" mask="url(#mask-13)" fill="#8D00E9" fill-rule="nonzero" opacity="0.172154018">
                        <g transform="translate(17.426822, 0.000000)">
                            <path d="M10.725297,1.48430054 L10.7898801,1.52333981 C11.8729207,2.17801755 12.2201774,3.58671657 11.5654996,4.66975713 C11.3479442,5.02966144 11.0355393,5.3227537 10.6625026,5.5169316 L3.96462829,9.00339568 L2.02111047,7.96494923 C0.447074724,7.12392178 -0.14714591,5.16612623 0.69388154,3.59209048 C0.99281552,3.03261675 1.44980404,2.57349961 2.00788257,2.27196895 L3.77662704,1.31631367 C5.95900656,0.137170755 8.60244621,0.201076965 10.725297,1.48430054 Z" id="Rectangle-Copy-51" transform="translate(6.104100, 4.722230) scale(-1, 1) translate(-6.104100, -4.722230) "></path>
                            <path d="M25.2476485,8.26139791 L25.3122316,8.30043718 C26.3952722,8.95511492 26.7425289,10.3638139 26.0878511,11.4468545 C25.8702957,11.8067588 25.5578908,12.0998511 25.1848541,12.294029 L18.4869798,15.780493 L16.543462,14.7420466 C14.9694262,13.9010191 14.3752056,11.9432236 15.216233,10.3691879 C15.515167,9.80971411 15.9721555,9.35059698 16.5302341,9.04906631 L18.2989785,8.09341103 C20.4813581,6.91426812 23.1247977,6.97817433 25.2476485,8.26139791 Z" id="Rectangle-Copy-52" transform="translate(20.626452, 11.499327) scale(-1, 1) translate(-20.626452, -11.499327) "></path>
                            <path d="M40.7381568,15.0384953 L40.8027399,15.0775345 C41.8857804,15.7322123 42.2330371,17.1409113 41.5783594,18.2239519 C41.360804,18.5838562 41.0483991,18.8769484 40.6753623,19.0711263 L33.9774881,22.5575904 L32.0339702,21.519144 C30.4599345,20.6781165 29.8657139,18.720321 30.7067413,17.1462852 C31.0056753,16.5868115 31.4626638,16.1276943 32.0207423,15.8261637 L33.7894868,14.8705084 C35.9718663,13.6913655 38.615306,13.7552717 40.7381568,15.0384953 Z" id="Rectangle-Copy-50" transform="translate(36.116960, 18.276425) scale(-1, 1) translate(-36.116960, -18.276425) "></path>
                        </g>
                    </g>
                    <path d="M14.5979241,8.26139791 L14.6625072,8.30043718 C15.7455477,8.95511492 16.0928044,10.3638139 15.4381267,11.4468545 C15.2205713,11.8067588 14.9081664,12.0998511 14.5351296,12.294029 L7.83725536,15.780493 L5.89373754,14.7420466 C4.31970179,13.9010191 3.72548116,11.9432236 4.56650861,10.3691879 C4.86544259,9.80971411 5.32243111,9.35059698 5.88050964,9.04906631 L7.64925411,8.09341103 C9.83163362,6.91426812 12.4750733,6.97817433 14.5979241,8.26139791 Z" id="Rectangle" fill="#8D00E9" fill-rule="nonzero" opacity="0.172154018" mask="url(#mask-13)" transform="translate(9.976727, 11.499327) scale(-1, 1) translate(-9.976727, -11.499327) "></path>
                </g>
                <g id="Group-60" transform="translate(9.681568, 0.000000)" fill-rule="nonzero">
                    <g id="Group-58-Copy" transform="translate(12.586038, 0.000000)">
                        <path d="M0,1.93631353 C0,0.866917098 1.7338342,0 3.87262707,0 C6.01141994,0 7.74525413,0.866917098 7.74525413,1.93631353 L7.74525413,6.77709737 C7.74525413,7.8464938 6.01141994,8.7134109 3.87262707,8.7134109 C1.7338342,8.7134109 0,7.8464938 0,6.77709737 L0,1.93631353 Z" id="Path" fill="#8C00E6"></path>
                        <ellipse id="Oval" fill="#D88EFF" cx="3.87262707" cy="1.93631353" rx="3.87262707" ry="1.93631353"></ellipse>
                    </g>
                    <g id="Group-58" transform="translate(0.000000, 6.777097)">
                        <path d="M0,1.93631353 C0,0.866917098 1.7338342,0 3.87262707,0 C6.01141994,0 7.74525413,0.866917098 7.74525413,1.93631353 L7.74525413,6.77709737 C7.74525413,7.8464938 6.01141994,8.7134109 3.87262707,8.7134109 C1.7338342,8.7134109 0,7.8464938 0,6.77709737 L0,1.93631353 Z" id="Path" fill="#8C00E6"></path>
                        <ellipse id="Oval" fill="#D88EFF" cx="3.87262707" cy="1.93631353" rx="3.87262707" ry="1.93631353"></ellipse>
                    </g>
                </g>
                <g id="Group-60-Copy" transform="translate(18.394979, 6.777097)" fill-rule="nonzero">
                    <g id="Group-58-Copy" transform="translate(18.394979, 0.000000)">
                        <path d="M0,1.93631353 C0,0.866917098 1.7338342,0 3.87262707,0 C6.01141994,0 7.74525413,0.866917098 7.74525413,1.93631353 L7.74525413,6.77709737 C7.74525413,7.8464938 6.01141994,8.7134109 3.87262707,8.7134109 C1.7338342,8.7134109 0,7.8464938 0,6.77709737 L0,1.93631353 Z" id="Path" fill="#8C00E6"></path>
                        <ellipse id="Oval" fill="#D88EFF" cx="3.87262707" cy="1.93631353" rx="3.87262707" ry="1.93631353"></ellipse>
                    </g>
                    <g id="Group-58" transform="translate(0.000000, 6.777097)">
                        <path d="M10.725297,1.48430054 L10.7898801,1.52333981 C11.8729207,2.17801755 12.2201774,3.58671657 11.5654996,4.66975713 C11.3479442,5.02966144 11.0355393,5.3227537 10.6625026,5.5169316 L3.96462829,9.00339568 L2.02111047,7.96494923 C0.447074724,7.12392178 -0.14714591,5.16612623 0.69388154,3.59209048 C0.99281552,3.03261675 1.44980404,2.57349961 2.00788257,2.27196895 L3.77662704,1.31631367 C5.95900656,0.137170755 8.60244621,0.201076965 10.725297,1.48430054 Z" id="Rectangle" fill="#8D00E9" opacity="0.172154018" transform="translate(6.104100, 4.722230) scale(-1, 1) translate(-6.104100, -4.722230) "></path>
                        <path d="M5.8089406,1.93631353 C5.8089406,0.866917098 7.5427748,0 9.68156767,0 C11.8203605,0 13.5541947,0.866917098 13.5541947,1.93631353 L13.5541947,6.77709737 C13.5541947,7.8464938 11.8203605,8.7134109 9.68156767,8.7134109 C7.5427748,8.7134109 5.8089406,7.8464938 5.8089406,6.77709737 L5.8089406,1.93631353 Z" id="Path" fill="#8C00E6"></path>
                        <ellipse id="Oval" fill="#D88EFF" cx="9.68156767" cy="1.93631353" rx="3.87262707" ry="1.93631353"></ellipse>
                    </g>
                </g>
                <g id="Group-60-Copy-2" transform="translate(33.885487, 13.554195)" fill-rule="nonzero">
                    <g id="Group-58-Copy" transform="translate(18.394979, 0.000000)">
                        <path d="M0,1.93631353 C0,0.866917098 1.7338342,0 3.87262707,0 C6.01141994,0 7.74525413,0.866917098 7.74525413,1.93631353 L7.74525413,6.77709737 C7.74525413,7.8464938 6.01141994,8.7134109 3.87262707,8.7134109 C1.7338342,8.7134109 0,7.8464938 0,6.77709737 L0,1.93631353 Z" id="Path" fill="#8C00E6"></path>
                        <ellipse id="Oval" fill="#D88EFF" cx="3.87262707" cy="1.93631353" rx="3.87262707" ry="1.93631353"></ellipse>
                    </g>
                    <g id="Group-58" transform="translate(0.000000, 6.777097)">
                        <path d="M10.725297,1.48430054 L10.7898801,1.52333981 C11.8729207,2.17801755 12.2201774,3.58671657 11.5654996,4.66975713 C11.3479442,5.02966144 11.0355393,5.3227537 10.6625026,5.5169316 L3.96462829,9.00339568 L2.02111047,7.96494923 C0.447074724,7.12392178 -0.14714591,5.16612623 0.69388154,3.59209048 C0.99281552,3.03261675 1.44980404,2.57349961 2.00788257,2.27196895 L3.77662704,1.31631367 C5.95900656,0.137170755 8.60244621,0.201076965 10.725297,1.48430054 Z" id="Rectangle" fill="#8D00E9" opacity="0.172154018" transform="translate(6.104100, 4.722230) scale(-1, 1) translate(-6.104100, -4.722230) "></path>
                        <path d="M5.8089406,1.93631353 C5.8089406,0.866917098 7.5427748,0 9.68156767,0 C11.8203605,0 13.5541947,0.866917098 13.5541947,1.93631353 L13.5541947,6.77709737 C13.5541947,7.8464938 11.8203605,8.7134109 9.68156767,8.7134109 C7.5427748,8.7134109 5.8089406,7.8464938 5.8089406,6.77709737 L5.8089406,1.93631353 Z" id="Path" fill="#8C00E6"></path>
                        <ellipse id="Oval" fill="#D88EFF" cx="9.68156767" cy="1.93631353" rx="3.87262707" ry="1.93631353"></ellipse>
                    </g>
                </g>
            </g>
        </g>
    </g>
</svg>