<?xml version="1.0" ?><!DOCTYPE svg  PUBLIC '-//W3C//DTD SVG 1.1//EN'  'http://www.w3.org/Graphics/SVG/1.1/DTD/svg11.dtd'><svg enable-background="new 0 0 48 48" id="Layer_1" version="1.1" viewBox="0 0 48 48" xml:space="preserve" xmlns="http://www.w3.org/2000/svg" xmlns:xlink="http://www.w3.org/1999/xlink"><circle cx="24" cy="24" fill="#CA3737" r="24"/><path d="M35.2,18.5c0-0.1,0-0.2-0.1-0.3c0,0,0-0.1,0-0.1c-0.3-0.9-1.1-1.5-2.1-1.5h0.2c0,0-3.9-0.6-9.2-0.6  c-5.2,0-9.2,0.6-9.2,0.6H15c-1,0-1.8,0.6-2.1,1.5c0,0,0,0.1,0,0.1c0,0.1,0,0.2-0.1,0.3c-0.1,1-0.4,3.1-0.4,5.5  c0,2.4,0.3,4.5,0.4,5.5c0,0.1,0,0.2,0.1,0.3c0,0,0,0.1,0,0.1c0.3,0.9,1.1,1.5,2.1,1.5h-0.2c0,0,3.9,0.6,9.2,0.6  c5.2,0,9.2-0.6,9.2-0.6H33c1,0,1.8-0.6,2.1-1.5c0,0,0-0.1,0-0.1c0-0.1,0-0.2,0.1-0.3c0.1-1,0.4-3.1,0.4-5.5  C35.6,21.6,35.4,19.5,35.2,18.5z M27.4,24.5l-4.7,3.4C22.6,28,22.5,28,22.4,28c-0.1,0-0.2,0-0.3-0.1c-0.2-0.1-0.3-0.3-0.3-0.5v-6.8  c0-0.2,0.1-0.4,0.3-0.5c0.2-0.1,0.4-0.1,0.6,0l4.7,3.4c0.1,0.1,0.2,0.3,0.2,0.5C27.7,24.2,27.6,24.4,27.4,24.5z" fill="#FFFFFF"/></svg>