<?xml version="1.0" encoding="UTF-8" standalone="no"?>
<svg width="24px" height="24px" viewBox="0 0 24 24" version="1.1" xmlns="http://www.w3.org/2000/svg" xmlns:xlink="http://www.w3.org/1999/xlink">
    <!-- Generator: Sketch 3.7.2 (28276) - http://www.bohemiancoding.com/sketch -->
    <title>Stroke 1 + Stroke 3</title>
    <desc>Created with Sketch.</desc>
    <defs></defs>
    <g id="Page-1" stroke="none" stroke-width="1" fill="none" fill-rule="evenodd" stroke-linecap="round" stroke-linejoin="round">
        <g id="Stroke-1-+-Stroke-3">
            <path d="M23.5,12 C23.5,18.352 18.351,23.5 12,23.5 C5.648,23.5 0.5,18.352 0.5,12 C0.5,5.649 5.648,0.5 12,0.5 C18.351,0.5 23.5,5.649 23.5,12 L23.5,12 Z" id="Stroke-1" stroke="#003366"></path>
            <path d="M15.5,9 C15.5,7.066 13.933,5.5 12,5.5 C10.066,5.5 8.5,7.066 8.5,9 C8.5,10.387 9.308,11.581 10.477,12.148 L9.5,18.5 L14.5,18.5 L13.523,12.148 C14.691,11.581 15.5,10.387 15.5,9 L15.5,9 Z" id="Stroke-3" stroke="#2684FF"></path>
        </g>
    </g>
</svg>