<?xml version="1.0" encoding="UTF-8" standalone="no"?>
<svg width="16px" height="24px" viewBox="0 0 16 24" version="1.1" xmlns="http://www.w3.org/2000/svg" xmlns:xlink="http://www.w3.org/1999/xlink">
    <!-- Generator: Sketch 3.7.2 (28276) - http://www.bohemiancoding.com/sketch -->
    <title>Group</title>
    <desc>Created with Sketch.</desc>
    <defs></defs>
    <g id="Page-1" stroke="none" stroke-width="1" fill="none" fill-rule="evenodd" stroke-linejoin="round">
        <g id="Group">
            <path d="M6.5,8 C6.5,7.181 7.18,6.5 8,6.5 C8.828,6.5 9.5,7.172 9.5,8 L9.5,14 L13.918,15.5 C14.907,15.818 15.233,16.987 15,18 L14,23.5 L6,23.5 L2,17.5 C1.546,16.807 1.5,15.5 2.5,15.5 C3.5,15.5 4.5,15.919 6.5,19 L6.5,8 L6.5,8 Z" id="Stroke-284" stroke="#003366"></path>
            <path d="M15.5,7.5 L12.5,7.5" id="Stroke-285" stroke="#2684FF" stroke-linecap="round"></path>
            <path d="M13.5,2.5 L11.5,4.5" id="Stroke-286" stroke="#2684FF" stroke-linecap="round"></path>
            <path d="M8.5,0.5 L8.5,3.5" id="Stroke-287" stroke="#2684FF" stroke-linecap="round"></path>
            <path d="M2.5,2.5 L4.5,4.5" id="Stroke-288" stroke="#2684FF" stroke-linecap="round"></path>
            <path d="M0.5,7.5 L3.5,7.5" id="Stroke-289" stroke="#2684FF" stroke-linecap="round"></path>
        </g>
    </g>
</svg>