<?xml version="1.0" encoding="UTF-8"?>
<svg width="86px" height="70px" viewBox="0 0 86 70" version="1.1" xmlns="http://www.w3.org/2000/svg" xmlns:xlink="http://www.w3.org/1999/xlink">
    <!-- Generator: sketchtool 52.2 (67145) - http://www.bohemiancoding.com/sketch -->
    <title>0FD4F2D8-5095-429F-BD2E-2C22D495B0F9</title>
    <desc>Created with sketchtool.</desc>
    <defs>
        <linearGradient x1="50%" y1="0%" x2="50%" y2="100%" id="linearGradient-1">
            <stop stop-color="#14AFFF" offset="0%"></stop>
            <stop stop-color="#0061FF" offset="100%"></stop>
        </linearGradient>
        <linearGradient x1="0%" y1="99.9890579%" x2="50%" y2="49.9945289%" id="linearGradient-2">
            <stop stop-color="#F4E113" offset="0%"></stop>
            <stop stop-color="#F49D1A" offset="100%"></stop>
        </linearGradient>
    </defs>
    <g id="Page-1" stroke="none" stroke-width="1" fill="none" fill-rule="evenodd">
        <g id="whitepaper_v3_website_alt1" transform="translate(-304.000000, -836.000000)">
            <g id="icon-cloud-drive" transform="translate(304.000000, 836.000000)">
                <path d="M58.6937137,39.841463 C59.1293378,39.841463 60.7862783,39.0345566 61.2129425,39 C69.2884578,38.3459446 72.9307838,36.3213983 72.9307838,28.125 C72.9307838,19.4955508 65.8936666,12.5 57.2129425,12.5 L54.6937137,12.5 C51.3389244,5.12868735 43.8759378,0 35.2079646,0 C23.8242917,0 14.5189364,8.84577566 13.8680697,20 L11.9455594,20 C5.34820912,20 0,25.3166186 0,31.875 C0,38.4333814 5.34820912,43.75 11.9455594,43.75 C16.3240938,43.75 19.6079946,43.75 21.7972618,43.75 C22.2352414,43.75 35.3675158,43.75 53.194085,43.75 C54.8619007,43.75 56.6951102,42.4471543 58.6937137,39.841463 Z" id="Path" fill="url(#linearGradient-1)" fill-rule="nonzero"></path>
                <path d="M67.971698,69.943396 C58.0462033,69.943396 50,61.8971927 50,51.971698 C50,42.0462033 58.0462033,34 67.971698,34 C77.8971927,34 85.943396,42.0462033 85.943396,51.971698 C85.943396,61.8971927 77.8971927,69.943396 67.971698,69.943396 Z M73.719031,54.4946654 C73.4570875,54.4946654 73.2447404,54.7070125 73.2447404,54.968956 C73.2447404,55.2308995 73.4570875,55.4432467 73.719031,55.4432467 L75.6331025,55.4432467 C75.895046,55.4432467 76.1073931,55.2308995 76.1073931,54.968956 C76.1073931,54.7070125 75.895046,54.4946654 75.6331025,54.4946654 L73.719031,54.4946654 Z M57.1139579,51.8995832 C57.0788071,51.9648257 57.0585503,52.0392176 57.0577254,52.1182942 L57.0230414,55.4432467 C57.0230414,57.0149076 58.3046947,58.2889904 59.8856942,58.2889904 L76.1073931,58.2889904 C77.6883926,58.2889904 78.9700459,57.0149076 78.9700459,55.4432467 L78.9353619,52.1182942 C78.934537,52.0392176 78.9142802,51.9648257 78.8791295,51.8995832 L78.9595917,51.8995832 L78.9595917,51.6489216 L76.4012543,46.1768822 C75.9309165,45.1749686 74.9193777,44.5345621 73.8071667,44.5345621 L62.1859207,44.5345621 C61.0737097,44.5345621 60.0621709,45.1749686 59.591833,46.1768822 L57.0454425,51.6489216 L57.0454425,51.8995832 L57.1139579,51.8995832 Z M58.0069882,52.5975029 L77.9860919,52.5975029 L78.0158796,55.4530827 C78.0158283,56.4910206 77.1613928,57.3404092 76.1073931,57.3404092 L59.8856942,57.3404092 C58.8316945,57.3404092 57.977259,56.4910206 57.977259,55.4432467 L58.0069882,52.5975029 Z" id="store-data" fill="url(#linearGradient-2)"></path>
            </g>
        </g>
    </g>
</svg>