<?xml version="1.0" encoding="UTF-8" standalone="no"?>
<svg width="23px" height="23px" viewBox="0 0 23 23" version="1.1" xmlns="http://www.w3.org/2000/svg" xmlns:xlink="http://www.w3.org/1999/xlink">
    <!-- Generator: Sketch 40 (33762) - http://www.bohemiancoding.com/sketch -->
    <title>Group</title>
    <desc>Created with Sketch.</desc>
    <defs></defs>
    <g id="Page-1" stroke="none" stroke-width="1" fill="none" fill-rule="evenodd" stroke-linejoin="round">
        <g id="Group">
            <path d="M22.5,18.5 C22.5,20.709 20.709,22.5 18.5,22.5 L4.5,22.5 C2.291,22.5 0.5,20.709 0.5,18.5 L0.5,15.5 C0.5,13.291 2.291,11.5 4.5,11.5 L18.5,11.5 C20.709,11.5 22.5,13.291 22.5,15.5 L22.5,18.5 L22.5,18.5 Z" id="Stroke-107" stroke="#1A5BB0"></path>
            <polyline id="Stroke-109" stroke="#2684FF" stroke-linecap="round" points="3.4746 0.064 6.4996 3.963 6.5006 8.502"></polyline>
            <polyline id="Stroke-111" stroke="#2684FF" stroke-linecap="round" points="9.5234 0.0615 6.5004 3.9625 6.5014 8.5015"></polyline>
            <path d="M12.501,7 C12.501,7.828 11.829,8.5 11.001,8.5 C10.172,8.5 9.5,7.83 9.5,7 L9.5,4 C9.5,3.172 10.171,2.5 11,2.5 C11.828,2.5 12.5,3.171 12.5,4 L12.501,7 L12.501,7 Z" id="Stroke-113" stroke="#2684FF" stroke-linecap="round"></path>
            <path d="M18.5,2.4976 L18.501,6.4976 C18.501,7.6016 17.605,8.4976 16.501,8.4976 C15.396,8.4986 14.501,7.6036 14.501,6.4986 L14.5,2.4986" id="Stroke-115" stroke="#2684FF" stroke-linecap="round"></path>
            <path d="M18.5,2.4976 L18.501,8.4046" id="Stroke-117" stroke="#2684FF" stroke-linecap="round"></path>
            <path d="M10.5,15.4976 L10.501,19.4046" id="Stroke-119" stroke="#1A5BB0" stroke-linecap="round"></path>
            <path d="M3.4785,14.5 L7.5205,14.5" id="Stroke-121" stroke="#1A5BB0" stroke-linecap="round"></path>
            <path d="M5.5,14.5 L5.5,19.479" id="Stroke-123" stroke="#1A5BB0" stroke-linecap="round"></path>
            <path d="M12.5,13.5 L12.5,19.479" id="Stroke-125" stroke="#1A5BB0" stroke-linecap="round"></path>
            <path d="M14.5,18.5 C14.5,19.052 14.053,19.5 13.5,19.5 C12.947,19.5 12.5,19.052 12.5,18.5 L12.5,16.5 C12.5,15.948 12.947,15.5 13.5,15.5 C14.053,15.5 14.5,15.948 14.5,16.5 L14.5,18.5 L14.5,18.5 Z" id="Stroke-127" stroke="#1A5BB0" stroke-linecap="round"></path>
            <path d="M8.5,15.4976 L8.5,18.4996 C8.5,19.0526 8.947,19.4996 9.5,19.4996 C10.053,19.4996 10.5,19.0526 10.5,18.4996 L10.5,15.4976" id="Stroke-129" stroke="#1A5BB0" stroke-linecap="round"></path>
            <path d="M18.6719,18.75 C18.6719,19.303 18.1389,19.625 17.5859,19.625 C17.0329,19.625 16.4999,19.052 16.4999,18.5 L16.4999,16.5 C16.4999,15.948 16.9469,15.5 17.4999,15.5 C18.0529,15.5 18.4999,15.948 18.4999,16.5 L18.4999,17.5 L16.4999,17.5" id="Stroke-131" stroke="#1A5BB0" stroke-linecap="round"></path>
        </g>
    </g>
</svg>