<?xml version="1.0" encoding="UTF-8"?>
<svg width="84px" height="70px" viewBox="0 0 84 70" version="1.1" xmlns="http://www.w3.org/2000/svg" xmlns:xlink="http://www.w3.org/1999/xlink">
    <!-- Generator: sketchtool 52.2 (67145) - http://www.bohemiancoding.com/sketch -->
    <title>10E3B060-F4FF-4525-A030-548919E4D9DB</title>
    <desc>Created with sketchtool.</desc>
    <defs>
        <linearGradient x1="50%" y1="0%" x2="50%" y2="91.1764706%" id="linearGradient-1">
            <stop stop-color="#C73FFE" offset="0%"></stop>
            <stop stop-color="#712AFF" offset="100%"></stop>
        </linearGradient>
        <linearGradient x1="50%" y1="0%" x2="50%" y2="100%" id="linearGradient-2">
            <stop stop-color="#14AFFF" offset="0%"></stop>
            <stop stop-color="#0061FF" offset="100%"></stop>
        </linearGradient>
    </defs>
    <g id="Page-1" stroke="none" stroke-width="1" fill="none" fill-rule="evenodd">
        <g id="whitepaper_v3_website_alt1" transform="translate(-684.000000, -836.000000)">
            <g id="icon-cloud-network" transform="translate(684.000000, 836.000000)">
                <g id="Group-42" fill-rule="nonzero">
                    <path d="M65.5943395,69.9999998 C55.6688448,69.9999998 47.6226415,61.9537965 47.6226415,52.0283018 C47.6226415,42.102807 55.6688448,34.0566038 65.5943395,34.0566038 C75.5198342,34.0566038 83.5660375,42.102807 83.5660375,52.0283018 C83.5660375,61.9537965 75.5198342,69.9999998 65.5943395,69.9999998 Z M57.8376876,52.7068619 L57.8376876,60.9422171 C57.8376876,61.6843927 58.4393398,62.2860448 59.1815154,62.2860448 L62.7004819,62.2860448 L62.7004819,56.4100921 C62.7004819,56.0390043 63.001308,55.7381783 63.3723958,55.7381783 L68.0757929,55.7381783 C68.4468807,55.7381783 68.7477068,56.0390043 68.7477068,56.4100921 L68.7477068,62.2860448 L72.2666733,62.2860448 C73.0088488,62.2860448 73.610501,61.6843927 73.610501,60.9422171 L73.610501,52.7126605 C75.9935716,52.6780062 77.6298393,52.6242118 77.6943696,52.5512774 C77.9402671,52.2733556 77.9143062,51.8487161 77.6363843,51.6028185 L66.3595683,41.6254065 C66.1053532,41.4004841 65.7233098,41.4004841 65.4690946,41.6254065 L54.1922786,51.6028185 C53.9143567,51.8487161 53.8883958,52.2733556 54.1342933,52.5512774 C54.1953289,52.6202619 55.6624721,52.6721234 57.8376876,52.7068619 Z" id="Shape" fill="url(#linearGradient-1)"></path>
                    <path d="M8.27464216,30.521816 C3.70468348,30.521816 0,26.8127222 0,22.2373231 C0,17.661924 3.70468348,13.9528302 8.27464216,13.9528302 L9.60635748,13.9528302 C10.0572103,6.17118028 16.5029934,0 24.388419,0 C30.3926901,0 35.5622716,3.57798518 37.886121,8.72051887 L39.6311809,8.72051887 C45.6442844,8.72051887 50.5188679,13.6009055 50.5188679,19.6211675 C50.5188679,25.3393151 46.1212503,30.0291214 40.5273725,30.4854175 C40.2318239,30.5095256 39.932936,30.521816 39.6311809,30.521816 L8.27464216,30.521816 Z" id="Path" fill="url(#linearGradient-2)"></path>
                    <g id="Group-41" transform="translate(22.132075, 34.339623)" fill="#B7BDCA">
                        <path d="M3.24764151,1.34787736 C3.24764151,1.14077058 3.41553473,0.972877358 3.62264151,0.972877358 C3.82974829,0.972877358 3.99764151,1.14077058 3.99764151,1.34787736 L3.99764151,2.84787736 C3.99764151,3.05498414 3.82974829,3.22287736 3.62264151,3.22287736 C3.41553473,3.22287736 3.24764151,3.05498414 3.24764151,2.84787736 L3.24764151,1.34787736 Z M3.24764151,4.34787736 C3.24764151,4.14077058 3.41553473,3.97287736 3.62264151,3.97287736 C3.82974829,3.97287736 3.99764151,4.14077058 3.99764151,4.34787736 L3.99764151,5.84787736 C3.99764151,6.05498414 3.82974829,6.22287736 3.62264151,6.22287736 C3.41553473,6.22287736 3.24764151,6.05498414 3.24764151,5.84787736 L3.24764151,4.34787736 Z M3.24764151,7.34787736 C3.24764151,7.14077058 3.41553473,6.97287736 3.62264151,6.97287736 C3.82974829,6.97287736 3.99764151,7.14077058 3.99764151,7.34787736 L3.99764151,8.84787736 C3.99764151,9.05498414 3.82974829,9.22287736 3.62264151,9.22287736 C3.41553473,9.22287736 3.24764151,9.05498414 3.24764151,8.84787736 L3.24764151,7.34787736 Z M3.24764151,10.3478774 C3.24764151,10.1407706 3.41553473,9.97287736 3.62264151,9.97287736 C3.82974829,9.97287736 3.99764151,10.1407706 3.99764151,10.3478774 L3.99764151,11.8478774 C3.99764151,12.0549841 3.82974829,12.2228774 3.62264151,12.2228774 C3.41553473,12.2228774 3.24764151,12.0549841 3.24764151,11.8478774 L3.24764151,10.3478774 Z M3.24764151,13.3478774 C3.24764151,13.1407706 3.41553473,12.9728774 3.62264151,12.9728774 C3.82974829,12.9728774 3.99764151,13.1407706 3.99764151,13.3478774 L3.99764151,14.8478774 C3.99764151,15.0549841 3.82974829,15.2228774 3.62264151,15.2228774 C3.41553473,15.2228774 3.24764151,15.0549841 3.24764151,14.8478774 L3.24764151,13.3478774 Z M3.24764151,16.3478774 C3.24764151,16.1407706 3.41553473,15.9728774 3.62264151,15.9728774 C3.82974829,15.9728774 3.99764151,16.1407706 3.99764151,16.3478774 L3.99764151,17.8478774 C3.99764151,18.0549841 3.82974829,18.2228774 3.62264151,18.2228774 C3.41553473,18.2228774 3.24764151,18.0549841 3.24764151,17.8478774 L3.24764151,16.3478774 Z M3.26924876,19.3685049 C3.25771112,19.1617198 3.41599051,18.9847342 3.62277567,18.9731966 C3.82956083,18.9616589 4.00654642,19.1199383 4.01808406,19.3267235 C4.04531488,19.8147721 4.09966564,20.2984306 4.18062544,20.776147 C4.21523091,20.9803422 4.07775127,21.1739283 3.87355607,21.2085338 C3.66936086,21.2431393 3.47577467,21.1056596 3.4411692,20.9014644 C3.35552788,20.3961239 3.29804314,19.8845767 3.26924876,19.3685049 Z M3.78713489,22.4147488 C3.72955731,22.2158065 3.84415606,22.0078561 4.04309837,21.9502785 C4.24204068,21.8927009 4.44999113,22.0072996 4.50756871,22.206242 C4.64290268,22.6738485 4.80444597,23.1326726 4.99128585,23.5808741 C5.07097473,23.7720361 4.98060793,23.9916041 4.78944596,24.071293 C4.59828399,24.1509818 4.37871598,24.0606151 4.2990271,23.8694531 C4.10130937,23.3951572 3.93035444,22.9096016 3.78713489,22.4147488 Z M5.00260904,25.3121512 C4.90106324,25.1316473 4.96507146,24.9030008 5.14557539,24.801455 C5.32607932,24.6999092 5.5547258,24.7639174 5.6562716,24.9444213 C5.89477257,25.3683715 6.15698554,25.7785908 6.44152706,26.1731548 C6.56266822,26.341137 6.524696,26.5755179 6.35671374,26.696659 C6.18873148,26.8178002 5.95435064,26.7798279 5.83320949,26.6118457 C5.53225557,26.1945233 5.25490064,25.7606151 5.00260904,25.3121512 Z M6.78871678,27.7935803 C6.64982619,27.6399488 6.66177601,27.4028128 6.81540745,27.2639222 C6.9690389,27.1250317 7.20617487,27.1369815 7.34506546,27.2906129 C7.67129456,27.6514656 8.01750281,27.9938741 8.38193156,28.3160941 C8.53708747,28.4532796 8.55165535,28.6902692 8.41446985,28.8454251 C8.27728434,29.000581 8.0402948,29.0151488 7.88513889,28.8779633 C7.49977566,28.5372335 7.13368447,28.1751604 6.78871678,27.7935803 Z M9.15347371,29.8735769 C8.98335898,29.755449 8.9412153,29.5217822 9.05934318,29.3516674 C9.17747105,29.1815527 9.41113786,29.139409 9.5812526,29.2575369 C9.98076046,29.5349556 10.3955345,29.7897662 10.8236475,30.0206211 C11.0059399,30.1189201 11.07403,30.3463844 10.9757309,30.5286768 C10.8774319,30.7109692 10.6499676,30.7790593 10.4676752,30.6807603 C10.0147875,30.4365459 9.5760424,30.1670091 9.15347371,29.8735769 Z M11.7987825,31.3085564 C11.606975,31.230434 11.5148151,31.0116126 11.5929374,30.8198051 C11.6710598,30.6279976 11.8898812,30.5358376 12.0816887,30.61396 C12.5314207,30.797134 12.9916008,30.9549289 13.4603956,31.0864479 C13.6598036,31.1423912 13.7761048,31.3493944 13.7201614,31.5488024 C13.6642181,31.7482104 13.4572149,31.8645116 13.2578069,31.8085682 C12.7616963,31.6693859 12.2747028,31.5023967 11.7987825,31.3085564 Z M14.8028444,32.1467627 C14.5983033,32.1142639 14.4588355,31.9221051 14.4913343,31.7175641 C14.5238331,31.513023 14.7159919,31.3735552 14.9205329,31.406054 C15.398802,31.4820444 15.8828104,31.5314308 16.3710241,31.5537182 C16.5779154,31.5631629 16.7379775,31.738538 16.7285327,31.9454293 C16.719088,32.1523206 16.543713,32.3123826 16.3368216,32.3029379 C15.8206196,32.2793728 15.3087392,32.2271425 14.8028444,32.1467627 Z M17.915176,32.2850669 C17.7085576,32.2992811 17.5295374,32.1433066 17.5153231,31.9366882 C17.5011089,31.7300698 17.6570834,31.5510495 17.8637018,31.5368353 C18.3491416,31.5034398 18.83205,31.44278 19.3101829,31.355226 C19.5139023,31.3179216 19.7092907,31.4528276 19.7465951,31.656547 C19.7838995,31.8602664 19.6489935,32.0556548 19.4452741,32.0929592 C18.9395026,32.1855744 18.428678,32.2497407 17.915176,32.2850669 Z M20.9563402,31.7267328 C20.7581466,31.7868368 20.5487549,31.674893 20.488651,31.4766993 C20.428547,31.2785057 20.5404908,31.069114 20.7386845,31.0090101 C21.2039684,30.8679086 21.6610658,30.7007351 22.1077898,30.5082441 C22.2979906,30.4262876 22.5186177,30.5140369 22.6005742,30.7042377 C22.6825307,30.8944385 22.5947814,31.1150656 22.4045806,31.1970221 C21.9320344,31.4006398 21.4485166,31.577476 20.9563402,31.7267328 Z M23.8416223,30.4752163 C23.6623139,30.5788584 23.4329371,30.5175187 23.3292949,30.3382103 C23.2256528,30.1589018 23.2869925,29.929525 23.4663009,29.8258829 C23.5787716,29.7608737 23.690291,29.6941611 23.8008221,29.6257642 C23.9769371,29.5167838 24.2080526,29.5712071 24.317033,29.7473221 C24.4260134,29.9234371 24.3715901,30.1545526 24.1954751,30.263533 C24.078557,30.3358822 23.960593,30.40645 23.8416223,30.4752163 Z" id="Line-5"></path>
                        <polygon id="Triangle" points="3.61603774 0 6.31415094 3.28301887 0.917924528 3.28301887"></polygon>
                    </g>
                </g>
                <g id="Group-34" transform="translate(5.000000, 0.000000)"></g>
            </g>
        </g>
    </g>
</svg>