<?xml version="1.0" encoding="utf-8"?>
<!-- Generator: Adobe Illustrator 16.0.4, SVG Export Plug-In . SVG Version: 6.00 Build 0)  -->
<!DOCTYPE svg PUBLIC "-//W3C//DTD SVG 1.1//EN" "http://www.w3.org/Graphics/SVG/1.1/DTD/svg11.dtd">
<svg version="1.1" id="Layer_1" xmlns:sketch="http://www.bohemiancoding.com/sketch/ns"
	 xmlns="http://www.w3.org/2000/svg" xmlns:xlink="http://www.w3.org/1999/xlink" x="0px" y="0px" width="1745px" height="296px"
	 viewBox="0 0 1745 296" enable-background="new 0 0 1745 296" xml:space="preserve">
<title>MetaDisk</title>
<desc>Created with Sketch.</desc>
<g id="Page-1" sketch:type="MSPage">
	<g id="MetaDisk" transform="translate(0.000000, -62.000000)" sketch:type="MSLayerGroup">
		<g id="Icon" sketch:type="MSShapeGroup">
			
				<g id="Front-circle" transform="translate(313.830952, 212.000000) rotate(45.000000) translate(-313.830952, -212.000000) translate(163.330952, 64.000000)">
				<path id="Triangle-1" fill="#333333" d="M174.996,292.627C243.812,280.144,295.999,219.917,296,147.5
					C296,67.006,231.521,1.571,151.396,0.028l0,0l28.621,28.621L180,28.667l0.018,0.018L152.611,56.09
					C201.237,58.241,240,98.344,240,147.5c-0.001,39.53-25.067,73.204-60.171,85.996l0,0l0.189,0.189l-31.983,31.983
					L174.996,292.627L174.996,292.627z M147.959,294.999C66.746,294.707,1,228.781,1,147.5C1,74.389,54.193,13.702,123.988,2.027
					l26.639,26.639l0,0L118.644,60.65l0.247,0.247C82.888,73.202,57,107.328,57,147.5c0,49.478,39.273,89.784,88.348,91.447
					l-26.702,26.702l0.017,0.017l-0.018,0.018L147.959,294.999L147.959,294.999z"/>
			</g>
			<path id="Triangle-3" opacity="0.8" fill="#333333" enable-background="new    " d="M257.1,65.283
				c-8.732-1.611-17.733-2.453-26.931-2.453c-81.462,0-147.5,66.038-147.5,147.5c0,37.857,14.262,72.383,37.705,98.499V272.83h0.059
				l0,0v-0.397h27.755c-8.678-18.79-13.519-39.716-13.519-61.772C134.669,137.745,187.578,77.186,257.1,65.283z M255.239,355.708
				c-8.147,1.396-16.523,2.122-25.069,2.122c-33.431,0-64.263-11.121-89-29.867v-34.736h18.757
				C181.647,325.324,215.677,348.409,255.239,355.708z"/>
			<path id="Triangle-4" opacity="0.6" fill="#333333" enable-background="new    " d="M175.1,65.283
				c-8.732-1.611-17.733-2.453-26.931-2.453c-81.462,0-147.5,66.038-147.5,147.5c0,37.857,14.262,72.383,37.705,98.499V272.83h0.059
				l0,0v-0.397h27.755c-8.678-18.79-13.519-39.716-13.519-61.772C52.669,137.745,105.578,77.186,175.1,65.283z M173.239,355.708
				c-8.147,1.396-16.523,2.122-25.069,2.122c-33.431,0-64.263-11.121-89-29.867l0,0v-34.736h18.757
				C99.647,325.324,133.677,348.409,173.239,355.708z"/>
		</g>
		<path sketch:type="MSShapeGroup" fill="#333333" d="M566.152,107.264h-32.12V314h21.024V135.296h0.584L630.392,314h11.096
			l74.752-178.704h0.584V314h21.024V107.264h-32.12L635.94,275.456L566.152,107.264z M900.216,250.928v-8.76
			c0-37.376-23.944-68.036-65.408-68.328c-38.836,0-68.912,30.66-68.912,71.832s30.076,71.832,70.664,71.832
			c22.484,0,42.632-8.468,58.692-28.908l-14.893-12.264c-7.592,12.264-23.359,23.652-43.8,23.652
			c-27.156,0-47.888-21.608-50.224-49.057H900.216z M786.92,235.16c0-22.484,22.775-43.8,47.888-43.8
			c27.74,0,44.384,17.812,44.384,43.8H786.92z M1002.816,177.344h-39.42V138.8h-19.272v38.544h-28.907v17.52h28.907v86.14
			c0,30.076,19.272,36.5,33.872,36.5c9.637,0,18.98-1.752,25.988-4.964l-0.876-17.812c-5.84,3.211-13.14,5.256-19.855,5.256
			c-11.973,0-19.856-4.088-19.856-24.528v-80.592h39.42V177.344z M1108.163,230.195c-32.704,0-84.972,2.921-84.972,47.305
			c0,26.572,22.776,40.004,47.012,40.004c21.9,0,37.084-7.592,48.181-25.695h0.584c0,7.299,0.584,15.476,1.752,22.191h18.688
			c-1.168-7.3-2.336-20.148-2.336-30.66v-61.027c0-33.289-23.067-48.473-49.932-48.473c-25.696,0-45.26,7.008-57.816,19.856
			l11.681,13.724c11.68-10.512,25.695-16.06,41.756-16.06c23.651,0,35.04,11.68,35.04,35.332v3.504H1108.163z M1117.8,245.964v9.929
			c0,24.235-13.433,44.092-41.464,44.092c-15.477,0-32.12-7.008-32.12-25.112c0-27.448,44.092-28.908,63.655-28.908H1117.8z
			 M1187.791,314h77.089c49.64,0,109.5-32.704,109.5-103.368c0-70.08-50.809-103.368-105.12-103.368h-81.469V314z M1225.584,280.712
			v-140.16h33.579c44.969,0,77.673,19.856,77.673,70.08s-37.668,70.08-83.805,70.08H1225.584z M1401.791,314h35.041V173.84h-35.041
			V314z M1396.827,126.244c0,11.096,9.345,21.024,22.192,21.024s22.776-9.052,22.776-21.024c0-11.972-9.929-21.024-22.776-21.024
			S1396.827,115.148,1396.827,126.244L1396.827,126.244z M1575.24,191.652c-11.388-15.476-31.244-21.316-49.932-21.316
			c-28.324,0-56.356,14.016-56.356,45.26c0,53.437,75.628,30.66,75.628,59.568c0,11.096-13.14,16.061-23.359,16.061
			c-14.893,0-24.236-7.301-33.288-17.229l-23.36,21.9c14.309,16.06,32.996,21.607,54.604,21.607
			c28.615,0,60.443-11.68,60.443-44.968c0-54.604-75.628-34.164-75.628-59.276c0-10.512,11.097-14.892,20.44-14.892
			c11.972,0,20.731,4.964,27.448,14.308L1575.24,191.652z M1606.776,314h35.04v-71.54h0.584l55.772,71.54h46.428l-63.948-76.504
			l60.152-63.656h-44.968l-54.021,58.107V93.248h-35.04V314z"/>
	</g>
</g>
</svg>
