<?xml version="1.0" encoding="utf-8"?>
<!-- Generator: Adobe Illustrator 16.0.4, SVG Export Plug-In . SVG Version: 6.00 Build 0)  -->
<!DOCTYPE svg PUBLIC "-//W3C//DTD SVG 1.1//EN" "http://www.w3.org/Graphics/SVG/1.1/DTD/svg11.dtd">
<svg version="1.1" id="Layer_1" xmlns:sketch="http://www.bohemiancoding.com/sketch/ns"
	 xmlns="http://www.w3.org/2000/svg" xmlns:xlink="http://www.w3.org/1999/xlink" x="0px" y="0px" width="619.994px" height="230px"
	 viewBox="214.116 21.342 619.994 230" enable-background="new 214.116 21.342 619.994 230" xml:space="preserve">
<title>Storj</title>
<desc>Created with Sketch.</desc>
<g enable-background="new    ">
	<path fill="#2683FF" d="M476.592,118.933c-1.262,1.038-1.892,2.411-1.892,4.12c0,1.71,0.771,3.068,2.312,4.078
		c1.541,1.008,5.1,2.2,10.676,3.572c5.577,1.373,9.906,3.432,12.989,6.178c3.081,2.746,4.624,6.753,4.624,12.021
		c0,5.27-1.976,9.541-5.927,12.819c-3.951,3.279-9.15,4.918-15.594,4.918c-9.303,0-17.682-3.447-25.135-10.34l7.818-9.582
		c6.332,5.548,12.188,8.322,17.569,8.322c2.408,0,4.3-0.52,5.674-1.556c1.372-1.037,2.06-2.438,2.06-4.203
		c0-1.766-0.729-3.166-2.186-4.203c-1.458-1.037-4.344-2.087-8.658-3.153c-6.839-1.625-11.84-3.741-15.005-6.347
		c-3.167-2.605-4.75-6.696-4.75-12.273c0-5.576,2.003-9.876,6.011-12.903c4.006-3.027,9.008-4.54,15.005-4.54
		c3.922,0,7.846,0.672,11.77,2.017c3.921,1.346,7.34,3.251,10.255,5.718l-6.641,9.582c-5.101-3.867-10.368-5.8-15.804-5.8
		C479.576,117.378,477.853,117.897,476.592,118.933z"/>
	<path fill="#2683FF" d="M537.83,118.556v47.411h-13.113v-47.411h-16.644v-11.349h46.402v11.349H537.83z"/>
	<path fill="#2683FF" d="M608.864,157.854c-5.941,5.801-13.255,8.702-21.942,8.702c-8.687,0-16-2.901-21.941-8.702
		c-5.94-5.8-8.91-13.015-8.91-21.646s2.97-15.847,8.91-21.646c5.941-5.8,13.253-8.701,21.941-8.701
		c8.687,0,16.001,2.901,21.942,8.701c5.939,5.801,8.91,13.016,8.91,21.646S614.803,152.055,608.864,157.854z M604.408,136.25
		c0-5.238-1.682-9.708-5.044-13.407c-3.362-3.699-7.496-5.548-12.398-5.548c-4.905,0-9.037,1.85-12.399,5.548
		s-5.043,8.168-5.043,13.407c0,5.242,1.681,9.697,5.043,13.365c3.363,3.673,7.494,5.508,12.399,5.508
		c4.903,0,9.036-1.835,12.398-5.508C602.727,145.947,604.408,141.491,604.408,136.25z"/>
	<path fill="#2683FF" d="M673.507,126.71c0,9.415-3.728,15.496-11.18,18.242l14.878,21.015h-16.14l-13.029-18.746h-9.08v18.746
		h-13.113v-58.759h22.277c9.133,0,15.648,1.542,19.543,4.623C671.559,114.913,673.507,119.872,673.507,126.71z M657.703,133.687
		c1.624-1.457,2.437-3.769,2.437-6.935c0-3.166-0.84-5.339-2.521-6.515c-1.68-1.178-4.622-1.765-8.827-1.765h-9.835v17.4h9.584
		C653.022,135.872,656.076,135.145,657.703,133.687z"/>
	<path fill="#2683FF" d="M685.444,118.471v-11.265h30.598v38.333c0,7.006-1.808,12.246-5.422,15.721
		c-3.615,3.475-8.252,5.21-13.912,5.21c-7.062,0-13.228-2.717-18.495-8.153l6.809-9.415c3.532,3.812,7.23,5.717,11.097,5.717
		c1.85,0,3.433-0.714,4.75-2.144c1.315-1.429,1.976-3.572,1.976-6.431v-27.572L685.444,118.471L685.444,118.471z"/>
	<path fill="#2683FF" d="M726.592,164.495c-1.429-1.428-2.144-3.179-2.144-5.252c0-2.074,0.715-3.827,2.144-5.257
		c1.43-1.427,3.181-2.143,5.254-2.143c2.072,0,3.825,0.716,5.252,2.143c1.431,1.43,2.145,3.185,2.145,5.257
		c0,2.073-0.714,3.824-2.145,5.252c-1.427,1.43-3.181,2.144-5.252,2.144C729.771,166.639,728.022,165.923,726.592,164.495z"/>
	<path fill="#2683FF" d="M748.154,107.207h13.113v58.76h-13.113V107.207z"/>
	<path fill="#2683FF" d="M822.128,157.854c-5.942,5.801-13.254,8.702-21.94,8.702c-8.688,0-16-2.901-21.941-8.702
		c-5.94-5.8-8.911-13.015-8.911-21.646s2.97-15.847,8.911-21.646c5.941-5.8,13.253-8.701,21.941-8.701
		c8.687,0,15.999,2.901,21.94,8.701c5.94,5.801,8.911,13.016,8.911,21.646S828.068,152.055,822.128,157.854z M817.673,136.25
		c0-5.238-1.681-9.708-5.045-13.407c-3.361-3.699-7.496-5.548-12.398-5.548c-4.905,0-9.038,1.85-12.399,5.548
		c-3.363,3.699-5.044,8.168-5.044,13.407c0,5.242,1.682,9.697,5.044,13.365c3.362,3.673,7.494,5.508,12.399,5.508
		c4.902,0,9.037-1.835,12.398-5.508C815.992,145.947,817.673,141.491,817.673,136.25z"/>
</g>
<g>
	<path fill="#2683FF" d="M415.309,89.922c-0.179,6.992-3.214,12.203-9.071,15.715c-1.081,0.646-1.456,1.304-1.453,2.536
		c0.037,19.074,0.034,38.149,0.005,57.219c-0.002,1.146,0.29,1.837,1.341,2.442c6.776,3.916,10.205,11.139,8.988,18.732
		c-1.167,7.276-6.983,13.253-14.517,14.684c-4.368,0.833-8.599,0.17-12.427-2.179c-1.167-0.714-1.989-0.588-3.083,0.042
		c-16.397,9.498-32.812,18.971-49.246,28.408c-1.124,0.647-1.545,1.357-1.542,2.669c0.017,9.177-7.066,17.163-15.914,18.053
		c-9.424,0.951-17.756-4.971-19.792-14.116c-0.312-1.406-0.417-2.876-0.449-4.315c-0.024-0.975-0.294-1.572-1.161-2.074
		c-16.661-9.584-33.308-19.191-49.948-28.812c-0.901-0.525-1.609-0.529-2.518,0.021c-10.873,6.545-24.731,0.271-27.037-11.956
		c-1.455-7.724,1.689-14.946,8.602-19.014c1.092-0.645,1.586-1.294,1.584-2.629c-0.05-19.076-0.042-38.148-0.012-57.221
		c0.001-1.146-0.297-1.824-1.346-2.433c-6.94-4.031-10.205-11.035-8.872-18.899c1.324-7.812,7.365-13.543,15.227-14.663
		c4.214-0.599,8.278,0.169,11.924,2.497c0.847,0.542,1.476,0.525,2.338,0.028c16.591-9.601,33.195-19.175,49.812-28.727
		c1.005-0.578,1.397-1.241,1.4-2.425c0.027-10.505,8.328-18.547,18.846-18.334c8.198,0.164,15.869,6.931,17.032,15.021
		c0.106,0.744,0.273,1.202,0.273,2.226c0,2.243,0.826,3.194,2.572,4.192c16.124,9.226,32.203,18.524,48.271,27.838
		c1.104,0.642,1.906,0.668,3.056,0.016c10.914-6.225,24.147-0.259,26.804,12.059C415.246,87.669,415.222,88.875,415.309,89.922z
		 M273.021,155.355c-0.165,0.143-0.276,0.263-0.414,0.34c-9.045,5.227-18.083,10.463-27.161,15.628
		c-0.502,0.285-1.477,0.226-1.987-0.082c-2.399-1.448-4.954-2.41-7.75-2.485c-9.302-0.238-14.959,7.36-15.277,13.961
		c-0.368,7.732,5.482,15.652,14.943,15.581c8.297-0.062,14.611-6.715,14.529-15.016c-0.013-1.483,0.423-2.322,1.724-3.061
		c9.64-5.489,19.241-11.044,28.833-16.613c0.927-0.541,1.673-0.63,2.682-0.154c5.982,2.812,12.168,3.288,18.545,1.485
		c0.634-0.178,1.476,0.002,2.11,0.273c1.875,0.798,3.666,1.812,5.553,2.57c1.076,0.436,1.439,1.023,1.437,2.166
		c-0.033,15.035-0.03,30.066-0.003,45.1c0.001,1.061-0.333,1.665-1.3,2.128c-5.066,2.442-8.889,8.743-7.846,15.482
		c1.21,7.829,9.253,13.741,17.015,12.223c6.838-1.335,11.33-6.004,12.292-13.186c0.651-4.871-1.692-11.301-7.956-14.521
		c-0.85-0.434-1.319-0.909-1.316-1.953c0.031-14.603,0.034-29.206,0-43.806c0-1.298,0.596-1.564,1.733-1.765
		c3-0.526,6.007-1.107,8.939-1.93c1.327-0.372,2.375-0.425,3.661,0.129c6.429,2.765,12.688,2.292,18.676-1.322
		c0.855-0.512,1.468-0.535,2.326-0.034c7.91,4.606,15.833,9.193,23.792,13.711c1.288,0.729,1.785,1.535,1.747,3.043
		c-0.23,8.738,7.389,15.876,16.272,14.929c8.721-0.927,14.9-9.321,12.877-17.809c-2.425-10.172-13.443-14.762-22.343-9.264
		c-0.938,0.578-1.616,0.736-2.617,0.15c-7.531-4.4-15.08-8.77-22.66-13.085c-1.121-0.637-1.27-1.229-0.913-2.43
		c2.286-7.702,0.732-14.554-4.783-20.455c-1.078-1.154-6.136-9.231-6.841-10.72c-0.558-1.178-0.321-1.807,0.801-2.451
		c11.493-6.582,22.969-13.197,34.425-19.843c0.923-0.533,1.549-0.542,2.455,0.066c3.229,2.167,6.849,2.853,10.647,2.188
		c7.393-1.296,12.751-7.986,12.092-15.883c-0.717-8.567-9.12-14.971-17.513-13.113c-7.365,1.631-11.992,7.387-11.907,14.954
		c0.012,1.289-0.346,2.024-1.496,2.682c-11.638,6.659-23.247,13.363-34.835,20.107c-1.045,0.607-1.616,0.481-2.457-0.329
		c-5.46-5.26-12.03-8.214-19.525-9.151c-2.53-0.318-2.531-0.305-2.531-2.916c-0.001-13.686,0.033-27.372-0.041-41.057
		c-0.01-1.91,0.436-3.017,2.226-4.045c6.417-3.687,8.856-11.624,5.92-18.392c-2.961-6.827-10.525-10.474-17.619-8.313
		c-6.457,1.967-10.056,6.528-10.689,13.166c-0.487,5.122,1.936,10.812,7.782,14.007c0.898,0.49,1.524,0.921,1.52,2.153
		c-0.048,15.089-0.045,30.175-0.007,45.264c0.002,1.196-0.543,1.601-1.518,2.095c-2.919,1.471-6.051,2.758-8.529,4.808
		c-2.859,2.359-5.531,3.723-9.511,3.723c-0.388-0.012-0.638,0.025-1.042,0.017c-0.986-0.021-2.094-0.062-2.901-0.523
		c-11.739-6.695-23.417-13.5-35.171-20.173c-1.679-0.952-2.489-1.973-2.209-3.907c0.112-0.771-0.126-1.597-0.252-2.391
		c-1.147-7.229-8.217-13.276-16.751-11.874c-8.372,1.378-13.688,8.954-12.306,17.063c1.762,10.356,13.58,15.598,22.496,9.933
		c1.006-0.639,1.702-0.689,2.733-0.088c8.836,5.154,17.709,10.247,26.57,15.36c1.519,0.877,3.032,1.76,4.541,2.636
		C266.759,131.122,265.616,142.707,273.021,155.355z"/>
	<path fill="#2683FF" d="M297.502,120.502c2.33,0.206,3.489-0.577,5.191-2.159c7.348-6.829,16.017-8.943,25.535-5.782
		c9.358,3.108,15.161,9.758,17.083,19.514c0.376,1.91,1.128,3.059,2.834,4.032c4.88,2.779,7.689,8.791,6.725,13.799
		c-1.251,6.485-5.503,10.981-11.515,11.934c-3.204,0.511-6.382,0.144-9.2-1.59c-1.263-0.779-2.262-0.694-3.567-0.148
		c-8.37,3.52-16.476,2.922-24.181-1.923c-1.183-0.747-2.173-0.805-3.454-0.385c-10.857,3.547-22.149-2.615-24.906-13.441
		C274.888,131.938,284.791,119.935,297.502,120.502z"/>
	<path fill="#2683FF" d="M393.143,183.559c0-2.429,1.745-4.193,4.135-4.188c2.301,0.012,4.262,1.911,4.285,4.159
		c0.025,2.164-2.07,4.257-4.251,4.261C394.977,187.791,393.144,185.932,393.143,183.559z"/>
	<path fill="#2683FF" d="M312.02,43.24c0.009-2.352,1.843-4.167,4.213-4.169c2.374-0.002,4.194,1.809,4.203,4.17
		c0.006,2.264-1.971,4.266-4.195,4.238C313.98,47.457,312.013,45.479,312.02,43.24z"/>
	<path fill="#2683FF" d="M239.31,183.576c-0.009,2.371-1.858,4.234-4.181,4.215c-2.195-0.021-4.224-2.068-4.234-4.278
		c-0.011-2.208,1.997-4.142,4.301-4.142C237.583,179.373,239.319,181.146,239.31,183.576z"/>
	<path fill="#2683FF" d="M316.279,226.173c2.368,0.016,4.167,1.817,4.156,4.161c-0.015,2.335-1.841,4.094-4.241,4.079
		c-2.38-0.012-4.2-1.826-4.174-4.163C312.047,227.926,313.902,226.155,316.279,226.173z"/>
	<path fill="#2683FF" d="M235.243,94.122c-2.4,0.021-4.276-1.728-4.347-4.047c-0.071-2.26,1.827-4.157,4.193-4.191
		c2.47-0.037,4.186,1.609,4.221,4.044C239.347,92.375,237.672,94.1,235.243,94.122z"/>
	<path fill="#2683FF" d="M397.226,94.128c-2.426-0.017-4.107-1.745-4.083-4.192c0.024-2.429,1.745-4.081,4.215-4.049
		c2.368,0.033,4.253,1.913,4.197,4.185C401.499,92.374,399.61,94.145,397.226,94.128z"/>
</g>
</svg>
