<?xml version="1.0" encoding="UTF-8"?>
<svg width="73px" height="65px" viewBox="0 0 73 65" version="1.1" xmlns="http://www.w3.org/2000/svg" xmlns:xlink="http://www.w3.org/1999/xlink">
    <!-- Generator: Sketch 52.2 (67145) - http://www.bohemiancoding.com/sketch -->
    <title>Group 6</title>
    <desc>Created with Sketch.</desc>
    <defs>
        <linearGradient x1="50%" y1="0%" x2="50%" y2="100%" id="linearGradient-1">
            <stop stop-color="#14AFFF" offset="0%"></stop>
            <stop stop-color="#0061FF" offset="100%"></stop>
        </linearGradient>
        <linearGradient x1="50%" y1="162.050105%" x2="50%" y2="-84.7497139%" id="linearGradient-2">
            <stop stop-color="#94C2DA" offset="0%"></stop>
            <stop stop-color="#D5ECFD" offset="100%"></stop>
        </linearGradient>
        <linearGradient x1="50%" y1="162.050105%" x2="50%" y2="0%" id="linearGradient-3">
            <stop stop-color="#94C2DA" offset="0%"></stop>
            <stop stop-color="#D5ECFD" offset="100%"></stop>
        </linearGradient>
    </defs>
    <g id="Page-1" stroke="none" stroke-width="1" fill="none" fill-rule="evenodd">
        <g id="website-developer-alt2" transform="translate(-446.000000, -658.000000)">
            <g id="Group-54" transform="translate(0.000000, 418.000000)">
                <g id="Group-53" transform="translate(260.000000, 199.000000)">
                    <g id="Group-30">
                        <g id="Group-6" transform="translate(186.000000, 41.000000)">
                            <path d="M58.6937137,39.841463 C59.1293378,39.841463 60.7862783,39.0345566 61.2129425,39 C69.2884578,38.3459446 72.9307838,36.3213983 72.9307838,28.125 C72.9307838,19.4955508 65.8936666,12.5 57.2129425,12.5 L54.6937137,12.5 C51.3389244,5.12868735 43.8759378,0 35.2079646,0 C23.8242917,0 14.5189364,8.84577566 13.8680697,20 L11.9455594,20 C5.34820912,20 0,25.3166186 0,31.875 C0,38.4333814 5.34820912,43.75 11.9455594,43.75 C16.3240938,43.75 19.6079946,43.75 21.7972618,43.75 C22.2352414,43.75 35.3675158,43.75 53.194085,43.75 C54.8619007,43.75 56.6951102,42.4471543 58.6937137,39.841463 Z" id="Path" fill="url(#linearGradient-1)" fill-rule="nonzero"></path>
                            <g id="Group-33-Copy" transform="translate(11.000000, 32.000000)">
                                <path d="M52.5155134,17.5835274 L52.5155134,16.9850885 L46.3909223,3.92093659 C45.2649461,1.52893038 42.8433493,2.68988932e-12 40.180746,2.68988932e-12 L12.3597945,-3.99680289e-13 C9.6971912,-3.99680289e-13 7.27559445,1.52893038 6.14961819,3.92093659 L0.0536275165,16.9850885 L0.0536275165,17.5835274 L52.5155134,17.5835274 Z" id="Combined-Shape" fill="url(#linearGradient-2)"></path>
                                <path d="M52.6430157,17.9186113 L52.7260483,25.957529 C52.7260483,29.7574186 49.6578046,32.8378378 45.8729343,32.8378378 L6.85311398,32.8378378 C3.06824364,32.8378378 1.69109171e-12,29.7574186 1.69109171e-12,25.957529 L0.0830325143,17.9186113 C0.0895256477,17.2899689 0.598965396,16.7837838 1.22515677,16.7837838 L51.5008915,16.7837838 C52.1270829,16.7837838 52.6365226,17.2899689 52.6430157,17.9186113 Z M39.6756757,23.3513514 C39.1233909,23.3513514 38.6756757,23.7990666 38.6756757,24.3513514 L38.6756757,24.5405405 C38.6756757,25.0928253 39.1233909,25.5405405 39.6756757,25.5405405 L44.2432432,25.5405405 C44.795528,25.5405405 45.2432432,25.0928253 45.2432432,24.5405405 L45.2432432,24.3513514 C45.2432432,23.7990666 44.795528,23.3513514 44.2432432,23.3513514 L39.6756757,23.3513514 Z" id="Combined-Shape" fill="url(#linearGradient-3)"></path>
                            </g>
                        </g>
                    </g>
                </g>
            </g>
        </g>
    </g>
</svg>