<?xml version="1.0" encoding="UTF-8"?>
<svg width="78px" height="54px" viewBox="0 0 78 54" version="1.1" xmlns="http://www.w3.org/2000/svg" xmlns:xlink="http://www.w3.org/1999/xlink">
    <!-- Generator: Sketch 52.6 (67491) - http://www.bohemiancoding.com/sketch -->
    <title>tar-com-chart</title>
    <desc>Created with Sketch.</desc>
    <defs>
        <radialGradient cx="50%" cy="41.11632%" fx="50%" fy="41.11632%" r="84.0036105%" gradientTransform="translate(0.500000,0.411163),scale(0.840203,1.000000),rotate(90.000000),translate(-0.500000,-0.411163)" id="radialGradient-1">
            <stop stop-color="#FDFDFD" offset="0%"></stop>
            <stop stop-color="#DCDCDC" offset="100%"></stop>
        </radialGradient>
        <radialGradient cx="50%" cy="41.11632%" fx="50%" fy="41.11632%" r="156.171697%" gradientTransform="translate(0.500000,0.411163),scale(0.452441,1.000000),rotate(90.000000),translate(-0.500000,-0.411163)" id="radialGradient-2">
            <stop stop-color="#FDFDFD" offset="0%"></stop>
            <stop stop-color="#DCDCDC" offset="100%"></stop>
        </radialGradient>
        <path d="M69.2581895,14.7054745 C64.9187058,17.4042805 58.4094803,21.4524895 49.730513,26.8501016 C47.5340288,28.2161362 44.685886,27.8885657 42.8568707,26.0595504 L36.1870177,19.3896974 C33.2296538,16.4323335 28.6588107,15.820215 25.027519,17.8952388 C17.1070274,22.421234 11.1666587,25.8157304 7.20641287,28.078728 C7.39458528,22.0167786 7.46415118,15.1304018 7.41511057,7.41959752 C7.41511057,3.32186696 10.7369775,-3.46097043e-31 14.8347081,0 L61.8473813,1.55868252e-15 C65.9451118,1.55868252e-15 69.2669788,3.32186696 69.2669788,7.41959752 C69.2669788,10.428698 69.264049,12.8573236 69.2581895,14.7054745 Z" id="path-3"></path>
        <linearGradient x1="100%" y1="94.5937616%" x2="25.5486565%" y2="-13.8697267%" id="linearGradient-4">
            <stop stop-color="#00DABC" offset="0%"></stop>
            <stop stop-color="#7E00FF" offset="100%"></stop>
        </linearGradient>
        <linearGradient x1="0%" y1="0%" x2="101.999998%" y2="100.999999%" id="linearGradient-5">
            <stop stop-color="#C670FF" offset="0%"></stop>
            <stop stop-color="#16B3FF" offset="100%"></stop>
        </linearGradient>
        <path d="M69.2669788,44.5175851 C69.2669788,48.6153157 65.9451118,51.9371827 61.8473813,51.9371827 L14.908269,51.9371827 C10.8105384,51.9371827 7.48867149,48.6153157 7.48867149,44.5175851 L7.48867149,35.7895569 C7.48867149,34.3300257 7.48867149,33.1368758 7.48867149,32.2101071 C11.8029508,29.7448047 18.2743697,26.046851 26.9029283,21.1162461 C29.0817033,19.8712318 31.8242091,20.2385029 33.5986275,22.0129213 L40.2684805,28.6827743 C43.3168392,31.731133 48.0637439,32.2770839 51.724551,30.0003596 C59.5211856,25.1514867 65.3686615,21.5148321 69.2669788,19.0903957 C69.2669788,22.8488593 69.2669788,31.3245891 69.2669788,44.5175851 Z" id="path-6"></path>
    </defs>
    <g id="Page-1" stroke="none" stroke-width="1" fill="none" fill-rule="evenodd">
        <g id="tar-com-chart" transform="translate(0.000000, 1.000000)" fill-rule="nonzero">
            <g id="Group-4">
                <rect id="Rectangle" stroke-opacity="0.170204937" stroke="#000000" stroke-width="0.5" fill="url(#radialGradient-1)" x="7.16511057" y="-0.25" width="62.3150228" height="52.4371827" rx="6"></rect>
                <g id="Shape">
                    <use fill="url(#radialGradient-2)" xlink:href="#path-3"></use>
                    <use fill-opacity="0.438688859" fill="#FFFFFF" xlink:href="#path-3"></use>
                </g>
                <path d="M2.61956014,30.7196916 C7.60684736,27.8698132 15.0877782,23.5949956 25.0623526,17.8952388 C28.6936443,15.820215 33.2644874,16.4323335 36.2218513,19.3896974 L42.8917043,26.0595504 C44.7207196,27.8885657 47.5688624,28.2161362 49.7653466,26.8501016 C60.3747578,20.2519104 68.3318161,15.3032671 73.6365217,12.0041715 C76.9522712,9.94204488 79.1522716,12.9425473 75.9569202,14.9297961 C70.5719492,18.2788102 62.4944928,23.3023313 51.724551,30.0003596 C48.0637439,32.2770839 43.3168392,31.731133 40.2684805,28.6827743 L33.5986275,22.0129213 C31.8242091,20.2385029 29.0817033,19.8712318 26.9029283,21.1162461 C16.7341921,26.9269525 9.10763993,31.2849823 4.02327183,34.1903355 C0.305656315,36.3146872 -1.24367668,32.9272555 2.61956014,30.7196916 Z" id="Line" fill="url(#linearGradient-4)"></path>
                <g id="Path">
                    <use fill="url(#linearGradient-5)" xlink:href="#path-6"></use>
                    <use fill-opacity="0.240483" fill="#FFFFFF" xlink:href="#path-6"></use>
                </g>
            </g>
        </g>
    </g>
</svg>