<?xml version="1.0" encoding="UTF-8" standalone="no"?>
<svg width="23px" height="22px" viewBox="0 0 23 22" version="1.1" xmlns="http://www.w3.org/2000/svg" xmlns:xlink="http://www.w3.org/1999/xlink" xmlns:sketch="http://www.bohemiancoding.com/sketch/ns">
    <!-- Generator: Sketch 3.4.2 (15855) - http://www.bohemiancoding.com/sketch -->
    <title>Group</title>
    <desc>Created with Sketch.</desc>
    <defs></defs>
    <g id="Page-1" stroke="none" stroke-width="1" fill="none" fill-rule="evenodd" sketch:type="MSPage">
        <g id="Group" sketch:type="MSLayerGroup" transform="translate(0.000000, 1.000000)" stroke="#000000" stroke-linecap="round" stroke-linejoin="round">
            <path d="M18.959,14 C18.959,8.031 14.833,10.469 11.459,10.469 C8.084,10.469 3.959,8.093 3.959,14 C3.959,15.933 5.526,17.5 7.459,17.5 L15.459,17.5 C17.393,17.5 18.959,15.933 18.959,14 L18.959,14 Z" id="Stroke-270" sketch:type="MSShapeGroup"></path>
            <path d="M20.9883,7.2144 L21.0203,7.2364 C21.0203,7.2364 23.6673,2.6654 20.4173,0.0004 C18.4173,0.0004 15.3583,3.3034 15.3583,3.3034 L15.3813,3.3184 C12.8903,2.5864 10.0953,2.5814 7.5993,3.3024 C7.5833,3.2854 4.5373,0.0004 2.5423,0.0004 C-0.6317,2.6024 1.8123,7.0124 1.9273,7.2174 C0.9103,8.7434 0.3553,10.6504 0.5323,12.9604 C0.7733,16.0854 3.3803,19.5004 6.5143,19.5004 L16.4023,19.5004 C19.5383,19.5004 22.1443,16.0854 22.3843,12.9604 C22.5633,10.6484 22.0083,8.7394 20.9883,7.2144 L20.9883,7.2144 Z" id="Stroke-271" sketch:type="MSShapeGroup"></path>
            <path d="M15.9795,14 C15.9795,14.829 15.5325,15.5 14.9795,15.5 C14.4275,15.5 13.9795,14.829 13.9795,14 C13.9795,13.171 14.4275,12.5 14.9795,12.5 C15.5325,12.5 15.9795,13.171 15.9795,14 L15.9795,14 Z" id="Stroke-272" sketch:type="MSShapeGroup"></path>
            <path d="M8.9795,14 C8.9795,14.829 8.5325,15.5 7.9795,15.5 C7.4275,15.5 6.9795,14.829 6.9795,14 C6.9795,13.171 7.4275,12.5 7.9795,12.5 C8.5325,12.5 8.9795,13.171 8.9795,14 L8.9795,14 Z" id="Stroke-273" sketch:type="MSShapeGroup"></path>
        </g>
    </g>
</svg>