<?xml version="1.0" encoding="utf-8"?>
<!-- Generator: Adobe Illustrator 16.0.4, SVG Export Plug-In . SVG Version: 6.00 Build 0)  -->
<!DOCTYPE svg PUBLIC "-//W3C//DTD SVG 1.1//EN" "http://www.w3.org/Graphics/SVG/1.1/DTD/svg11.dtd">
<svg version="1.1" id="Layer_1" xmlns="http://www.w3.org/2000/svg" xmlns:xlink="http://www.w3.org/1999/xlink" x="0px" y="0px"
	 width="382.613px" height="125.773px" viewBox="0 0 382.613 125.773" enable-background="new 0 0 382.613 125.773"
	 xml:space="preserve">
<g id="Layer_6_copy_3">
</g>
<g id="Layer_3">
</g>
<g id="Layer_13">
</g>
<g id="Layer_4">
	<g>
		<path fill="#2683FF" d="M44.756,89.433c0.612,2.531,1.312,4.922,2.101,7.13c1.966,5.505,4.333,9.479,6.819,11.573
			c1.175-0.678,2.537-1.065,3.989-1.065c1.47,0,2.848,0.397,4.031,1.089c2.493-2.091,4.866-6.078,6.833-11.61
			c0.842-2.37,1.582-4.949,2.22-7.69c-4.055-1.386-8.304-3.135-12.627-5.203C53.565,85.948,49.055,87.894,44.756,89.433z"/>
		<path fill="#2683FF" d="M70.798,36.527c-0.663-2.89-1.437-5.604-2.323-8.085c-1.852-5.185-4.058-9.009-6.387-11.187
			c-1.267,0.84-2.787,1.332-4.422,1.332c-1.651,0-3.185-0.5-4.459-1.356c-2.336,2.175-4.55,6.013-6.402,11.225
			c-0.882,2.485-1.653,5.205-2.311,8.098c4.267,1.457,8.75,3.316,13.31,5.526C62.236,39.879,66.619,38.007,70.798,36.527z"/>
		<path fill="#2683FF" d="M66.785,46.842c2.125,1.226,4.194,2.489,6.199,3.784c-0.346-3.838-0.86-7.527-1.529-10.997
			c-3.26,1.173-6.656,2.594-10.109,4.232C63.156,44.804,64.971,45.796,66.785,46.842z"/>
		<path fill="#2683FF" d="M54.255,43.906c-3.556-1.638-7.059-3.052-10.421-4.215c-0.684,3.585-1.2,7.403-1.539,11.376
			c1.921-1.282,3.903-2.537,5.937-3.753C50.231,46.115,52.244,44.978,54.255,43.906z"/>
		<path fill="#2683FF" d="M38.954,53.365c0.337-5.15,0.964-10.088,1.854-14.663c-5.716-1.76-10.921-2.723-15.146-2.723
			c-1.628,0-3.498,0.147-5.144,0.644c0.043,0.337,0.067,0.679,0.067,1.029c0,2.924-1.566,5.481-3.907,6.879
			c0.904,2.888,3.076,6.382,6.412,10.21c1.805,2.069,3.884,4.164,6.192,6.251C32.22,58.406,35.468,55.846,38.954,53.365z"/>
		<path fill="#2683FF" d="M31.682,63.087c2.208,1.865,4.59,3.712,7.116,5.522c-0.088-2.007-0.135-4.039-0.137-6.091
			c-0.001-1.716,0.03-3.418,0.089-5.103C36.238,59.276,33.871,61.175,31.682,63.087z"/>
		<path fill="#2683FF" d="M29.32,65.22c-2.275,2.124-4.319,4.256-6.089,6.355c-3.126,3.713-5.195,7.098-6.119,9.926
			c2.129,1.439,3.528,3.876,3.528,6.639c0,0.496-0.046,0.98-0.134,1.45c1.636,0.547,3.528,0.706,5.159,0.706
			c4.275,0,9.569-1.032,15.394-2.921c-0.953-4.582-1.635-9.548-2.022-14.745C35.539,70.225,32.276,67.739,29.32,65.22z"/>
		<path fill="#2683FF" d="M48.493,78.584c-2.089-1.203-4.124-2.446-6.098-3.718c0.378,4.02,0.942,7.869,1.676,11.472
			c3.385-1.229,6.913-2.719,10.496-4.444C52.549,80.854,50.521,79.751,48.493,78.584z"/>
		<path fill="#2683FF" d="M86.345,64.752c-3.034,2.698-6.408,5.372-10.043,7.956c-0.362,4.919-0.99,9.633-1.862,14.006
			c5.729,1.768,10.945,2.733,15.176,2.733c1.645,0,3.536-0.151,5.194-0.66c-0.02-0.229-0.033-0.462-0.033-0.698
			c0-2.927,1.571-5.487,3.916-6.885c-0.84-2.946-3.05-6.553-6.505-10.518C90.475,68.719,88.515,66.733,86.345,64.752z"/>
		<path fill="#2683FF" d="M104.309,77.622l-0.028-29.655c5.056-0.793,8.925-5.168,8.925-10.446c0-5.842-4.735-10.577-10.576-10.577
			c-3.107,0-5.901,1.341-7.836,3.475L67.424,14.652c0.525-1.254,0.817-2.632,0.817-4.078C68.241,4.734,63.507,0,57.665,0
			c-5.84,0-10.575,4.734-10.575,10.575c0,1.435,0.287,2.802,0.805,4.05l-27.498,15.91c-1.934-2.125-4.723-3.459-7.821-3.459
			C6.735,27.075,2,31.811,2,37.651c0,5.312,3.918,9.709,9.021,10.46l0.028,29.571c-5.091,0.762-8.997,5.152-8.997,10.458
			c0,5.84,4.734,10.574,10.575,10.574c3.112,0,5.91-1.344,7.845-3.482l27.423,15.797c-0.519,1.248-0.806,2.616-0.806,4.051
			c0,5.842,4.734,10.576,10.575,10.576c5.841,0,10.576-4.734,10.576-10.576c0-1.424-0.285-2.782-0.796-4.022l27.48-15.9
			c1.936,2.152,4.741,3.506,7.862,3.506c5.841,0,10.575-4.734,10.575-10.575C113.365,82.762,109.429,78.361,104.309,77.622z
			 M102.788,96.098c-3.081,0-5.752-1.74-7.093-4.291c-1.595,0.49-3.589,0.795-6.079,0.795c-4.52,0-9.937-0.97-15.853-2.771
			c-0.652,2.767-1.407,5.371-2.261,7.774c-2.067,5.818-4.609,10.102-7.441,12.65c1.015,1.343,1.616,3.013,1.616,4.824
			c0,4.424-3.587,8.01-8.012,8.01c-4.423,0-8.01-3.586-8.01-8.01c0-1.827,0.612-3.511,1.644-4.859
			c-2.817-2.551-5.35-6.812-7.415-12.598c-0.795-2.229-1.505-4.631-2.129-7.175c-6.057,1.943-11.59,3.003-16.09,3.003
			c-1.969,0-4.257-0.214-6.328-0.935c-1.431,2.188-3.901,3.635-6.709,3.635c-4.425,0-8.011-3.586-8.011-8.011
			c0-4.424,3.586-8.012,8.011-8.012c0.545,0,1.077,0.056,1.592,0.158c1.096-3.213,3.309-6.844,6.596-10.745
			c1.789-2.125,3.843-4.274,6.123-6.417c-2.314-2.105-4.403-4.219-6.228-6.312c-3.562-4.089-5.908-7.893-6.978-11.235
			c-0.379,0.055-0.764,0.083-1.157,0.083c-4.424,0-8.011-3.586-8.011-8.011c0-4.424,3.587-8.011,8.011-8.011
			c2.962,0,5.546,1.608,6.932,3.998c1.608-0.502,3.624-0.817,6.154-0.817c4.509,0,9.91,0.966,15.81,2.757
			c0.673-2.918,1.459-5.66,2.355-8.183c1.999-5.626,4.442-9.818,7.162-12.394c-0.843-1.269-1.336-2.791-1.336-4.429
			c0-4.424,3.588-8.012,8.011-8.012c4.425,0,8.012,3.588,8.012,8.012c0,1.653-0.501,3.191-1.36,4.468
			c2.706,2.576,5.137,6.748,7.132,12.337c0.895,2.508,1.684,5.237,2.358,8.138c5.947-1.884,11.378-2.915,15.808-2.915
			c1.9,0,4.098,0.198,6.109,0.86c1.394-2.365,3.964-3.954,6.907-3.954c4.424,0,8.012,3.587,8.012,8.011
			c0,4.424-3.588,8.01-8.012,8.01c-0.495,0-0.98-0.047-1.449-0.134c-1.049,3.305-3.305,7.064-6.718,11.116
			c-1.7,2.017-3.641,4.057-5.785,6.095c2.179,2.002,4.154,4.011,5.89,6.001c3.676,4.218,6.056,8.131,7.077,11.548
			c0.374-0.052,0.756-0.082,1.144-0.082c4.425,0,8.012,3.587,8.012,8.011C110.801,92.513,107.214,96.098,102.788,96.098z"/>
		<path fill="#2683FF" d="M83.963,62.649c-2.288-1.952-4.77-3.887-7.41-5.781c0.076,1.854,0.116,3.727,0.118,5.619
			c0.001,2.069-0.041,4.123-0.129,6.146C79.19,66.671,81.676,64.667,83.963,62.649z"/>
		<path fill="#2683FF" d="M61.663,81.809c3.327,1.51,6.602,2.823,9.755,3.915c0.66-3.38,1.169-6.967,1.521-10.703
			c-1.906,1.271-3.872,2.516-5.888,3.723C65.26,79.816,63.461,80.837,61.663,81.809z"/>
		<path fill="#2683FF" d="M86.311,60.506c2.134-2.014,4.06-4.033,5.738-6.026c3.244-3.85,5.35-7.353,6.219-10.24
			c-2.194-1.43-3.648-3.904-3.648-6.717c0-0.367,0.027-0.729,0.074-1.083c-1.617-0.523-3.474-0.678-5.079-0.678
			c-4.213,0-9.419,1.004-15.146,2.842c0.879,4.451,1.507,9.248,1.86,14.254C79.934,55.337,83.286,57.908,86.311,60.506z"/>
		<path fill="#2683FF" d="M65.21,49.578c-2.46-1.419-4.938-2.743-7.405-3.97c-2.646,1.355-5.308,2.83-7.954,4.414
			c-2.715,1.625-5.334,3.317-7.835,5.051c-0.131,2.44-0.199,4.926-0.197,7.442c0.002,2.838,0.095,5.633,0.267,8.371
			c2.547,1.707,5.218,3.367,7.984,4.962c2.669,1.538,5.356,2.967,8.027,4.277c2.44-1.266,4.893-2.631,7.33-4.09
			c2.711-1.624,5.328-3.312,7.825-5.042c0.172-2.78,0.264-5.62,0.261-8.504c-0.001-2.673-0.084-5.31-0.238-7.895
			C70.704,52.869,68.005,51.189,65.21,49.578z"/>
	</g>
	<g enable-background="new    ">
		<path fill="#2683FF" d="M135.43,69.482c0,5.628,2.447,8.014,9.298,8.014c6.606,0,8.809-1.713,8.809-5.688
			c0-1.652-0.489-2.875-1.407-3.793s-2.63-2.019-5.077-3.364l-8.442-4.588c-4.343-2.386-6.974-5.2-6.974-9.849
			c0-6.545,4.282-9.359,13.152-9.359c9.482,0,12.907,3.792,12.907,11.623h-4.588c0-4.955-2.202-7.402-8.319-7.402
			c-5.873,0-8.258,1.529-8.258,5.261c0,2.752,1.529,4.037,5.139,5.995l8.625,4.71c2.753,1.529,4.771,2.997,6.118,4.466
			c1.346,1.529,2.019,3.608,2.019,6.239c0,6.79-3.731,9.971-13.703,9.971c-9.727,0-13.886-4.159-13.886-12.234H135.43z"/>
		<path fill="#2683FF" d="M159.958,55.29v-3.548l5.75-0.795l0.734-7.952h3.854v7.952h10.583v4.343h-10.583v15.538
			c0,4.833,1.896,6.546,5.75,6.546c1.774,0,3.426-0.306,5.077-0.856V80.8c-1.468,0.611-3.303,0.917-5.566,0.917
			c-6.301,0-9.849-2.997-9.849-10.889V55.29H159.958z"/>
		<path fill="#2683FF" d="M185.158,68.871v-5.689c0-8.564,4.465-12.846,13.458-12.846c9.482,0,13.336,4.465,13.336,12.846v5.689
			c0,8.564-4.466,12.846-13.336,12.846C189.073,81.717,185.158,77.252,185.158,68.871z M207.364,63.182
			c0-5.873-2.08-8.503-8.748-8.503c-6.79,0-8.87,2.631-8.87,8.503v5.689c0,5.872,2.202,8.503,8.87,8.503s8.748-2.631,8.748-8.503
			V63.182z"/>
		<path fill="#2683FF" d="M222.164,81.105h-4.588V60.918c0-7.035,3.486-10.583,10.46-10.583c1.407,0,2.692,0.183,3.793,0.489v4.404
			c-1.101-0.367-2.386-0.551-3.793-0.551c-4.404,0-5.872,2.08-5.872,6.484V81.105z"/>
		<path fill="#2683FF" d="M240.514,50.947v23.857c0,5.322-0.733,9.421-2.141,12.296c-1.468,2.813-3.609,5.139-6.423,7.034
			l-2.386-3.731c2.141-1.529,3.731-3.364,4.771-5.566s1.59-5.444,1.59-9.727V50.947H240.514z M238.251,38.529
			c1.713,0,2.997,1.346,2.997,2.998s-1.284,2.937-2.997,2.937c-0.796,0-1.529-0.306-2.08-0.856
			C234.275,41.832,235.62,38.529,238.251,38.529z"/>
		<path fill="#2683FF" d="M255.634,41.343h4.771v32.421c0,2.019,0.856,2.875,2.875,2.875h15.048v4.466H262.24
			c-4.71,0-6.606-1.896-6.606-6.606V41.343z"/>
		<path fill="#2683FF" d="M305.609,72.052c0,6.852-3.854,9.665-12.725,9.665c-7.096,0-11.562-2.813-11.562-9.114
			c0-6.423,4.16-8.992,12.541-8.992h7.156v-3.67c0-3.731-2.386-5.567-7.156-5.567c-4.405,0-6.791,1.529-6.791,5.995h-4.281
			c0-6.668,3.67-9.971,11.072-9.971c7.83,0,11.745,3.181,11.745,9.543V72.052z M301.02,67.158h-7.096
			c-5.566,0-8.014,1.468-8.014,5.383c0,3.487,2.325,5.2,6.913,5.2c5.628,0,8.196-1.285,8.196-5.873V67.158z"/>
		<path fill="#2683FF" d="M311.662,38.284h4.588v16.517c1.59-2.998,4.771-4.465,9.543-4.465c8.441,0,12.662,4.282,12.662,12.907
			v5.689c0,8.503-4.159,12.784-13.396,12.784c-8.932,0-13.396-4.281-13.396-12.784V38.284z M333.807,63.182
			c0-5.934-2.08-8.503-8.748-8.503s-8.809,2.631-8.809,8.503v5.689c0,5.872,2.141,8.503,8.809,8.503c6.79,0,8.748-2.631,8.748-8.503
			V63.182z"/>
		<path fill="#2683FF" d="M347.506,71.562c0,2.386,0.489,3.977,1.529,4.833s2.997,1.284,5.994,1.284
			c5.078,0,7.219-0.917,7.219-3.548c0-1.284-0.306-2.264-0.918-2.937c-0.673-0.673-2.019-1.407-4.037-2.263l-6.852-2.814
			c-4.71-1.957-6.606-3.731-6.606-8.075c0-5.322,3.609-7.646,11.501-7.646c7.891,0,11.133,3.059,11.133,9.604h-4.159
			c0-4.099-1.713-5.567-7.035-5.567c-5.077,0-6.912,0.918-6.912,3.426c0,2.141,0.856,3.059,4.221,4.343l7.096,2.875
			c4.955,1.958,7.096,4.099,7.096,8.809c0,5.444-3.608,7.83-11.745,7.83c-8.625,0-11.745-2.997-11.745-10.154H347.506z"/>
	</g>
</g>
<g id="Layer_16">
	<circle fill="#2683FF" cx="102.632" cy="37.521" r="2.526"/>
	<circle fill="#2683FF" cx="102.789" cy="88.087" r="2.526"/>
	<circle fill="#2683FF" cx="57.665" cy="10.575" r="2.525"/>
	<circle fill="#2683FF" cx="57.665" cy="115.08" r="2.526"/>
	<circle fill="#2683FF" cx="12.576" cy="37.652" r="2.526"/>
	<circle fill="#2683FF" cx="12.629" cy="88.141" r="2.525"/>
</g>
</svg>
