<?xml version="1.0" encoding="utf-8"?>
<!-- Generator: Adobe Illustrator 16.0.4, SVG Export Plug-In . SVG Version: 6.00 Build 0)  -->
<!DOCTYPE svg PUBLIC "-//W3C//DTD SVG 1.1//EN" "http://www.w3.org/Graphics/SVG/1.1/DTD/svg11.dtd">
<svg version="1.1" xmlns="http://www.w3.org/2000/svg" xmlns:xlink="http://www.w3.org/1999/xlink" x="0px" y="0px"
	 width="382.614px" height="125.773px" viewBox="120.304 256.979 382.614 125.773"
	 enable-background="new 120.304 256.979 382.614 125.773" xml:space="preserve">
<g id="Layer_6_copy_3">
</g>
<g id="Layer_3">
</g>
<g id="Layer_13">
</g>
<g id="Layer_4">
	<g>
		<path fill="#FFFFFF" d="M164.276,347.255c0.62,2.567,1.33,4.99,2.129,7.228c1.993,5.58,4.392,9.607,6.912,11.73
			c1.191-0.686,2.571-1.08,4.044-1.08c1.49,0,2.886,0.404,4.086,1.104c2.527-2.119,4.932-6.16,6.925-11.768
			c0.854-2.402,1.604-5.016,2.25-7.795c-4.11-1.405-8.417-3.177-12.799-5.274C173.204,343.723,168.633,345.696,164.276,347.255z"/>
		<path fill="#FFFFFF" d="M190.672,293.63c-0.672-2.929-1.456-5.68-2.354-8.196c-1.877-5.256-4.114-9.132-6.474-11.339
			c-1.284,0.852-2.825,1.35-4.482,1.35c-1.674,0-3.229-0.507-4.521-1.375c-2.368,2.205-4.611,6.095-6.489,11.378
			c-0.895,2.519-1.676,5.275-2.343,8.208c4.325,1.477,8.869,3.361,13.491,5.602C181.993,297.027,186.436,295.13,190.672,293.63z"/>
		<path fill="#FFFFFF" d="M186.605,304.085c2.153,1.242,4.251,2.522,6.283,3.834c-0.351-3.89-0.872-7.629-1.55-11.146
			c-3.305,1.189-6.747,2.629-10.247,4.29C182.926,302.019,184.766,303.025,186.605,304.085z"/>
		<path fill="#FFFFFF" d="M173.904,301.109c-3.605-1.66-7.156-3.094-10.564-4.272c-0.693,3.633-1.216,7.504-1.559,11.531
			c1.947-1.3,3.956-2.571,6.017-3.805C169.824,303.348,171.865,302.196,173.904,301.109z"/>
		<path fill="#FFFFFF" d="M158.395,310.697c0.342-5.221,0.977-10.226,1.88-14.862c-5.794-1.784-11.071-2.76-15.353-2.76
			c-1.65,0-3.546,0.149-5.214,0.652c0.044,0.342,0.069,0.689,0.069,1.043c0,2.964-1.588,5.556-3.96,6.973
			c0.916,2.928,3.118,6.468,6.499,10.349c1.829,2.098,3.936,4.221,6.276,6.336C151.569,315.806,154.861,313.211,158.395,310.697z"/>
		<path fill="#FFFFFF" d="M151.024,320.551c2.238,1.89,4.652,3.763,7.213,5.597c-0.09-2.034-0.137-4.094-0.139-6.174
			c-0.001-1.739,0.03-3.465,0.09-5.173C155.641,316.688,153.242,318.613,151.024,320.551z"/>
		<path fill="#FFFFFF" d="M148.629,322.713c-2.306,2.154-4.378,4.314-6.172,6.443c-3.169,3.762-5.265,7.194-6.202,10.06
			c2.158,1.459,3.576,3.929,3.576,6.73c0,0.502-0.047,0.993-0.135,1.47c1.658,0.553,3.576,0.715,5.229,0.715
			c4.333,0,9.699-1.047,15.604-2.961c-0.966-4.644-1.658-9.677-2.05-14.946C154.933,327.787,151.625,325.266,148.629,322.713z"/>
		<path fill="#FFFFFF" d="M168.064,336.258c-2.117-1.219-4.18-2.479-6.181-3.768c0.384,4.074,0.955,7.976,1.699,11.628
			c3.431-1.245,7.007-2.756,10.639-4.505C172.174,338.56,170.118,337.442,168.064,336.258z"/>
		<path fill="#FFFFFF" d="M206.431,322.239c-3.075,2.734-6.495,5.444-10.18,8.063c-0.367,4.987-1.003,9.765-1.887,14.198
			c5.806,1.791,11.093,2.77,15.382,2.77c1.667,0,3.584-0.153,5.265-0.669c-0.02-0.233-0.033-0.469-0.033-0.708
			c0-2.967,1.593-5.562,3.969-6.978c-0.852-2.987-3.092-6.643-6.594-10.662C210.616,326.26,208.63,324.247,206.431,322.239z"/>
		<path fill="#FFFFFF" d="M224.639,335.284l-0.028-30.059c5.125-0.803,9.046-5.238,9.046-10.588c0-5.921-4.799-10.72-10.719-10.72
			c-3.15,0-5.982,1.359-7.943,3.522l-27.743-15.982c0.532-1.272,0.828-2.668,0.828-4.133c0-5.92-4.799-10.719-10.719-10.719
			c-5.92,0-10.719,4.799-10.719,10.719c0,1.454,0.291,2.84,0.815,4.105l-27.872,16.126c-1.96-2.153-4.787-3.505-7.928-3.505
			c-5.92,0-10.719,4.799-10.719,10.719c0,5.385,3.971,9.841,9.144,10.603l0.029,29.973c-5.161,0.772-9.12,5.223-9.12,10.6
			c0,5.92,4.799,10.719,10.719,10.719c3.154,0,5.99-1.363,7.952-3.531l27.796,16.013c-0.525,1.265-0.816,2.651-0.816,4.105
			c0,5.921,4.799,10.72,10.719,10.72c5.919,0,10.719-4.799,10.719-10.72c0-1.443-0.288-2.82-0.806-4.077l27.854-16.117
			c1.962,2.182,4.806,3.554,7.97,3.554c5.92,0,10.719-4.799,10.719-10.719C233.818,340.495,229.829,336.033,224.639,335.284z
			 M223.098,354.011c-3.123,0-5.831-1.763-7.19-4.348c-1.617,0.496-3.637,0.805-6.162,0.805c-4.581,0-10.072-0.983-16.068-2.809
			c-0.661,2.804-1.426,5.444-2.291,7.88c-2.096,5.897-4.672,10.239-7.543,12.823c1.028,1.36,1.638,3.054,1.638,4.889
			c0,4.485-3.636,8.12-8.121,8.12c-4.484,0-8.12-3.635-8.12-8.12c0-1.852,0.622-3.558,1.666-4.925
			c-2.855-2.585-5.422-6.906-7.515-12.769c-0.807-2.259-1.526-4.694-2.158-7.272c-6.14,1.969-11.748,3.044-16.309,3.044
			c-1.996,0-4.315-0.217-6.414-0.949c-1.45,2.219-3.954,3.685-6.801,3.685c-4.485,0-8.12-3.635-8.12-8.12
			c0-4.484,3.635-8.12,8.12-8.12c0.553,0,1.092,0.056,1.614,0.16c1.111-3.257,3.354-6.937,6.686-10.892
			c1.813-2.153,3.896-4.332,6.206-6.504c-2.346-2.133-4.463-4.276-6.312-6.397c-3.612-4.145-5.989-8-7.074-11.389
			c-0.384,0.056-0.774,0.085-1.173,0.085c-4.484,0-8.12-3.634-8.12-8.12c0-4.484,3.636-8.12,8.12-8.12
			c3.002,0,5.622,1.63,7.027,4.053c1.63-0.509,3.673-0.828,6.238-0.828c4.57,0,10.045,0.979,16.025,2.795
			c0.682-2.958,1.479-5.738,2.387-8.294c2.027-5.703,4.503-9.952,7.26-12.563c-0.854-1.286-1.354-2.829-1.354-4.489
			c0-4.484,3.636-8.121,8.12-8.121c4.485,0,8.121,3.637,8.121,8.121c0,1.676-0.508,3.234-1.379,4.528
			c2.742,2.612,5.207,6.84,7.229,12.505c0.908,2.542,1.707,5.309,2.391,8.249c6.028-1.909,11.533-2.954,16.022-2.954
			c1.926,0,4.154,0.2,6.193,0.872c1.412-2.397,4.017-4.008,7.001-4.008c4.484,0,8.121,3.636,8.121,8.12
			c0,4.485-3.637,8.12-8.121,8.12c-0.502,0-0.993-0.048-1.469-0.136c-1.063,3.35-3.35,7.16-6.81,11.267
			c-1.723,2.045-3.69,4.113-5.864,6.178c2.209,2.029,4.211,4.066,5.97,6.083c3.726,4.275,6.139,8.242,7.174,11.705
			c0.379-0.053,0.766-0.083,1.159-0.083c4.485,0,8.121,3.636,8.121,8.12C231.219,350.377,227.583,354.011,223.098,354.011z"/>
		<path fill="#FFFFFF" d="M204.016,320.107c-2.319-1.979-4.835-3.94-7.511-5.859c0.077,1.878,0.118,3.777,0.12,5.695
			c0.001,2.098-0.042,4.179-0.131,6.23C199.178,324.183,201.698,322.152,204.016,320.107z"/>
		<path fill="#FFFFFF" d="M181.412,339.528c3.372,1.53,6.692,2.862,9.888,3.969c0.669-3.426,1.186-7.062,1.542-10.849
			c-1.933,1.288-3.925,2.55-5.969,3.773C185.059,337.507,183.235,338.542,181.412,339.528z"/>
		<path fill="#FFFFFF" d="M206.396,317.935c2.163-2.042,4.115-4.088,5.816-6.108c3.288-3.903,5.423-7.453,6.304-10.38
			c-2.225-1.449-3.698-3.957-3.698-6.809c0-0.372,0.027-0.738,0.075-1.097c-1.639-0.531-3.522-0.688-5.149-0.688
			c-4.27,0-9.546,1.018-15.351,2.881c0.891,4.512,1.527,9.374,1.886,14.448C199.932,312.696,203.33,315.301,206.396,317.935z"/>
		<path fill="#FFFFFF" d="M185.008,306.858c-2.494-1.438-5.005-2.78-7.506-4.024c-2.682,1.374-5.38,2.868-8.062,4.473
			c-2.752,1.648-5.408,3.362-7.942,5.12c-0.133,2.474-0.202,4.993-0.2,7.544c0.002,2.877,0.097,5.71,0.271,8.485
			c2.582,1.73,5.289,3.413,8.092,5.029c2.705,1.559,5.429,3.007,8.137,4.336c2.474-1.283,4.959-2.667,7.43-4.146
			c2.748-1.646,5.4-3.356,7.931-5.111c0.175-2.817,0.268-5.696,0.265-8.619c-0.002-2.71-0.086-5.382-0.241-8.002
			C190.576,310.194,187.841,308.491,185.008,306.858z"/>
	</g>
	
		<text transform="matrix(1 0 0 1 252.1555 338.8137)" fill="#FFFFFF" font-family="'AmpleAlt-Regular3'" font-size="62" letter-spacing="-1">Storj Labs</text>
</g>
<g id="Layer_16">
	<circle fill="#FFFFFF" cx="222.939" cy="294.637" r="2.56"/>
	<circle fill="#FFFFFF" cx="223.099" cy="345.892" r="2.56"/>
	<circle fill="#FFFFFF" cx="177.361" cy="267.324" r="2.56"/>
	<circle fill="#FFFFFF" cx="177.361" cy="373.252" r="2.56"/>
	<circle fill="#FFFFFF" cx="131.657" cy="294.77" r="2.56"/>
	<circle fill="#FFFFFF" cx="131.711" cy="345.946" r="2.56"/>
</g>
</svg>
