<?xml version="1.0" encoding="utf-8"?>
<!-- Generator: Adobe Illustrator 16.0.4, SVG Export Plug-In . SVG Version: 6.00 Build 0)  -->
<!DOCTYPE svg PUBLIC "-//W3C//DTD SVG 1.1//EN" "http://www.w3.org/Graphics/SVG/1.1/DTD/svg11.dtd">
<svg version="1.1" id="Layer_1" xmlns="http://www.w3.org/2000/svg" xmlns:xlink="http://www.w3.org/1999/xlink" x="0px" y="0px"
	 width="283.35px" height="283.5px" viewBox="0 0 283.35 283.5" enable-background="new 0 0 283.35 283.5" xml:space="preserve">
<g id="Layer_6_copy_3">
</g>
<g id="Layer_3">
</g>
<g id="Layer_13">
</g>
<g id="Layer_4">
</g>
<g id="Layer_16">
	<g>
		<g>
			<path fill="#2683FF" d="M116.52,193.4c1.199,4.9,2.5,9.5,4,13.699c3.8,10.6,8.3,18.301,13.1,22.301c2.3-1.301,4.9-2.1,7.7-2.1
				s5.5,0.799,7.8,2.1c4.8-4,9.4-11.701,13.2-22.4c1.6-4.6,3-9.5,4.3-14.801c-7.8-2.699-16-6-24.3-10
				C133.52,186.699,124.82,190.4,116.52,193.4z"/>
			<path fill="#2683FF" d="M166.719,91.4c-1.3-5.6-2.8-10.801-4.5-15.6c-3.6-10-7.8-17.4-12.3-21.602
				c-2.399,1.602-5.399,2.602-8.5,2.602c-3.2,0-6.1-1-8.6-2.602c-4.5,4.201-8.8,11.602-12.3,21.602c-1.7,4.799-3.2,10-4.5,15.6
				c8.199,2.799,16.899,6.4,25.6,10.6C150.219,97.9,158.62,94.301,166.719,91.4z"/>
			<path fill="#2683FF" d="M158.919,111.301c4.101,2.398,8.101,4.799,11.9,7.299c-0.7-7.4-1.7-14.5-2.9-21.199
				c-6.3,2.299-12.8,5-19.5,8.199C151.919,107.4,155.419,109.301,158.919,111.301z"/>
			<path fill="#2683FF" d="M134.82,105.699c-6.9-3.199-13.601-5.898-20.101-8.1c-1.3,6.9-2.3,14.301-3,21.9
				c3.7-2.5,7.5-4.9,11.4-7.199C127.02,109.9,130.919,107.699,134.82,105.699z"/>
			<path fill="#2683FF" d="M105.32,123.9c0.7-9.9,1.899-19.4,3.6-28.201c-11-3.398-21-5.199-29.2-5.199
				c-3.1,0-6.699,0.301-9.9,1.199c0.101,0.602,0.101,1.301,0.101,2c0,5.602-3,10.602-7.5,13.301c1.7,5.6,5.899,12.301,12.4,19.699
				c3.5,4,7.5,8,11.899,12C92.32,133.6,98.62,128.699,105.32,123.9z"/>
			<path fill="#2683FF" d="M91.32,142.6c4.3,3.6,8.8,7.201,13.7,10.6c-0.2-3.898-0.301-7.799-0.301-11.699
				c0-3.301,0.101-6.6,0.2-9.801C100.12,135.301,95.52,138.9,91.32,142.6z"/>
			<path fill="#2683FF" d="M86.82,146.699c-4.4,4.102-8.3,8.201-11.7,12.201c-6,7.1-10,13.699-11.801,19.1
				c4.101,2.801,6.801,7.5,6.801,12.801c0,1-0.1,1.898-0.301,2.799c3.201,1,6.801,1.4,9.9,1.4c8.2,0,18.4-2,29.7-5.6
				c-1.8-8.801-3.1-18.4-3.899-28.4C98.719,156.4,92.419,151.6,86.82,146.699z"/>
			<path fill="#2683FF" d="M123.719,172.5c-4-2.301-7.899-4.699-11.699-7.199c0.699,7.699,1.8,15.199,3.199,22.1
				c6.5-2.4,13.301-5.201,20.2-8.6C131.52,176.801,127.62,174.699,123.719,172.5z"/>
			<path fill="#2683FF" d="M196.62,145.801c-5.8,5.199-12.3,10.299-19.3,15.299c-0.7,9.5-1.9,18.6-3.601,27
				c11,3.4,21.101,5.301,29.2,5.301c3.2,0,6.8-0.301,10-1.301c0-0.4-0.1-0.9-0.1-1.299c0-5.602,3-10.602,7.5-13.301
				c-1.601-5.699-5.9-12.6-12.5-20.301C204.62,153.5,200.82,149.6,196.62,145.801z"/>
			<path fill="#2683FF" d="M231.219,170.6l-0.1-57.1c9.7-1.5,17.2-10,17.2-20.1c0-11.201-9.101-20.4-20.4-20.4
				c-6,0-11.399,2.6-15.1,6.699l-52.7-30.398c1-2.4,1.6-5.102,1.6-7.9c0-11.301-9.1-20.4-20.399-20.4s-20.4,9.1-20.4,20.4
				c0,2.799,0.601,5.4,1.5,7.799l-53,30.602c-3.7-4.102-9.1-6.701-15.1-6.701c-11.3,0-20.4,9.1-20.4,20.4
				c0,10.199,7.5,18.699,17.4,20.1l0.1,57c-9.8,1.5-17.3,9.9-17.3,20.1c0,11.301,9.1,20.4,20.4,20.4c6,0,11.399-2.6,15.1-6.699
				l52.8,30.4c-1,2.398-1.6,5-1.6,7.799c0,11.301,9.1,20.4,20.399,20.4c11.301,0,20.4-9.1,20.4-20.4c0-2.699-0.5-5.4-1.5-7.799
				l52.9-30.602c3.699,4.102,9.1,6.801,15.1,6.801c11.3,0,20.4-9.1,20.4-20.4C248.62,180.5,241.12,172,231.219,170.6z
				 M228.32,206.199c-5.9,0-11.101-3.398-13.7-8.299c-3.1,0.9-6.9,1.5-11.7,1.5c-8.7,0-19.1-1.9-30.5-5.301
				c-1.3,5.301-2.7,10.301-4.399,15c-4.001,11.201-8.9,19.5-14.301,24.4c2,2.6,3.101,5.801,3.101,9.301
				c0,8.5-6.9,15.398-15.4,15.398s-15.399-6.898-15.399-15.398c0-3.5,1.199-6.801,3.199-9.4c-5.399-4.9-10.3-13.1-14.3-24.301
				c-1.5-4.299-2.899-8.9-4.1-13.799c-11.7,3.699-22.3,5.799-31,5.799c-3.8,0-8.2-0.4-12.2-1.799c-2.801,4.199-7.5,7-12.9,7
				c-8.5,0-15.4-6.9-15.4-15.4s6.9-15.4,15.4-15.4c1,0,2.1,0.1,3.1,0.301c2.101-6.201,6.4-13.201,12.701-20.701
				c3.399-4.1,7.399-8.199,11.8-12.4c-4.5-4.1-8.5-8.1-12.001-12.199c-6.899-7.9-11.399-15.199-13.399-21.6
				c-0.7,0.1-1.5,0.199-2.2,0.199c-8.5,0-15.4-6.9-15.4-15.4s6.9-15.398,15.4-15.398c5.7,0,10.7,3.1,13.4,7.699
				c3.1-1,7-1.6,11.9-1.6c8.699,0,19.1,1.9,30.5,5.299c1.3-5.6,2.8-10.898,4.5-15.799c3.899-10.801,8.6-18.9,13.8-23.9
				c-1.601-2.4-2.601-5.4-2.601-8.5c0-8.5,6.9-15.4,15.4-15.4s15.399,6.9,15.399,15.4c0,3.199-1,6.1-2.6,8.6
				c5.2,5,9.9,13,13.7,23.801c1.7,4.799,3.2,10.1,4.5,15.699c11.5-3.6,21.9-5.6,30.4-5.6c3.699,0,7.899,0.4,11.8,1.699
				c2.7-4.6,7.6-7.6,13.3-7.6c8.5,0,15.4,6.9,15.4,15.4s-6.9,15.4-15.4,15.4c-1,0-1.9-0.1-2.8-0.301c-2,6.4-6.4,13.6-12.9,21.4
				c-3.3,3.9-7,7.801-11.1,11.699c4.2,3.9,8,7.701,11.3,11.602c7.1,8.1,11.7,15.699,13.6,22.199c0.7-0.1,1.5-0.199,2.2-0.199
				c8.5,0,15.4,6.898,15.4,15.398C243.719,199.301,236.82,206.199,228.32,206.199z"/>
			<path fill="#2683FF" d="M192.02,141.801c-4.4-3.801-9.2-7.5-14.301-11.102c0.101,3.602,0.2,7.201,0.2,10.801
				c0,4-0.1,7.9-0.2,11.801C182.82,149.5,187.62,145.699,192.02,141.801z"/>
			<path fill="#2683FF" d="M149.12,178.699c6.4,2.9,12.7,5.4,18.8,7.5c1.3-6.5,2.3-13.398,2.9-20.6c-3.7,2.4-7.5,4.801-11.3,7.201
				C156.02,174.801,152.52,176.801,149.12,178.699z"/>
			<path fill="#2683FF" d="M196.52,137.6c4.1-3.9,7.8-7.799,11.1-11.6c6.2-7.4,10.3-14.199,12-19.699c-4.2-2.801-7-7.5-7-12.9
				c0-0.701,0.1-1.4,0.1-2.1c-3.1-1-6.7-1.301-9.8-1.301c-8.1,0-18.1,1.9-29.2,5.5c1.7,8.6,2.9,17.801,3.601,27.5
				C184.32,127.699,190.719,132.6,196.52,137.6z"/>
			<path fill="#2683FF" d="M155.919,116.6c-4.7-2.699-9.5-5.299-14.3-7.6c-5.1,2.6-10.2,5.5-15.3,8.5
				c-5.2,3.1-10.3,6.4-15.101,9.699c-0.3,4.701-0.399,9.5-0.399,14.301c0,5.5,0.2,10.9,0.5,16.1c4.899,3.301,10.1,6.5,15.399,9.6
				c5.101,3,10.301,5.701,15.5,8.201c4.7-2.4,9.4-5.1,14.101-7.9c5.2-3.1,10.3-6.4,15.1-9.699c0.3-5.4,0.5-10.801,0.5-16.4
				c0-5.1-0.2-10.201-0.5-15.201C166.52,122.9,161.32,119.699,155.919,116.6z"/>
		</g>
		<circle fill="#2683FF" cx="228.02" cy="93.4" r="4.9"/>
		<circle fill="#2683FF" cx="228.32" cy="190.8" r="4.899"/>
		<circle fill="#2683FF" cx="141.419" cy="41.5" r="4.9"/>
		<circle fill="#2683FF" cx="141.419" cy="242.8" r="4.899"/>
		<circle fill="#2683FF" cx="54.52" cy="93.6" r="4.9"/>
		<circle fill="#2683FF" cx="54.62" cy="190.9" r="4.9"/>
	</g>
</g>
</svg>
