<?xml version="1.0" encoding="UTF-8"?>
<svg width="72px" height="55px" viewBox="0 0 72 55" version="1.1" xmlns="http://www.w3.org/2000/svg" xmlns:xlink="http://www.w3.org/1999/xlink">
    <!-- Generator: Sketch 52.2 (67145) - http://www.bohemiancoding.com/sketch -->
    <title>icon-illustration-code</title>
    <desc>Created with Sketch.</desc>
    <defs>
        <linearGradient x1="1.88312861%" y1="6.17883186%" x2="1.88312861%" y2="160.29121%" id="linearGradient-1">
            <stop stop-color="#F2F0F4" offset="0%"></stop>
            <stop stop-color="#2682FF" offset="100%"></stop>
        </linearGradient>
        <linearGradient x1="62.9896442%" y1="100%" x2="62.9896442%" y2="0%" id="linearGradient-2">
            <stop stop-color="#14AFFF" offset="0%"></stop>
            <stop stop-color="#0061FF" offset="100%"></stop>
        </linearGradient>
    </defs>
    <g id="Page-1" stroke="none" stroke-width="1" fill="none" fill-rule="evenodd">
        <g id="website-community-alt3" transform="translate(-1064.000000, -843.000000)" fill-rule="nonzero">
            <g id="icon-illustration-code" transform="translate(1064.000000, 843.000000)">
                <g id="Group-44">
                    <path d="M15.7065726,-9.09494702e-13 L31.1458548,-9.09494702e-13 L31.1458548,12.7109712 C31.1458548,13.9746574 32.1614155,14.9990774 33.4141731,14.9990774 L71.1314972,14.9990774 L71.1314972,50.4709984 C71.1314972,52.4200122 69.5651733,54 67.6330149,54 L3.49848228,54 C1.5666959,53.9990943 0.000897879008,52.4196369 0,50.4709984 L0,3.52900157 C0.000897879008,1.5803631 1.5666959,0.000905711728 3.49848228,-9.09494702e-13 L68.4702242,-9.09494702e-13 C70.4020106,0.000905711728 71.9678086,1.5803631 71.9687065,3.52900157 L71.9687065,50.4709984 C71.9678086,52.4196369 70.4020106,53.9990943 68.4702242,54 L4.33569158,54 C2.40353317,54 0.837209302,52.4200122 0.837209302,50.4709984 L0.837209302,14.9990774 L13.4382543,14.9990774 C14.6910119,14.9990774 15.7065726,13.9746574 15.7065726,12.7109712 L15.7065726,-9.09494702e-13 Z" id="Path" fill="url(#linearGradient-1)"></path>
                    <path d="M71.1314972,50.5664728 C71.1314972,52.5154866 69.5651733,54.0954744 67.6330149,54.0954744 L3.49848228,54.0954744 C1.5666959,54.0945687 0.000897879008,52.5151113 0,50.5664728 L0,13 L72,13 L71.9687065,50.5664728 C71.9678086,52.5151113 70.4020106,54.0945687 68.4702242,54.0954744 L4.33569158,54.0954744 C2.40353317,54.0954744 0.837209302,52.5154866 0.837209302,50.5664728 L71.1314972,50.5664728 Z" id="Path-Copy-4" fill="url(#linearGradient-2)"></path>
                    <path d="M28.8994949,40.5563492 C29.6805435,41.3373978 29.6805435,42.6037277 28.8994949,43.3847763 C28.1184464,44.1658249 26.8521164,44.1658249 26.0710678,43.3847763 L17.5857864,34.8994949 C16.8047379,34.1184464 16.8047379,32.8521164 17.5857864,32.0710678 L26.0710678,23.5857864 C26.8521164,22.8047379 28.1184464,22.8047379 28.8994949,23.5857864 C29.6805435,24.366835 29.6805435,25.633165 28.8994949,26.4142136 L21.8284271,33.4852814 L28.8994949,40.5563492 Z M51.1421356,33.4852814 L44.0710678,26.4142136 C43.2900192,25.633165 43.2900192,24.366835 44.0710678,23.5857864 C44.8521164,22.8047379 46.1184464,22.8047379 46.8994949,23.5857864 L55.3847763,32.0710678 C56.1658249,32.8521164 56.1658249,34.1184464 55.3847763,34.8994949 L46.8994949,43.3847763 C46.1184464,44.1658249 44.8521164,44.1658249 44.0710678,43.3847763 C43.2900192,42.6037277 43.2900192,41.3373978 44.0710678,40.5563492 L51.1421356,33.4852814 Z" id="Combined-Shape" fill="#FFFFFF"></path>
                </g>
            </g>
        </g>
    </g>
</svg>